<svg width="155" height="56" viewBox="0 0 155 56" fill="none" xmlns="http://www.w3.org/2000/svg">
<path d="M7.04889 33.9258C7.63269 34.6703 8.21649 35.4148 8.80029 36.1539C8.92883 36.3146 8.94495 36.4699 8.84854 36.652C8.6343 37.059 8.4254 37.4661 8.22187 37.8785C7.68628 38.9658 7.17747 40.0637 6.62046 41.1403C6.18127 41.9919 5.82239 42.8756 5.71527 43.8129C5.5653 45.1251 5.65102 46.4426 6.14377 47.6906C6.96858 49.774 8.31291 51.429 10.2785 52.543C10.6856 52.7734 10.6749 52.768 10.9373 52.3663C12.1531 50.5132 13.3689 48.66 14.5954 46.8122C14.9971 46.207 15.4042 45.5964 15.8005 44.9858L7.04889 33.9258Z" fill="#2EA2D0"/>
<path d="M18.452 31.8671C17.8575 30.5656 17.0863 29.3391 16.3525 28.1019C15.5598 26.7682 14.7136 25.4614 13.8941 24.1438C13.0961 22.8584 12.2981 21.573 11.5001 20.2876C10.6913 18.9914 9.88254 17.6953 9.0738 16.3938C8.41502 15.328 7.77229 14.2568 7.11351 13.191C6.36368 11.9805 5.60851 10.7754 4.85332 9.57036C4.37664 8.80981 3.90536 8.04927 3.41797 7.2673C3.34298 7.31015 3.31085 7.32086 3.28943 7.34764C2.56102 8.27422 1.96646 9.28113 1.48978 10.3577C0.997035 11.4664 0.59534 12.6125 0.418594 13.8176C0.263272 14.8727 0.0972539 15.9332 0.0329827 16.999C-0.0420003 18.1613 0.00619523 19.3342 0.225788 20.4857C0.402534 21.3909 0.547139 22.3068 0.75602 23.2066C0.884563 23.7689 1.06136 24.3206 1.28096 24.8562C1.70408 25.8952 2.1325 26.9343 2.63596 27.9358C3.27331 29.1998 4.15704 30.3032 5.04613 31.4065C5.72097 32.242 6.3851 33.0882 7.04924 33.9291L15.7473 45.0802C16.54 43.859 17.3487 42.5308 17.9646 41.2025C18.5056 40.0402 18.9341 38.8459 19.1751 37.5712C19.55 35.5734 19.2769 33.6667 18.452 31.8671Z" fill="#4062C6"/>
<path d="M39.9522 16.0837C39.9147 15.3285 39.8129 14.6697 39.679 13.9145C39.6576 13.802 39.6308 13.6896 39.6094 13.5717C39.5451 13.1915 39.422 12.7094 39.3149 12.3452C38.9132 11.0116 38.399 9.72081 37.6652 8.52644C37.3545 8.02298 37.0011 7.54095 36.6369 7C35.8978 8.1783 35.2068 9.2602 34.5266 10.3528C33.6965 11.6864 32.8824 13.0308 32.0575 14.3698C31.3988 15.4356 30.7347 16.5014 30.0759 17.5673C29.2832 18.8473 28.4905 20.1274 27.6925 21.4021C26.9533 22.5858 26.1821 23.7534 25.4697 24.9531L31.0935 36.4041C31.072 36.2862 31.0935 36.1684 31.2006 36.0399C31.6398 35.5096 32.0468 34.958 32.47 34.417C33.5786 33.0084 34.6927 31.5998 35.8013 30.1912C36.6904 29.0557 37.4349 27.8239 38.008 26.5063C38.4204 25.5583 38.8275 24.5942 39.106 23.598C39.4113 22.5108 39.5612 21.3807 39.7808 20.2666C40.054 18.8848 40.0218 17.4816 39.9522 16.0837Z" fill="#309ECA"/>
<g opacity="0.55" filter="url(#filter0_d_901_391)">
<path d="M31.0268 36.321L31.9461 35.0541L25.4727 24.9611L31.0268 36.321Z" fill="#121212" fill-opacity="0.8" shape-rendering="crispEdges"/>
</g>
<path d="M32.8553 40.1653C32.6464 39.7315 32.4858 39.2762 32.2769 38.8424C31.9127 38.0818 31.5324 37.3374 31.1575 36.5822C31.1307 36.5233 31.1093 36.4697 31.0985 36.4161L25.4748 24.9652C26.1872 23.7654 26.9584 22.6032 27.6975 21.4142C26.8888 22.7103 26.0372 23.9797 25.2713 25.3026C24.3769 26.8505 23.5307 28.4251 22.7005 30.0051C21.8328 31.6601 21.174 33.3954 20.8045 35.2432C20.3867 37.3481 20.7134 39.3244 21.7525 41.1454C22.6576 42.7254 23.7074 44.2197 24.7036 45.7462C25.582 47.0905 26.4764 48.4188 27.3601 49.7524C28.0082 50.7326 28.6616 51.718 29.3204 52.7142C29.5989 52.5482 29.8613 52.409 30.1024 52.2429C30.3755 52.0608 30.6487 51.868 30.9004 51.6538C32.9678 49.8917 34.2371 47.7332 34.3121 44.9481C34.3442 43.6681 33.9854 42.5005 33.4926 41.3329C33.2891 40.9419 33.0481 40.5616 32.8553 40.1653Z" fill="#4866C2"/>
<path opacity="0.3" d="M15.7071 45.0081L8.94251 36.4225L8.31055 37.7187L15.7071 45.0081Z" fill="#121212" fill-opacity="0.8"/>
<path d="M59.3672 19.6641C59.3672 16.2461 60.2923 13.5254 62.1426 11.502C63.9928 9.47852 66.4993 8.4668 69.6621 8.4668C72.6061 8.4668 74.9759 9.45573 76.7715 11.4336C78.5671 13.4115 79.4648 15.9863 79.4648 19.1582C79.4648 22.5944 78.5443 25.3197 76.7031 27.334C76.2656 27.8079 75.7962 28.2272 75.2949 28.5918L81.2422 32.8574H76.7441L72.7246 29.877C71.6855 30.196 70.5508 30.3555 69.3203 30.3555C66.3125 30.3555 63.9017 29.3665 62.0879 27.3887C60.2741 25.4108 59.3672 22.8359 59.3672 19.6641ZM62.2383 19.4453C62.2383 22.0065 62.89 24.0618 64.1934 25.6113C65.5059 27.1517 67.2148 27.9219 69.3203 27.9219C71.5807 27.9219 73.3535 27.1836 74.6387 25.707C75.9329 24.2214 76.5801 22.1478 76.5801 19.4863C76.5801 16.752 75.9466 14.6419 74.6797 13.1562C73.4219 11.6706 71.6947 10.9277 69.498 10.9277C67.3379 10.9277 65.5879 11.7116 64.248 13.2793C62.9082 14.847 62.2383 16.9023 62.2383 19.4453ZM95.4062 14.8789L89.418 30H86.7109L81.0234 14.8789H83.9492L87.6406 25.6797C87.9414 26.5456 88.1191 27.2702 88.1738 27.8535H88.2422C88.3333 27.0879 88.4928 26.3815 88.7207 25.7344L92.5898 14.8789H95.4062ZM97.6074 9.54688C97.6074 9.07292 97.7669 8.67643 98.0859 8.35742C98.4141 8.0293 98.8151 7.86523 99.2891 7.86523C99.7721 7.86523 100.178 8.02474 100.506 8.34375C100.843 8.66276 101.012 9.0638 101.012 9.54688C101.012 10.0208 100.843 10.4173 100.506 10.7363C100.178 11.0462 99.7721 11.2012 99.2891 11.2012C98.806 11.2012 98.4049 11.0462 98.0859 10.7363C97.7669 10.4173 97.6074 10.0208 97.6074 9.54688ZM97.9219 30V14.8789H100.602V30H97.9219ZM108.08 27.8672V36.959H105.4V14.8789H108.08V17.4902H108.135C109.32 15.5124 111.051 14.5234 113.33 14.5234C115.262 14.5234 116.775 15.2025 117.869 16.5605C118.972 17.9095 119.523 19.7233 119.523 22.002C119.523 24.5176 118.899 26.541 117.65 28.0723C116.411 29.5944 114.738 30.3555 112.633 30.3555C110.691 30.3555 109.192 29.526 108.135 27.8672H108.08ZM108.066 23.7656C108.066 24.9961 108.463 26.0352 109.256 26.8828C110.049 27.7214 111.042 28.1406 112.236 28.1406C113.658 28.1406 114.77 27.5938 115.572 26.5C116.374 25.4062 116.775 23.8932 116.775 21.9609C116.775 20.3294 116.402 19.0534 115.654 18.1328C114.907 17.2031 113.886 16.7383 112.592 16.7383C111.27 16.7383 110.186 17.2077 109.338 18.1465C108.49 19.0853 108.066 20.2884 108.066 21.7559V23.7656ZM123.27 30V7.61914H125.949V30H123.27ZM143.066 23.123H132.484C132.53 24.7363 132.972 25.985 133.811 26.8691C134.649 27.7441 135.82 28.1816 137.324 28.1816C139.02 28.1816 140.574 27.6393 141.986 26.5547V28.9473C140.656 29.8861 138.892 30.3555 136.695 30.3555C134.508 30.3555 132.799 29.6628 131.568 28.2773C130.347 26.8919 129.736 24.9688 129.736 22.5078C129.736 20.1927 130.406 18.2832 131.746 16.7793C133.095 15.2754 134.768 14.5234 136.764 14.5234C138.742 14.5234 140.286 15.1615 141.398 16.4375C142.51 17.7044 143.066 19.4818 143.066 21.7695V23.123ZM140.387 20.9766C140.378 19.6094 140.054 18.5521 139.416 17.8047C138.778 17.0573 137.88 16.6836 136.723 16.6836C135.656 16.6836 134.731 17.0801 133.947 17.873C133.173 18.666 132.685 19.7005 132.484 20.9766H140.387Z" fill="#309ECA"/>
<path d="M49.4474 53V44.2727H54.7145V45.2102H50.5043V48.1591H54.4418V49.0966H50.5043V52.0625H54.7827V53H49.4474ZM56.483 53V46.4545H57.4545V47.4773H57.5398C57.6761 47.1278 57.8963 46.8565 58.2003 46.6634C58.5043 46.4673 58.8693 46.3693 59.2955 46.3693C59.7273 46.3693 60.0866 46.4673 60.3736 46.6634C60.6634 46.8565 60.8892 47.1278 61.0511 47.4773H61.1193C61.2869 47.1392 61.5384 46.8707 61.8736 46.6719C62.2088 46.4702 62.6108 46.3693 63.0795 46.3693C63.6648 46.3693 64.1435 46.5526 64.5156 46.919C64.8878 47.2827 65.0739 47.8494 65.0739 48.6193V53H64.0682V48.6193C64.0682 48.1364 63.9361 47.7912 63.6719 47.5838C63.4077 47.3764 63.0966 47.2727 62.7386 47.2727C62.2784 47.2727 61.9219 47.4119 61.669 47.6903C61.4162 47.9659 61.2898 48.3153 61.2898 48.7386V53H60.267V48.517C60.267 48.1449 60.1463 47.8452 59.9048 47.6179C59.6634 47.3878 59.3523 47.2727 58.9716 47.2727C58.7102 47.2727 58.4659 47.3423 58.2386 47.4815C58.0142 47.6207 57.8324 47.8139 57.6932 48.0611C57.5568 48.3054 57.4886 48.5881 57.4886 48.9091V53H56.483ZM67.049 53V44.2727H68.0547V47.4943H68.1399C68.2138 47.3807 68.3161 47.2358 68.4467 47.0597C68.5803 46.8807 68.7706 46.7216 69.0178 46.5824C69.2678 46.4403 69.6058 46.3693 70.032 46.3693C70.5831 46.3693 71.0689 46.5071 71.4893 46.7827C71.9098 47.0582 72.2379 47.4489 72.4737 47.9545C72.7095 48.4602 72.8274 49.0568 72.8274 49.7443C72.8274 50.4375 72.7095 51.0384 72.4737 51.5469C72.2379 52.0526 71.9112 52.4446 71.4936 52.723C71.076 52.9986 70.5945 53.1364 70.049 53.1364C69.6286 53.1364 69.2919 53.0668 69.0391 52.9276C68.7862 52.7855 68.5916 52.625 68.4553 52.446C68.3189 52.2642 68.2138 52.1136 68.1399 51.9943H68.0206V53H67.049ZM68.0376 49.7273C68.0376 50.2216 68.1101 50.6577 68.255 51.0355C68.3999 51.4105 68.6115 51.7045 68.8899 51.9176C69.1683 52.1278 69.5092 52.233 69.9126 52.233C70.3331 52.233 70.6839 52.1222 70.9652 51.9006C71.2493 51.6761 71.4624 51.375 71.6044 50.9972C71.7493 50.6165 71.8217 50.1932 71.8217 49.7273C71.8217 49.267 71.7507 48.8523 71.6087 48.483C71.4695 48.1108 71.2578 47.8168 70.9737 47.6009C70.6925 47.3821 70.3388 47.2727 69.9126 47.2727C69.5036 47.2727 69.1598 47.3764 68.8814 47.5838C68.603 47.7884 68.3928 48.0753 68.2507 48.4446C68.1087 48.8111 68.0376 49.2386 68.0376 49.7273ZM74.3658 53V46.4545H75.3374V47.4432H75.4055C75.5249 47.1193 75.7408 46.8565 76.0533 46.6548C76.3658 46.4531 76.718 46.3523 77.1101 46.3523C77.1839 46.3523 77.2763 46.3537 77.3871 46.3565C77.4979 46.3594 77.5817 46.3636 77.6385 46.3693V47.392C77.6044 47.3835 77.5263 47.3707 77.4041 47.3537C77.2848 47.3338 77.1584 47.3239 77.0249 47.3239C76.7067 47.3239 76.4226 47.3906 76.1726 47.5241C75.9254 47.6548 75.7294 47.8366 75.5845 48.0696C75.4425 48.2997 75.3714 48.5625 75.3714 48.858V53H74.3658ZM80.7567 53.1534C80.342 53.1534 79.9656 53.0753 79.6275 52.919C79.2894 52.7599 79.021 52.5312 78.8221 52.233C78.6232 51.9318 78.5238 51.5682 78.5238 51.142C78.5238 50.767 78.5977 50.4631 78.7454 50.2301C78.8931 49.9943 79.0906 49.8097 79.3377 49.6761C79.5849 49.5426 79.8576 49.4432 80.1559 49.3778C80.457 49.3097 80.7596 49.2557 81.0636 49.2159C81.4613 49.1648 81.7837 49.1264 82.0309 49.1009C82.2809 49.0724 82.4627 49.0256 82.5763 48.9602C82.6928 48.8949 82.7511 48.7812 82.7511 48.6193V48.5852C82.7511 48.1648 82.636 47.8381 82.4059 47.6051C82.1786 47.3722 81.8335 47.2557 81.3704 47.2557C80.8903 47.2557 80.5138 47.3608 80.2411 47.571C79.9684 47.7812 79.7766 48.0057 79.6658 48.2443L78.7113 47.9034C78.8817 47.5057 79.109 47.196 79.3931 46.9744C79.68 46.75 79.9925 46.5937 80.3306 46.5057C80.6715 46.4148 81.0067 46.3693 81.3363 46.3693C81.5465 46.3693 81.788 46.3949 82.0607 46.446C82.3363 46.4943 82.6019 46.5952 82.8576 46.7486C83.1161 46.902 83.3306 47.1335 83.5011 47.4432C83.6715 47.7528 83.7567 48.1676 83.7567 48.6875V53H82.7511V52.1136H82.6999C82.6317 52.2557 82.5181 52.4077 82.359 52.5696C82.1999 52.7315 81.9883 52.8693 81.7241 52.983C81.4599 53.0966 81.1374 53.1534 80.7567 53.1534ZM80.9102 52.25C81.3079 52.25 81.6431 52.1719 81.9158 52.0156C82.1914 51.8594 82.3988 51.6577 82.538 51.4105C82.68 51.1634 82.7511 50.9034 82.7511 50.6307V49.7102C82.7085 49.7614 82.6147 49.8082 82.4698 49.8509C82.3278 49.8906 82.163 49.9261 81.9755 49.9574C81.7908 49.9858 81.6104 50.0114 81.4343 50.0341C81.261 50.054 81.1204 50.071 81.0124 50.0852C80.7511 50.1193 80.5067 50.1747 80.2795 50.2514C80.055 50.3253 79.8732 50.4375 79.734 50.5881C79.5977 50.7358 79.5295 50.9375 79.5295 51.1932C79.5295 51.5426 79.6587 51.8068 79.9173 51.9858C80.1786 52.1619 80.5096 52.25 80.9102 52.25ZM88.2514 53.1364C87.6378 53.1364 87.1094 52.9915 86.6662 52.7017C86.223 52.4119 85.8821 52.0128 85.6435 51.5043C85.4048 50.9957 85.2855 50.4148 85.2855 49.7614C85.2855 49.0966 85.4077 48.5099 85.652 48.0014C85.8991 47.4901 86.2429 47.0909 86.6832 46.804C87.1264 46.5142 87.6435 46.3693 88.2344 46.3693C88.6946 46.3693 89.1094 46.4545 89.4787 46.625C89.848 46.7955 90.1506 47.0341 90.3864 47.3409C90.6222 47.6477 90.7685 48.0057 90.8253 48.4148H89.8196C89.7429 48.1165 89.5724 47.8523 89.3082 47.6222C89.0469 47.3892 88.6946 47.2727 88.2514 47.2727C87.8594 47.2727 87.5156 47.375 87.2202 47.5795C86.9276 47.7812 86.6989 48.0668 86.5341 48.4361C86.3722 48.8026 86.2912 49.233 86.2912 49.7273C86.2912 50.233 86.3707 50.6733 86.5298 51.0483C86.6918 51.4233 86.919 51.7145 87.2116 51.9219C87.5071 52.1293 87.8537 52.233 88.2514 52.233C88.5128 52.233 88.75 52.1875 88.9631 52.0966C89.1761 52.0057 89.3565 51.875 89.5043 51.7045C89.652 51.5341 89.7571 51.3295 89.8196 51.0909H90.8253C90.7685 51.4773 90.6278 51.8253 90.4034 52.1349C90.1818 52.4418 89.8878 52.6861 89.5213 52.8679C89.1577 53.0469 88.7344 53.1364 88.2514 53.1364ZM95.0398 53.1364C94.4091 53.1364 93.8651 52.9972 93.4077 52.7188C92.9531 52.4375 92.6023 52.0455 92.3551 51.5426C92.1108 51.0369 91.9886 50.4489 91.9886 49.7784C91.9886 49.108 92.1108 48.517 92.3551 48.0057C92.6023 47.4915 92.946 47.0909 93.3864 46.804C93.8295 46.5142 94.3466 46.3693 94.9375 46.3693C95.2784 46.3693 95.6151 46.4261 95.9474 46.5398C96.2798 46.6534 96.5824 46.8381 96.8551 47.0938C97.1278 47.3466 97.3452 47.6818 97.5071 48.0994C97.669 48.517 97.75 49.0312 97.75 49.642V50.0682H92.7045V49.1989H96.7273C96.7273 48.8295 96.6534 48.5 96.5057 48.2102C96.3608 47.9205 96.1534 47.6918 95.8835 47.5241C95.6165 47.3565 95.3011 47.2727 94.9375 47.2727C94.5369 47.2727 94.1903 47.3722 93.8977 47.571C93.608 47.767 93.3849 48.0227 93.2287 48.3381C93.0724 48.6534 92.9943 48.9915 92.9943 49.3523V49.9318C92.9943 50.4261 93.0795 50.8452 93.25 51.1889C93.4233 51.5298 93.6634 51.7898 93.9702 51.9688C94.277 52.1449 94.6335 52.233 95.0398 52.233C95.304 52.233 95.5426 52.196 95.7557 52.1222C95.9716 52.0455 96.1577 51.9318 96.3139 51.7812C96.4702 51.6278 96.5909 51.4375 96.6761 51.2102L97.6477 51.483C97.5455 51.8125 97.3736 52.1023 97.1321 52.3523C96.8906 52.5994 96.5923 52.7926 96.2372 52.9318C95.8821 53.0682 95.483 53.1364 95.0398 53.1364ZM102.791 53V44.2727H108.058V45.2102H103.848V48.1591H107.786V49.0966H103.848V52.0625H108.126V53H102.791ZM115.179 46.4545L112.759 53H111.736L109.315 46.4545H110.406L112.213 51.6705H112.281L114.088 46.4545H115.179ZM119.016 53.1364C118.386 53.1364 117.842 52.9972 117.384 52.7188C116.93 52.4375 116.579 52.0455 116.332 51.5426C116.087 51.0369 115.965 50.4489 115.965 49.7784C115.965 49.108 116.087 48.517 116.332 48.0057C116.579 47.4915 116.923 47.0909 117.363 46.804C117.806 46.5142 118.323 46.3693 118.914 46.3693C119.255 46.3693 119.592 46.4261 119.924 46.5398C120.256 46.6534 120.559 46.8381 120.832 47.0938C121.104 47.3466 121.322 47.6818 121.484 48.0994C121.646 48.517 121.727 49.0312 121.727 49.642V50.0682H116.681V49.1989H120.704C120.704 48.8295 120.63 48.5 120.482 48.2102C120.337 47.9205 120.13 47.6918 119.86 47.5241C119.593 47.3565 119.278 47.2727 118.914 47.2727C118.513 47.2727 118.167 47.3722 117.874 47.571C117.585 47.767 117.362 48.0227 117.205 48.3381C117.049 48.6534 116.971 48.9915 116.971 49.3523V49.9318C116.971 50.4261 117.056 50.8452 117.227 51.1889C117.4 51.5298 117.64 51.7898 117.947 51.9688C118.254 52.1449 118.61 52.233 119.016 52.233C119.281 52.233 119.519 52.196 119.732 52.1222C119.948 52.0455 120.134 51.9318 120.29 51.7812C120.447 51.6278 120.567 51.4375 120.653 51.2102L121.624 51.483C121.522 51.8125 121.35 52.1023 121.109 52.3523C120.867 52.5994 120.569 52.7926 120.214 52.9318C119.859 53.0682 119.46 53.1364 119.016 53.1364ZM123.256 53V46.4545H124.228V47.4432H124.296C124.415 47.1193 124.631 46.8565 124.944 46.6548C125.256 46.4531 125.609 46.3523 126.001 46.3523C126.075 46.3523 126.167 46.3537 126.278 46.3565C126.388 46.3594 126.472 46.3636 126.529 46.3693V47.392C126.495 47.3835 126.417 47.3707 126.295 47.3537C126.175 47.3338 126.049 47.3239 125.915 47.3239C125.597 47.3239 125.313 47.3906 125.063 47.5241C124.816 47.6548 124.62 47.8366 124.475 48.0696C124.333 48.2997 124.262 48.5625 124.262 48.858V53H123.256ZM128.568 55.4545C128.398 55.4545 128.246 55.4403 128.112 55.4119C127.979 55.3864 127.886 55.3608 127.835 55.3352L128.091 54.4489C128.335 54.5114 128.551 54.5341 128.739 54.517C128.926 54.5 129.092 54.4162 129.237 54.2656C129.385 54.1179 129.52 53.8778 129.642 53.5455L129.83 53.0341L127.409 46.4545H128.5L130.307 51.6705H130.375L132.182 46.4545H133.273L130.494 53.9545C130.369 54.2926 130.214 54.5724 130.03 54.794C129.845 55.0185 129.631 55.1847 129.386 55.2926C129.145 55.4006 128.872 55.4545 128.568 55.4545ZM137.025 53.1364C136.434 53.1364 135.915 52.9957 135.469 52.7145C135.026 52.4332 134.68 52.0398 134.43 51.5341C134.183 51.0284 134.059 50.4375 134.059 49.7614C134.059 49.0795 134.183 48.4844 134.43 47.9759C134.68 47.4673 135.026 47.0724 135.469 46.7912C135.915 46.5099 136.434 46.3693 137.025 46.3693C137.616 46.3693 138.133 46.5099 138.576 46.7912C139.022 47.0724 139.369 47.4673 139.616 47.9759C139.866 48.4844 139.991 49.0795 139.991 49.7614C139.991 50.4375 139.866 51.0284 139.616 51.5341C139.369 52.0398 139.022 52.4332 138.576 52.7145C138.133 52.9957 137.616 53.1364 137.025 53.1364ZM137.025 52.233C137.474 52.233 137.843 52.1179 138.133 51.8878C138.423 51.6577 138.637 51.3551 138.776 50.9801C138.915 50.6051 138.985 50.1989 138.985 49.7614C138.985 49.3239 138.915 48.9162 138.776 48.5384C138.637 48.1605 138.423 47.8551 138.133 47.6222C137.843 47.3892 137.474 47.2727 137.025 47.2727C136.576 47.2727 136.207 47.3892 135.917 47.6222C135.627 47.8551 135.413 48.1605 135.273 48.5384C135.134 48.9162 135.065 49.3239 135.065 49.7614C135.065 50.1989 135.134 50.6051 135.273 50.9801C135.413 51.3551 135.627 51.6577 135.917 51.8878C136.207 52.1179 136.576 52.233 137.025 52.233ZM142.532 49.0625V53H141.526V46.4545H142.498V47.4773H142.583C142.736 47.1449 142.969 46.8778 143.282 46.6761C143.594 46.4716 143.998 46.3693 144.492 46.3693C144.935 46.3693 145.323 46.4602 145.655 46.642C145.988 46.821 146.246 47.0938 146.431 47.4602C146.615 47.8239 146.708 48.2841 146.708 48.8409V53H145.702V48.9091C145.702 48.3949 145.569 47.9943 145.301 47.7074C145.034 47.4176 144.668 47.2727 144.202 47.2727C143.881 47.2727 143.594 47.3423 143.341 47.4815C143.091 47.6207 142.894 47.8239 142.749 48.0909C142.604 48.358 142.532 48.6818 142.532 49.0625ZM151.29 53.1364C150.659 53.1364 150.115 52.9972 149.658 52.7188C149.203 52.4375 148.852 52.0455 148.605 51.5426C148.361 51.0369 148.239 50.4489 148.239 49.7784C148.239 49.108 148.361 48.517 148.605 48.0057C148.852 47.4915 149.196 47.0909 149.636 46.804C150.08 46.5142 150.597 46.3693 151.188 46.3693C151.528 46.3693 151.865 46.4261 152.197 46.5398C152.53 46.6534 152.832 46.8381 153.105 47.0938C153.378 47.3466 153.595 47.6818 153.757 48.0994C153.919 48.517 154 49.0312 154 49.642V50.0682H148.955V49.1989H152.977C152.977 48.8295 152.903 48.5 152.756 48.2102C152.611 47.9205 152.403 47.6918 152.134 47.5241C151.866 47.3565 151.551 47.2727 151.188 47.2727C150.787 47.2727 150.44 47.3722 150.148 47.571C149.858 47.767 149.635 48.0227 149.479 48.3381C149.322 48.6534 149.244 48.9915 149.244 49.3523V49.9318C149.244 50.4261 149.33 50.8452 149.5 51.1889C149.673 51.5298 149.913 51.7898 150.22 51.9688C150.527 52.1449 150.884 52.233 151.29 52.233C151.554 52.233 151.793 52.196 152.006 52.1222C152.222 52.0455 152.408 51.9318 152.564 51.7812C152.72 51.6278 152.841 51.4375 152.926 51.2102L153.898 51.483C153.795 51.8125 153.624 52.1023 153.382 52.3523C153.141 52.5994 152.842 52.7926 152.487 52.9318C152.132 53.0682 151.733 53.1364 151.29 53.1364Z" fill="#3C5077"/>
<defs>
<filter id="filter0_d_901_391" x="20.015" y="24.9611" width="17.3889" height="22.2752" filterUnits="userSpaceOnUse" color-interpolation-filters="sRGB">
<feFlood flood-opacity="0" result="BackgroundImageFix"/>
<feColorMatrix in="SourceAlpha" type="matrix" values="0 0 0 0 0 0 0 0 0 0 0 0 0 0 0 0 0 0 127 0" result="hardAlpha"/>
<feOffset dy="5.45761"/>
<feGaussianBlur stdDeviation="2.72881"/>
<feComposite in2="hardAlpha" operator="out"/>
<feColorMatrix type="matrix" values="0 0 0 0 0 0 0 0 0 0 0 0 0 0 0 0 0 0 0.25 0"/>
<feBlend mode="normal" in2="BackgroundImageFix" result="effect1_dropShadow_901_391"/>
<feBlend mode="normal" in="SourceGraphic" in2="effect1_dropShadow_901_391" result="shape"/>
</filter>
</defs>
</svg>
