<svg width="76" height="70" viewBox="0 0 76 70" fill="none" xmlns="http://www.w3.org/2000/svg">
<path d="M40.2401 52.36H1.28013C0.560257 52.36 0 52.9203 0 53.6401V58.5201C0 59.24 0.560271 59.8003 1.28013 59.8003H41.1201C40.5599 57.9604 40.3199 56.0403 40.3199 54.0403C40.2401 53.48 40.2401 52.9203 40.2401 52.36L40.2401 52.36Z" fill="white"/>
<path d="M52.401 35.48V25.6401H45.041V41.0001C46.9607 38.6804 49.5209 36.7601 52.401 35.48Z" fill="white"/>
<path d="M32 25.64H39.36V48.76H32V25.64Z" fill="white"/>
<path d="M18.9609 25.64H26.3209V48.76H18.9609V25.64Z" fill="white"/>
<path d="M6 25.64H13.36V48.76H6V25.64Z" fill="white"/>
<path d="M1.27959 22.04H57.1196C57.8395 22.04 58.3997 21.4797 58.3997 20.7599V15.3999C58.3997 14.92 58.1598 14.5198 57.6798 14.2799L29.7598 0.59961C29.4401 0.439453 29.04 0.439453 28.6399 0.59961L0.719872 14.2799C0.319757 14.5199 0 14.92 0 15.3999V20.7599C0 21.4797 0.560271 22.04 1.28013 22.04H1.27959ZM29.1996 7.79999C31.4396 7.79999 33.2794 9.63985 33.2794 11.8799C33.2794 14.1199 31.4396 15.9597 29.1996 15.9597C26.9596 15.9597 25.1197 14.1199 25.1197 11.8799C25.1197 9.63985 26.9596 7.79999 29.1996 7.79999Z" fill="white"/>
<path d="M60.4809 38.52C51.9206 38.52 44.9609 45.4799 44.9609 54.04C44.9609 62.6002 51.9208 69.56 60.4809 69.56C69.0411 69.56 76.0009 62.6002 76.0009 54.04C76.0009 45.4799 69.0411 38.52 60.4809 38.52ZM68.3208 52.0402L60.4011 60.3599C59.9212 60.8398 59.3609 61.0797 58.6411 61.0797C58.001 61.0797 57.361 60.8398 56.8811 60.3599L52.4012 55.64C51.5212 54.6802 51.5212 53.1602 52.481 52.28C53.4409 51.4 54.9609 51.4 55.841 52.3598L58.5609 55.2398L64.721 48.76C65.601 47.8001 67.1212 47.8001 68.081 48.6802C69.1212 49.5602 69.201 51.0797 68.321 52.0402H68.3208Z" fill="white"/>
</svg>
