<svg width="1557" height="1050" viewBox="0 0 1557 1050" fill="none" xmlns="http://www.w3.org/2000/svg">
<g opacity="0.570007">
<g opacity="0.649994">
<path d="M1323.83 571.801C1323.83 571.801 1228.75 630.015 1261.74 756.147C1294.73 882.278 1479.07 847.349 1543.11 711.515C1607.14 575.682 1435.4 498.427 1323.83 571.801Z" fill="#1F1D2B"/>
</g>
<g opacity="0.649994">
<path d="M776.925 1037.23C776.925 1037.23 1303.77 958.645 1233.91 737.429C1164.05 516.214 1427.63 528.181 1399.17 353.538C1358.49 103.88 1114.57 306.642 887.532 94.1597C735.793 -47.851 457.897 -49.659 381.065 242.606C304.236 534.873 98.7267 484.197 84.1733 711.233C69.62 938.269 381.065 1083.81 628.477 906.252C875.889 728.698 776.925 1037.23 776.925 1037.23Z" fill="#1C023B"/>
</g>
<g opacity="0.649994">
<path d="M81.2631 162.077C81.2631 162.077 -13.8209 220.291 19.1671 346.422C52.1551 472.554 236.502 437.626 300.538 301.791C364.572 165.958 156.942 113.565 81.2631 162.077Z" fill="#1F1D2B"/>
</g>
</g>
<path d="M471.178 436.834C471.178 436.834 436.413 445.178 398.971 476.083C388.587 484.655 362.627 516.197 360.419 518.889C354.814 519.566 316.465 524.302 304.07 528.313C257.877 543.257 251.261 559.346 234.666 571.209C229.401 574.973 226.082 580.691 229.347 586.279L311.863 725.646C314.582 730.298 320.387 732.129 325.282 729.877L445.267 672.894L445.365 672.778L557.494 602.369C562.027 599.453 563.605 593.574 561.146 588.781L484.763 442.269C481.809 436.51 476.371 432.971 471.178 436.834Z" fill="#2D4470"/>
<path d="M445.182 672.784L445.292 672.66L557.422 602.253C561.914 599.366 563.464 593.597 561.024 588.844L484.642 442.332C482.762 438.668 480.056 436.189 477.217 435.529C475.168 435.05 473.162 435.528 471.26 436.942L471.21 436.966C470.862 437.049 436.044 445.66 399.057 476.189C388.749 484.7 363.384 515.492 360.525 518.974L360.49 519.017L360.436 519.024C355.985 519.562 316.589 524.406 304.112 528.444C270.077 539.454 257.638 551.001 246.664 561.189C242.778 564.796 239.109 568.2 234.746 571.32C229.976 574.729 226.089 580.429 229.465 586.209L311.982 725.576C314.678 730.19 320.373 731.984 325.225 729.752L445.182 672.784ZM560.613 599.529C559.832 600.676 558.81 601.688 557.569 602.484L445.457 672.881L445.326 673.018L325.341 730C320.358 732.293 314.513 730.45 311.746 725.714L229.23 586.349C225.76 580.409 229.72 574.576 234.586 571.097C238.936 567.988 242.598 564.588 246.476 560.988C257.472 550.781 269.934 539.212 304.029 528.182C316.48 524.154 355.637 519.33 360.349 518.758C363.376 515.072 388.596 484.47 398.884 475.978C435.477 445.773 469.96 436.993 471.118 436.706C473.084 435.253 475.156 434.766 477.28 435.261C480.197 435.94 482.969 438.47 484.886 442.205L561.266 588.717C563.1 592.286 562.742 596.41 560.613 599.529Z" fill="#2D4470"/>
<path d="M438.571 676.702L451.553 669.758L365.509 513.066C365.509 513.066 361.585 518.802 353.13 520.614L438.571 676.702Z" fill="#1E2B47"/>
<path d="M438.626 676.517L451.367 669.702L365.491 513.32C364.747 514.296 360.797 519.049 353.338 520.709L438.626 676.517ZM451.741 669.813L451.618 669.878L438.515 676.886L438.45 676.768L352.922 520.518L353.102 520.48C361.399 518.701 365.357 513.045 365.394 512.989L365.522 512.804L365.629 513L451.741 669.813Z" fill="#1E2B47"/>
<path d="M470.877 447.288C470.877 447.288 407.5 470.189 362.401 522.537C294.253 532.533 241.121 573.448 241.121 573.448L320.524 719.874C332.51 709.601 426.08 672.629 441.365 668.008L441.51 668.269C441.605 668.153 441.734 668.01 441.881 667.854C442.498 667.677 442.957 667.565 443.218 667.536L442.86 666.876C451.754 658.372 496.838 622.225 551.622 592.98L470.877 447.288Z" fill="#CEB1A2"/>
<path d="M316.086 537.113C316.086 537.113 302.406 518.924 305.758 502.828C305.948 501.912 306.969 501.436 307.786 501.891L312.04 504.253L315.908 499.955C316.684 499.092 318.113 499.509 318.289 500.656C319.477 508.3 323.813 529.437 328.797 532.323L316.086 537.113Z" fill="#EC3F2F"/>
<path d="M316.182 536.788L328.216 532.253C323.285 528.376 319.208 508.324 318.022 500.697C317.956 500.266 317.668 499.936 317.25 499.812C316.83 499.686 316.404 499.808 316.108 500.136L312.097 504.593L307.654 502.126C307.344 501.954 306.98 501.94 306.656 502.089C306.326 502.24 306.096 502.526 306.024 502.882C302.901 517.873 314.848 534.942 316.182 536.788ZM329.426 532.374L315.99 537.438L315.869 537.277C315.732 537.093 302.154 518.804 305.492 502.772C305.602 502.246 305.944 501.82 306.432 501.596C306.913 501.376 307.456 501.398 307.918 501.653L311.982 503.912L315.706 499.773C316.138 499.294 316.789 499.11 317.405 499.293C318.017 499.477 318.458 499.981 318.556 500.614C319.684 507.873 324.01 529.24 328.933 532.089L329.426 532.374Z" fill="#EC3F2F"/>
<g opacity="0.759995">
<path d="M318.15 534.184C317.187 532.748 316.019 531.469 315.118 529.989C314.271 528.607 313.555 527.148 312.933 525.652C311.67 522.619 310.805 519.444 309.985 516.268C309.647 514.968 307.587 515.349 307.926 516.657C308.791 520.003 309.709 523.355 311.039 526.549C311.681 528.091 312.423 529.593 313.301 531.015C314.283 532.603 315.515 533.992 316.553 535.539C317.302 536.659 318.893 535.292 318.15 534.184Z" fill="#EC3F2F"/>
<path d="M308.691 511.665C308.58 510.607 308.47 509.549 308.36 508.491C308.334 508.237 308.124 507.959 307.922 507.82C307.71 507.676 307.391 507.597 307.136 507.657C306.874 507.719 306.612 507.859 306.466 508.096C306.314 508.343 306.272 508.591 306.302 508.88C306.412 509.939 306.522 510.996 306.632 512.055C306.659 512.307 306.868 512.585 307.071 512.724C307.283 512.869 307.602 512.948 307.855 512.888C308.119 512.827 308.38 512.687 308.527 512.449C308.679 512.203 308.72 511.953 308.691 511.665Z" fill="#EC3F2F"/>
</g>
<path d="M247.16 574.354C250.867 564.225 252.745 565.154 260.853 558.039C268.944 550.938 275.489 546.39 285.201 541.747C294.153 537.466 305.885 532.875 315.612 530.909C331.336 527.731 345.685 525.011 361.584 522.878L438.873 666.738C438.873 666.738 328.024 677.415 322.793 713.315L247.16 574.354Z" fill="#F7F0ED"/>
<path d="M247.931 574.617C249.081 571.502 250.351 568.257 252.723 565.849C254.995 563.54 257.776 561.733 260.241 559.642C263.499 556.88 266.7 554.078 270.152 551.556C273.479 549.126 276.972 546.942 280.599 544.989C288.133 540.936 296.129 537.59 304.236 534.872C312.763 532.013 321.633 530.492 330.449 528.818C340.835 526.849 351.258 525.089 361.736 523.678C361.44 523.528 361.144 523.377 360.848 523.228C361.537 524.51 362.228 525.794 362.916 527.078C364.792 530.57 366.669 534.062 368.545 537.556C371.321 542.72 374.096 547.885 376.87 553.05C380.239 559.321 383.608 565.59 386.976 571.861C390.682 578.76 394.391 585.66 398.097 592.561C401.84 599.526 405.583 606.493 409.325 613.458L419.793 632.946C422.743 638.434 425.692 643.924 428.641 649.414C430.761 653.36 432.881 657.305 435.003 661.252C435.659 662.474 436.315 663.697 436.971 664.918C437.304 665.537 437.588 666.273 438.005 666.841C438.059 666.914 438.095 667.008 438.137 667.089C438.332 666.704 438.527 666.321 438.723 665.937C434.963 666.301 431.212 666.786 427.469 667.293C418.42 668.517 409.403 670.002 400.444 671.778C389.329 673.982 378.277 676.621 367.475 680.058C357.409 683.261 347.32 687.085 338.356 692.75C331.668 696.978 324.825 702.701 322.551 710.604C322.3 711.476 322.115 712.364 321.98 713.258C322.496 713.161 323.012 713.064 323.528 712.966C322.856 711.73 322.183 710.494 321.512 709.258C319.681 705.897 317.849 702.534 316.02 699.17C313.297 694.169 310.575 689.166 307.852 684.164C304.545 678.089 301.239 672.013 297.932 665.937C294.311 659.284 290.689 652.63 287.068 645.976C283.412 639.258 279.756 632.541 276.099 625.824C272.689 619.56 269.28 613.294 265.871 607.03C262.975 601.709 260.079 596.389 257.184 591.069C255.112 587.264 253.041 583.458 250.969 579.652C249.988 577.849 249.035 576.028 248.024 574.238C247.98 574.161 247.939 574.082 247.896 574.004C247.396 573.086 245.923 573.781 246.424 574.702C247.097 575.938 247.768 577.174 248.441 578.41C250.272 581.772 252.101 585.136 253.932 588.498C256.655 593.5 259.377 598.502 262.1 603.505L272.02 621.732C275.641 628.385 279.263 635.038 282.884 641.694C286.541 648.41 290.197 655.128 293.852 661.845C297.263 668.11 300.672 674.374 304.081 680.641C306.977 685.96 309.873 691.28 312.769 696.6C314.84 700.405 316.911 704.21 318.983 708.017C319.963 709.82 320.919 711.644 321.929 713.43C321.972 713.508 322.015 713.588 322.056 713.665C322.459 714.402 323.484 714.18 323.605 713.372C324.776 705.564 331.004 699.692 337.211 695.436C345.684 689.63 355.471 685.748 365.165 682.51C375.824 678.952 386.766 676.252 397.766 673.982C406.965 672.086 416.232 670.508 425.532 669.201C428.532 668.781 431.536 668.388 434.544 668.033C435.955 667.868 437.448 667.838 438.84 667.557C438.9 667.545 438.963 667.544 439.024 667.538C439.535 667.489 439.843 666.822 439.609 666.389C438.92 665.105 438.231 663.821 437.54 662.538C435.664 659.046 433.788 655.553 431.911 652.061L423.587 636.565C420.219 630.296 416.849 624.026 413.48 617.756C409.775 610.856 406.066 603.956 402.359 597.056L391.132 576.157C387.641 569.661 384.152 563.166 380.663 556.67C377.713 551.181 374.764 545.693 371.815 540.202C369.695 536.257 367.576 532.312 365.456 528.365C364.456 526.502 363.483 524.621 362.453 522.774C362.407 522.693 362.364 522.61 362.32 522.529C362.14 522.193 361.807 522.028 361.432 522.077C351.927 523.357 342.463 524.922 333.033 526.676C323.984 528.36 314.788 529.834 305.995 532.601C297.625 535.236 289.411 538.601 281.609 542.62C274.169 546.45 267.412 551.265 261.1 556.742C259.312 558.294 257.504 559.812 255.637 561.27C254.368 562.264 253.068 563.236 251.912 564.365C249.176 567.034 247.692 570.558 246.389 574.089C246.025 575.073 247.568 575.602 247.931 574.617Z" fill="#F7F0ED"/>
<path d="M534.251 593.746C520.672 599.447 507.654 606.426 495.367 614.543C482.978 622.73 471.356 632.081 460.715 642.439C454.792 648.203 449.179 654.281 443.891 660.63C443.22 661.437 444.57 662.349 445.236 661.55C454.611 650.294 465.043 639.937 476.347 630.623C487.655 621.31 499.819 613.047 512.654 605.987C519.89 602.006 527.335 598.415 534.95 595.218C535.919 594.811 535.216 593.341 534.251 593.746Z" fill="#F7F0ED"/>
<path d="M442.041 667.284C453.643 655.952 466.004 645.399 478.86 635.52C492.213 625.257 506.127 615.699 520.62 607.115C528.328 602.55 536.204 598.266 544.277 594.378C545.224 593.923 544.523 592.451 543.577 592.906C528.919 599.969 514.888 608.306 501.371 617.352C487.363 626.725 473.887 636.91 461.036 647.819C454.151 653.665 447.449 659.729 440.988 666.041C440.24 666.771 441.292 668.017 442.041 667.284Z" fill="#F7F0ED"/>
<path d="M325.928 710.194C331.071 704.686 337.615 700.882 344.207 697.373C350.522 694.01 356.976 690.914 363.55 688.089C376.692 682.439 390.299 677.882 404.195 674.481C411.972 672.575 419.839 671.039 427.759 669.861C428.798 669.706 428.494 668.106 427.456 668.259C413.171 670.386 399.074 673.699 385.338 678.159C371.662 682.599 358.352 688.161 345.599 694.801C338.182 698.661 330.643 702.775 324.875 708.951C324.167 709.71 325.215 710.959 325.928 710.194Z" fill="#F7F0ED"/>
<path d="M324.22 714.072C338.145 705.352 352.894 697.977 367.977 691.486C383.768 684.689 399.982 678.854 416.474 674.004C425.168 671.448 433.945 669.17 442.798 667.237C443.822 667.013 443.524 665.412 442.496 665.636C426.353 669.162 410.454 673.806 394.862 679.272C378.652 684.956 362.734 691.552 347.376 699.261C339.23 703.348 331.246 707.762 323.522 712.6C322.641 713.15 323.333 714.626 324.22 714.072Z" fill="#F7F0ED"/>
<path d="M469.693 452.498C477.042 466.453 484.39 480.407 491.74 494.362C499.089 508.317 506.438 522.271 513.786 536.226C517.937 544.106 522.085 551.985 526.234 559.862C526.722 560.789 528.196 560.093 527.706 559.165C520.357 545.209 513.008 531.254 505.66 517.299C498.31 503.345 490.961 489.39 483.612 475.435C479.464 467.557 475.314 459.678 471.165 451.799C470.676 450.871 469.204 451.569 469.693 452.498Z" fill="#F7F0ED"/>
<path d="M466.725 453.234C456.193 450.912 455.967 452.996 445.607 456.005C435.269 459.008 427.917 462.08 418.777 467.769C410.355 473.016 400.173 480.437 393.285 487.58C382.149 499.126 372.613 509.942 362.263 522.198L439.703 667.116C439.703 667.116 513.275 577.724 546.355 592.62L466.725 453.234Z" fill="#F7F0ED"/>
<path d="M466.99 452.464C463.99 451.809 460.907 451.209 457.824 451.513C455.395 451.753 453.094 452.66 450.807 453.466C447.034 454.797 443.168 455.826 439.375 457.1C435.343 458.453 431.39 460.033 427.574 461.912C419.615 465.828 412.134 470.856 405.088 476.22C401.422 479.012 397.858 481.96 394.546 485.168C390.996 488.606 387.656 492.284 384.302 495.912C376.516 504.329 368.99 512.981 361.591 521.74C361.416 521.945 361.406 522.318 361.527 522.548C362.218 523.84 362.907 525.13 363.596 526.421L369.23 536.96C372.006 542.156 374.782 547.352 377.559 552.548C380.947 558.888 384.335 565.228 387.723 571.569C391.435 578.514 395.146 585.46 398.856 592.405C402.604 599.417 406.351 606.429 410.098 613.44C413.592 619.978 417.086 626.517 420.58 633.054C423.534 638.582 426.487 644.109 429.44 649.636C431.566 653.612 433.688 657.588 435.814 661.562C436.82 663.448 437.798 665.352 438.836 667.22C438.882 667.301 438.924 667.382 438.967 667.465C439.276 668.042 439.98 668.057 440.376 667.576C442.807 664.621 445.332 661.741 447.867 658.877C454.05 651.894 460.427 645.084 467.002 638.47C475.191 630.232 483.691 622.276 492.692 614.928C501.142 608.03 510.096 601.462 519.96 596.722C527.071 593.305 535.739 590.224 543.66 592.501C544.491 592.74 545.3 593.04 546.09 593.39C546.716 593.669 547.427 592.861 547.09 592.27C546.382 591.03 545.674 589.79 544.964 588.549L539.18 578.425C536.327 573.432 533.475 568.437 530.623 563.444C527.124 557.321 523.626 551.197 520.127 545.072C516.311 538.394 512.498 531.717 508.683 525.041C504.832 518.3 500.982 511.561 497.131 504.822C493.542 498.537 489.952 492.252 486.36 485.968C483.327 480.656 480.292 475.344 477.258 470.032C475.074 466.209 472.891 462.388 470.707 458.565C469.671 456.752 468.655 454.925 467.598 453.124C467.552 453.044 467.508 452.964 467.462 452.885C466.944 451.978 465.47 452.673 465.991 453.584C466.698 454.825 467.407 456.064 468.116 457.304C470.044 460.68 471.972 464.056 473.9 467.43C476.752 472.422 479.604 477.416 482.458 482.409L492.954 500.782C496.768 507.46 500.582 514.136 504.398 520.813C508.247 527.553 512.098 534.293 515.948 541.033C519.538 547.317 523.128 553.602 526.719 559.886C529.752 565.2 532.788 570.51 535.823 575.824C538.007 579.645 540.188 583.466 542.372 587.288C543.056 588.484 543.739 589.678 544.42 590.873C544.762 591.47 545.059 592.186 545.482 592.73C545.536 592.801 545.574 592.892 545.618 592.969C545.952 592.596 546.284 592.221 546.618 591.849C539.103 588.5 530.426 590.55 523.148 593.52C513.162 597.594 504.096 603.898 495.631 610.497C486.319 617.76 477.574 625.74 469.166 634.024C462.062 641.021 455.199 648.265 448.543 655.69C446.387 658.096 444.252 660.521 442.148 662.972C441.486 663.742 440.827 664.516 440.172 665.292C439.851 665.672 439.4 666.072 439.155 666.508C439.124 666.561 439.071 666.609 439.03 666.657C439.5 666.694 439.97 666.73 440.44 666.768C439.75 665.476 439.06 664.185 438.371 662.894C436.494 659.381 434.616 655.869 432.74 652.356C429.962 647.158 427.184 641.962 424.408 636.768C421.02 630.426 417.631 624.086 414.244 617.746C410.532 610.801 406.822 603.856 403.111 596.909C399.363 589.898 395.618 582.886 391.87 575.876C388.375 569.336 384.882 562.798 381.387 556.26C378.434 550.732 375.48 545.206 372.527 539.68C370.403 535.704 368.279 531.728 366.154 527.752C365.492 526.514 364.831 525.276 364.17 524.038C363.834 523.41 363.547 522.674 363.13 522.096C363.078 522.021 363.042 521.929 363 521.85C362.979 522.118 362.958 522.388 362.936 522.658C369.407 514.997 375.971 507.413 382.735 500.008C389.107 493.028 395.47 486.006 402.839 480.052C409.731 474.484 417.128 469.354 424.918 465.121C428.494 463.178 432.191 461.476 435.994 460.029C440.011 458.498 444.136 457.365 448.224 456.05C451.035 455.145 453.806 453.896 456.714 453.324C459.952 452.686 463.286 453.312 466.462 454.005C467.474 454.226 468.016 452.688 466.99 452.464Z" fill="#F7F0ED"/>
<g opacity="0.419998">
<path d="M361.441 523.649C361.441 523.649 397.384 602.826 391.473 629.754C383.321 666.889 339.395 691.797 339.395 691.797C339.395 691.797 415.173 659.794 438.873 666.738L361.441 523.649Z" fill="#DECEC7"/>
</g>
<g opacity="0.419998">
<path d="M364.223 517.321C364.223 517.321 412.967 589.328 439.016 598.353C474.941 610.798 519.127 586.35 519.127 586.35C519.127 586.35 452.253 634.254 445.796 658.092L364.223 517.321Z" fill="#DECEC7"/>
</g>
<g opacity="0.460007">
<path d="M263.069 580.143C263.86 578.738 264.839 577.596 265.887 576.551C266.391 576.002 266.968 575.552 267.508 575.052C268.075 574.588 268.66 574.152 269.239 573.706C269.851 573.306 270.448 572.884 271.072 572.502C271.717 572.148 272.331 571.748 273.012 571.447C274.34 570.79 275.733 570.227 277.316 569.926L277.428 570.082C275.101 571.852 272.715 573.539 270.36 575.27C267.967 576.944 265.604 578.666 263.181 580.299L263.069 580.143Z" fill="#659EEA"/>
<path d="M286.729 565.663L288.718 564.3L290.742 562.985L294.863 560.469L299.099 558.148C300.531 557.413 301.985 556.715 303.427 555.996C304.889 555.315 306.354 554.644 307.833 554L312.306 552.155L316.85 550.489L321.442 548.955L326.091 547.611C327.654 547.208 329.211 546.781 330.778 546.401L335.506 545.376C337.089 545.065 338.677 544.788 340.266 544.516C341.862 544.288 343.453 544.032 345.05 543.828L349.855 543.331L354.675 543.056C356.283 542.992 357.893 542.969 359.499 542.975L359.517 543.167C346.791 544.388 334.202 546.959 322.014 550.792C309.807 554.565 297.987 559.604 286.822 565.831L286.729 565.663Z" fill="#659EEA"/>
<path d="M272.188 598.833L273.308 597.221L274.48 595.641L276.972 592.589L279.676 589.715C280.618 588.799 281.593 587.912 282.554 587.007C283.552 586.145 284.558 585.292 285.583 584.46L288.75 582.08C289.841 581.335 290.954 580.621 292.056 579.891L295.461 577.859L298.985 576.04C300.188 575.491 301.378 574.917 302.589 574.391L306.282 572.957C307.53 572.525 308.788 572.124 310.045 571.729C311.322 571.391 312.588 571.028 313.865 570.713L317.733 569.935L321.64 569.425C322.946 569.301 324.256 569.217 325.56 569.161L325.59 569.353C315.35 570.977 305.43 574.48 296.396 579.54C287.332 584.543 279.12 591.12 272.333 598.96L272.188 598.833Z" fill="#659EEA"/>
<path d="M339.836 567.224C341.737 565.948 343.729 564.984 345.755 564.132C346.759 563.673 347.799 563.335 348.819 562.935C349.853 562.579 350.897 562.253 351.936 561.919C352.992 561.637 354.04 561.329 355.103 561.069C356.176 560.843 357.233 560.564 358.323 560.396C360.485 560.004 362.681 559.72 364.969 559.747L365.024 559.931L352.485 563.761L339.892 567.409L339.836 567.224Z" fill="#659EEA"/>
<path d="M296.463 632.598C298.148 631.146 299.814 629.654 301.583 628.302L304.212 626.232C305.094 625.547 305.998 624.894 306.891 624.222C310.511 621.608 314.266 619.184 318.068 616.83C325.719 612.191 333.776 608.211 342.091 604.88C350.431 601.618 358.982 598.85 367.744 597.015C372.115 596.052 376.519 595.3 380.922 594.632C383.131 594.342 385.343 594.072 387.552 593.814C389.76 593.542 391.974 593.319 394.191 593.126L394.224 593.315C385.472 594.807 376.707 596.276 368.104 598.466C359.488 600.59 351.044 603.383 342.806 606.668C334.551 609.919 326.551 613.804 318.808 618.134C311.079 622.494 303.662 627.402 296.579 632.75L296.463 632.598Z" fill="#659EEA"/>
<path d="M306.506 646.658C308.243 644.618 310.231 642.883 312.325 641.302C313.357 640.486 314.462 639.786 315.543 639.043C316.651 638.344 317.785 637.687 318.919 637.031C320.082 636.43 321.241 635.819 322.426 635.263C323.631 634.744 324.817 634.188 326.058 633.754C328.515 632.834 331.043 632.082 333.695 631.703L333.77 631.882C329.011 633.914 324.362 636.198 319.846 638.718C315.299 641.183 310.881 643.886 306.615 646.816L306.506 646.658Z" fill="#659EEA"/>
<path d="M348.621 627.532L350.061 626.828L351.52 626.18L354.436 624.892C356.398 624.084 358.365 623.294 360.349 622.563C362.322 621.794 364.33 621.142 366.322 620.43L372.35 618.474C374.377 617.88 376.397 617.26 378.429 616.686C380.474 616.147 382.502 615.554 384.564 615.072C386.614 614.554 388.684 614.095 390.758 613.654C392.856 613.286 394.92 612.814 397.046 612.542L397.104 612.726L372.92 620.312L348.677 627.716L348.621 627.532Z" fill="#659EEA"/>
<path d="M352.033 663.674C352.896 662.012 354.213 660.677 355.648 659.576C356.353 658.996 357.139 658.55 357.905 658.073C358.695 657.64 359.508 657.26 360.323 656.888C361.163 656.576 361.996 656.257 362.849 656.002C363.716 655.786 364.567 655.533 365.453 655.41C367.209 655.109 369.004 654.988 370.844 655.248L370.891 655.434C367.552 656.316 364.235 657.306 361.064 658.664C359.472 659.318 357.911 660.056 356.413 660.905C354.921 661.76 353.481 662.713 352.161 663.818L352.033 663.674Z" fill="#659EEA"/>
<path d="M379.161 653.801C381.633 652.595 384.172 651.707 386.732 650.934C388.006 650.515 389.305 650.217 390.59 649.858C391.886 649.543 393.189 649.262 394.489 648.967C395.8 648.729 397.105 648.463 398.421 648.247C399.745 648.065 401.056 647.829 402.392 647.707C405.049 647.403 407.73 647.213 410.477 647.337L410.517 647.526L394.877 650.851L379.2 653.99L379.161 653.801Z" fill="#659EEA"/>
<path d="M383.93 525.757C384.56 524.049 385.48 522.566 386.516 521.19C387.015 520.48 387.607 519.861 388.162 519.202C388.75 518.58 389.368 517.986 389.983 517.389C390.639 516.838 391.284 516.273 391.964 515.752C392.671 515.26 393.346 514.733 394.099 514.305C395.568 513.404 397.131 512.626 398.888 512.158L399.004 512.313C396.356 514.396 393.746 516.524 391.278 518.813C388.764 521.053 386.399 523.45 384.072 525.886L383.93 525.757Z" fill="#659EEA"/>
<path d="M408.768 504.433C410.438 502.453 412.3 500.668 414.136 498.837L417.028 496.248C418.016 495.412 419.032 494.61 420.034 493.789C421.058 492.996 422.09 492.212 423.137 491.45L426.332 489.232C427.417 488.524 428.522 487.848 429.62 487.156L432.972 485.181L436.413 483.365C437.578 482.797 438.733 482.206 439.906 481.657L443.472 480.105C444.67 479.612 445.881 479.149 447.093 478.69C448.318 478.269 449.532 477.822 450.762 477.424L454.484 476.322C457.006 475.718 459.502 475.07 462.064 474.684L462.12 474.869C452.306 477.806 442.832 481.845 433.91 486.862C424.96 491.822 416.546 497.766 408.897 504.576L408.768 504.433Z" fill="#659EEA"/>
<path d="M395.293 543.96C396.886 540.849 398.948 538.016 401.252 535.404C402.388 534.078 403.645 532.869 404.889 531.645C405.53 531.054 406.198 530.492 406.85 529.913L408.872 528.249L410.988 526.706C411.71 526.218 412.418 525.709 413.154 525.24C414.648 524.334 416.132 523.422 417.697 522.65C420.801 521.069 424.056 519.776 427.464 519L427.542 519.176C421.309 521.986 415.428 525.56 410.052 529.77C404.638 533.932 399.713 538.74 395.442 544.08L395.293 543.96Z" fill="#659EEA"/>
<path d="M439.594 510.698C442.242 508.276 445.114 506.174 448.076 504.228C449.546 503.228 451.08 502.348 452.595 501.424C454.132 500.544 455.692 499.705 457.254 498.866C458.844 498.084 460.427 497.289 462.038 496.552C463.666 495.849 465.275 495.112 466.939 494.49C470.242 493.201 473.618 492.074 477.123 491.314L477.199 491.492C470.735 494.285 464.376 497.317 458.136 500.576C451.868 503.78 445.715 507.209 439.695 510.862L439.594 510.698Z" fill="#659EEA"/>
<path d="M407.527 566.919C408.491 565.363 409.646 564.07 410.871 562.87C411.465 562.243 412.131 561.717 412.761 561.139C413.415 560.598 414.093 560.085 414.761 559.559C415.462 559.082 416.15 558.582 416.865 558.121C417.602 557.69 418.305 557.214 419.078 556.831C420.587 556.018 422.166 555.295 423.934 554.835L424.049 554.99C421.363 557.07 418.615 559.067 415.902 561.11C413.147 563.097 410.425 565.127 407.641 567.074L407.527 566.919Z" fill="#659EEA"/>
<path d="M430.836 550.867C431.26 549.952 431.752 549.347 432.257 548.794C432.769 548.259 433.308 547.82 433.892 547.451C434.475 547.082 435.101 546.782 435.804 546.543C436.52 546.322 437.275 546.128 438.28 546.13L438.411 546.271C437.371 547.344 436.167 548.244 434.925 549.075C433.647 549.848 432.321 550.559 430.909 551.044L430.836 550.867Z" fill="#659EEA"/>
<path d="M424.169 599.954L426.153 597.692L428.188 595.468L432.392 591.144L436.818 587.044L441.374 583.08C442.926 581.797 444.49 580.526 446.081 579.286L450.934 575.681L455.93 572.273L461.033 569.024C467.945 564.869 475.109 561.116 482.56 558.04L488.174 555.817L493.852 553.773L499.625 552.028C501.561 551.489 503.506 550.99 505.457 550.521L505.516 550.704C490.294 555.602 475.672 562.337 462.033 570.668C448.364 578.945 435.656 588.829 424.305 600.092L424.169 599.954Z" fill="#659EEA"/>
<path d="M458.188 594.158C458.558 592.136 459.83 590.366 461.26 588.967C461.961 588.23 462.775 587.646 463.568 587.043C464.386 586.478 465.241 585.987 466.094 585.5C466.976 585.072 467.852 584.646 468.752 584.28C469.666 583.955 470.56 583.588 471.5 583.35C473.357 582.811 475.249 582.436 477.256 582.342L477.327 582.519C473.837 583.991 470.317 585.406 466.993 587.202C465.321 588.074 463.689 589.031 462.188 590.168C460.696 591.304 459.31 592.63 458.356 594.251L458.188 594.158Z" fill="#659EEA"/>
<path d="M485.875 577.406C487.763 575.694 489.796 574.273 491.882 572.954C492.91 572.268 493.995 571.69 495.051 571.057C496.126 570.464 497.218 569.901 498.302 569.325C499.414 568.802 500.514 568.256 501.634 567.752C502.771 567.278 503.883 566.758 505.047 566.34C507.348 565.452 509.703 564.665 512.2 564.168L512.287 564.34L499.168 571.045L485.96 577.578L485.875 577.406Z" fill="#659EEA"/>
</g>
<path d="M1490 715.091C1490 715.091 1461.33 693.732 1413.62 684.767C1400.38 682.28 1359.53 682.539 1356.05 682.566C1351.94 678.695 1323.75 652.274 1312.73 645.322C1271.67 619.412 1255.07 624.632 1235.34 619.484C1229.08 617.85 1222.56 618.963 1220.36 625.05L1166.15 777.675C1164.32 782.74 1166.63 788.372 1171.5 790.69L1292.1 846.356L1292.25 846.355L1418.13 887.394C1423.28 889.007 1428.8 886.454 1430.91 881.495L1494.53 729.007C1497.06 723.05 1496.29 716.607 1490 715.091Z" fill="#FE7F4D"/>
<path d="M1292.13 846.22L1292.29 846.225L1418.18 887.261C1423.27 888.863 1428.69 886.36 1430.78 881.441L1494.4 728.953C1496.01 725.163 1496.18 721.497 1494.87 718.895C1493.93 717.015 1492.27 715.78 1489.97 715.224L1489.92 715.201C1489.63 714.987 1460.72 693.757 1413.59 684.9C1400.45 682.432 1360.56 682.668 1356.05 682.703L1356 682.704L1355.96 682.667C1352.69 679.592 1323.75 652.436 1312.66 645.437C1282.4 626.348 1265.57 624.188 1250.72 622.283C1245.46 621.608 1240.49 620.971 1235.3 619.616C1229.63 618.136 1222.76 618.803 1220.49 625.096L1166.28 777.719C1164.47 782.745 1166.73 788.268 1171.56 790.565L1292.13 846.22ZM1422.31 887.969C1420.93 888.103 1419.5 887.967 1418.09 887.524L1292.23 846.493L1292.04 846.481L1171.44 790.813C1166.49 788.455 1164.16 782.785 1166.03 777.628L1220.23 625.004C1222.57 618.535 1229.58 617.841 1235.37 619.352C1240.54 620.701 1245.5 621.336 1250.75 622.011C1265.63 623.919 1282.5 626.084 1312.8 645.205C1323.87 652.191 1352.65 679.176 1356.1 682.429C1360.87 682.393 1400.53 682.168 1413.64 684.632C1460.27 693.395 1489.1 714.257 1490.06 714.964C1492.43 715.543 1494.14 716.823 1495.12 718.771C1496.46 721.447 1496.29 725.196 1494.65 729.06L1431.03 881.548C1429.47 885.241 1426.07 887.605 1422.31 887.969Z" fill="#FE7F4D"/>
<path d="M1284.88 843.651L1298.53 849.176L1363.78 682.747C1363.78 682.747 1356.86 683.406 1350.06 678.074L1284.88 843.651Z" fill="#FE7F4D"/>
<path d="M1285.06 843.575L1298.46 848.997L1363.58 682.897C1362.35 682.95 1356.17 682.959 1350.12 678.294L1285.06 843.575ZM1298.61 849.354L1298.48 849.303L1284.71 843.727L1284.76 843.602L1350 677.853L1350.14 677.966C1356.82 683.201 1363.7 682.617 1363.77 682.61L1363.99 682.59L1363.91 682.797L1298.61 849.354Z" fill="#FE7F4D"/>
<path d="M1481.78 721.555C1481.78 721.555 1423.6 687.543 1354.52 686.425C1303.2 640.485 1237.75 625.876 1237.75 625.876L1176.13 780.631C1191.7 783.257 1280.02 831.449 1293.35 840.231L1293.25 840.509C1293.39 840.508 1293.59 840.516 1293.8 840.528C1294.33 840.889 1294.71 841.169 1294.9 841.351L1295.18 840.655C1307.41 842.04 1364.04 853.52 1421.58 876.868L1481.78 721.555Z" fill="#CEB1A2"/>
<path d="M1313.66 660.186C1313.66 660.186 1318.87 638.033 1333.38 630.298C1334.21 629.858 1335.23 630.337 1335.4 631.257L1336.31 636.035L1342.09 636.254C1343.25 636.298 1343.84 637.661 1343.08 638.533C1337.96 644.339 1324.51 661.205 1325.48 666.881L1313.66 660.186Z" fill="#EC3F2F"/>
<path d="M1240.92 631.095C1251.08 627.456 1251.56 629.494 1262.22 631.164C1272.86 632.832 1280.54 634.947 1290.33 639.432C1299.35 643.567 1310.39 649.638 1318.12 655.848C1330.64 665.892 1341.91 675.172 1353.73 686.016L1292.73 837.504C1292.73 837.504 1213.55 759.202 1182.62 778.172L1240.92 631.095Z" fill="#F7F0ED"/>
<path d="M1241.21 631.855C1244.34 630.743 1247.65 629.642 1251.02 629.921C1254.24 630.187 1257.41 631.166 1260.6 631.721C1264.81 632.454 1269.01 633.118 1273.16 634.155C1277.15 635.155 1281.07 636.439 1284.89 637.975C1292.83 641.163 1300.52 645.165 1307.8 649.651C1315.45 654.369 1322.3 660.207 1329.23 665.907C1337.4 672.622 1345.42 679.501 1353.21 686.646C1353.14 686.322 1353.07 685.998 1352.99 685.674L1351.36 689.729C1349.88 693.406 1348.4 697.085 1346.92 700.762C1344.73 706.202 1342.54 711.641 1340.35 717.079C1337.69 723.681 1335.03 730.283 1332.37 736.886C1329.45 744.153 1326.52 751.418 1323.59 758.683C1320.64 766.019 1317.69 773.354 1314.73 780.69C1311.98 787.53 1309.22 794.37 1306.47 801.211C1304.14 806.991 1301.81 812.771 1299.49 818.55C1297.81 822.706 1296.14 826.861 1294.47 831.015C1293.95 832.303 1293.43 833.59 1292.91 834.878C1292.65 835.53 1292.27 836.218 1292.1 836.902C1292.07 836.991 1292.03 837.077 1291.99 837.161C1292.41 837.066 1292.83 836.971 1293.25 836.875C1290.56 834.219 1287.79 831.65 1285 829.099C1278.27 822.933 1271.35 816.958 1264.25 811.215C1255.44 804.09 1246.34 797.289 1236.78 791.194C1227.87 785.514 1218.48 780.214 1208.39 776.957C1200.86 774.526 1192.08 772.937 1184.55 776.25C1183.72 776.614 1182.92 777.042 1182.15 777.511C1182.55 777.845 1182.96 778.179 1183.36 778.513L1184.92 774.591C1186.33 771.031 1187.74 767.471 1189.15 763.913C1191.25 758.618 1193.35 753.325 1195.45 748.029C1197.99 741.599 1200.54 735.169 1203.09 728.738C1205.88 721.697 1208.68 714.654 1211.47 707.61C1214.29 700.501 1217.1 693.391 1219.92 686.282C1222.55 679.651 1225.18 673.021 1227.81 666.389C1230.04 660.759 1232.27 655.129 1234.5 649.497C1236.1 645.47 1237.7 641.441 1239.29 637.414C1240.05 635.505 1240.84 633.605 1241.56 631.685C1241.59 631.602 1241.63 631.519 1241.66 631.437C1242.05 630.463 1240.57 629.777 1240.18 630.753C1239.66 632.059 1239.14 633.369 1238.63 634.675C1237.22 638.234 1235.8 641.794 1234.4 645.354L1228.1 661.237C1225.55 667.666 1223 674.098 1220.45 680.527L1212.08 701.657C1209.26 708.766 1206.44 715.875 1203.62 722.985C1201 729.615 1198.37 736.246 1195.74 742.877C1193.51 748.507 1191.27 754.138 1189.04 759.769C1187.45 763.797 1185.85 767.825 1184.25 771.853C1183.5 773.762 1182.71 775.661 1181.98 777.582C1181.95 777.665 1181.92 777.747 1181.88 777.83C1181.57 778.611 1182.4 779.257 1183.1 778.833C1189.85 774.73 1198.35 775.754 1205.59 777.798C1215.47 780.587 1224.72 785.618 1233.42 790.991C1242.98 796.898 1252.06 803.574 1260.84 810.57C1268.19 816.421 1275.34 822.527 1282.3 828.834C1284.54 830.869 1286.77 832.926 1288.96 835.007C1290 835.983 1290.97 837.111 1292.08 838.001C1292.13 838.041 1292.17 838.089 1292.21 838.131C1292.58 838.494 1293.29 838.302 1293.47 837.845L1295.1 833.79C1296.58 830.113 1298.07 826.435 1299.55 822.758C1301.74 817.319 1303.93 811.881 1306.12 806.439C1308.78 799.838 1311.44 793.235 1314.09 786.634C1317.02 779.369 1319.94 772.102 1322.87 764.835C1325.82 757.499 1328.78 750.165 1331.73 742.83C1334.49 735.99 1337.24 729.15 1340 722.31C1342.32 716.53 1344.65 710.749 1346.98 704.969L1352 692.503C1352.79 690.542 1353.61 688.591 1354.37 686.617C1354.4 686.53 1354.44 686.443 1354.47 686.358C1354.62 686.003 1354.53 685.643 1354.25 685.387C1347.18 678.906 1339.92 672.639 1332.53 666.519C1325.45 660.647 1318.42 654.529 1310.67 649.547C1303.28 644.805 1295.44 640.651 1287.36 637.231C1279.65 633.971 1271.62 631.865 1263.38 630.523C1261.04 630.143 1258.71 629.727 1256.4 629.227C1254.82 628.887 1253.24 628.511 1251.64 628.347C1247.83 627.957 1244.18 629.073 1240.63 630.333C1239.64 630.685 1240.22 632.207 1241.21 631.855Z" fill="#F7F0ED"/>
<path d="M1409.87 864.018C1396.8 857.241 1383.1 851.709 1369 847.471C1354.77 843.198 1340.15 840.259 1325.38 838.718C1317.16 837.861 1308.9 837.442 1300.63 837.446C1299.59 837.446 1299.75 839.067 1300.79 839.067C1315.44 839.061 1330.07 840.439 1344.47 843.159C1358.86 845.879 1373 849.933 1386.64 855.269C1394.33 858.277 1401.86 861.697 1409.19 865.497C1410.12 865.982 1410.8 864.498 1409.87 864.018Z" fill="#F7F0ED"/>
<path d="M1294.34 840.286C1310.47 841.938 1326.49 844.677 1342.32 848.225C1358.75 851.91 1375 856.474 1390.87 862.109C1399.32 865.106 1407.65 868.414 1415.81 872.124C1416.76 872.558 1417.45 871.078 1416.49 870.645C1401.68 863.908 1386.29 858.47 1370.69 853.88C1354.52 849.125 1338.06 845.294 1321.46 842.412C1312.56 840.866 1303.61 839.601 1294.62 838.681C1293.58 838.576 1293.3 840.18 1294.34 840.286Z" fill="#F7F0ED"/>
<path d="M1187.03 778.582C1194.55 779.005 1201.66 781.594 1208.58 784.41C1215.21 787.109 1221.72 790.082 1228.1 793.322C1240.85 799.798 1253.07 807.331 1264.58 815.826C1271.02 820.581 1277.24 825.637 1283.22 830.966C1284 831.666 1285.03 830.406 1284.25 829.709C1273.47 820.098 1261.9 811.391 1249.68 803.698C1237.51 796.037 1224.71 789.377 1211.45 783.833C1203.73 780.609 1195.75 777.451 1187.31 776.977C1186.27 776.918 1185.98 778.523 1187.03 778.582Z" fill="#F7F0ED"/>
<path d="M1182.96 779.753C1198.57 784.865 1213.68 791.47 1228.32 798.897C1243.66 806.673 1258.52 815.391 1272.81 824.953C1280.34 829.993 1287.71 835.277 1294.86 840.837C1295.69 841.481 1296.73 840.225 1295.9 839.581C1282.85 829.439 1269.1 820.202 1254.92 811.727C1240.17 802.914 1224.92 794.914 1209.16 788.054C1200.81 784.415 1192.3 781.11 1183.64 778.274C1182.65 777.95 1181.96 779.427 1182.96 779.753Z" fill="#F7F0ED"/>
<path d="M1477.02 723.982C1471.01 738.563 1464.99 753.143 1458.98 767.724C1452.97 782.304 1446.96 796.886 1440.94 811.466C1437.55 819.698 1434.16 827.93 1430.76 836.163C1430.36 837.13 1431.84 837.816 1432.24 836.844C1438.25 822.264 1444.27 807.683 1450.28 793.103C1456.29 778.522 1462.3 763.942 1468.32 749.36C1471.71 741.128 1475.1 732.898 1478.5 724.666C1478.9 723.696 1477.42 723.01 1477.02 723.982Z" fill="#F7F0ED"/>
<path d="M1474.55 722.174C1469.59 712.597 1467.85 713.758 1458.9 707.728C1449.97 701.71 1442.91 698.03 1432.69 694.654C1423.26 691.544 1411.04 688.478 1401.14 687.76C1385.14 686.601 1370.73 686.202 1354.69 686.102L1292.97 838.382C1292.97 838.382 1408.75 837.646 1418.49 872.592L1474.55 722.174Z" fill="#F7F0ED"/>
<path d="M1475.31 721.884C1473.9 719.16 1472.38 716.409 1470.18 714.236C1468.43 712.523 1466.26 711.336 1464.18 710.096C1460.74 708.051 1457.48 705.74 1454.07 703.641C1450.45 701.412 1446.7 699.388 1442.82 697.659C1434.71 694.055 1426.06 691.528 1417.43 689.552C1412.94 688.523 1408.39 687.675 1403.8 687.185C1398.89 686.66 1393.93 686.451 1388.99 686.196C1377.54 685.607 1366.08 685.365 1354.61 685.293C1354.34 685.291 1354.05 685.52 1353.95 685.761C1353.4 687.119 1352.85 688.473 1352.3 689.831L1347.81 700.905C1345.6 706.364 1343.39 711.825 1341.17 717.285C1338.47 723.948 1335.77 730.611 1333.07 737.272C1330.12 744.572 1327.16 751.869 1324.2 759.168C1321.21 766.535 1318.23 773.904 1315.24 781.271C1312.46 788.141 1309.67 795.013 1306.89 801.883C1304.53 807.691 1302.18 813.499 1299.83 819.305C1298.13 823.483 1296.44 827.661 1294.75 831.839C1293.95 833.82 1293.11 835.791 1292.34 837.784C1292.3 837.869 1292.27 837.956 1292.23 838.041C1291.99 838.647 1292.43 839.197 1293.05 839.193C1296.88 839.169 1300.71 839.264 1304.53 839.376C1313.85 839.655 1323.17 840.191 1332.46 841.005C1344.03 842.02 1355.58 843.455 1366.99 845.663C1377.7 847.735 1388.48 850.407 1398.43 854.947C1405.61 858.22 1413.53 862.905 1416.85 870.447C1417.2 871.239 1417.49 872.052 1417.73 872.883C1417.91 873.543 1418.99 873.571 1419.23 872.933C1419.73 871.595 1420.22 870.256 1420.72 868.919C1422.08 865.276 1423.44 861.635 1424.8 857.991C1426.8 852.603 1428.81 847.215 1430.82 841.827C1433.28 835.217 1435.75 828.608 1438.21 822L1446.27 800.383C1448.98 793.109 1451.69 785.836 1454.4 778.564C1456.93 771.781 1459.46 764.999 1461.99 758.217C1464.12 752.484 1466.26 746.752 1468.4 741.02C1469.93 736.896 1471.47 732.771 1473.01 728.645C1473.74 726.689 1474.49 724.739 1475.2 722.773C1475.23 722.688 1475.26 722.601 1475.29 722.517C1475.66 721.537 1474.18 720.851 1473.81 721.833C1473.31 723.172 1472.82 724.511 1472.32 725.848C1470.96 729.491 1469.6 733.133 1468.24 736.775C1466.24 742.163 1464.23 747.552 1462.22 752.94C1459.76 759.548 1457.29 766.157 1454.83 772.767C1452.14 779.972 1449.46 787.179 1446.77 794.384C1444.06 801.657 1441.35 808.931 1438.64 816.203C1436.11 822.985 1433.58 829.768 1431.05 836.549C1428.92 842.283 1426.78 848.015 1424.64 853.747C1423.11 857.871 1421.57 861.996 1420.03 866.121C1419.55 867.411 1419.07 868.699 1418.59 869.988C1418.35 870.633 1417.99 871.32 1417.84 871.993C1417.82 872.079 1417.78 872.167 1417.75 872.249L1419.25 872.301C1417.01 864.384 1409.88 859.033 1402.94 855.345C1393.41 850.284 1382.76 847.356 1372.27 845.081C1360.73 842.579 1349 840.973 1337.26 839.82C1327.33 838.847 1317.38 838.213 1307.41 837.856C1304.18 837.74 1300.95 837.653 1297.72 837.607C1296.71 837.591 1295.69 837.58 1294.68 837.575C1294.18 837.572 1293.58 837.481 1293.09 837.572C1293.03 837.581 1292.96 837.572 1292.9 837.572C1293.17 837.956 1293.44 838.34 1293.71 838.725C1294.26 837.368 1294.81 836.012 1295.36 834.655C1296.86 830.965 1298.35 827.272 1299.85 823.58C1302.06 818.121 1304.28 812.661 1306.49 807.2C1309.19 800.537 1311.89 793.876 1314.59 787.213C1317.55 779.915 1320.51 772.617 1323.46 765.317C1326.45 757.951 1329.44 750.583 1332.42 743.215C1335.2 736.345 1337.99 729.472 1340.78 722.603C1343.13 716.796 1345.48 710.987 1347.84 705.18C1349.53 701.003 1351.22 696.824 1352.91 692.647C1353.44 691.347 1353.97 690.045 1354.5 688.745C1354.76 688.085 1355.15 687.393 1355.32 686.701C1355.35 686.616 1355.4 686.528 1355.43 686.445L1354.77 686.913C1364.8 686.979 1374.82 687.164 1384.84 687.615C1394.29 688.04 1403.75 688.431 1413.04 690.279C1421.73 692.005 1430.41 694.404 1438.65 697.675C1442.43 699.176 1446.11 700.928 1449.66 702.92C1453.4 705.025 1456.92 707.469 1460.54 709.767C1463.04 711.347 1465.77 712.675 1468.07 714.54C1470.64 716.621 1472.29 719.581 1473.79 722.467C1474.27 723.384 1475.8 722.815 1475.31 721.884Z" fill="#F7F0ED"/>
<g opacity="0.419998">
<path d="M1353.05 686.401C1353.05 686.401 1315.25 764.71 1290.78 777.414C1257.04 794.932 1209.78 777.144 1209.78 777.144C1209.78 777.144 1282.89 814.853 1292.73 837.504L1353.05 686.401Z" fill="#DECEC7"/>
</g>
<g opacity="0.419998">
<path d="M1359.69 684.484C1359.69 684.484 1335.6 768.035 1345.35 793.822C1358.79 829.384 1405.87 847.664 1405.87 847.664C1405.87 847.664 1326.25 826.978 1303.81 837.283L1359.69 684.484Z" fill="#DECEC7"/>
</g>
<g opacity="0.460007">
<path d="M1246.66 647.021C1248.25 646.729 1249.75 646.75 1251.23 646.883C1251.97 646.921 1252.69 647.075 1253.42 647.17C1254.14 647.309 1254.85 647.481 1255.56 647.638C1256.26 647.851 1256.96 648.041 1257.66 648.274C1258.34 648.545 1259.04 648.761 1259.71 649.09C1261.06 649.689 1262.39 650.398 1263.63 651.421L1263.58 651.606C1260.74 650.954 1257.91 650.201 1255.08 649.501C1252.26 648.734 1249.42 648.021 1246.62 647.209L1246.66 647.021Z" fill="#659EEA"/>
<path d="M1272.93 655.919L1275.26 656.575L1277.56 657.289L1282.13 658.843L1286.63 660.611C1288.11 661.238 1289.58 661.907 1291.05 662.557C1292.51 663.241 1293.97 663.939 1295.41 664.661L1299.69 666.915L1303.88 669.339L1308 671.883L1312.01 674.594C1313.32 675.537 1314.64 676.457 1315.94 677.418L1319.75 680.393C1321.01 681.41 1322.23 682.453 1323.46 683.499C1324.66 684.579 1325.87 685.638 1327.05 686.733L1330.51 690.106L1333.81 693.631C1334.89 694.826 1335.94 696.047 1336.96 697.283L1336.83 697.421C1327.74 688.43 1317.7 680.405 1306.95 673.499C1296.24 666.539 1284.8 660.687 1272.87 656.099L1272.93 655.919Z" fill="#659EEA"/>
<path d="M1238.15 665.993L1240.1 665.82L1242.06 665.709L1246.01 665.669L1249.95 665.905C1251.25 666.041 1252.56 666.224 1253.87 666.381C1255.17 666.596 1256.47 666.823 1257.76 667.077L1261.62 667.985C1262.89 668.347 1264.15 668.744 1265.42 669.123L1269.16 670.436L1272.81 671.979C1274.01 672.551 1275.21 673.099 1276.39 673.689L1279.85 675.611C1280.99 676.292 1282.1 677 1283.21 677.713C1284.28 678.476 1285.37 679.217 1286.43 679.997L1289.51 682.468L1292.4 685.144C1293.33 686.068 1294.23 687.02 1295.11 687.985L1294.99 688.132C1287.18 681.307 1278.14 675.931 1268.47 672.232C1258.82 668.473 1248.51 666.377 1238.14 666.187L1238.15 665.993Z" fill="#659EEA"/>
<path d="M1305.75 697.711C1307.94 698.352 1309.96 699.265 1311.91 700.276C1312.91 700.753 1313.83 701.333 1314.79 701.863C1315.73 702.428 1316.65 703.023 1317.57 703.605C1318.46 704.237 1319.37 704.847 1320.25 705.495C1321.11 706.175 1322 706.807 1322.83 707.536C1324.51 708.947 1326.14 710.452 1327.58 712.225L1327.48 712.385L1316.5 705.208L1305.64 697.871L1305.75 697.711Z" fill="#659EEA"/>
<path d="M1227.76 706.259C1229.95 706.624 1232.16 706.948 1234.34 707.442L1237.61 708.135C1238.7 708.374 1239.78 708.65 1240.87 708.904C1245.19 710.011 1249.46 711.344 1253.71 712.756C1262.17 715.664 1270.38 719.302 1278.27 723.558C1286.11 727.871 1293.71 732.668 1300.73 738.224C1304.27 740.963 1307.67 743.864 1311 746.818C1312.64 748.328 1314.26 749.854 1315.88 751.387C1317.5 752.907 1319.09 754.466 1320.66 756.046L1320.53 756.191C1313.78 750.426 1307.04 744.632 1299.85 739.428C1292.7 734.171 1285.15 729.474 1277.35 725.25C1269.57 720.991 1261.46 717.335 1253.18 714.16C1244.88 711.015 1236.36 708.462 1227.72 706.448L1227.76 706.259Z" fill="#659EEA"/>
<path d="M1223.39 722.978C1226.07 723.006 1228.68 723.422 1231.23 724.016C1232.52 724.286 1233.76 724.687 1235.03 725.043C1236.27 725.447 1237.5 725.896 1238.73 726.346C1239.94 726.855 1241.15 727.354 1242.34 727.908C1243.51 728.503 1244.69 729.058 1245.82 729.731C1248.1 731.03 1250.3 732.491 1252.29 734.284L1252.2 734.455C1247.59 732.102 1242.86 729.994 1238.03 728.138C1233.23 726.226 1228.32 724.562 1223.34 723.163L1223.39 722.978Z" fill="#659EEA"/>
<path d="M1265.05 743.077L1266.51 743.731L1267.94 744.438L1270.8 745.853C1272.68 746.842 1274.54 747.846 1276.38 748.903C1278.23 749.926 1280.02 751.051 1281.84 752.125L1287.2 755.501C1288.96 756.678 1290.73 757.831 1292.47 759.027C1294.19 760.251 1295.95 761.43 1297.63 762.706C1299.35 763.947 1301.02 765.243 1302.69 766.553C1304.32 767.93 1306 769.213 1307.58 770.671L1307.47 770.833L1286.16 757.117L1264.94 743.238L1265.05 743.077Z" fill="#659EEA"/>
<path d="M1239.48 768.842C1241.3 768.44 1243.17 768.597 1244.94 768.994C1245.84 769.165 1246.68 769.482 1247.54 769.765C1248.38 770.094 1249.19 770.478 1250 770.864C1250.77 771.308 1251.55 771.744 1252.29 772.237C1253.01 772.764 1253.76 773.257 1254.42 773.86C1255.77 775.014 1257.01 776.314 1258 777.896L1257.88 778.049C1255.06 776.049 1252.18 774.137 1249.11 772.57C1247.58 771.766 1246.02 771.04 1244.41 770.433C1242.8 769.836 1241.14 769.338 1239.45 769.033L1239.48 768.842Z" fill="#659EEA"/>
<path d="M1264.43 783.357C1266.94 784.483 1269.25 785.863 1271.48 787.334C1272.62 788.046 1273.68 788.853 1274.78 789.61C1275.85 790.403 1276.9 791.223 1277.96 792.033C1278.98 792.886 1280.02 793.721 1281.03 794.593C1282.02 795.493 1283.04 796.347 1283.99 797.295C1285.92 799.143 1287.79 801.079 1289.45 803.27L1289.33 803.421L1276.76 793.539L1264.31 783.506L1264.43 783.357Z" fill="#659EEA"/>
<path d="M1365.83 705.023C1367.55 704.414 1369.27 704.17 1371 704.086C1371.86 704.013 1372.71 704.071 1373.57 704.077C1374.43 704.129 1375.28 704.223 1376.13 704.314C1376.98 704.465 1377.82 704.598 1378.66 704.787C1379.49 705.014 1380.33 705.195 1381.14 705.499C1382.77 706.051 1384.37 706.754 1385.85 707.803L1385.81 707.991C1382.51 707.291 1379.21 706.65 1375.87 706.221C1372.54 705.723 1369.18 705.441 1365.82 705.217L1365.83 705.023Z" fill="#659EEA"/>
<path d="M1398.11 710.445C1400.7 710.461 1403.27 710.748 1405.85 710.985L1409.69 711.548C1410.96 711.772 1412.23 712.039 1413.5 712.283C1414.77 712.561 1416.03 712.851 1417.29 713.169L1421.04 714.199C1422.28 714.581 1423.5 714.999 1424.74 715.397L1428.4 716.707L1432 718.188C1433.18 718.719 1434.37 719.227 1435.55 719.779L1439.02 721.521C1440.17 722.127 1441.3 722.759 1442.43 723.397C1443.54 724.069 1444.66 724.715 1445.75 725.405L1448.98 727.556C1451.06 729.107 1453.16 730.609 1455.09 732.329L1454.98 732.489C1446.45 726.835 1437.28 722.143 1427.71 718.504C1418.17 714.807 1408.22 712.151 1398.09 710.636L1398.11 710.445Z" fill="#659EEA"/>
<path d="M1359.13 725.406C1362.54 724.639 1366.03 724.407 1369.51 724.503C1371.26 724.529 1372.99 724.718 1374.73 724.891C1375.59 725.006 1376.45 725.157 1377.32 725.289L1379.89 725.775L1382.43 726.413C1383.26 726.655 1384.11 726.873 1384.94 727.137C1386.59 727.705 1388.24 728.262 1389.84 728.969C1393.04 730.339 1396.12 732.011 1398.9 734.131L1398.81 734.305C1392.66 731.318 1386.15 729.087 1379.48 727.655C1372.81 726.162 1365.97 725.461 1359.13 725.599L1359.13 725.406Z" fill="#659EEA"/>
<path d="M1413.04 738.134C1416.6 738.615 1420.05 739.475 1423.44 740.505C1425.15 740.994 1426.81 741.609 1428.49 742.181C1430.15 742.797 1431.79 743.459 1433.44 744.119C1435.06 744.841 1436.68 745.549 1438.28 746.313C1439.86 747.113 1441.46 747.878 1443 748.758C1446.11 750.469 1449.13 752.339 1451.96 754.546L1451.88 754.718C1445.59 751.543 1439.19 748.599 1432.69 745.893C1426.22 743.13 1419.64 740.601 1412.98 738.317L1413.04 738.134Z" fill="#659EEA"/>
<path d="M1349.33 749.506C1351.14 749.25 1352.87 749.31 1354.58 749.481C1355.44 749.536 1356.27 749.71 1357.12 749.824C1357.95 749.981 1358.78 750.172 1359.61 750.349C1360.43 750.582 1361.25 750.79 1362.06 751.044C1362.87 751.333 1363.68 751.569 1364.47 751.918C1366.06 752.557 1367.63 753.306 1369.11 754.369L1369.07 754.557C1365.75 753.826 1362.46 752.996 1359.15 752.217C1355.86 751.374 1352.56 750.585 1349.28 749.693L1349.33 749.506Z" fill="#659EEA"/>
<path d="M1376.58 757.13C1377.55 756.87 1378.33 756.861 1379.08 756.894C1379.82 756.945 1380.5 757.077 1381.16 757.29C1381.82 757.501 1382.45 757.789 1383.08 758.176C1383.71 758.585 1384.34 759.042 1384.99 759.814L1384.96 760.004C1383.47 759.893 1382.01 759.546 1380.57 759.124C1379.16 758.638 1377.77 758.073 1376.49 757.3L1376.58 757.13Z" fill="#659EEA"/>
<path d="M1334.61 783.443L1337.62 783.519L1340.63 783.656L1346.64 784.116L1352.63 784.892L1358.59 785.852C1360.57 786.223 1362.55 786.611 1364.52 787.037L1370.39 788.457L1376.21 790.112L1381.97 791.951C1389.59 794.597 1397.06 797.697 1404.19 801.451L1409.5 804.34L1414.7 807.391L1419.74 810.707C1421.39 811.851 1423.02 813.025 1424.63 814.221L1424.53 814.384C1411.02 805.831 1396.48 798.912 1381.35 793.772C1366.24 788.572 1350.51 785.141 1334.59 783.635L1334.61 783.443Z" fill="#659EEA"/>
<path d="M1360.85 805.859C1362.64 804.85 1364.81 804.693 1366.8 804.894C1367.82 804.961 1368.79 805.214 1369.76 805.437C1370.71 805.703 1371.64 806.045 1372.56 806.387C1373.45 806.79 1374.34 807.191 1375.2 807.647C1376.03 808.142 1376.89 808.594 1377.67 809.163C1379.28 810.245 1380.77 811.457 1382.13 812.938L1382.04 813.109C1378.68 811.37 1375.34 809.57 1371.83 808.167C1370.09 807.442 1368.31 806.803 1366.47 806.378C1364.64 805.958 1362.74 805.743 1360.88 806.049L1360.85 805.859Z" fill="#659EEA"/>
<path d="M1391.44 816.398C1393.97 816.752 1396.36 817.404 1398.71 818.162C1399.89 818.512 1401.03 818.974 1402.19 819.38C1403.34 819.825 1404.47 820.305 1405.61 820.768C1406.72 821.286 1407.85 821.781 1408.95 822.318C1410.04 822.889 1411.15 823.41 1412.22 824.037C1414.38 825.237 1416.49 826.54 1418.47 828.141L1418.39 828.316L1404.84 822.534L1391.37 816.574L1391.44 816.398Z" fill="#659EEA"/>
</g>
<path d="M951.721 304.691C975.724 276.987 999.712 249.274 1023.75 221.599C1025.46 219.635 1027.51 217.967 1029.4 216.162C1035.35 221.281 1041.3 226.399 1047.25 231.519C1049.26 236.158 1045.47 238.578 1043.17 241.235C1020.01 267.926 996.839 294.597 973.716 321.307C969.533 324.859 966.931 330.046 961.937 332.766C960.475 333.183 958.905 333.257 957.652 332.466C953.108 329.598 949.789 330.426 946.341 334.693C942.984 338.849 940.997 342.321 945.501 346.822C946.753 348.074 946.877 350.025 946.225 351.846C945.016 354.607 942.971 356.719 940.82 358.713C933.856 365.162 927.505 365.23 920.636 358.986C913.685 352.669 912.784 346.087 918.524 338.905C927.127 328.141 936.54 318.062 945.675 307.751C947.26 305.961 949.116 304.541 951.721 304.691Z" fill="#F7F0ED"/>
<path d="M966.512 322.325C987.404 298.064 1008.32 273.821 1029.17 249.521C1033.54 244.415 1037.66 239.087 1041.9 233.86C1044.29 232.921 1047.03 230.968 1048.87 234.144C1050.5 236.947 1048.09 239.028 1046.36 241.005C1021.55 269.479 996.722 297.951 971.902 326.421C968.292 327.441 966.861 325.599 966.512 322.325Z" fill="#4465A5"/>
<path d="M786.535 164.216C795.67 150.449 807.596 139.027 818.218 126.512C831.918 110.364 845.983 94.524 859.608 78.3147C863.567 73.6014 866.714 72.2214 871.93 76.6441C923.298 120.219 974.774 163.663 1026.29 207.064C1029.35 209.644 1030.94 212.244 1029.4 216.163C1025.7 226.557 1017.07 233.313 1010.24 241.253C993.327 260.888 976.572 280.675 959.288 299.987C957.15 302.38 955.372 305.255 951.727 305.627C948.159 304.724 946.412 301.339 943.455 299.597C895.492 259.605 848.151 218.872 800.183 178.884C795.086 174.637 789.179 170.864 786.535 164.216Z" fill="#4465A5"/>
<path d="M786.535 164.216C808.113 182.273 829.761 200.249 851.249 218.411C882.618 244.925 913.873 271.576 945.177 298.168C947.207 301.413 945.167 303.877 943.333 306.079C938.243 312.185 933.885 318.953 928.202 324.499C919.421 333.064 911.979 342.287 909.507 354.679C892.823 342.808 877.849 328.9 862.351 315.588C850.358 305.285 837.807 295.629 825.907 285.167C810.061 271.236 793.727 257.855 777.574 244.268C770.625 238.423 763.453 232.828 756.661 226.805C745.501 216.911 744.802 209.945 755.055 199.263C764.57 189.355 772.701 178.337 781.815 168.136C783.163 166.629 784.951 165.511 786.535 164.216Z" fill="#375F99"/>
<path d="M951.722 304.691C941.374 316.681 930.984 328.641 920.688 340.674C914.748 347.613 915.354 350.782 922.756 357.525C928.63 362.871 933.88 363.519 939.168 356.882C941.172 354.363 943.514 352.119 945.702 349.747C949.158 349.279 951.466 350.194 951.126 354.275C948.684 357.199 946.43 360.314 943.762 363.015C935.451 371.427 928.016 371.623 919.118 363.759C915.816 360.843 912.706 357.71 909.508 354.677C906.038 343.758 913.238 336.854 919.463 330.099C928.766 320.007 937.806 309.783 945.175 298.166C948.202 299.491 950.292 301.763 951.722 304.691Z" fill="#375F99"/>
<path d="M961.747 339.182C959.721 337.542 957.697 335.902 955.67 334.263C959.283 330.283 962.899 326.306 966.515 322.326C968.31 323.688 970.109 325.054 971.907 326.419C968.518 330.675 965.131 334.927 961.747 339.182Z" fill="#375F99"/>
<path d="M951.126 354.275C949.953 352.003 947.909 350.779 945.699 349.748C944.467 348.516 943.425 346.951 941.962 346.118C936.983 343.26 937.073 340.243 941.211 336.748C941.877 336.19 942.525 335.515 942.931 334.759C947.73 325.863 953.698 324.622 961.021 331.92C964.055 332.312 966.806 333.059 967.099 336.84C975.142 341.572 973.263 348.926 972.187 356.074C971.629 359.799 971.115 363.53 970.418 368.398C963.503 363.338 957.314 358.807 951.126 354.275Z" fill="#EC3F2F"/>
<path d="M1250.54 452.633L1237.37 449.66C1236.88 449.549 1236.37 449.687 1236 450.028L1226.08 459.193C1225.15 460.053 1223.63 459.472 1223.52 458.211L1222.27 444.764C1222.23 444.263 1221.94 443.816 1221.5 443.569L1209.72 436.969C1208.61 436.349 1208.7 434.731 1209.86 434.229L1222.27 428.893C1222.73 428.693 1223.06 428.28 1223.16 427.787L1225.8 414.543C1226.05 413.299 1227.61 412.879 1228.45 413.832L1237.36 423.98C1237.69 424.359 1238.19 424.549 1238.69 424.491L1252.1 422.905C1253.35 422.756 1254.24 424.116 1253.59 425.207L1246.69 436.815C1246.43 437.248 1246.41 437.779 1246.62 438.237L1252.27 450.501C1252.8 451.652 1251.78 452.912 1250.54 452.633Z" fill="#FFCA7A"/>
<path d="M573.433 247.38L566.736 235.655C566.485 235.218 566.036 234.932 565.535 234.89L552.077 233.76C550.815 233.654 550.221 232.144 551.073 231.206L560.156 221.212C560.495 220.84 560.628 220.324 560.513 219.834L557.429 206.687C557.14 205.452 558.392 204.422 559.548 204.943L571.859 210.492C572.317 210.699 572.849 210.667 573.28 210.406L584.831 203.41C585.915 202.754 587.283 203.626 587.144 204.886L585.671 218.31C585.616 218.81 585.811 219.306 586.191 219.634L596.413 228.458C597.373 229.287 596.967 230.855 595.725 231.114L582.504 233.86C582.012 233.963 581.6 234.302 581.405 234.766L576.172 247.214C575.681 248.383 574.063 248.482 573.433 247.38Z" fill="#FFCA7A"/>
<path d="M250.378 854.914L245.468 846.318C245.285 845.998 244.957 845.787 244.589 845.757L234.724 844.929C233.797 844.851 233.362 843.745 233.988 843.057L240.645 835.73C240.893 835.458 240.992 835.079 240.906 834.719L238.646 825.083C238.434 824.178 239.352 823.422 240.2 823.805L249.224 827.873C249.561 828.023 249.95 827.999 250.266 827.809L258.733 822.681C259.528 822.199 260.53 822.838 260.429 823.763L259.349 833.603C259.309 833.97 259.452 834.333 259.732 834.574L267.225 841.042C267.929 841.65 267.63 842.801 266.72 842.99L257.028 845.002C256.666 845.078 256.365 845.326 256.222 845.666L252.386 854.791C252.026 855.65 250.84 855.721 250.378 854.914Z" fill="#FFCA7A"/>
<g opacity="0.580002">
<path d="M1322.2 1002.79C1322.2 1028.77 1080.03 1049.82 781.291 1049.82C482.557 1049.82 240.382 1028.77 240.382 1002.79C240.382 976.814 482.557 955.756 781.291 955.756C1080.03 955.756 1322.2 976.814 1322.2 1002.79Z" fill="#13171A"/>
</g>
<path d="M1011.97 891.527C1017.74 880.89 1024.43 870.762 1031.92 861.259C1039.34 851.854 1047.52 843.061 1056.36 834.977C1065.29 826.803 1074.89 819.358 1085.02 812.729C1095.07 806.15 1105.66 800.371 1116.65 795.506C1127.63 790.642 1139.02 786.681 1150.67 783.725C1152.12 783.357 1153.58 783.003 1155.04 782.666C1155.7 782.513 1155.36 781.511 1154.71 781.665C1142.87 784.405 1131.28 788.169 1120.08 792.878C1108.96 797.553 1098.23 803.145 1088.01 809.557C1077.79 815.975 1068.09 823.219 1059.02 831.183C1049.89 839.199 1041.41 847.954 1033.71 857.35C1026.06 866.679 1019.18 876.646 1013.21 887.125C1012.47 888.426 1011.74 889.735 1011.03 891.053C1010.7 891.65 1011.64 892.123 1011.97 891.527Z" fill="#089FA5"/>
<path d="M1146.48 784.801C1149.86 777.374 1159.85 769.662 1169.64 768.058C1172.33 767.617 1175.2 767.463 1178.01 768.082C1180.82 768.702 1183.56 770.183 1184.97 772.29C1186.42 774.469 1186.28 777.006 1185.34 779.123C1182.95 784.503 1175.92 787.546 1168.63 788.015C1161.34 788.485 1153.76 786.779 1146.48 784.801Z" fill="#089FA5"/>
<path d="M1120.75 794.133C1116.86 786.963 1116.72 774.342 1121.34 765.561C1122.61 763.147 1124.22 760.762 1126.41 758.894C1128.59 757.026 1131.43 755.729 1133.96 755.875C1136.57 756.027 1138.51 757.671 1139.63 759.699C1142.49 764.847 1140.68 772.287 1136.66 778.39C1132.64 784.494 1126.72 789.51 1120.75 794.133Z" fill="#089FA5"/>
<path d="M1119.6 793.396C1127.35 790.832 1139.79 792.928 1147.62 799.026C1149.77 800.702 1151.84 802.706 1153.29 805.189C1154.74 807.669 1155.52 810.689 1154.92 813.153C1154.31 815.701 1152.35 817.317 1150.16 818.065C1144.59 819.964 1137.58 816.872 1132.29 811.837C1126.99 806.804 1123.1 800.089 1119.6 793.396Z" fill="#089FA5"/>
<path d="M1085.48 812.992C1080.54 806.499 1078.48 794.047 1081.71 784.665C1082.59 782.084 1083.82 779.481 1085.69 777.301C1087.57 775.123 1090.17 773.409 1092.7 773.169C1095.3 772.919 1097.47 774.249 1098.89 776.08C1102.49 780.735 1101.84 788.363 1098.8 795.008C1095.76 801.652 1090.67 807.513 1085.48 812.992Z" fill="#089FA5"/>
<path d="M1084.23 812.439C1091.5 808.724 1104.12 808.897 1112.78 813.731C1115.16 815.06 1117.51 816.727 1119.32 818.957C1121.14 821.188 1122.36 824.053 1122.15 826.579C1121.94 829.189 1120.25 831.087 1118.19 832.16C1112.98 834.885 1105.58 832.899 1099.58 828.731C1093.58 824.564 1088.71 818.52 1084.23 812.439Z" fill="#089FA5"/>
<path d="M1052.71 838.482C1046.9 832.747 1043.11 820.708 1044.99 810.966C1045.51 808.287 1046.35 805.538 1047.9 803.116C1049.45 800.695 1051.79 798.631 1054.25 798.039C1056.8 797.426 1059.13 798.439 1060.8 800.054C1065.02 804.154 1065.45 811.798 1063.37 818.803C1061.29 825.81 1057.08 832.327 1052.71 838.482Z" fill="#089FA5"/>
<path d="M1051.39 838.109C1058.06 833.411 1070.58 831.808 1079.84 835.376C1082.39 836.357 1084.94 837.679 1087.05 839.632C1089.16 841.584 1090.78 844.249 1090.93 846.78C1091.08 849.395 1089.67 851.511 1087.79 852.861C1083.01 856.295 1075.41 855.365 1068.88 852.083C1062.35 848.8 1056.68 843.501 1051.39 838.109Z" fill="#089FA5"/>
<path d="M1027.62 866.957C1022.14 863.424 1017.21 854.628 1017.08 846.701C1017.04 844.52 1017.26 842.232 1018.07 840.084C1018.89 837.934 1020.38 835.94 1022.21 835.072C1024.1 834.174 1026.09 834.585 1027.65 835.576C1031.63 838.09 1033.22 843.998 1032.74 849.818C1032.26 855.638 1030.04 861.428 1027.62 866.957Z" fill="#089FA5"/>
<path d="M1026.54 866.88C1030.98 862.112 1040.51 858.808 1048.34 860.081C1050.49 860.432 1052.7 861.045 1054.67 862.228C1056.64 863.409 1058.34 865.231 1058.88 867.185C1059.42 869.204 1058.67 871.089 1057.42 872.456C1054.24 875.923 1048.14 876.443 1042.5 874.944C1036.85 873.447 1031.55 870.232 1026.54 866.88Z" fill="#089FA5"/>
<path d="M895.368 872.802C896.009 860.717 897.693 848.697 900.373 836.895C903.027 825.218 906.641 813.758 911.144 802.662C915.696 791.442 921.163 780.597 927.46 770.257C933.712 759.994 940.784 750.226 948.615 741.111C956.445 731.997 965.025 723.525 974.273 715.849C975.425 714.893 976.588 713.949 977.761 713.017C978.293 712.593 977.56 711.833 977.032 712.254C967.523 719.815 958.676 728.195 950.588 737.259C942.557 746.261 935.267 755.925 928.797 766.107C922.327 776.295 916.679 787.003 911.913 798.094C907.117 809.255 903.224 820.805 900.309 832.599C897.416 844.309 895.487 856.263 894.596 868.293C894.485 869.786 894.393 871.282 894.313 872.778C894.277 873.457 895.333 873.481 895.368 872.802Z" fill="#089FA5"/>
<path d="M970.951 718.622C970.808 710.465 976.515 699.206 984.664 693.552C986.907 691.996 989.435 690.624 992.236 689.976C995.036 689.326 998.15 689.486 1000.33 690.784C1002.58 692.125 1003.54 694.48 1003.6 696.796C1003.75 702.68 998.714 708.446 992.331 712.005C985.948 715.564 978.379 717.278 970.951 718.622Z" fill="#089FA5"/>
<path d="M951.731 738.108C945.136 733.305 939.588 721.969 939.984 712.055C940.092 709.329 940.521 706.484 941.692 703.859C942.861 701.232 944.864 698.844 947.211 697.888C949.637 696.901 952.093 697.553 953.98 698.9C958.768 702.323 960.337 709.816 959.331 717.055C958.324 724.293 955.133 731.367 951.731 738.108Z" fill="#089FA5"/>
<path d="M950.379 737.935C956.27 732.291 968.408 728.835 978.095 730.975C980.76 731.565 983.484 732.488 985.862 734.104C988.24 735.72 990.239 738.113 990.763 740.592C991.306 743.153 990.231 745.459 988.572 747.075C984.356 751.184 976.703 751.404 969.756 749.133C962.81 746.865 956.411 742.475 950.379 737.935Z" fill="#089FA5"/>
<path d="M927.988 770.296C920.738 766.556 913.526 756.198 912.406 746.34C912.099 743.629 912.088 740.752 912.844 737.978C913.6 735.204 915.215 732.538 917.39 731.236C919.636 729.89 922.164 730.16 924.234 731.205C929.487 733.857 932.18 741.024 932.29 748.33C932.399 755.637 930.324 763.116 927.988 770.296Z" fill="#089FA5"/>
<path d="M926.625 770.332C931.588 763.855 943.057 758.588 952.958 759.228C955.681 759.404 958.513 759.9 961.11 761.136C963.708 762.369 966.045 764.429 966.944 766.801C967.872 769.249 967.158 771.691 965.765 773.541C962.226 778.245 954.697 779.629 947.485 778.445C940.273 777.263 933.28 773.899 926.625 770.332Z" fill="#089FA5"/>
<path d="M909.353 807.397C901.648 804.713 893.053 795.472 890.559 785.869C889.875 783.226 889.457 780.38 889.819 777.528C890.176 774.676 891.4 771.809 893.371 770.213C895.405 768.566 897.947 768.478 900.141 769.221C905.716 771.108 909.389 777.825 910.525 785.045C911.66 792.264 910.657 799.96 909.353 807.397Z" fill="#089FA5"/>
<path d="M908.008 807.624C912.01 800.514 922.626 793.688 932.518 792.929C935.24 792.721 938.114 792.816 940.858 793.672C943.602 794.53 946.208 796.241 947.429 798.462C948.693 800.757 948.33 803.272 947.21 805.302C944.369 810.456 937.106 812.884 929.801 812.726C922.494 812.568 915.097 810.22 908.008 807.624Z" fill="#089FA5"/>
<path d="M898.942 843.888C892.476 843.052 884.241 837.232 880.716 830.129C879.748 828.176 878.956 826.019 878.769 823.728C878.582 821.437 879.07 818.996 880.35 817.425C881.672 815.804 883.645 815.317 885.482 815.539C890.152 816.101 894.126 820.753 896.196 826.215C898.268 831.675 898.745 837.859 898.942 843.888Z" fill="#089FA5"/>
<path d="M897.93 844.286C899.895 838.07 907.078 830.99 914.691 828.777C916.786 828.168 919.05 827.77 921.336 827.992C923.624 828.212 925.942 829.124 927.26 830.661C928.624 832.249 928.752 834.276 928.21 836.046C926.831 840.542 921.55 843.633 915.81 844.705C910.068 845.78 903.9 845.154 897.93 844.286Z" fill="#089FA5"/>
<path d="M426.163 979.529C425.523 967.443 423.839 955.423 421.158 943.622C418.504 931.945 414.89 920.485 410.387 909.389C405.836 898.169 400.37 887.322 394.072 876.983C387.82 866.721 380.748 856.953 372.918 847.837C365.087 838.723 356.507 830.251 347.259 822.575C346.107 821.619 344.943 820.675 343.771 819.743C343.239 819.319 343.971 818.559 344.5 818.981C354.01 826.542 362.856 834.922 370.943 843.986C378.975 852.987 386.264 862.651 392.734 872.833C399.206 883.022 404.852 893.73 409.618 904.821C414.414 915.982 418.308 927.531 421.223 939.326C424.116 951.035 426.044 962.99 426.935 975.019C427.046 976.513 427.139 978.009 427.219 979.503C427.254 980.183 426.199 980.206 426.163 979.529Z" fill="#089FA5"/>
<path d="M350.582 825.349C350.724 817.192 345.018 805.933 336.868 800.278C334.625 798.722 332.098 797.349 329.297 796.702C326.496 796.053 323.384 796.213 321.206 797.51C318.956 798.852 317.997 801.206 317.937 803.522C317.781 809.406 322.818 815.173 329.202 818.732C335.585 822.29 343.153 824.005 350.582 825.349Z" fill="#089FA5"/>
<path d="M369.803 844.833C376.397 840.032 381.944 828.695 381.549 818.781C381.44 816.055 381.012 813.211 379.841 810.584C378.671 807.959 376.668 805.571 374.321 804.615C371.895 803.628 369.439 804.28 367.553 805.627C362.765 809.049 361.196 816.543 362.203 823.781C363.208 831.02 366.399 838.093 369.803 844.833Z" fill="#089FA5"/>
<path d="M371.153 844.661C365.263 839.017 353.124 835.56 343.436 837.701C340.772 838.292 338.048 839.215 335.669 840.831C333.292 842.447 331.293 844.84 330.769 847.319C330.225 849.88 331.301 852.185 332.96 853.801C337.175 857.911 344.829 858.131 351.775 855.86C358.723 853.592 365.121 849.201 371.153 844.661Z" fill="#089FA5"/>
<path d="M393.544 877.022C400.795 873.282 408.005 862.925 409.125 853.066C409.433 850.354 409.444 847.478 408.688 844.705C407.932 841.93 406.316 839.265 404.141 837.962C401.896 836.617 399.367 836.886 397.299 837.931C392.044 840.582 389.351 847.75 389.241 855.057C389.132 862.363 391.208 869.842 393.544 877.022Z" fill="#089FA5"/>
<path d="M394.906 877.059C389.944 870.581 378.475 865.315 368.574 865.953C365.851 866.131 363.018 866.627 360.422 867.863C357.824 869.095 355.487 871.156 354.588 873.527C353.66 875.976 354.374 878.417 355.767 880.268C359.304 884.972 366.835 886.356 374.046 885.172C381.258 883.989 388.252 880.625 394.906 877.059Z" fill="#089FA5"/>
<path d="M412.18 914.124C419.884 911.44 428.48 902.197 430.973 892.594C431.658 889.953 432.074 887.106 431.714 884.254C431.357 881.402 430.132 878.536 428.162 876.94C426.126 875.293 423.586 875.205 421.39 875.946C415.817 877.834 412.142 884.552 411.008 891.772C409.873 898.99 410.876 906.686 412.18 914.124Z" fill="#089FA5"/>
<path d="M413.524 914.35C409.522 907.241 398.905 900.414 389.013 899.655C386.293 899.447 383.418 899.542 380.673 900.398C377.93 901.257 375.325 902.967 374.102 905.189C372.84 907.482 373.202 909.998 374.322 912.029C377.164 917.182 384.426 919.61 391.73 919.453C399.038 919.294 406.434 916.946 413.524 914.35Z" fill="#089FA5"/>
<path d="M422.59 950.615C429.055 949.779 437.291 943.959 440.815 936.857C441.785 934.903 442.575 932.745 442.762 930.455C442.95 928.164 442.461 925.723 441.182 924.152C439.861 922.531 437.887 922.044 436.05 922.265C431.379 922.828 427.405 927.48 425.335 932.941C423.265 938.401 422.787 944.585 422.59 950.615Z" fill="#089FA5"/>
<path d="M423.603 951.012C421.638 944.797 414.454 937.717 406.842 935.504C404.747 934.894 402.483 934.497 400.196 934.718C397.908 934.938 395.591 935.85 394.272 937.388C392.908 938.976 392.78 941.002 393.322 942.773C394.702 947.269 399.983 950.36 405.723 951.432C411.463 952.506 417.632 951.881 423.603 951.012Z" fill="#089FA5"/>
<path d="M620.531 729.883C622.016 736.66 626.732 740.319 634.165 743.045C624.717 745.875 621.02 752.704 618.536 761.409C617.797 757.496 617.344 754.523 615.631 751.959C613.973 748.191 610.451 747 607.015 745.663C605.579 745.108 604.765 743.776 604.777 742.44C604.801 739.716 606.716 741.815 607.704 741.481C614.961 739.025 617.103 732.832 618.549 725.367C619.439 727.393 619.985 728.636 620.531 729.883Z" fill="#EBEBF0"/>
<path d="M580.992 651.354C579.818 650.995 579.044 650.309 579.041 648.987C587.665 647.986 590.32 641.387 592.82 632.867C595.481 641.549 599.206 647.787 608.878 649.778C599.994 652.77 595.27 657.495 594.072 665.267C592.346 666.586 592.346 666.586 591.196 663.295C590.21 657.251 586.86 653.227 580.992 651.354Z" fill="#EBEBF0"/>
<path d="M725.794 743.72C725.794 743.72 725.804 743.747 725.804 743.741C720.734 744.989 718.372 748.804 716.473 755.805C715.052 749.141 713.078 745.197 706.993 743.425C712.058 740.937 715.104 737.877 716.506 733.044C718.097 738.213 722.188 740.745 725.794 743.72Z" fill="#EBEBF0"/>
<path d="M784.242 868.216C782.991 863.809 777.51 863.416 775.853 859.391C782.387 858.144 784.69 853.436 785.686 846.959C788.181 852.484 790.213 857.949 797.937 860.015C790.995 862.457 788.279 866.827 786.303 872.731C785.326 870.588 784.783 869.403 784.242 868.216Z" fill="#EBEBF0"/>
<path d="M920.801 816.311C919.55 808.523 916.654 804.188 909.698 801.963C916.652 799.91 919.644 795.612 920.789 788.342C922.796 795.111 925.634 799.699 932.382 801.931C925.612 804.472 922.798 809.046 920.801 816.311Z" fill="#EBEBF0"/>
<path d="M744.435 688.983C744.437 688.991 744.445 688.996 744.448 689.004C744.456 689.004 744.461 689.007 744.468 689.007L744.435 688.983Z" fill="#CBD5F4"/>
<path d="M775.853 859.392C774.368 856.29 772.886 853.188 771.402 850.07C770.297 858.197 766.449 864.513 756.501 867.664C766.857 870.201 770.021 876.83 771.781 886.78C773.481 877.358 777.336 871.62 784.242 868.217C782.992 863.809 777.513 863.418 775.853 859.392Z" fill="#CBD5F4"/>
<path d="M1237.7 992.535C1237 990.132 1236.31 987.732 1235.61 985.335C1232.42 986.771 1229.17 985.938 1225.95 985.591C1227.05 985.632 1228.16 985.67 1229.27 985.714C1231.47 985.799 1233.51 986.028 1235.27 984.423C1232.95 979.339 1230.06 974.427 1228.44 969.127C1225.75 960.283 1217.48 955.296 1214.14 946.907C1212.1 941.784 1209.85 936.496 1205.15 932.954C1203.12 931.324 1200.79 930.627 1198.21 930.348C1169.2 927.18 1140.56 921.643 1111.85 916.558C1096 913.87 1080.33 910.29 1064.55 907.244C1032.76 901.103 1000.81 896.579 968.353 896.508C960.734 896.639 953.114 896.556 945.486 896.579C937.113 896.395 928.906 897.935 920.681 899.084C883.808 904.244 849.554 915.963 820.737 940.452C813.462 946.634 805.569 952.555 801.57 961.807C801.622 963.903 803.169 964.84 804.725 965.606C817.557 971.938 826.341 982.202 833.024 994.54C834.218 996.748 835.318 999.09 838.141 999.674C842.14 1000.37 846.029 999.671 849.884 998.687C880.236 990.796 911.285 988.162 942.468 987.488C964.514 987.011 986.548 989.01 1008.49 991.192C1036.58 993.992 1064.69 996.559 1092.8 999.063C1097.65 999.071 1102.41 1000.24 1107.28 1000.24C1148.58 1000.26 1189.89 1000.27 1231.19 1000.22C1233.87 1000.21 1236.7 1000.52 1238.86 998.326C1238.47 996.392 1238.08 994.462 1237.7 992.535Z" fill="#E8DCD1"/>
<path d="M727.612 902.021C703.454 890.515 677.354 887.758 651.194 886.253C626.961 884.853 602.802 886.991 578.732 890.226C535.989 895.975 494.184 906.386 452.033 915.095C424.87 920.714 397.58 925.603 370.2 930.014C366.542 930.603 362.901 930.87 359.722 932.982C356.582 935.534 355.618 939.438 353.674 942.729C350.638 947.885 348.812 954.618 344.404 957.862C339.458 961.497 337.862 965.847 336.072 970.809C333.58 977.699 330.922 984.529 328.337 991.385C329.937 992.923 331.966 992.457 333.856 992.509C334.63 992.533 335.408 992.538 336.186 992.553C334.806 992.553 333.428 992.558 332.049 992.549C330.31 992.535 328.537 992.459 327.098 993.731L325.936 998.297C328.652 1000.89 332.101 1000.24 335.301 1000.2C367.369 999.905 399.461 1001.23 431.509 999.033C449.226 997.589 466.981 996.707 484.714 995.617C503.452 994.467 522.158 992.925 540.874 991.578C566.74 989.715 592.613 988.206 618.525 987.377C634.612 986.862 650.613 988.499 666.641 989.582C684.094 990.761 701.292 993.203 718.013 998.529C719.968 998.894 721.892 999.525 723.92 999.018C726.452 997.85 727.286 995.362 728.44 993.157C738.233 974.39 753.454 963.566 774.641 961.282C777.589 960.962 780.934 961.167 782.849 958.045C782.852 955.214 781.584 952.794 780.268 950.419C768.084 928.453 750.108 912.733 727.612 902.021Z" fill="#E8DCD1"/>
<path d="M987.357 757.303C1004.28 745.337 1022.36 735.315 1040.76 725.894C1056.57 717.802 1072.68 710.327 1088.66 702.579C1094.57 700.353 1100.47 698.131 1107.29 695.561C1103.59 708.826 1100.12 721.198 1096.69 733.582C1095.53 737.791 1091.62 736.806 1088.94 737.274C1070.48 740.503 1052.13 744.299 1033.89 748.621C1018.28 752.323 1002.83 756.63 987.688 761.985C986.082 762.554 984.534 763.583 982.674 763.094C982.144 759.47 986.509 759.811 987.357 757.303Z" fill="#D4BEA7"/>
<path d="M987.357 757.303C987.666 760.745 983.013 760.175 982.674 763.094C980.122 764.665 977.532 766.151 974.522 766.679C977.873 762.282 982.914 760.202 987.357 757.303Z" fill="#91806B"/>
<path d="M837.061 998.658C841.027 998.431 845.031 998.57 848.891 997.371C917.009 995.288 985.144 996.984 1053.27 996.476C1063.52 996.402 1073.76 996.828 1083.98 997.699C1086.64 997.928 1089.39 998.171 1092.05 997.398C1137.69 999.618 1183.35 997.958 1229 998.46C1232.29 998.496 1235.58 998.374 1238.86 998.324C1245.21 999.216 1248.33 1002.06 1247.98 1006.64C1247.64 1011.25 1244.24 1013.63 1237.77 1013.64C1110.94 1013.65 984.119 1013.64 857.292 1013.69C854.868 1013.69 852.215 1012.81 850.043 1014.77C845.615 1015.53 841.159 1015.46 836.787 1014.64C833.239 1013.97 829.955 1012.62 830.327 1007.97C830.687 1006.76 831.303 1005.84 832.733 1006.58C837.431 1009 837.603 1006.51 836.748 1002.91C836.399 1001.45 835.775 999.99 837.061 998.658Z" fill="#1F1D2B"/>
<path d="M325.936 998.297C358.013 998.144 390.1 999.541 422.162 997.425C425.429 997.209 428.723 997.36 432.004 997.341C441.081 998.549 450.152 997.146 459.213 996.97C467.527 996.812 475.859 996.509 484.176 996.498C557.64 996.402 631.104 996.484 704.566 996.362C709.597 996.35 714.477 997.83 719.504 997.268C720.973 997.688 722.445 998.109 723.915 998.53C724.911 999.744 724.316 1001.04 724.103 1002.31C723.832 1003.94 722.861 1006.01 724.881 1006.84C727.081 1007.76 727.5 1005.38 728.347 1004.03C729.389 1002.37 729.724 999.849 732.677 1000.57C735.607 1002.58 736.512 1005.39 735.407 1008.63C734.111 1012.43 731.256 1014.56 727.24 1014.94C721.517 1015.49 715.694 1014.62 710.032 1016.1C708.685 1012.59 705.632 1013.68 703.116 1013.68C607.268 1013.64 511.419 1013.65 415.573 1013.65C386.273 1013.65 356.977 1013.64 327.68 1013.65C324.563 1013.65 321.417 1013.86 319.108 1011.12C317.191 1008.85 316.673 1006.33 317.677 1003.54C319.069 999.656 322.24 998.557 325.936 998.297Z" fill="#1F1D2B"/>
<path d="M799.853 962.081C800.641 962.234 801.428 962.383 802.217 962.537C818.725 969.853 829.137 983.054 837.062 998.659C837.39 999.931 837.576 1001.26 838.077 1002.46C839.1 1004.92 839.669 1007.43 837.128 1009.09C834.02 1011.12 832.885 1008.11 831.38 1006.3C825.258 988.111 814.665 973.413 795.484 968.369C768.785 961.35 742.033 973.249 731.357 1000.64C730.544 1002.56 729.769 1004.51 728.909 1006.41C727.998 1008.42 726.776 1010.37 724.201 1009.29C721.942 1008.34 721.486 1006.23 722.144 1003.96C722.673 1002.13 723.322 1000.34 723.917 998.53C730.462 984.269 739.55 972.374 754.098 965.327C762.997 961.017 772.453 959.557 782.157 959.027C783.582 960.519 785.337 959.783 786.992 959.747C789.388 959.941 791.781 960.133 794.18 960.327C796.073 960.915 797.962 961.497 799.853 962.081Z" fill="#EC3F2F"/>
<path d="M944.262 898.152C952.416 896.348 960.575 896.364 968.731 898.147C960.575 898.15 952.416 898.152 944.262 898.152Z" fill="#C9C7B3"/>
<path d="M647.224 970.461C647.146 964.665 647.066 958.87 646.987 953.074C645.898 947.283 647.562 941.407 646.467 935.613C646.4 934.742 646.326 933.869 646.255 932.994C645.206 931.855 645.147 930.671 646.095 929.441C646.13 922.207 646.16 914.975 646.195 907.741C646.668 907.238 647.248 907.011 647.934 907.047C665.998 906.859 683.752 909.161 701.212 913.755C703.447 914.345 705.767 914.725 707.66 916.221C708.182 916.725 708.319 917.318 708.086 918.002C707.642 940.719 707.203 963.437 706.738 987.439C702.53 984.35 699.339 982.003 696.147 979.658C693.652 978.871 691.419 977.606 689.371 975.989C688.726 975.573 688.142 975.077 687.542 974.607C674.51 964.451 679.426 964.981 665.459 973.237C664.154 974.219 662.548 974.446 661.063 974.975C656.315 976.049 652.908 979.71 648.152 981.749C646.703 979.262 647.838 976.495 647.159 974.067C646.402 972.853 646.318 971.647 647.224 970.461Z" fill="#EC3F2F"/>
<path d="M839.398 1013.49C835.125 1012.86 830.442 1012.73 831.378 1006.3C832.622 1004.63 831.99 1002.89 831.298 1001.35C827.074 991.947 822.009 983.112 813.901 976.4C803.562 967.846 791.776 964.558 778.364 965.267C757.802 966.356 742.973 976.11 732.816 993.57C731.612 995.643 730.164 997.94 731.358 1000.64C733.901 1002.73 735.616 1005.3 734.037 1008.58C732.453 1011.87 729.808 1013.79 725.788 1013.55C721.98 1013.31 718.145 1013.52 714.321 1013.49C712.317 1013.47 710.414 1013.51 710.034 1016.1C711.309 1021.82 715.398 1023.85 720.706 1023.85C760.218 1023.9 799.732 1023.91 839.244 1023.84C845.158 1023.83 849.161 1021.03 850.04 1014.77C846.745 1012.26 842.933 1014.01 839.398 1013.49Z" fill="#1F1D2B"/>
<path d="M1034.78 991.974C994.86 987.946 954.94 983.883 914.731 986.909C892.505 988.578 870.415 991.229 848.891 997.371C850.493 999.015 852.548 998.341 854.409 998.341C931.383 998.375 1008.36 998.381 1085.33 998.335C1087.58 998.335 1090.01 999.09 1092.05 997.397C1072.96 995.598 1053.86 993.898 1034.78 991.974Z" fill="#004C5B"/>
<path d="M719.505 997.267C715.425 996.043 711.401 994.588 707.26 993.632C676.626 986.584 645.436 985.145 614.213 985.881C553.341 987.32 492.769 993.937 432.001 997.341C433.8 999.083 436.057 998.341 438.104 998.345C530.081 998.376 622.058 998.367 714.033 998.327C715.884 998.324 717.962 999.039 719.505 997.267Z" fill="#004C5B"/>
<path d="M647.321 907.542C649.649 902.198 654.501 902.804 659.001 902.58C675.996 903.51 692.756 905.835 709.004 911.136C710.492 913.404 710.648 915.403 707.859 916.81C694.093 913.447 680.201 910.86 666.113 909.214C661.087 908.626 656.127 908.718 651.148 908.874C649.527 908.926 648.112 909.435 647.321 907.542Z" fill="#CD3929"/>
<path d="M1106.41 932.146C1085.47 927.73 1064.42 923.807 1043.39 919.835C1019.27 915.278 994.915 912.394 970.431 911.174C936.002 909.455 902.668 915.4 870.396 927.366C860.483 931.043 850.712 935.087 841.776 940.854C851.318 937.72 860.595 933.927 870.068 930.716C895.247 922.192 920.999 916.539 947.695 915.631C975.66 914.682 1003.22 917.98 1030.76 922.402C1067.91 928.364 1104.81 935.631 1141.82 942.316C1148.89 943.594 1155.87 945.883 1163.27 945.163C1144.32 940.796 1125.43 936.154 1106.41 932.146Z" fill="#CDB296"/>
<path d="M841.646 962.221C906.593 934.817 973.897 934.563 1042.17 945.408C973.615 931.293 906.11 929.22 841.646 962.221Z" fill="#CDB296"/>
<path d="M864.161 975.004C916.238 958.646 969.142 960.662 1022.28 967.594C969.022 957.892 916.029 954.085 864.161 975.004Z" fill="#CDB296"/>
<path d="M653.357 901.759C634.006 901.707 614.694 901.78 595.369 903.796C576.731 905.742 558.253 908.432 539.834 911.735C517.595 915.724 495.797 921.68 473.74 926.48C463.21 928.771 452.837 931.799 442.396 934.495C443.73 935.327 444.906 935.423 445.998 935.164C482.773 926.368 519.701 918.452 557.171 913.012C586.753 908.72 616.366 906.912 646.193 907.736C646.567 907.663 646.945 907.598 647.322 907.543C650.849 905.027 655.441 905.018 658.999 902.579C657.265 901.328 655.257 901.764 653.357 901.759Z" fill="#CDB296"/>
<path d="M642.116 948.831C619.87 947.201 597.594 948.281 575.411 949.84C556.782 951.144 538.196 953.367 519.723 956.373C507.53 958.361 495.235 959.756 483.255 963.044C537.628 956.136 591.939 948.535 646.991 953.076C647.132 947.247 645.363 949.069 642.116 948.831Z" fill="#CDB296"/>
<path d="M505.62 979.393C552.677 974.312 599.832 971.97 647.159 974.066L647.223 970.461C599.772 969.476 552.449 970.512 505.62 979.393Z" fill="#CDB296"/>
<path d="M646.257 932.996C646.202 931.812 646.148 930.629 646.096 929.443C643.902 928.444 641.569 928.556 639.241 928.551C616.025 928.475 592.949 930.603 569.932 933.321C556.498 934.907 543.145 937.177 529.757 939.137C568.524 935.293 607.16 930.112 646.257 932.996Z" fill="#CDB296"/>
<path d="M709.003 911.137C709.238 913.15 708.959 915.063 707.859 916.813C707.934 917.207 708.007 917.606 708.083 918.006C729.002 922.994 746.302 934.394 762.134 948.455C748.958 929.551 730.378 918.355 709.003 911.137Z" fill="#CDB296"/>
<path d="M687.325 974.462C679.865 972.76 672.431 970.522 664.66 972.637C662.996 972.702 661.908 973.654 661.065 974.976C672.76 976.536 684.455 978.097 696.149 979.66C694.291 978.152 692.429 976.642 690.571 975.134C689.324 975.672 688.405 974.71 687.325 974.462Z" fill="#95806B"/>
<path d="M1074.26 705.782C1062.32 709.305 1044.13 714.921 1022.29 722.722C948.793 748.976 896.159 768.376 852.079 813.652C841.346 824.677 826.227 842.261 811.982 867.784C810.375 820.73 804.301 782.438 798.706 755.25C793.875 731.79 790.171 714.19 781.425 690.668C769.206 657.818 751.97 627.544 731.401 599.093C720.462 583.961 709.143 569.149 697.667 554.438C694.995 551.013 692.443 549.477 688.029 552.304C668.867 564.576 649.531 576.58 630.227 588.629C615.377 597.897 600.478 607.092 585.601 616.318C595.718 625.638 605.814 634.994 615.662 644.581C629.826 658.37 643.85 672.318 657.223 686.925C667.429 698.072 677.871 709.036 687.786 720.424C709.185 745.002 729.718 770.324 748.367 797.081C761.894 816.496 775.173 836.068 785.087 857.71C792.762 874.458 797.705 891.866 799.673 910.165C799.827 911.585 799.161 913.96 801.237 914.261C801.222 914.29 801.214 914.324 801.198 914.356C801.195 926.506 801.195 938.654 801.195 951.713C812.054 936.776 822.242 922.76 832.427 908.744C834.957 908.957 835.918 906.32 837.154 904.704C855.405 880.824 874.777 857.852 895.118 835.782C919.023 809.849 945.147 786.262 974.603 766.614L974.522 766.68C978.882 763.422 983.85 761.134 988.302 758.032C1018.73 738.268 1050.8 721.552 1083.88 706.698C1084.46 706.437 1086 705.574 1088.14 704.481C1095.81 700.566 1102.4 697.625 1107.29 695.558C1100.04 697.754 1088.46 701.293 1074.26 705.782Z" fill="white"/>
<path d="M772.454 899.26C770.929 895.9 769.036 892.732 766.673 889.864C765.808 889.11 764.96 888.338 764.117 887.559C763.87 886.914 763.601 886.284 763.248 885.707C747.848 860.547 729.74 837.478 709.626 816.056C696.041 801.587 681.989 787.572 666.725 774.858C645.129 756.862 622.61 740.124 599.504 724.183C593.3 719.912 587.094 715.636 580.89 711.362C580.893 711.851 580.8 712.26 580.642 712.619C576.262 707.83 571.258 704.015 564.62 702.74C564.008 703.483 563.53 704.43 562.761 704.939C553.832 710.887 545.313 717.384 536.692 723.768C517.386 738.067 499.833 754.348 482.284 770.608C464.654 786.942 448.326 804.624 431.781 822.063C430.702 823.199 429.562 824.263 429.586 825.999C430.848 827.762 432.76 828.319 434.708 828.235C440.376 828.002 445.876 829.394 451.458 829.787C473.837 831.362 496.16 833.487 518.492 835.559C543.517 837.876 568.497 840.463 593.429 843.662C626.872 847.946 660.049 853.482 692.574 862.52C715.096 868.78 736.937 876.511 755.64 891.203C760.088 894.7 763.866 898.848 767.882 902.778C769.228 904.091 771 906.182 772.762 905.014C775.01 903.52 773.292 901.107 772.454 899.26Z" fill="white"/>
<path d="M789.138 954.975C788.52 950.671 788.155 946.304 786.056 942.362C785.218 941.19 784.648 939.862 784.018 938.567C779.76 919.092 768.342 903.898 753.206 891.326C739.954 880.324 724.086 874.012 707.914 868.384C674.74 856.836 640.411 850.676 605.784 845.87C587.64 843.346 569.454 841.146 551.168 839.724C532.335 838.263 513.555 836.138 494.752 834.302C487.379 834.086 480.099 832.35 472.675 832.986C472.642 833.027 472.611 833.07 472.578 833.108C472.479 832.868 472.367 832.618 472.203 832.352C467.304 830.506 462.084 830.647 457.006 829.91C454.418 829.534 451.712 828.695 449.368 830.766C449.33 831.992 448.798 832.967 447.944 833.836C431.744 850.291 416.671 867.774 401.322 885.008C387.243 900.823 372.983 916.462 359.722 932.983C381.782 930.514 403.6 926.448 425.339 922.151C463.195 914.667 500.867 906.27 538.675 898.542C564.606 893.24 590.816 889.516 617.227 887.991C639.843 886.682 662.483 887.756 684.92 891.299C707.338 894.839 728.523 901.58 746.978 915.406C762.419 926.976 775.039 940.77 782.156 959.028C783.202 961.65 785.18 961.135 787.186 960.518C789.206 959.148 789.447 957.142 789.138 954.975Z" fill="#FFFBFA"/>
<path d="M798.876 930.832C798.473 929.137 797.965 927.473 797.575 925.777C797.848 903.603 793.221 882.34 784.559 861.909C771.665 831.508 751.921 805.351 732.435 779.097C716.536 757.676 699.925 736.781 682.331 716.709C666.903 699.115 651.44 681.536 634.563 665.281C628.663 659.061 622.848 652.759 616.264 647.236C616.343 647.08 616.439 646.947 616.507 646.777C612.208 639.604 605.563 634.924 598.931 630.231C598.848 630.173 598.588 630.371 598.411 630.447C597.676 631.861 596.592 632.892 595.179 633.653C572.077 646.133 550.839 661.425 529.719 676.903C531.372 679.44 534.02 680.761 536.46 682.312C576.525 707.773 616.223 733.761 653.984 762.611C678.725 781.509 701.169 802.812 721.524 826.279C741.877 849.743 760.291 874.693 774.993 902.145C783.979 918.921 791.941 936.167 792.711 955.737C792.792 957.721 792.563 960.297 795.796 960.304C797.984 959.095 797.885 956.835 798.259 954.816C799.735 946.859 799.464 938.849 798.876 930.832Z" fill="#F7F3EF"/>
<path d="M1202.33 927.308C1184.51 901.016 1166.39 874.916 1149.15 848.243C1143.88 840.082 1137.34 836.092 1128.33 833.859C1105.34 828.168 1082.19 823.494 1058.78 819.838C1045.29 817.731 1031.77 815.187 1018.22 814.662C998.969 813.915 979.617 813.351 960.375 816.59C939.868 820.047 920.163 825.655 901.739 835.399C900.255 836.182 891.804 842.216 891.475 842.33C890.084 843.66 888.554 844.872 887.314 846.331C876.694 858.883 865.875 871.28 855.605 884.114C842.935 899.955 830.503 916 819.403 933.018C819.4 933.018 819.4 933.02 819.4 933.02C811.946 942.078 805.506 951.815 799.854 962.08C800.517 962.871 801.309 962.999 802.216 962.538C803.88 960.196 805.308 957.636 807.245 955.548C821.67 939.963 838.371 927.599 857.765 918.654C885.273 905.963 914.281 900.142 944.261 898.152C952.417 897.244 960.576 897.258 968.731 898.147C980.895 898.051 992.96 899.559 1005.07 900.303C1029.56 901.807 1053.35 907.459 1077.43 911.388C1089 913.274 1100.2 917.082 1111.96 917.984H1111.97C1116.84 919.944 1122.1 920.035 1127.17 920.995C1153.02 925.88 1178.98 930.104 1205.15 932.952C1204.82 930.768 1203.53 929.084 1202.33 927.308Z" fill="#FFFBFA"/>
<path d="M690.569 975.133C683.849 976.558 677.546 973.354 670.941 973.359C668.848 973.362 666.757 972.893 664.661 972.637C667.565 969.415 671.792 968.154 675.138 965.581C677.273 963.935 678.73 965.687 680.189 966.825C683.685 969.549 687.114 972.361 690.569 975.133Z" fill="#CDB095"/>
<path d="M529.719 676.901C623.547 728.621 805.195 867.582 790.072 961.306C783.672 953.684 785.152 932.022 774.984 919.604C722.239 829.736 488.524 844.012 428.708 828.373C544.673 831.988 729.104 848.186 772.579 904.706C709.711 787.618 608.735 740.452 529.719 676.901Z" fill="#D2B9A0"/>
<path d="M832.475 908.682C873.076 856.926 917.244 802.216 974.604 766.614C862.479 843.857 783.919 1007.14 797.041 951.38C808.937 822.804 652.336 689.669 595.019 627.302C591.187 625.264 579.612 610.877 591.528 619.769C695.709 720.532 812.52 842.566 802.559 943.066C798.415 962.473 821.807 913.144 832.475 908.682Z" fill="#CDB296"/>
<path d="M673.471 370.042L681.181 409.775L653.573 389.415L570.34 298.586L673.471 370.042Z" fill="#E8DCD1"/>
<path d="M711.759 345.359L570.341 298.585L673.47 370.041L711.759 345.359Z" fill="white"/>
<path d="M653.573 389.415L570.34 298.585L628.176 425.771L653.573 389.415Z" fill="white"/>
<path d="M689.29 408.394C689.29 408.394 689.462 408.535 689.794 408.82" stroke="white" stroke-width="2.66667" stroke-miterlimit="10" stroke-linecap="round"/>
<path d="M693.72 412.38C714.761 432.238 803.512 526.805 801.224 707.252" stroke="white" stroke-width="2.66667" stroke-miterlimit="10" stroke-linecap="round" stroke-dasharray="1.33 5.31"/>
<path d="M801.184 709.919C801.18 710.142 801.176 710.363 801.172 710.586" stroke="white" stroke-width="2.66667" stroke-miterlimit="10" stroke-linecap="round"/>
<path d="M938.221 556.619L935.304 594.431L958.818 572.52L1026.56 479.048L938.221 556.619Z" fill="#E8DCD1"/>
<path d="M899.935 537.748L1026.56 479.048L938.221 556.619L899.935 537.748Z" fill="white"/>
<path d="M958.819 572.519L1026.56 479.047L986.358 603.638L958.819 572.519Z" fill="white"/>
<path d="M927.212 589.303C927.212 589.303 866.037 652.411 852.059 766.574" stroke="white" stroke-width="2.66667" stroke-miterlimit="10" stroke-linecap="round" stroke-dasharray="1.33 5.33"/>
<path d="M125.361 679.501L157.721 703.812L123.587 707.215L0.93457 695.628L125.361 679.501Z" fill="#E8DCD1"/>
<path d="M137.221 635.517L0.935547 695.628L125.361 679.501L137.221 635.517Z" fill="white"/>
<path d="M123.588 707.215L0.935547 695.628L129.118 751.217L123.588 707.215Z" fill="white"/>
<path d="M162.812 697.35C162.812 697.35 163.034 697.34 163.472 697.328" stroke="white" stroke-width="2.66667" stroke-miterlimit="10" stroke-linecap="round"/>
<path d="M168.771 697.337C197.697 697.965 326.948 708.626 446.23 844.042" stroke="white" stroke-width="2.66667" stroke-miterlimit="10" stroke-linecap="round" stroke-dasharray="1.33 5.31"/>
<path d="M447.989 846.049C448.135 846.217 448.281 846.384 448.427 846.552" stroke="white" stroke-width="2.66667" stroke-miterlimit="10" stroke-linecap="round"/>
<path d="M172.815 396.875C172.815 394.418 166.778 392.272 157.819 391.134C153.108 390.534 149.39 386.816 148.79 382.104C147.65 373.146 145.507 367.108 143.047 367.108C140.59 367.108 138.444 373.146 137.306 382.104C136.706 386.816 132.987 390.534 128.276 391.134C119.318 392.272 113.28 394.418 113.28 396.875C113.28 399.334 119.318 401.479 128.276 402.619C132.987 403.218 136.706 406.935 137.306 411.647C138.444 420.606 140.59 426.643 143.047 426.643C145.507 426.643 147.65 420.606 148.79 411.647C149.39 406.935 153.108 403.218 157.819 402.619C166.778 401.479 172.815 399.334 172.815 396.875Z" fill="white"/>
<path d="M1401.45 106.773C1401.45 104.315 1395.41 102.17 1386.45 101.031C1381.74 100.431 1378.03 96.7127 1377.43 92.002C1376.29 83.0433 1374.14 77.006 1371.68 77.006C1369.22 77.006 1367.08 83.0433 1365.94 92.002C1365.34 96.7127 1361.62 100.431 1356.91 101.031C1347.95 102.17 1341.92 104.315 1341.92 106.773C1341.92 109.231 1347.95 111.377 1356.91 112.517C1361.62 113.115 1365.34 116.833 1365.94 121.545C1367.08 130.503 1369.22 136.541 1371.68 136.541C1374.14 136.541 1376.29 130.503 1377.43 121.545C1378.03 116.833 1381.74 113.115 1386.45 112.517C1395.41 111.377 1401.45 109.231 1401.45 106.773Z" fill="white"/>
<path d="M1507.96 967.297C1507.96 964.84 1501.92 962.694 1492.96 961.554C1488.25 960.956 1484.53 957.237 1483.93 952.526C1482.79 943.568 1480.65 937.53 1478.19 937.53C1475.73 937.53 1473.59 943.568 1472.45 952.526C1471.85 957.237 1468.13 960.956 1463.42 961.554C1454.46 962.694 1448.42 964.84 1448.42 967.297C1448.42 969.757 1454.46 971.9 1463.42 973.041C1468.13 973.64 1471.85 977.358 1472.45 982.069C1473.59 991.028 1475.73 997.065 1478.19 997.065C1480.65 997.065 1482.79 991.028 1483.93 982.069C1484.53 977.358 1488.25 973.64 1492.96 973.041C1501.92 971.9 1507.96 969.757 1507.96 967.297Z" fill="white"/>
</svg>
