<svg width="839" height="35" viewBox="0 0 839 35" fill="none" xmlns="http://www.w3.org/2000/svg">
<path d="M0.0232553 27L4.96311 2.30073H15.3015C17.842 2.30073 20.0179 2.72415 21.8292 3.57098C23.664 4.39429 25.0636 5.58221 26.0281 7.13473C26.9925 8.66374 27.4747 10.4868 27.4747 12.6039C27.4747 14.7915 27.0984 16.7674 26.3456 18.5317C25.6164 20.2959 24.5696 21.8132 23.2053 23.0834C21.8409 24.3301 20.2178 25.2946 18.336 25.9767C16.4541 26.6589 14.3724 27 12.0906 27H0.0232553ZM6.69206 22.3071H12.267C14.2665 22.3071 15.9602 21.8955 17.348 21.0722C18.7594 20.2489 19.8297 19.1315 20.5589 17.7201C21.3117 16.3087 21.688 14.7092 21.688 12.9214C21.688 11.6982 21.4293 10.6514 20.9118 9.78108C20.3943 8.8872 19.6062 8.20503 18.5477 7.73457C17.5127 7.24059 16.2189 6.99359 14.6664 6.99359H9.76182L6.69206 22.3071ZM38.7366 27.2823C36.8077 27.2823 35.1258 26.9294 33.6909 26.2237C32.256 25.518 31.1386 24.5301 30.3388 23.2598C29.5626 21.9896 29.1745 20.4959 29.1745 18.7787C29.1745 16.6616 29.6684 14.7797 30.6564 13.1331C31.6444 11.463 32.997 10.1457 34.7141 9.18124C36.4549 8.2168 38.4308 7.73457 40.642 7.73457C42.5944 7.73457 44.2763 8.08742 45.6877 8.79311C47.1226 9.49881 48.2282 10.4868 49.0044 11.757C49.8042 13.0037 50.2041 14.4975 50.2041 16.2382C50.2041 18.3317 49.7101 20.2136 48.7222 21.8837C47.7342 23.5539 46.3816 24.8712 44.6644 25.8356C42.9472 26.8001 40.9713 27.2823 38.7366 27.2823ZM39.0894 22.7658C40.1715 22.7658 41.1242 22.5071 41.9475 21.9896C42.7943 21.4485 43.453 20.7076 43.9234 19.7666C44.3939 18.8257 44.6291 17.7319 44.6291 16.4852C44.6291 15.2149 44.2528 14.1917 43.5 13.4154C42.7473 12.6391 41.6887 12.251 40.3244 12.251C39.2423 12.251 38.2779 12.5215 37.4311 13.0626C36.6078 13.5801 35.9491 14.3093 35.4551 15.2502C34.9847 16.1911 34.7494 17.285 34.7494 18.5317C34.7494 19.8255 35.1258 20.8605 35.8785 21.6367C36.6313 22.3895 37.7016 22.7658 39.0894 22.7658ZM55.9078 27L52.5558 8.01685H57.5662L60.2478 24.3537H57.6721L66.7755 8.01685H71.5036L74.2559 24.3537H71.6801L80.7129 8.01685H85.8998L75.4202 27H69.9864L67.4106 12.992H69.0337L61.2711 27H55.9078ZM99.4282 7.73457C101.051 7.73457 102.427 8.07566 103.556 8.75783C104.686 9.41647 105.485 10.3927 105.956 11.6865C106.426 12.9802 106.473 14.5798 106.097 16.4852L103.98 27H98.4755L100.522 16.838C100.804 15.4502 100.687 14.3799 100.169 13.6271C99.6751 12.8744 98.7577 12.498 97.4169 12.498C96.0291 12.498 94.8647 12.8979 93.9237 13.6977C93.0063 14.4975 92.3712 15.7207 92.0184 17.3673L90.113 27H84.6086L88.3841 8.01685H93.6062L92.5124 13.3801L91.7361 11.757C92.6535 10.3692 93.7826 9.35767 95.1234 8.72254C96.4878 8.0639 97.9227 7.73457 99.4282 7.73457ZM109.005 27L114.227 0.818778H119.731L114.509 27H109.005ZM129.533 27.2823C127.604 27.2823 125.922 26.9294 124.487 26.2237C123.052 25.518 121.935 24.5301 121.135 23.2598C120.359 21.9896 119.97 20.4959 119.97 18.7787C119.97 16.6616 120.464 14.7797 121.452 13.1331C122.44 11.463 123.793 10.1457 125.51 9.18124C127.251 8.2168 129.227 7.73457 131.438 7.73457C133.39 7.73457 135.072 8.08742 136.484 8.79311C137.919 9.49881 139.024 10.4868 139.8 11.757C140.6 13.0037 141 14.4975 141 16.2382C141 18.3317 140.506 20.2136 139.518 21.8837C138.53 23.5539 137.178 24.8712 135.46 25.8356C133.743 26.8001 131.767 27.2823 129.533 27.2823ZM129.885 22.7658C130.967 22.7658 131.92 22.5071 132.743 21.9896C133.59 21.4485 134.249 20.7076 134.719 19.7666C135.19 18.8257 135.425 17.7319 135.425 16.4852C135.425 15.2149 135.049 14.1917 134.296 13.4154C133.543 12.6391 132.485 12.251 131.12 12.251C130.038 12.251 129.074 12.5215 128.227 13.0626C127.404 13.5801 126.745 14.3093 126.251 15.2502C125.781 16.1911 125.545 17.285 125.545 18.5317C125.545 19.8255 125.922 20.8605 126.675 21.6367C127.427 22.3895 128.498 22.7658 129.885 22.7658ZM151.278 27.2823C149.82 27.2823 148.467 26.953 147.221 26.2943C145.974 25.6121 144.974 24.6359 144.221 23.3657C143.469 22.0954 143.092 20.5664 143.092 18.7787C143.092 17.1791 143.351 15.7089 143.869 14.3681C144.41 13.0273 145.162 11.8629 146.127 10.8749C147.091 9.88694 148.209 9.12244 149.479 8.5814C150.749 8.01685 152.113 7.73457 153.572 7.73457C155.148 7.73457 156.501 8.02861 157.63 8.61669C158.759 9.20477 159.594 10.1222 160.135 11.3689C160.699 12.5921 160.899 14.1799 160.735 16.1323C160.617 18.367 160.158 20.3312 159.359 22.0249C158.559 23.695 157.477 24.9888 156.112 25.9062C154.772 26.8236 153.16 27.2823 151.278 27.2823ZM152.972 22.7306C154.054 22.7306 155.007 22.4718 155.83 21.9543C156.677 21.4133 157.336 20.684 157.806 19.7666C158.3 18.8257 158.547 17.7319 158.547 16.4852C158.547 15.1914 158.159 14.1681 157.383 13.4154C156.63 12.6627 155.571 12.2863 154.207 12.2863C153.148 12.2863 152.196 12.5568 151.349 13.0978C150.502 13.6154 149.832 14.3446 149.338 15.2855C148.867 16.2029 148.632 17.285 148.632 18.5317C148.632 19.8255 149.008 20.8487 149.761 21.6014C150.537 22.3542 151.608 22.7306 152.972 22.7306ZM156.748 27L157.489 23.2245L158.723 17.579L159.464 11.9334L160.241 8.01685H165.745L161.97 27H156.748ZM175.711 27.2823C174.252 27.2823 172.9 26.953 171.653 26.2943C170.406 25.6121 169.406 24.6359 168.654 23.3657C167.901 22.0954 167.525 20.5664 167.525 18.7787C167.525 17.1791 167.783 15.7089 168.301 14.3681C168.842 13.0273 169.595 11.8629 170.559 10.8749C171.523 9.88694 172.641 9.12244 173.911 8.5814C175.181 8.01685 176.546 7.73457 178.004 7.73457C179.486 7.73457 180.768 7.99333 181.85 8.51083C182.932 9.02834 183.767 9.82813 184.355 10.9102C184.967 11.9687 185.273 13.3095 185.273 14.9326C185.273 16.6734 185.061 18.2964 184.638 19.8019C184.238 21.2839 183.626 22.5894 182.803 23.7185C181.979 24.8241 180.968 25.6945 179.768 26.3296C178.592 26.9647 177.24 27.2823 175.711 27.2823ZM177.404 22.7306C178.486 22.7306 179.439 22.4718 180.262 21.9543C181.109 21.4133 181.768 20.684 182.238 19.7666C182.732 18.8257 182.979 17.7319 182.979 16.4852C182.979 15.1914 182.591 14.1681 181.815 13.4154C181.062 12.6627 180.004 12.2863 178.639 12.2863C177.581 12.2863 176.628 12.5568 175.781 13.0978C174.934 13.6154 174.264 14.3446 173.77 15.2855C173.299 16.2029 173.064 17.285 173.064 18.5317C173.064 19.8255 173.441 20.8487 174.193 21.6014C174.97 22.3542 176.04 22.7306 177.404 22.7306ZM181.144 27L181.921 23.2245L183.12 17.579L183.861 11.9334L186.084 0.818778H191.589L186.367 27H181.144ZM198.296 27L214.527 2.30073H217.103L223.454 27H220.843L215.057 3.7474H216.115L201.119 27H198.296ZM204.048 20.4018L205.247 18.2847H219.608L219.996 20.4018H204.048ZM237.314 27.1764C235.714 27.1764 234.338 26.8941 233.186 26.3296C232.057 25.7415 231.186 24.9064 230.575 23.8244C229.987 22.7188 229.681 21.3897 229.657 19.8372C229.657 17.5555 230.069 15.556 230.892 13.8388C231.716 12.0981 232.88 10.7455 234.385 9.78108C235.891 8.79311 237.667 8.29913 239.713 8.29913C241.313 8.29913 242.713 8.61669 243.912 9.25181C245.135 9.86341 246.088 10.7573 246.77 11.9334C247.476 13.1096 247.829 14.5092 247.829 16.1323C247.829 17.7319 247.57 19.2021 247.053 20.5429C246.535 21.8837 245.794 23.0481 244.83 24.0361C243.889 25.0241 242.783 25.8003 241.513 26.3649C240.243 26.9059 238.843 27.1764 237.314 27.1764ZM225.635 33.8452L230.68 8.47555H233.08L232.021 13.8035L230.998 17.5084L230.61 21.3897L228.14 33.8452H225.635ZM237.279 24.9535C238.831 24.9535 240.207 24.5889 241.407 23.8597C242.607 23.1069 243.548 22.0719 244.23 20.7546C244.935 19.4373 245.288 17.9436 245.288 16.2735C245.288 14.4387 244.759 13.0155 243.701 12.004C242.642 10.9925 241.137 10.4868 239.184 10.4868C237.655 10.4868 236.279 10.8631 235.056 11.6159C233.856 12.3686 232.903 13.4036 232.198 14.7209C231.516 16.0147 231.174 17.5084 231.174 19.2021C231.174 21.0134 231.704 22.4248 232.762 23.4362C233.821 24.4477 235.326 24.9535 237.279 24.9535ZM261.228 27.1764C259.628 27.1764 258.252 26.8941 257.099 26.3296C255.97 25.7415 255.1 24.9064 254.488 23.8244C253.9 22.7188 253.594 21.3897 253.571 19.8372C253.571 17.5555 253.983 15.556 254.806 13.8388C255.629 12.0981 256.794 10.7455 258.299 9.78108C259.804 8.79311 261.58 8.29913 263.627 8.29913C265.227 8.29913 266.626 8.61669 267.826 9.25181C269.049 9.86341 270.002 10.7573 270.684 11.9334C271.39 13.1096 271.742 14.5092 271.742 16.1323C271.742 17.7319 271.484 19.2021 270.966 20.5429C270.449 21.8837 269.708 23.0481 268.743 24.0361C267.802 25.0241 266.697 25.8003 265.427 26.3649C264.156 26.9059 262.757 27.1764 261.228 27.1764ZM249.548 33.8452L254.594 8.47555H256.993L255.935 13.8035L254.912 17.5084L254.524 21.3897L252.054 33.8452H249.548ZM261.192 24.9535C262.745 24.9535 264.121 24.5889 265.321 23.8597C266.52 23.1069 267.461 22.0719 268.143 20.7546C268.849 19.4373 269.202 17.9436 269.202 16.2735C269.202 14.4387 268.673 13.0155 267.614 12.004C266.556 10.9925 265.05 10.4868 263.098 10.4868C261.569 10.4868 260.193 10.8631 258.969 11.6159C257.77 12.3686 256.817 13.4036 256.111 14.7209C255.429 16.0147 255.088 17.5084 255.088 19.2021C255.088 21.0134 255.617 22.4248 256.676 23.4362C257.734 24.4477 259.24 24.9535 261.192 24.9535ZM289.965 27.1764C288.907 27.1764 288.001 26.953 287.248 26.506C286.496 26.0356 285.966 25.3769 285.661 24.5301C285.378 23.6832 285.355 22.6717 285.59 21.4956L288.977 4.38253H291.483L288.095 21.3897C287.86 22.5424 287.942 23.4362 288.342 24.0714C288.766 24.7065 289.53 25.0241 290.636 25.0241C291.153 25.0241 291.659 24.9535 292.153 24.8124C292.647 24.6477 293.094 24.4007 293.494 24.0714L294.094 25.9767C293.506 26.4237 292.847 26.7412 292.118 26.9294C291.388 27.0941 290.671 27.1764 289.965 27.1764ZM284.461 10.5573L284.849 8.47555H296.317L295.893 10.5573H284.461ZM306.009 27.1764C304.292 27.1764 302.798 26.8589 301.528 26.2237C300.281 25.5651 299.305 24.6477 298.599 23.4715C297.917 22.2954 297.576 20.9075 297.576 19.3079C297.576 17.1909 298.035 15.309 298.952 13.6624C299.87 11.9923 301.14 10.6867 302.763 9.7458C304.386 8.78135 306.233 8.29913 308.303 8.29913C310.02 8.29913 311.502 8.61669 312.748 9.25181C314.019 9.88694 314.995 10.7926 315.677 11.9687C316.383 13.1449 316.736 14.5328 316.736 16.1323C316.736 18.2494 316.277 20.143 315.36 21.8132C314.442 23.4598 313.172 24.7653 311.549 25.7298C309.949 26.6942 308.103 27.1764 306.009 27.1764ZM306.186 24.9535C307.738 24.9535 309.114 24.5889 310.314 23.8597C311.537 23.1069 312.49 22.0719 313.172 20.7546C313.878 19.4373 314.23 17.9436 314.23 16.2735C314.23 14.4387 313.689 13.0155 312.607 12.004C311.549 10.9925 310.055 10.4868 308.126 10.4868C306.597 10.4868 305.221 10.8631 303.998 11.6159C302.775 12.3686 301.81 13.4036 301.105 14.7209C300.422 16.0147 300.081 17.5084 300.081 19.2021C300.081 21.0134 300.611 22.4248 301.669 23.4362C302.751 24.4477 304.257 24.9535 306.186 24.9535ZM335.954 34.0216C334.237 34.0216 332.673 33.7747 331.261 33.2807C329.85 32.8102 328.662 32.128 327.698 31.2342L329.18 29.3288C329.932 30.0815 330.908 30.6814 332.108 31.1283C333.331 31.5752 334.672 31.7987 336.131 31.7987C338.483 31.7987 340.306 31.2577 341.6 30.1756C342.894 29.0936 343.752 27.4234 344.176 25.1652L345.163 20.2959L346.116 17.2614L346.504 14.0858L347.598 8.47555H349.997L346.751 24.7418C346.116 28.0115 344.917 30.3756 343.152 31.834C341.388 33.2924 338.989 34.0216 335.954 34.0216ZM337.189 26.2943C335.566 26.2943 334.131 25.9885 332.884 25.3769C331.661 24.7653 330.709 23.9067 330.026 22.8011C329.344 21.672 329.003 20.343 329.003 18.814C329.003 17.3085 329.262 15.9206 329.779 14.6504C330.297 13.3801 331.026 12.2745 331.967 11.3336C332.908 10.3692 334.025 9.62818 335.319 9.11067C336.613 8.56964 338.036 8.29913 339.589 8.29913C341.07 8.29913 342.388 8.55788 343.54 9.07539C344.693 9.5929 345.599 10.3692 346.257 11.4042C346.939 12.4392 347.281 13.7565 347.281 15.3561C347.304 17.379 346.904 19.2256 346.081 20.8958C345.258 22.5424 344.093 23.8597 342.588 24.8476C341.082 25.8121 339.283 26.2943 337.189 26.2943ZM337.683 24.0714C339.236 24.0714 340.612 23.7185 341.811 23.0128C343.035 22.3071 343.999 21.3427 344.705 20.1195C345.41 18.8728 345.763 17.4614 345.763 15.8853C345.763 14.1917 345.222 12.8744 344.14 11.9334C343.058 10.969 341.553 10.4868 339.624 10.4868C338.071 10.4868 336.683 10.8396 335.46 11.5453C334.237 12.251 333.273 13.2272 332.567 14.4739C331.885 15.6971 331.544 17.0968 331.544 18.6728C331.544 20.3665 332.085 21.6955 333.167 22.66C334.249 23.6009 335.754 24.0714 337.683 24.0714ZM361.732 27.1764C359.968 27.1764 358.427 26.8589 357.11 26.2237C355.816 25.5651 354.816 24.6477 354.111 23.4715C353.428 22.2954 353.087 20.8958 353.087 19.2727C353.087 17.1556 353.534 15.2737 354.428 13.6271C355.322 11.9805 356.545 10.6867 358.098 9.7458C359.65 8.78135 361.403 8.29913 363.355 8.29913C365.002 8.29913 366.425 8.61669 367.625 9.25181C368.824 9.86341 369.754 10.7573 370.412 11.9334C371.094 13.1096 371.435 14.521 371.435 16.1676C371.435 16.544 371.412 16.9321 371.365 17.332C371.318 17.7084 371.259 18.073 371.188 18.4258H354.922L355.24 16.5557H370.024L369.001 17.2614C369.236 15.7795 369.13 14.5328 368.683 13.5213C368.236 12.5098 367.542 11.7453 366.601 11.2278C365.684 10.6867 364.578 10.4162 363.285 10.4162C361.779 10.4162 360.438 10.7926 359.262 11.5453C358.086 12.2745 357.169 13.2978 356.51 14.6151C355.851 15.9089 355.522 17.4261 355.522 19.1668C355.522 21.0251 356.051 22.46 357.11 23.4715C358.192 24.4595 359.803 24.9535 361.944 24.9535C363.191 24.9535 364.343 24.7535 365.402 24.3537C366.46 23.9302 367.331 23.3539 368.013 22.6247L369.142 24.4242C368.272 25.2946 367.178 25.9767 365.86 26.4707C364.567 26.9412 363.191 27.1764 361.732 27.1764ZM380.451 27.1764C379.393 27.1764 378.487 26.953 377.734 26.506C376.982 26.0356 376.452 25.3769 376.146 24.5301C375.864 23.6832 375.841 22.6717 376.076 21.4956L379.463 4.38253H381.968L378.581 21.3897C378.346 22.5424 378.428 23.4362 378.828 24.0714C379.252 24.7065 380.016 25.0241 381.122 25.0241C381.639 25.0241 382.145 24.9535 382.639 24.8124C383.133 24.6477 383.58 24.4007 383.98 24.0714L384.579 25.9767C383.991 26.4237 383.333 26.7412 382.604 26.9294C381.874 27.0941 381.157 27.1764 380.451 27.1764ZM374.947 10.5573L375.335 8.47555H386.802L386.379 10.5573H374.947ZM403.526 27.1764C402.021 27.1764 400.598 26.9647 399.257 26.5413C397.916 26.1179 396.881 25.5769 396.152 24.9182L397.351 22.9423C398.057 23.5774 398.986 24.0831 400.139 24.4595C401.292 24.8124 402.503 24.9888 403.773 24.9888C405.537 24.9888 406.89 24.6947 407.831 24.1067C408.795 23.5186 409.278 22.707 409.278 21.672C409.278 20.9663 409.019 20.4371 408.501 20.0842C408.007 19.7078 407.361 19.4256 406.561 19.2374C405.761 19.0257 404.914 18.8257 404.02 18.6375C403.126 18.4493 402.28 18.2141 401.48 17.9318C400.68 17.626 400.021 17.1673 399.504 16.5557C399.01 15.9441 398.763 15.1208 398.763 14.0858C398.763 12.9097 399.092 11.8864 399.751 11.016C400.433 10.1457 401.374 9.47528 402.574 9.00482C403.773 8.53436 405.185 8.29913 406.808 8.29913C407.984 8.29913 409.148 8.45203 410.301 8.75783C411.454 9.06363 412.383 9.48704 413.088 10.0281L412.03 12.0393C411.301 11.4747 410.454 11.0749 409.489 10.8396C408.525 10.5809 407.56 10.4515 406.596 10.4515C404.879 10.4515 403.55 10.7691 402.609 11.4042C401.691 12.0158 401.233 12.8273 401.233 13.8388C401.233 14.5445 401.48 15.0855 401.974 15.4619C402.491 15.8383 403.15 16.1323 403.95 16.344C404.749 16.5557 405.596 16.7557 406.49 16.9439C407.408 17.1085 408.254 17.3438 409.031 17.6496C409.83 17.9554 410.477 18.4023 410.971 18.9904C411.489 19.5549 411.748 20.3547 411.748 21.3897C411.748 22.6129 411.407 23.6597 410.724 24.5301C410.042 25.3769 409.078 26.0356 407.831 26.506C406.608 26.953 405.173 27.1764 403.526 27.1764ZM421.249 27.1764C420.191 27.1764 419.285 26.953 418.532 26.506C417.779 26.0356 417.25 25.3769 416.944 24.5301C416.662 23.6832 416.639 22.6717 416.874 21.4956L420.261 4.38253H422.766L419.379 21.3897C419.144 22.5424 419.226 23.4362 419.626 24.0714C420.049 24.7065 420.814 25.0241 421.92 25.0241C422.437 25.0241 422.943 24.9535 423.437 24.8124C423.931 24.6477 424.378 24.4007 424.778 24.0714L425.377 25.9767C424.789 26.4237 424.131 26.7412 423.401 26.9294C422.672 27.0941 421.955 27.1764 421.249 27.1764ZM415.745 10.5573L416.133 8.47555H427.6L427.177 10.5573H415.745ZM436.94 27.1764C435.364 27.1764 433.964 26.8589 432.741 26.2237C431.518 25.5886 430.565 24.683 429.883 23.5068C429.201 22.3307 428.86 20.931 428.86 19.3079C428.86 17.7319 429.119 16.2735 429.636 14.9326C430.154 13.5918 430.883 12.4274 431.824 11.4395C432.765 10.428 433.87 9.65171 435.14 9.11067C436.434 8.56964 437.834 8.29913 439.339 8.29913C440.962 8.29913 442.339 8.59317 443.468 9.18124C444.597 9.7458 445.467 10.5809 446.079 11.6865C446.69 12.7685 446.996 14.0858 446.996 15.6383C446.996 17.873 446.584 19.8607 445.761 21.6014C444.938 23.3422 443.773 24.7065 442.268 25.6945C440.763 26.6824 438.987 27.1764 436.94 27.1764ZM437.469 24.9535C439.022 24.9535 440.398 24.5889 441.598 23.8597C442.821 23.1069 443.773 22.0719 444.456 20.7546C445.161 19.4373 445.514 17.9436 445.514 16.2735C445.514 14.4387 444.973 13.0155 443.891 12.004C442.833 10.9925 441.339 10.4868 439.41 10.4868C437.881 10.4868 436.505 10.8631 435.282 11.6159C434.058 12.3686 433.094 13.4036 432.388 14.7209C431.706 16.0147 431.365 17.5084 431.365 19.2021C431.365 21.0134 431.894 22.4248 432.953 23.4362C434.035 24.4477 435.54 24.9535 437.469 24.9535ZM443.574 27L444.632 21.672L445.691 17.9318L446.043 14.0505L447.173 8.47555H449.678L445.973 27H443.574ZM452.95 27L456.619 8.47555H459.019L457.96 13.9447L457.678 12.992C458.501 11.3689 459.583 10.181 460.924 9.42824C462.289 8.6755 463.982 8.29913 466.005 8.29913L465.547 10.7338C465.429 10.7338 465.311 10.7338 465.194 10.7338C465.1 10.7102 464.982 10.6985 464.841 10.6985C462.865 10.6985 461.23 11.2748 459.936 12.4274C458.666 13.5565 457.796 15.2737 457.325 17.579L455.455 27H452.95ZM473.521 27.1764C472.463 27.1764 471.557 26.953 470.804 26.506C470.052 26.0356 469.522 25.3769 469.217 24.5301C468.934 23.6832 468.911 22.6717 469.146 21.4956L472.533 4.38253H475.039L471.651 21.3897C471.416 22.5424 471.498 23.4362 471.898 24.0714C472.322 24.7065 473.086 25.0241 474.192 25.0241C474.709 25.0241 475.215 24.9535 475.709 24.8124C476.203 24.6477 476.65 24.4007 477.05 24.0714L477.65 25.9767C477.062 26.4237 476.403 26.7412 475.674 26.9294C474.945 27.0941 474.227 27.1764 473.521 27.1764ZM468.017 10.5573L468.405 8.47555H479.873L479.449 10.5573H468.017ZM489.777 27.1764C488.013 27.1764 486.472 26.8589 485.155 26.2237C483.861 25.5651 482.861 24.6477 482.155 23.4715C481.473 22.2954 481.132 20.8958 481.132 19.2727C481.132 17.1556 481.579 15.2737 482.473 13.6271C483.367 11.9805 484.59 10.6867 486.143 9.7458C487.695 8.78135 489.448 8.29913 491.4 8.29913C493.047 8.29913 494.47 8.61669 495.669 9.25181C496.869 9.86341 497.798 10.7573 498.457 11.9334C499.139 13.1096 499.48 14.521 499.48 16.1676C499.48 16.544 499.457 16.9321 499.41 17.332C499.363 17.7084 499.304 18.073 499.233 18.4258H482.967L483.284 16.5557H498.069L497.046 17.2614C497.281 15.7795 497.175 14.5328 496.728 13.5213C496.281 12.5098 495.587 11.7453 494.646 11.2278C493.729 10.6867 492.623 10.4162 491.329 10.4162C489.824 10.4162 488.483 10.7926 487.307 11.5453C486.131 12.2745 485.213 13.2978 484.555 14.6151C483.896 15.9089 483.567 17.4261 483.567 19.1668C483.567 21.0251 484.096 22.46 485.155 23.4715C486.237 24.4595 487.848 24.9535 489.989 24.9535C491.235 24.9535 492.388 24.7535 493.446 24.3537C494.505 23.9302 495.375 23.3539 496.058 22.6247L497.187 24.4242C496.316 25.2946 495.222 25.9767 493.905 26.4707C492.611 26.9412 491.235 27.1764 489.777 27.1764ZM510.507 27.1764C508.931 27.1764 507.531 26.8589 506.308 26.2237C505.085 25.5886 504.132 24.683 503.45 23.5068C502.768 22.3307 502.427 20.931 502.427 19.3079C502.427 17.7319 502.686 16.2735 503.203 14.9326C503.721 13.5918 504.45 12.4274 505.391 11.4395C506.332 10.428 507.437 9.65171 508.708 9.11067C510.001 8.56964 511.401 8.29913 512.907 8.29913C514.53 8.29913 515.906 8.59317 517.035 9.18124C518.164 9.7458 519.034 10.5809 519.646 11.6865C520.257 12.7685 520.563 14.0858 520.563 15.6383C520.563 17.3085 520.328 18.8492 519.858 20.2606C519.411 21.672 518.74 22.8952 517.846 23.9302C516.952 24.9653 515.882 25.765 514.635 26.3296C513.412 26.8941 512.036 27.1764 510.507 27.1764ZM511.036 24.9535C512.589 24.9535 513.965 24.5889 515.165 23.8597C516.388 23.1069 517.341 22.0719 518.023 20.7546C518.728 19.4373 519.081 17.9436 519.081 16.2735C519.081 14.4387 518.54 13.0155 517.458 12.004C516.4 10.9925 514.906 10.4868 512.977 10.4868C511.448 10.4868 510.072 10.8631 508.849 11.6159C507.626 12.3686 506.661 13.4036 505.955 14.7209C505.273 16.0147 504.932 17.5084 504.932 19.2021C504.932 21.0134 505.461 22.4248 506.52 23.4362C507.602 24.4477 509.108 24.9535 511.036 24.9535ZM517.141 27L518.199 21.672L519.258 17.9318L519.611 14.0505L522.257 0.818778H524.762L519.54 27H517.141ZM536.175 27L540.339 6.11148C540.692 4.37077 541.397 3.02995 542.456 2.08903C543.538 1.12458 544.949 0.642355 546.69 0.642355C547.443 0.642355 548.148 0.748209 548.807 0.959917C549.466 1.17162 550.007 1.46566 550.43 1.84203L549.301 3.67684C548.642 3.06524 547.772 2.75943 546.69 2.75943C545.608 2.75943 544.738 3.05347 544.079 3.64155C543.444 4.20611 542.997 5.12351 542.738 6.39375L542.174 9.11067L542.032 10.2045L538.68 27H536.175ZM536.14 10.5573L536.528 8.47555H547.995L547.572 10.5573H536.14ZM547.812 27L551.481 8.47555H553.881L552.822 13.9447L552.54 12.992C553.363 11.3689 554.445 10.181 555.786 9.42824C557.151 8.6755 558.844 8.29913 560.867 8.29913L560.409 10.7338C560.291 10.7338 560.173 10.7338 560.056 10.7338C559.962 10.7102 559.844 10.6985 559.703 10.6985C557.727 10.6985 556.092 11.2748 554.798 12.4274C553.528 13.5565 552.658 15.2737 552.187 17.579L550.317 27H547.812ZM569.783 27.1764C568.065 27.1764 566.572 26.8589 565.302 26.2237C564.055 25.5651 563.079 24.6477 562.373 23.4715C561.691 22.2954 561.35 20.9075 561.35 19.3079C561.35 17.1909 561.808 15.309 562.726 13.6624C563.643 11.9923 564.913 10.6867 566.536 9.7458C568.16 8.78135 570.006 8.29913 572.076 8.29913C573.793 8.29913 575.275 8.61669 576.522 9.25181C577.792 9.88694 578.768 10.7926 579.451 11.9687C580.156 13.1449 580.509 14.5328 580.509 16.1323C580.509 18.2494 580.051 20.143 579.133 21.8132C578.216 23.4598 576.945 24.7653 575.322 25.7298C573.723 26.6942 571.876 27.1764 569.783 27.1764ZM569.959 24.9535C571.512 24.9535 572.888 24.5889 574.087 23.8597C575.311 23.1069 576.263 22.0719 576.945 20.7546C577.651 19.4373 578.004 17.9436 578.004 16.2735C578.004 14.4387 577.463 13.0155 576.381 12.004C575.322 10.9925 573.829 10.4868 571.9 10.4868C570.371 10.4868 568.995 10.8631 567.771 11.6159C566.548 12.3686 565.584 13.4036 564.878 14.7209C564.196 16.0147 563.855 17.5084 563.855 19.2021C563.855 21.0134 564.384 22.4248 565.443 23.4362C566.525 24.4477 568.03 24.9535 569.959 24.9535ZM610.041 8.29913C611.711 8.29913 613.064 8.62845 614.099 9.2871C615.157 9.92222 615.886 10.8514 616.286 12.0746C616.686 13.2978 616.71 14.7562 616.357 16.4499L614.24 27H611.734L613.852 16.4146C614.228 14.5798 614.052 13.1449 613.322 12.1099C612.617 11.0749 611.323 10.5573 609.441 10.5573C607.583 10.5573 606.018 11.0749 604.748 12.1099C603.501 13.1449 602.666 14.6974 602.243 16.7674L600.196 27H597.691L599.808 16.4146C600.185 14.5798 600.008 13.1449 599.279 12.1099C598.55 11.0749 597.256 10.5573 595.398 10.5573C593.492 10.5573 591.916 11.0984 590.67 12.1804C589.423 13.2625 588.576 14.8856 588.129 17.0497L586.153 27H583.648L587.317 8.47555H589.717L588.658 13.8035L588.129 12.8861C589.023 11.2866 590.152 10.1222 591.516 9.39295C592.881 8.66374 594.421 8.29913 596.139 8.29913C597.432 8.29913 598.538 8.5226 599.455 8.96954C600.396 9.39295 601.126 10.0281 601.643 10.8749C602.184 11.6982 602.478 12.6862 602.525 13.8388L601.22 13.5565C602.137 11.7923 603.348 10.475 604.854 9.60466C606.383 8.7343 608.112 8.29913 610.041 8.29913ZM629.351 34.0216C628.481 34.0216 627.645 33.8687 626.846 33.5629C626.046 33.2807 625.411 32.8808 624.94 32.3633L626.281 30.5285C626.681 30.9519 627.151 31.2812 627.693 31.5164C628.234 31.7517 628.845 31.8693 629.527 31.8693C630.327 31.8693 631.056 31.6458 631.715 31.1989C632.397 30.7755 633.103 29.9992 633.832 28.8701L635.702 26.012L636.02 25.6592L647.029 8.47555H649.604L636.055 29.3994C635.279 30.5755 634.55 31.4929 633.867 32.1516C633.185 32.8337 632.479 33.316 631.75 33.5982C631.045 33.8805 630.245 34.0216 629.351 34.0216ZM635.279 27.5293L630.515 8.47555H633.056L637.219 25.4828L635.279 27.5293ZM657.167 27.1764C655.45 27.1764 653.956 26.8589 652.686 26.2237C651.439 25.5651 650.463 24.6477 649.758 23.4715C649.075 22.2954 648.734 20.9075 648.734 19.3079C648.734 17.1909 649.193 15.309 650.11 13.6624C651.028 11.9923 652.298 10.6867 653.921 9.7458C655.544 8.78135 657.391 8.29913 659.461 8.29913C661.178 8.29913 662.66 8.61669 663.907 9.25181C665.177 9.88694 666.153 10.7926 666.835 11.9687C667.541 13.1449 667.894 14.5328 667.894 16.1323C667.894 18.2494 667.435 20.143 666.518 21.8132C665.6 23.4598 664.33 24.7653 662.707 25.7298C661.107 26.6942 659.261 27.1764 657.167 27.1764ZM657.344 24.9535C658.896 24.9535 660.272 24.5889 661.472 23.8597C662.695 23.1069 663.648 22.0719 664.33 20.7546C665.036 19.4373 665.389 17.9436 665.389 16.2735C665.389 14.4387 664.848 13.0155 663.766 12.004C662.707 10.9925 661.213 10.4868 659.284 10.4868C657.755 10.4868 656.379 10.8631 655.156 11.6159C653.933 12.3686 652.968 13.4036 652.263 14.7209C651.581 16.0147 651.239 17.5084 651.239 19.2021C651.239 21.0134 651.769 22.4248 652.827 23.4362C653.909 24.4477 655.415 24.9535 657.344 24.9535ZM678.795 27.1764C677.172 27.1764 675.819 26.8471 674.737 26.1885C673.679 25.5298 672.95 24.5889 672.55 23.3657C672.15 22.1425 672.103 20.6958 672.409 19.0257L674.526 8.47555H677.031L674.914 19.0257C674.561 20.8605 674.761 22.3071 675.514 23.3657C676.266 24.4007 677.584 24.9182 679.466 24.9182C681.418 24.9182 683.041 24.3772 684.335 23.2951C685.652 22.213 686.534 20.59 686.981 18.4258L688.957 8.47555H691.462L687.757 27H685.358L686.417 21.672L686.946 22.5541C686.076 24.1537 684.923 25.3299 683.488 26.0826C682.077 26.8118 680.512 27.1764 678.795 27.1764ZM694.739 27L698.409 8.47555H700.808L699.75 13.9447L699.468 12.992C700.291 11.3689 701.373 10.181 702.714 9.42824C704.078 8.6755 705.772 8.29913 707.795 8.29913L707.336 10.7338C707.218 10.7338 707.101 10.7338 706.983 10.7338C706.889 10.7102 706.772 10.6985 706.63 10.6985C704.654 10.6985 703.02 11.2748 701.726 12.4274C700.456 13.5565 699.585 15.2737 699.115 17.579L697.245 27H694.739ZM744.529 8.29913C746.199 8.29913 747.552 8.62845 748.587 9.2871C749.645 9.92222 750.375 10.8514 750.774 12.0746C751.174 13.2978 751.198 14.7562 750.845 16.4499L748.728 27H746.223L748.34 16.4146C748.716 14.5798 748.54 13.1449 747.811 12.1099C747.105 11.0749 745.811 10.5573 743.929 10.5573C742.071 10.5573 740.507 11.0749 739.236 12.1099C737.99 13.1449 737.155 14.6974 736.731 16.7674L734.685 27H732.179L734.297 16.4146C734.673 14.5798 734.496 13.1449 733.767 12.1099C733.038 11.0749 731.744 10.5573 729.886 10.5573C727.981 10.5573 726.405 11.0984 725.158 12.1804C723.911 13.2625 723.064 14.8856 722.617 17.0497L720.641 27H718.136L721.806 8.47555H724.205L723.147 13.8035L722.617 12.8861C723.511 11.2866 724.64 10.1222 726.005 9.39295C727.369 8.66374 728.91 8.29913 730.627 8.29913C731.921 8.29913 733.026 8.5226 733.944 8.96954C734.885 9.39295 735.614 10.0281 736.131 10.8749C736.672 11.6982 736.966 12.6862 737.013 13.8388L735.708 13.5565C736.625 11.7923 737.837 10.475 739.342 9.60466C740.871 8.7343 742.6 8.29913 744.529 8.29913ZM763.814 27.1764C762.097 27.1764 760.603 26.8589 759.333 26.2237C758.086 25.5651 757.11 24.6477 756.404 23.4715C755.722 22.2954 755.381 20.9075 755.381 19.3079C755.381 17.1909 755.84 15.309 756.757 13.6624C757.674 11.9923 758.945 10.6867 760.568 9.7458C762.191 8.78135 764.037 8.29913 766.107 8.29913C767.825 8.29913 769.307 8.61669 770.553 9.25181C771.823 9.88694 772.8 10.7926 773.482 11.9687C774.188 13.1449 774.54 14.5328 774.54 16.1323C774.54 18.2494 774.082 20.143 773.164 21.8132C772.247 23.4598 770.977 24.7653 769.354 25.7298C767.754 26.6942 765.907 27.1764 763.814 27.1764ZM763.99 24.9535C765.543 24.9535 766.919 24.5889 768.119 23.8597C769.342 23.1069 770.294 22.0719 770.977 20.7546C771.682 19.4373 772.035 17.9436 772.035 16.2735C772.035 14.4387 771.494 13.0155 770.412 12.004C769.354 10.9925 767.86 10.4868 765.931 10.4868C764.402 10.4868 763.026 10.8631 761.803 11.6159C760.579 12.3686 759.615 13.4036 758.909 14.7209C758.227 16.0147 757.886 17.5084 757.886 19.2021C757.886 21.0134 758.415 22.4248 759.474 23.4362C760.556 24.4477 762.061 24.9535 763.99 24.9535ZM777.679 27L782.901 0.818778H785.406L782.795 13.8388L781.666 17.5084L781.243 21.1075L780.078 27H777.679ZM787.982 27.1764C786.383 27.1764 785.007 26.8941 783.854 26.3296C782.725 25.7415 781.854 24.9064 781.243 23.8244C780.655 22.7188 780.349 21.3897 780.325 19.8372C780.325 18.1435 780.561 16.591 781.031 15.1796C781.502 13.7683 782.172 12.5568 783.042 11.5453C783.936 10.5103 784.995 9.71051 786.218 9.14596C787.465 8.5814 788.853 8.29913 790.382 8.29913C791.981 8.29913 793.381 8.61669 794.58 9.25181C795.804 9.86341 796.756 10.7573 797.438 11.9334C798.144 13.1096 798.497 14.5092 798.497 16.1323C798.497 17.7319 798.238 19.2021 797.721 20.5429C797.203 21.8837 796.462 23.0481 795.498 24.0361C794.557 25.0241 793.451 25.8003 792.181 26.3649C790.911 26.9059 789.511 27.1764 787.982 27.1764ZM787.947 24.9535C789.499 24.9535 790.876 24.5889 792.075 23.8597C793.275 23.1069 794.216 22.0719 794.898 20.7546C795.604 19.4373 795.957 17.9436 795.957 16.2735C795.957 14.4387 795.427 13.0155 794.369 12.004C793.31 10.9925 791.805 10.4868 789.852 10.4868C788.323 10.4868 786.947 10.8631 785.724 11.6159C784.524 12.3686 783.572 13.4036 782.866 14.7209C782.184 16.0147 781.843 17.5084 781.843 19.2021C781.843 21.0134 782.372 22.4248 783.43 23.4362C784.489 24.4477 785.994 24.9535 787.947 24.9535ZM801.593 27L805.262 8.47555H807.768L804.098 27H801.593ZM807.591 4.38253C807.097 4.38253 806.685 4.21787 806.356 3.88854C806.05 3.55922 805.897 3.17109 805.897 2.72415C805.897 2.20664 806.074 1.7597 806.427 1.38333C806.803 1.00696 807.274 0.818778 807.838 0.818778C808.332 0.818778 808.744 0.971678 809.073 1.27748C809.402 1.58328 809.567 1.97141 809.567 2.44187C809.567 3.00643 809.379 3.47689 809.002 3.85326C808.626 4.20611 808.156 4.38253 807.591 4.38253ZM811.069 27L816.291 0.818778H818.796L813.574 27H811.069ZM829.013 27.1764C827.249 27.1764 825.708 26.8589 824.39 26.2237C823.097 25.5651 822.097 24.6477 821.391 23.4715C820.709 22.2954 820.368 20.8958 820.368 19.2727C820.368 17.1556 820.815 15.2737 821.709 13.6271C822.603 11.9805 823.826 10.6867 825.378 9.7458C826.931 8.78135 828.683 8.29913 830.636 8.29913C832.282 8.29913 833.706 8.61669 834.905 9.25181C836.105 9.86341 837.034 10.7573 837.693 11.9334C838.375 13.1096 838.716 14.521 838.716 16.1676C838.716 16.544 838.693 16.9321 838.645 17.332C838.598 17.7084 838.54 18.073 838.469 18.4258H822.203L822.52 16.5557H837.305L836.281 17.2614C836.517 15.7795 836.411 14.5328 835.964 13.5213C835.517 12.5098 834.823 11.7453 833.882 11.2278C832.965 10.6867 831.859 10.4162 830.565 10.4162C829.06 10.4162 827.719 10.7926 826.543 11.5453C825.367 12.2745 824.449 13.2978 823.791 14.6151C823.132 15.9089 822.803 17.4261 822.803 19.1668C822.803 21.0251 823.332 22.46 824.39 23.4715C825.473 24.4595 827.084 24.9535 829.224 24.9535C830.471 24.9535 831.624 24.7535 832.682 24.3537C833.741 23.9302 834.611 23.3539 835.293 22.6247L836.423 24.4242C835.552 25.2946 834.458 25.9767 833.141 26.4707C831.847 26.9412 830.471 27.1764 829.013 27.1764Z" fill="#1F1D2B" fill-opacity="0.8"/>
</svg>
