<svg width="658" height="28" viewBox="0 0 658 28" fill="none" xmlns="http://www.w3.org/2000/svg">
<path d="M11.7963 27.2117C9.3499 27.2117 7.26811 26.7883 5.55092 25.9415C3.83373 25.0711 2.51644 23.8714 1.59904 22.3424C0.705158 20.7899 0.258219 18.9904 0.258219 16.9439C0.258219 14.9209 0.599304 13.0155 1.28147 11.2278C1.98717 9.44 2.9869 7.86395 4.28067 6.49961C5.59796 5.11175 7.17401 4.02968 9.00882 3.25342C10.8671 2.47716 12.9607 2.08903 15.2895 2.08903C17.2654 2.08903 19.0179 2.39483 20.5469 3.00643C22.0759 3.61803 23.2521 4.51191 24.0754 5.68806L22.2406 7.31116C21.4643 6.34671 20.4881 5.62925 19.3119 5.15879C18.1358 4.66481 16.7244 4.41781 15.0778 4.41781C13.2195 4.41781 11.5258 4.74714 9.99679 5.40578C8.49131 6.04091 7.2093 6.93479 6.15076 8.08742C5.09222 9.24005 4.26891 10.5691 3.68083 12.0746C3.11628 13.5565 2.834 15.1444 2.834 16.838C2.834 18.4141 3.17508 19.8137 3.85725 21.0369C4.56295 22.2366 5.59796 23.1775 6.9623 23.8597C8.32665 24.5418 9.99679 24.8829 11.9727 24.8829C13.5958 24.8829 15.066 24.6359 16.3833 24.1419C17.7006 23.648 18.8532 22.9187 19.8412 21.9543L21.3584 23.6832C20.2764 24.8359 18.9003 25.718 17.2301 26.3296C15.56 26.9177 13.7487 27.2117 11.7963 27.2117ZM25.0192 27L30.2414 0.818778H32.7466L27.5244 27H25.0192ZM34.4951 27L38.1647 8.47555H40.6699L37.0003 27H34.4951ZM40.4935 4.38253C39.9995 4.38253 39.5878 4.21787 39.2585 3.88854C38.9527 3.55922 38.7998 3.17109 38.7998 2.72415C38.7998 2.20664 38.9762 1.7597 39.3291 1.38333C39.7055 1.00696 40.1759 0.818778 40.7405 0.818778C41.2345 0.818778 41.6461 0.971678 41.9754 1.27748C42.3048 1.58328 42.4694 1.97141 42.4694 2.44187C42.4694 3.00643 42.2812 3.47689 41.9049 3.85326C41.5285 4.20611 41.058 4.38253 40.4935 4.38253ZM52.3687 27.1764C50.6045 27.1764 49.0755 26.8589 47.7817 26.2237C46.5115 25.5651 45.5235 24.6477 44.8178 23.4715C44.1356 22.2954 43.7945 20.9075 43.7945 19.3079C43.7945 17.1909 44.2532 15.309 45.1706 13.6624C46.088 11.9923 47.3583 10.6867 48.9814 9.7458C50.628 8.78135 52.4981 8.29913 54.5916 8.29913C56.3088 8.29913 57.779 8.61669 59.0022 9.25181C60.2489 9.86341 61.2134 10.7808 61.8956 12.004L59.7785 13.239C59.261 12.2981 58.5435 11.6041 57.6261 11.1572C56.7322 10.7102 55.6502 10.4868 54.3799 10.4868C52.8274 10.4868 51.4395 10.8631 50.2163 11.6159C48.9931 12.3686 48.0287 13.4036 47.323 14.7209C46.6408 16.0147 46.2997 17.5084 46.2997 19.2021C46.2997 21.0134 46.829 22.4248 47.8876 23.4362C48.9696 24.4477 50.4986 24.9535 52.4746 24.9535C53.6742 24.9535 54.7798 24.73 55.7913 24.2831C56.8263 23.8126 57.6732 23.1422 58.3318 22.2719L60.1313 23.648C59.3315 24.7535 58.2377 25.6239 56.8499 26.259C55.462 26.8706 53.9683 27.1764 52.3687 27.1764ZM66.5766 22.0601L67.0706 18.9904L80.5493 8.47555H84.1131L73.9864 16.344L72.6103 17.4026L66.5766 22.0601ZM63.5774 27L68.7995 0.818778H71.3047L66.0826 27H63.5774ZM78.0441 27L72.1868 17.3673L73.9158 15.4972L80.9727 27H78.0441ZM101.881 27.1764C100.164 27.1764 98.6702 26.8589 97.3999 26.2237C96.1532 25.5651 95.177 24.6477 94.4713 23.4715C93.7891 22.2954 93.4481 20.9075 93.4481 19.3079C93.4481 17.1909 93.9068 15.309 94.8242 13.6624C95.7416 11.9923 97.0118 10.6867 98.6349 9.7458C100.258 8.78135 102.105 8.29913 104.175 8.29913C105.892 8.29913 107.374 8.61669 108.62 9.25181C109.891 9.88694 110.867 10.7926 111.549 11.9687C112.255 13.1449 112.608 14.5328 112.608 16.1323C112.608 18.2494 112.149 20.143 111.232 21.8132C110.314 23.4598 109.044 24.7653 107.421 25.7298C105.821 26.6942 103.975 27.1764 101.881 27.1764ZM102.058 24.9535C103.61 24.9535 104.986 24.5889 106.186 23.8597C107.409 23.1069 108.362 22.0719 109.044 20.7546C109.75 19.4373 110.102 17.9436 110.102 16.2735C110.102 14.4387 109.561 13.0155 108.479 12.004C107.421 10.9925 105.927 10.4868 103.998 10.4868C102.469 10.4868 101.093 10.8631 99.8699 11.6159C98.6467 12.3686 97.6822 13.4036 96.9765 14.7209C96.2943 16.0147 95.9533 17.5084 95.9533 19.2021C95.9533 21.0134 96.4825 22.4248 97.5411 23.4362C98.6231 24.4477 100.129 24.9535 102.058 24.9535ZM128.484 8.29913C130.154 8.29913 131.519 8.62845 132.577 9.2871C133.659 9.92222 134.4 10.8514 134.8 12.0746C135.223 13.2978 135.259 14.7562 134.906 16.4499L132.789 27H130.284L132.401 16.4146C132.777 14.5798 132.577 13.1449 131.801 12.1099C131.048 11.0749 129.707 10.5573 127.778 10.5573C125.802 10.5573 124.156 11.0984 122.839 12.1804C121.545 13.2625 120.674 14.8856 120.227 17.0497L118.252 27H115.746L119.416 8.47555H121.815L120.757 13.8035L120.227 12.8861C121.121 11.2866 122.274 10.1222 123.685 9.39295C125.12 8.66374 126.72 8.29913 128.484 8.29913ZM149.355 27L154.295 2.30073H164.845C167.221 2.30073 169.079 2.74767 170.42 3.64155C171.761 4.53543 172.431 5.84096 172.431 7.55815C172.431 9.15772 172.043 10.4985 171.267 11.5806C170.49 12.6391 169.467 13.4389 168.197 13.98C166.95 14.521 165.598 14.7915 164.139 14.7915L164.915 13.98C166.891 13.98 168.456 14.4387 169.608 15.3561C170.785 16.2499 171.373 17.579 171.373 19.3432C171.373 20.9898 170.937 22.3895 170.067 23.5421C169.22 24.6947 168.009 25.5651 166.433 26.1532C164.857 26.7177 162.987 27 160.822 27H149.355ZM152.354 24.8476H161.034C163.504 24.8476 165.409 24.3772 166.75 23.4362C168.115 22.4953 168.797 21.1427 168.797 19.3785C168.797 17.9671 168.303 16.9792 167.315 16.4146C166.35 15.85 164.927 15.5678 163.045 15.5678H153.766L154.189 13.4154H162.516C163.928 13.4154 165.174 13.2155 166.256 12.8156C167.362 12.4157 168.22 11.8158 168.832 11.016C169.444 10.1927 169.749 9.193 169.749 8.01685C169.749 6.79365 169.279 5.89977 168.338 5.33522C167.397 4.74714 166.068 4.4531 164.351 4.4531H156.412L152.354 24.8476ZM183.684 27.1764C181.966 27.1764 180.473 26.8589 179.202 26.2237C177.956 25.5651 176.98 24.6477 176.274 23.4715C175.592 22.2954 175.251 20.9075 175.251 19.3079C175.251 17.1909 175.709 15.309 176.627 13.6624C177.544 11.9923 178.814 10.6867 180.437 9.7458C182.061 8.78135 183.907 8.29913 185.977 8.29913C187.694 8.29913 189.176 8.61669 190.423 9.25181C191.693 9.88694 192.669 10.7926 193.352 11.9687C194.057 13.1449 194.41 14.5328 194.41 16.1323C194.41 18.2494 193.951 20.143 193.034 21.8132C192.117 23.4598 190.846 24.7653 189.223 25.7298C187.624 26.6942 185.777 27.1764 183.684 27.1764ZM183.86 24.9535C185.413 24.9535 186.789 24.5889 187.988 23.8597C189.212 23.1069 190.164 22.0719 190.846 20.7546C191.552 19.4373 191.905 17.9436 191.905 16.2735C191.905 14.4387 191.364 13.0155 190.282 12.004C189.223 10.9925 187.73 10.4868 185.801 10.4868C184.272 10.4868 182.896 10.8631 181.672 11.6159C180.449 12.3686 179.485 13.4036 178.779 14.7209C178.097 16.0147 177.756 17.5084 177.756 19.2021C177.756 21.0134 178.285 22.4248 179.344 23.4362C180.426 24.4477 181.931 24.9535 183.86 24.9535ZM205.805 27.1764C204.088 27.1764 202.595 26.8589 201.324 26.2237C200.078 25.5651 199.101 24.6477 198.396 23.4715C197.713 22.2954 197.372 20.9075 197.372 19.3079C197.372 17.1909 197.831 15.309 198.749 13.6624C199.666 11.9923 200.936 10.6867 202.559 9.7458C204.182 8.78135 206.029 8.29913 208.099 8.29913C209.816 8.29913 211.298 8.61669 212.545 9.25181C213.815 9.88694 214.791 10.7926 215.473 11.9687C216.179 13.1449 216.532 14.5328 216.532 16.1323C216.532 18.2494 216.073 20.143 215.156 21.8132C214.238 23.4598 212.968 24.7653 211.345 25.7298C209.746 26.6942 207.899 27.1764 205.805 27.1764ZM205.982 24.9535C207.534 24.9535 208.91 24.5889 210.11 23.8597C211.333 23.1069 212.286 22.0719 212.968 20.7546C213.674 19.4373 214.027 17.9436 214.027 16.2735C214.027 14.4387 213.486 13.0155 212.404 12.004C211.345 10.9925 209.851 10.4868 207.923 10.4868C206.394 10.4868 205.017 10.8631 203.794 11.6159C202.571 12.3686 201.607 13.4036 200.901 14.7209C200.219 16.0147 199.878 17.5084 199.878 19.2021C199.878 21.0134 200.407 22.4248 201.465 23.4362C202.547 24.4477 204.053 24.9535 205.982 24.9535ZM222.67 22.0601L223.164 18.9904L236.643 8.47555H240.206L230.08 16.344L228.704 17.4026L222.67 22.0601ZM219.671 27L224.893 0.818778H227.398L222.176 27H219.671ZM234.137 27L228.28 17.3673L230.009 15.4972L237.066 27H234.137ZM255.61 27.1764C254.552 27.1764 253.646 26.953 252.893 26.506C252.141 26.0356 251.611 25.3769 251.306 24.5301C251.023 23.6832 251 22.6717 251.235 21.4956L254.622 4.38253H257.128L253.74 21.3897C253.505 22.5424 253.587 23.4362 253.987 24.0714C254.411 24.7065 255.175 25.0241 256.281 25.0241C256.798 25.0241 257.304 24.9535 257.798 24.8124C258.292 24.6477 258.739 24.4007 259.139 24.0714L259.739 25.9767C259.151 26.4237 258.492 26.7412 257.763 26.9294C257.033 27.0941 256.316 27.1764 255.61 27.1764ZM250.106 10.5573L250.494 8.47555H261.962L261.538 10.5573H250.106ZM271.654 27.1764C269.937 27.1764 268.443 26.8589 267.173 26.2237C265.926 25.5651 264.95 24.6477 264.244 23.4715C263.562 22.2954 263.221 20.9075 263.221 19.3079C263.221 17.1909 263.68 15.309 264.597 13.6624C265.515 11.9923 266.785 10.6867 268.408 9.7458C270.031 8.78135 271.878 8.29913 273.948 8.29913C275.665 8.29913 277.147 8.61669 278.393 9.25181C279.664 9.88694 280.64 10.7926 281.322 11.9687C282.028 13.1449 282.381 14.5328 282.381 16.1323C282.381 18.2494 281.922 20.143 281.005 21.8132C280.087 23.4598 278.817 24.7653 277.194 25.7298C275.594 26.6942 273.748 27.1764 271.654 27.1764ZM271.83 24.9535C273.383 24.9535 274.759 24.5889 275.959 23.8597C277.182 23.1069 278.135 22.0719 278.817 20.7546C279.523 19.4373 279.875 17.9436 279.875 16.2735C279.875 14.4387 279.334 13.0155 278.252 12.004C277.194 10.9925 275.7 10.4868 273.771 10.4868C272.242 10.4868 270.866 10.8631 269.643 11.6159C268.42 12.3686 267.455 13.4036 266.749 14.7209C266.067 16.0147 265.726 17.5084 265.726 19.2021C265.726 21.0134 266.256 22.4248 267.314 23.4362C268.396 24.4477 269.902 24.9535 271.83 24.9535ZM294.119 27L299.059 2.30073H309.397C311.938 2.30073 314.113 2.72415 315.925 3.57098C317.76 4.39429 319.159 5.58221 320.124 7.13473C321.088 8.66374 321.57 10.4868 321.57 12.6039C321.57 14.7915 321.194 16.7674 320.441 18.5317C319.712 20.2959 318.665 21.8132 317.301 23.0834C315.937 24.3301 314.313 25.2946 312.432 25.9767C310.55 26.6589 308.468 27 306.186 27H294.119ZM300.788 22.3071H306.363C308.362 22.3071 310.056 21.8955 311.444 21.0722C312.855 20.2489 313.925 19.1315 314.655 17.7201C315.407 16.3087 315.784 14.7092 315.784 12.9214C315.784 11.6982 315.525 10.6514 315.007 9.78108C314.49 8.8872 313.702 8.20503 312.643 7.73457C311.608 7.24059 310.314 6.99359 308.762 6.99359H303.857L300.788 22.3071ZM332.832 27.2823C330.903 27.2823 329.221 26.9294 327.786 26.2237C326.352 25.518 325.234 24.5301 324.434 23.2598C323.658 21.9896 323.27 20.4959 323.27 18.7787C323.27 16.6616 323.764 14.7797 324.752 13.1331C325.74 11.463 327.093 10.1457 328.81 9.18124C330.55 8.2168 332.526 7.73457 334.738 7.73457C336.69 7.73457 338.372 8.08742 339.783 8.79311C341.218 9.49881 342.324 10.4868 343.1 11.757C343.9 13.0037 344.3 14.4975 344.3 16.2382C344.3 18.3317 343.806 20.2136 342.818 21.8837C341.83 23.5539 340.477 24.8712 338.76 25.8356C337.043 26.8001 335.067 27.2823 332.832 27.2823ZM333.185 22.7658C334.267 22.7658 335.22 22.5071 336.043 21.9896C336.89 21.4485 337.549 20.7076 338.019 19.7666C338.489 18.8257 338.725 17.7319 338.725 16.4852C338.725 15.2149 338.348 14.1917 337.596 13.4154C336.843 12.6391 335.784 12.251 334.42 12.251C333.338 12.251 332.373 12.5215 331.527 13.0626C330.703 13.5801 330.045 14.3093 329.551 15.2502C329.08 16.1911 328.845 17.285 328.845 18.5317C328.845 19.8255 329.221 20.8605 329.974 21.6367C330.727 22.3895 331.797 22.7658 333.185 22.7658ZM350.003 27L346.651 8.01685H351.662L354.343 24.3537H351.768L360.871 8.01685H365.599L368.351 24.3537H365.776L374.809 8.01685H379.995L369.516 27H364.082L361.506 12.992H363.129L355.367 27H350.003ZM393.524 7.73457C395.147 7.73457 396.523 8.07566 397.652 8.75783C398.781 9.41647 399.581 10.3927 400.051 11.6865C400.522 12.9802 400.569 14.5798 400.193 16.4852L398.075 27H392.571L394.618 16.838C394.9 15.4502 394.782 14.3799 394.265 13.6271C393.771 12.8744 392.853 12.498 391.512 12.498C390.125 12.498 388.96 12.8979 388.019 13.6977C387.102 14.4975 386.467 15.7207 386.114 17.3673L384.209 27H378.704L382.48 8.01685H387.702L386.608 13.3801L385.832 11.757C386.749 10.3692 387.878 9.35767 389.219 8.72254C390.583 8.0639 392.018 7.73457 393.524 7.73457ZM403.1 27L408.322 0.818778H413.827L408.605 27H403.1ZM423.628 27.2823C421.699 27.2823 420.017 26.9294 418.582 26.2237C417.148 25.518 416.03 24.5301 415.23 23.2598C414.454 21.9896 414.066 20.4959 414.066 18.7787C414.066 16.6616 414.56 14.7797 415.548 13.1331C416.536 11.463 417.889 10.1457 419.606 9.18124C421.346 8.2168 423.322 7.73457 425.534 7.73457C427.486 7.73457 429.168 8.08742 430.579 8.79311C432.014 9.49881 433.12 10.4868 433.896 11.757C434.696 13.0037 435.096 14.4975 435.096 16.2382C435.096 18.3317 434.602 20.2136 433.614 21.8837C432.626 23.5539 431.273 24.8712 429.556 25.8356C427.839 26.8001 425.863 27.2823 423.628 27.2823ZM423.981 22.7658C425.063 22.7658 426.016 22.5071 426.839 21.9896C427.686 21.4485 428.345 20.7076 428.815 19.7666C429.285 18.8257 429.521 17.7319 429.521 16.4852C429.521 15.2149 429.144 14.1917 428.392 13.4154C427.639 12.6391 426.58 12.251 425.216 12.251C424.134 12.251 423.169 12.5215 422.323 13.0626C421.499 13.5801 420.841 14.3093 420.347 15.2502C419.876 16.1911 419.641 17.285 419.641 18.5317C419.641 19.8255 420.017 20.8605 420.77 21.6367C421.523 22.3895 422.593 22.7658 423.981 22.7658ZM445.374 27.2823C443.916 27.2823 442.563 26.953 441.316 26.2943C440.07 25.6121 439.07 24.6359 438.317 23.3657C437.564 22.0954 437.188 20.5664 437.188 18.7787C437.188 17.1791 437.447 15.7089 437.964 14.3681C438.505 13.0273 439.258 11.8629 440.222 10.8749C441.187 9.88694 442.304 9.12244 443.574 8.5814C444.845 8.01685 446.209 7.73457 447.667 7.73457C449.244 7.73457 450.596 8.02861 451.725 8.61669C452.854 9.20477 453.689 10.1222 454.23 11.3689C454.795 12.5921 454.995 14.1799 454.83 16.1323C454.713 18.367 454.254 20.3312 453.454 22.0249C452.654 23.695 451.572 24.9888 450.208 25.9062C448.867 26.8236 447.256 27.2823 445.374 27.2823ZM447.068 22.7306C448.15 22.7306 449.102 22.4718 449.926 21.9543C450.773 21.4133 451.431 20.684 451.902 19.7666C452.396 18.8257 452.643 17.7319 452.643 16.4852C452.643 15.1914 452.254 14.1681 451.478 13.4154C450.725 12.6627 449.667 12.2863 448.303 12.2863C447.244 12.2863 446.291 12.5568 445.445 13.0978C444.598 13.6154 443.927 14.3446 443.433 15.2855C442.963 16.2029 442.728 17.285 442.728 18.5317C442.728 19.8255 443.104 20.8487 443.857 21.6014C444.633 22.3542 445.703 22.7306 447.068 22.7306ZM450.843 27L451.584 23.2245L452.819 17.579L453.56 11.9334L454.336 8.01685H459.841L456.065 27H450.843ZM469.806 27.2823C468.348 27.2823 466.995 26.953 465.748 26.2943C464.502 25.6121 463.502 24.6359 462.749 23.3657C461.996 22.0954 461.62 20.5664 461.62 18.7787C461.62 17.1791 461.879 15.7089 462.396 14.3681C462.937 13.0273 463.69 11.8629 464.655 10.8749C465.619 9.88694 466.736 9.12244 468.007 8.5814C469.277 8.01685 470.641 7.73457 472.1 7.73457C473.582 7.73457 474.864 7.99333 475.946 8.51083C477.028 9.02834 477.863 9.82813 478.451 10.9102C479.062 11.9687 479.368 13.3095 479.368 14.9326C479.368 16.6734 479.157 18.2964 478.733 19.8019C478.333 21.2839 477.722 22.5894 476.898 23.7185C476.075 24.8241 475.064 25.6945 473.864 26.3296C472.688 26.9647 471.335 27.2823 469.806 27.2823ZM471.5 22.7306C472.582 22.7306 473.535 22.4718 474.358 21.9543C475.205 21.4133 475.863 20.684 476.334 19.7666C476.828 18.8257 477.075 17.7319 477.075 16.4852C477.075 15.1914 476.687 14.1681 475.91 13.4154C475.158 12.6627 474.099 12.2863 472.735 12.2863C471.676 12.2863 470.724 12.5568 469.877 13.0978C469.03 13.6154 468.359 14.3446 467.865 15.2855C467.395 16.2029 467.16 17.285 467.16 18.5317C467.16 19.8255 467.536 20.8487 468.289 21.6014C469.065 22.3542 470.135 22.7306 471.5 22.7306ZM475.24 27L476.016 23.2245L477.216 17.579L477.957 11.9334L480.18 0.818778H485.684L480.462 27H475.24ZM496.344 27L501.284 2.30073H511.834C514.21 2.30073 516.068 2.74767 517.409 3.64155C518.75 4.53543 519.42 5.84096 519.42 7.55815C519.42 9.15772 519.032 10.4985 518.256 11.5806C517.479 12.6391 516.456 13.4389 515.186 13.98C513.939 14.521 512.586 14.7915 511.128 14.7915L511.904 13.98C513.88 13.98 515.445 14.4387 516.597 15.3561C517.773 16.2499 518.361 17.579 518.361 19.3432C518.361 20.9898 517.926 22.3895 517.056 23.5421C516.209 24.6947 514.998 25.5651 513.422 26.1532C511.846 26.7177 509.975 27 507.811 27H496.344ZM499.343 24.8476H508.023C510.493 24.8476 512.398 24.3772 513.739 23.4362C515.103 22.4953 515.786 21.1427 515.786 19.3785C515.786 17.9671 515.292 16.9792 514.304 16.4146C513.339 15.85 511.916 15.5678 510.034 15.5678H500.754L501.178 13.4154H509.505C510.916 13.4154 512.163 13.2155 513.245 12.8156C514.351 12.4157 515.209 11.8158 515.821 11.016C516.433 10.1927 516.738 9.193 516.738 8.01685C516.738 6.79365 516.268 5.89977 515.327 5.33522C514.386 4.74714 513.057 4.4531 511.34 4.4531H503.401L499.343 24.8476ZM522.416 27L526.085 8.47555H528.485L527.426 13.9447L527.144 12.992C527.967 11.3689 529.049 10.181 530.39 9.42824C531.755 8.6755 533.448 8.29913 535.471 8.29913L535.012 10.7338C534.895 10.7338 534.777 10.7338 534.66 10.7338C534.566 10.7102 534.448 10.6985 534.307 10.6985C532.331 10.6985 530.696 11.2748 529.402 12.4274C528.132 13.5565 527.262 15.2737 526.791 17.579L524.921 27H522.416ZM544.387 27.1764C542.669 27.1764 541.176 26.8589 539.905 26.2237C538.659 25.5651 537.683 24.6477 536.977 23.4715C536.295 22.2954 535.954 20.9075 535.954 19.3079C535.954 17.1909 536.412 15.309 537.33 13.6624C538.247 11.9923 539.517 10.6867 541.14 9.7458C542.764 8.78135 544.61 8.29913 546.68 8.29913C548.397 8.29913 549.879 8.61669 551.126 9.25181C552.396 9.88694 553.372 10.7926 554.055 11.9687C554.76 13.1449 555.113 14.5328 555.113 16.1323C555.113 18.2494 554.654 20.143 553.737 21.8132C552.82 23.4598 551.549 24.7653 549.926 25.7298C548.327 26.6942 546.48 27.1764 544.387 27.1764ZM544.563 24.9535C546.116 24.9535 547.492 24.5889 548.691 23.8597C549.915 23.1069 550.867 22.0719 551.549 20.7546C552.255 19.4373 552.608 17.9436 552.608 16.2735C552.608 14.4387 552.067 13.0155 550.985 12.004C549.926 10.9925 548.433 10.4868 546.504 10.4868C544.975 10.4868 543.599 10.8631 542.375 11.6159C541.152 12.3686 540.188 13.4036 539.482 14.7209C538.8 16.0147 538.459 17.5084 538.459 19.2021C538.459 21.0134 538.988 22.4248 540.047 23.4362C541.129 24.4477 542.634 24.9535 544.563 24.9535ZM566.65 27.1764C564.885 27.1764 563.356 26.8589 562.063 26.2237C560.792 25.5651 559.804 24.6477 559.099 23.4715C558.416 22.2954 558.075 20.9075 558.075 19.3079C558.075 17.1909 558.534 15.309 559.452 13.6624C560.369 11.9923 561.639 10.6867 563.262 9.7458C564.909 8.78135 566.779 8.29913 568.873 8.29913C570.59 8.29913 572.06 8.61669 573.283 9.25181C574.53 9.86341 575.494 10.7808 576.176 12.004L574.059 13.239C573.542 12.2981 572.824 11.6041 571.907 11.1572C571.013 10.7102 569.931 10.4868 568.661 10.4868C567.108 10.4868 565.72 10.8631 564.497 11.6159C563.274 12.3686 562.31 13.4036 561.604 14.7209C560.922 16.0147 560.581 17.5084 560.581 19.2021C560.581 21.0134 561.11 22.4248 562.168 23.4362C563.25 24.4477 564.779 24.9535 566.755 24.9535C567.955 24.9535 569.061 24.73 570.072 24.2831C571.107 23.8126 571.954 23.1422 572.613 22.2719L574.412 23.648C573.612 24.7535 572.519 25.6239 571.131 26.259C569.743 26.8706 568.249 27.1764 566.65 27.1764ZM590.596 8.29913C592.266 8.29913 593.631 8.62845 594.689 9.2871C595.771 9.92222 596.512 10.8514 596.912 12.0746C597.335 13.2978 597.371 14.7562 597.018 16.4499L594.901 27H592.396L594.513 16.4146C594.889 14.5798 594.689 13.1449 593.913 12.1099C593.16 11.0749 591.819 10.5573 589.89 10.5573C587.914 10.5573 586.268 11.0984 584.95 12.1804C583.657 13.2625 582.786 14.8856 582.339 17.0497L580.363 27H577.858L583.08 0.818778H585.586L582.975 13.8035L582.339 12.8861C583.233 11.2866 584.386 10.1222 585.797 9.39295C587.232 8.66374 588.832 8.29913 590.596 8.29913ZM609.466 27.1764C607.842 27.1764 606.49 26.8471 605.408 26.1885C604.349 25.5298 603.62 24.5889 603.22 23.3657C602.82 22.1425 602.773 20.6958 603.079 19.0257L605.196 8.47555H607.701L605.584 19.0257C605.231 20.8605 605.431 22.3071 606.184 23.3657C606.937 24.4007 608.254 24.9182 610.136 24.9182C612.088 24.9182 613.711 24.3772 615.005 23.2951C616.323 22.213 617.205 20.59 617.652 18.4258L619.628 8.47555H622.133L618.428 27H616.029L617.087 21.672L617.616 22.5541C616.746 24.1537 615.593 25.3299 614.158 26.0826C612.747 26.8118 611.183 27.1764 609.466 27.1764ZM625.41 27L629.079 8.47555H631.479L630.42 13.9447L630.138 12.992C630.961 11.3689 632.043 10.181 633.384 9.42824C634.749 8.6755 636.442 8.29913 638.465 8.29913L638.006 10.7338C637.889 10.7338 637.771 10.7338 637.654 10.7338C637.56 10.7102 637.442 10.6985 637.301 10.6985C635.325 10.6985 633.69 11.2748 632.396 12.4274C631.126 13.5565 630.256 15.2737 629.785 17.579L627.915 27H625.41ZM647.592 27.1764C645.828 27.1764 644.287 26.8589 642.97 26.2237C641.676 25.5651 640.677 24.6477 639.971 23.4715C639.289 22.2954 638.948 20.8958 638.948 19.2727C638.948 17.1556 639.395 15.2737 640.288 13.6271C641.182 11.9805 642.405 10.6867 643.958 9.7458C645.511 8.78135 647.263 8.29913 649.215 8.29913C650.862 8.29913 652.285 8.61669 653.485 9.25181C654.685 9.86341 655.614 10.7573 656.272 11.9334C656.955 13.1096 657.296 14.521 657.296 16.1676C657.296 16.544 657.272 16.9321 657.225 17.332C657.178 17.7084 657.119 18.073 657.049 18.4258H640.782L641.1 16.5557H655.884L654.861 17.2614C655.096 15.7795 654.99 14.5328 654.543 13.5213C654.096 12.5098 653.403 11.7453 652.462 11.2278C651.544 10.6867 650.439 10.4162 649.145 10.4162C647.639 10.4162 646.299 10.7926 645.122 11.5453C643.946 12.2745 643.029 13.2978 642.37 14.6151C641.712 15.9089 641.382 17.4261 641.382 19.1668C641.382 21.0251 641.912 22.46 642.97 23.4715C644.052 24.4595 645.663 24.9535 647.804 24.9535C649.051 24.9535 650.203 24.7535 651.262 24.3537C652.32 23.9302 653.191 23.3539 653.873 22.6247L655.002 24.4242C654.132 25.2946 653.038 25.9767 651.721 26.4707C650.427 26.9412 649.051 27.1764 647.592 27.1764Z" fill="#1F1D2B" fill-opacity="0.8"/>
</svg>
