<svg width="1266" height="523" viewBox="0 0 1266 523" fill="none" xmlns="http://www.w3.org/2000/svg">
<path d="M15.768 265.59L12.024 262.11C11.208 262.35 10.352 262.47 9.456 262.47C7.904 262.47 6.496 262.11 5.232 261.39C3.968 260.654 2.968 259.638 2.232 258.342C1.512 257.03 1.152 255.55 1.152 253.902C1.152 252.254 1.512 250.782 2.232 249.486C2.968 248.174 3.968 247.158 5.232 246.438C6.496 245.702 7.904 245.334 9.456 245.334C11.024 245.334 12.44 245.702 13.704 246.438C14.968 247.158 15.96 248.174 16.68 249.486C17.4 250.782 17.76 252.254 17.76 253.902C17.76 255.598 17.384 257.11 16.632 258.438C15.88 259.75 14.848 260.758 13.536 261.462L18.024 265.59H15.768ZM2.88 253.902C2.88 255.326 3.168 256.582 3.744 257.67C4.32 258.742 5.104 259.566 6.096 260.142C7.088 260.718 8.208 261.006 9.456 261.006C10.704 261.006 11.824 260.718 12.816 260.142C13.808 259.566 14.592 258.742 15.168 257.67C15.744 256.582 16.032 255.326 16.032 253.902C16.032 252.478 15.744 251.23 15.168 250.158C14.592 249.086 13.808 248.262 12.816 247.686C11.824 247.11 10.704 246.822 9.456 246.822C8.208 246.822 7.088 247.11 6.096 247.686C5.104 248.262 4.32 249.086 3.744 250.158C3.168 251.23 2.88 252.478 2.88 253.902ZM31.7295 249.198V262.302H30.0495V259.998C29.6655 260.814 29.0735 261.438 28.2735 261.87C27.4735 262.302 26.5775 262.518 25.5855 262.518C24.0175 262.518 22.7375 262.038 21.7455 261.078C20.7535 260.102 20.2575 258.694 20.2575 256.854V249.198H21.9135V256.662C21.9135 258.086 22.2655 259.174 22.9695 259.926C23.6895 260.678 24.6655 261.054 25.8975 261.054C27.1615 261.054 28.1695 260.654 28.9215 259.854C29.6735 259.054 30.0495 257.878 30.0495 256.326V249.198H31.7295ZM46.941 255.078C46.941 255.654 46.925 256.094 46.893 256.398H36.021C36.069 257.39 36.309 258.238 36.741 258.942C37.173 259.646 37.741 260.182 38.445 260.55C39.149 260.902 39.917 261.078 40.749 261.078C41.837 261.078 42.749 260.814 43.485 260.286C44.237 259.758 44.733 259.046 44.973 258.15H46.749C46.429 259.43 45.741 260.478 44.685 261.294C43.645 262.094 42.333 262.494 40.749 262.494C39.517 262.494 38.413 262.222 37.437 261.678C36.461 261.118 35.693 260.334 35.133 259.326C34.589 258.302 34.317 257.11 34.317 255.75C34.317 254.39 34.589 253.198 35.133 252.174C35.677 251.15 36.437 250.366 37.413 249.822C38.389 249.278 39.501 249.006 40.749 249.006C41.997 249.006 43.085 249.278 44.013 249.822C44.957 250.366 45.677 251.102 46.173 252.03C46.685 252.942 46.941 253.958 46.941 255.078ZM45.237 255.03C45.253 254.054 45.053 253.222 44.637 252.534C44.237 251.846 43.685 251.326 42.981 250.974C42.277 250.622 41.509 250.446 40.677 250.446C39.429 250.446 38.365 250.846 37.485 251.646C36.605 252.446 36.117 253.574 36.021 255.03H45.237ZM54.0467 262.494C52.5427 262.494 51.3107 262.15 50.3507 261.462C49.4067 260.758 48.8787 259.806 48.7667 258.606H50.4947C50.5747 259.342 50.9187 259.942 51.5267 260.406C52.1507 260.854 52.9827 261.078 54.0227 261.078C54.9347 261.078 55.6467 260.862 56.1587 260.43C56.6867 259.998 56.9507 259.462 56.9507 258.822C56.9507 258.374 56.8067 258.006 56.5187 257.718C56.2307 257.43 55.8627 257.206 55.4147 257.046C54.9827 256.87 54.3907 256.686 53.6387 256.494C52.6627 256.238 51.8707 255.982 51.2627 255.726C50.6547 255.47 50.1347 255.094 49.7027 254.598C49.2867 254.086 49.0787 253.406 49.0787 252.558C49.0787 251.918 49.2707 251.326 49.6547 250.782C50.0387 250.238 50.5827 249.806 51.2867 249.486C51.9907 249.166 52.7907 249.006 53.6867 249.006C55.0947 249.006 56.2307 249.366 57.0947 250.086C57.9587 250.79 58.4227 251.766 58.4867 253.014H56.8067C56.7587 252.246 56.4547 251.63 55.8947 251.166C55.3507 250.686 54.5987 250.446 53.6387 250.446C52.7907 250.446 52.1027 250.646 51.5747 251.046C51.0467 251.446 50.7827 251.942 50.7827 252.534C50.7827 253.046 50.9347 253.47 51.2387 253.806C51.5587 254.126 51.9507 254.382 52.4147 254.574C52.8787 254.75 53.5027 254.95 54.2867 255.174C55.2307 255.43 55.9827 255.678 56.5427 255.918C57.1027 256.158 57.5827 256.51 57.9827 256.974C58.3827 257.438 58.5907 258.054 58.6067 258.822C58.6067 259.526 58.4147 260.158 58.0307 260.718C57.6467 261.262 57.1107 261.694 56.4227 262.014C55.7347 262.334 54.9427 262.494 54.0467 262.494ZM63.4731 250.614V258.75C63.4731 259.55 63.6251 260.102 63.9291 260.406C64.2331 260.71 64.7691 260.862 65.5371 260.862H67.0731V262.302H65.2731C64.0891 262.302 63.2091 262.03 62.6331 261.486C62.0571 260.926 61.7691 260.014 61.7691 258.75V250.614H59.9451V249.198H61.7691V245.91H63.4731V249.198H67.0731V250.614H63.4731ZM70.2037 246.726C69.8677 246.726 69.5797 246.606 69.3397 246.366C69.0997 246.126 68.9797 245.83 68.9797 245.478C68.9797 245.126 69.0997 244.838 69.3397 244.614C69.5797 244.374 69.8677 244.254 70.2037 244.254C70.5397 244.254 70.8277 244.374 71.0677 244.614C71.3077 244.838 71.4277 245.126 71.4277 245.478C71.4277 245.83 71.3077 246.126 71.0677 246.366C70.8277 246.606 70.5397 246.726 70.2037 246.726ZM71.0437 249.198V262.302H69.3637V249.198H71.0437ZM80.1041 262.494C78.8721 262.494 77.7601 262.222 76.7681 261.678C75.7921 261.118 75.0161 260.334 74.4401 259.326C73.8801 258.302 73.6001 257.11 73.6001 255.75C73.6001 254.39 73.8881 253.206 74.4641 252.198C75.0401 251.174 75.8241 250.39 76.8161 249.846C77.8081 249.286 78.9201 249.006 80.1521 249.006C81.3841 249.006 82.4961 249.286 83.4881 249.846C84.4961 250.39 85.2801 251.174 85.8401 252.198C86.4161 253.206 86.7041 254.39 86.7041 255.75C86.7041 257.094 86.4161 258.278 85.8401 259.302C85.2641 260.326 84.4721 261.118 83.4641 261.678C82.4561 262.222 81.3361 262.494 80.1041 262.494ZM80.1041 261.03C80.9681 261.03 81.7681 260.838 82.5041 260.454C83.2401 260.054 83.8321 259.462 84.2801 258.678C84.7441 257.878 84.9761 256.902 84.9761 255.75C84.9761 254.598 84.7521 253.63 84.3041 252.846C83.8561 252.046 83.2641 251.454 82.5281 251.07C81.7921 250.67 80.9921 250.47 80.1281 250.47C79.2641 250.47 78.4641 250.67 77.7281 251.07C76.9921 251.454 76.4001 252.046 75.9521 252.846C75.5201 253.63 75.3041 254.598 75.3041 255.75C75.3041 256.902 75.5201 257.878 75.9521 258.678C76.4001 259.462 76.9841 260.054 77.7041 260.454C78.4401 260.838 79.2401 261.03 80.1041 261.03ZM95.4306 248.958C96.9986 248.958 98.2786 249.446 99.2706 250.422C100.263 251.382 100.759 252.782 100.759 254.622V262.302H99.1026V254.814C99.1026 253.39 98.7426 252.302 98.0226 251.55C97.3186 250.798 96.3506 250.422 95.1186 250.422C93.8546 250.422 92.8466 250.822 92.0946 251.622C91.3426 252.422 90.9666 253.598 90.9666 255.15V262.302H89.2866V249.198H90.9666V251.43C91.3826 250.63 91.9826 250.022 92.7666 249.606C93.5506 249.174 94.4386 248.958 95.4306 248.958ZM104.834 246.726C104.498 246.726 104.21 246.606 103.97 246.366C103.73 246.126 103.61 245.83 103.61 245.478C103.61 245.126 103.73 244.838 103.97 244.614C104.21 244.374 104.498 244.254 104.834 244.254C105.17 244.254 105.458 244.374 105.698 244.614C105.938 244.838 106.058 245.126 106.058 245.478C106.058 245.83 105.938 246.126 105.698 246.366C105.458 246.606 105.17 246.726 104.834 246.726ZM105.674 249.198V262.302H103.994V249.198H105.674ZM115.142 248.958C116.71 248.958 117.99 249.446 118.982 250.422C119.974 251.382 120.47 252.782 120.47 254.622V262.302H118.814V254.814C118.814 253.39 118.454 252.302 117.734 251.55C117.03 250.798 116.062 250.422 114.83 250.422C113.566 250.422 112.558 250.822 111.806 251.622C111.054 252.422 110.678 253.598 110.678 255.15V262.302H108.998V249.198H110.678V251.43C111.094 250.63 111.694 250.022 112.478 249.606C113.262 249.174 114.15 248.958 115.142 248.958ZM129.202 249.006C130.434 249.006 131.506 249.294 132.418 249.87C133.33 250.446 133.986 251.174 134.386 252.054V249.198H136.066V262.638C136.066 263.838 135.802 264.902 135.274 265.83C134.762 266.758 134.042 267.47 133.114 267.966C132.186 268.478 131.13 268.734 129.946 268.734C128.266 268.734 126.866 268.334 125.746 267.534C124.642 266.734 123.954 265.646 123.682 264.27H125.338C125.626 265.182 126.17 265.91 126.97 266.454C127.786 266.998 128.778 267.27 129.946 267.27C130.794 267.27 131.554 267.086 132.226 266.718C132.898 266.366 133.426 265.838 133.81 265.134C134.194 264.43 134.386 263.598 134.386 262.638V259.398C133.97 260.294 133.306 261.038 132.394 261.63C131.498 262.206 130.434 262.494 129.202 262.494C128.002 262.494 126.922 262.214 125.962 261.654C125.018 261.094 124.274 260.302 123.73 259.278C123.202 258.254 122.938 257.07 122.938 255.726C122.938 254.382 123.202 253.206 123.73 252.198C124.274 251.174 125.018 250.39 125.962 249.846C126.922 249.286 128.002 249.006 129.202 249.006ZM134.386 255.75C134.386 254.694 134.17 253.766 133.738 252.966C133.306 252.166 132.714 251.55 131.962 251.118C131.226 250.686 130.41 250.47 129.514 250.47C128.586 250.47 127.754 250.678 127.018 251.094C126.282 251.51 125.698 252.118 125.266 252.918C124.85 253.702 124.642 254.638 124.642 255.726C124.642 256.798 124.85 257.742 125.266 258.558C125.698 259.358 126.282 259.974 127.018 260.406C127.754 260.822 128.586 261.03 129.514 261.03C130.41 261.03 131.226 260.814 131.962 260.382C132.714 259.95 133.306 259.334 133.738 258.534C134.17 257.734 134.386 256.806 134.386 255.75ZM161.919 245.742V262.302H160.239V249.078L154.335 262.302H153.111L147.207 249.126V262.302H145.527V245.742H147.303L153.711 260.094L160.119 245.742H161.919ZM166.09 246.726C165.754 246.726 165.466 246.606 165.226 246.366C164.986 246.126 164.866 245.83 164.866 245.478C164.866 245.126 164.986 244.838 165.226 244.614C165.466 244.374 165.754 244.254 166.09 244.254C166.426 244.254 166.714 244.374 166.954 244.614C167.194 244.838 167.314 245.126 167.314 245.478C167.314 245.83 167.194 246.126 166.954 246.366C166.714 246.606 166.426 246.726 166.09 246.726ZM166.93 249.198V262.302H165.25V249.198H166.93ZM176.399 248.958C177.967 248.958 179.247 249.446 180.239 250.422C181.231 251.382 181.727 252.782 181.727 254.622V262.302H180.071V254.814C180.071 253.39 179.711 252.302 178.991 251.55C178.287 250.798 177.319 250.422 176.087 250.422C174.823 250.422 173.815 250.822 173.063 251.622C172.311 252.422 171.935 253.598 171.935 255.15V262.302H170.255V249.198H171.935V251.43C172.351 250.63 172.951 250.022 173.735 249.606C174.519 249.174 175.407 248.958 176.399 248.958ZM184.194 255.726C184.194 254.382 184.466 253.206 185.01 252.198C185.554 251.174 186.298 250.39 187.242 249.846C188.202 249.286 189.282 249.006 190.482 249.006C191.634 249.006 192.674 249.286 193.602 249.846C194.53 250.406 195.21 251.134 195.642 252.03V244.542H197.322V262.302H195.642V259.374C195.242 260.286 194.586 261.038 193.674 261.63C192.762 262.206 191.69 262.494 190.458 262.494C189.258 262.494 188.178 262.214 187.218 261.654C186.274 261.094 185.53 260.302 184.986 259.278C184.458 258.254 184.194 257.07 184.194 255.726ZM195.642 255.75C195.642 254.694 195.426 253.766 194.994 252.966C194.562 252.166 193.97 251.55 193.218 251.118C192.482 250.686 191.666 250.47 190.77 250.47C189.842 250.47 189.01 250.678 188.274 251.094C187.538 251.51 186.954 252.118 186.522 252.918C186.106 253.702 185.898 254.638 185.898 255.726C185.898 256.798 186.106 257.742 186.522 258.558C186.954 259.358 187.538 259.974 188.274 260.406C189.01 260.822 189.842 261.03 190.77 261.03C191.666 261.03 192.482 260.814 193.218 260.382C193.97 259.95 194.562 259.334 194.994 258.534C195.426 257.734 195.642 256.806 195.642 255.75Z" fill="white"/>
<path d="M295.216 245.526L288.856 262.302H286.936L280.576 245.526H282.4L287.896 260.478L293.44 245.526H295.216ZM309.116 255.078C309.116 255.654 309.1 256.094 309.068 256.398H298.196C298.244 257.39 298.484 258.238 298.916 258.942C299.348 259.646 299.916 260.182 300.62 260.55C301.324 260.902 302.092 261.078 302.924 261.078C304.012 261.078 304.924 260.814 305.66 260.286C306.412 259.758 306.908 259.046 307.148 258.15H308.924C308.604 259.43 307.916 260.478 306.86 261.294C305.82 262.094 304.508 262.494 302.924 262.494C301.692 262.494 300.588 262.222 299.612 261.678C298.636 261.118 297.868 260.334 297.308 259.326C296.764 258.302 296.492 257.11 296.492 255.75C296.492 254.39 296.764 253.198 297.308 252.174C297.852 251.15 298.612 250.366 299.588 249.822C300.564 249.278 301.676 249.006 302.924 249.006C304.172 249.006 305.26 249.278 306.188 249.822C307.132 250.366 307.852 251.102 308.348 252.03C308.86 252.942 309.116 253.958 309.116 255.078ZM307.412 255.03C307.428 254.054 307.228 253.222 306.812 252.534C306.412 251.846 305.86 251.326 305.156 250.974C304.452 250.622 303.684 250.446 302.852 250.446C301.604 250.446 300.54 250.846 299.66 251.646C298.78 252.446 298.292 253.574 298.196 255.03H307.412ZM313.39 251.526C313.758 250.71 314.318 250.078 315.07 249.63C315.838 249.182 316.774 248.958 317.878 248.958V250.71H317.422C316.206 250.71 315.23 251.038 314.494 251.694C313.758 252.35 313.39 253.446 313.39 254.982V262.302H311.71V249.198H313.39V251.526ZM324.437 262.494C322.933 262.494 321.701 262.15 320.741 261.462C319.797 260.758 319.269 259.806 319.157 258.606H320.885C320.965 259.342 321.309 259.942 321.917 260.406C322.541 260.854 323.373 261.078 324.413 261.078C325.325 261.078 326.037 260.862 326.549 260.43C327.077 259.998 327.341 259.462 327.341 258.822C327.341 258.374 327.197 258.006 326.909 257.718C326.621 257.43 326.253 257.206 325.805 257.046C325.373 256.87 324.781 256.686 324.029 256.494C323.053 256.238 322.261 255.982 321.653 255.726C321.045 255.47 320.525 255.094 320.093 254.598C319.677 254.086 319.469 253.406 319.469 252.558C319.469 251.918 319.661 251.326 320.045 250.782C320.429 250.238 320.973 249.806 321.677 249.486C322.381 249.166 323.181 249.006 324.077 249.006C325.485 249.006 326.621 249.366 327.485 250.086C328.349 250.79 328.813 251.766 328.877 253.014H327.197C327.149 252.246 326.845 251.63 326.285 251.166C325.741 250.686 324.989 250.446 324.029 250.446C323.181 250.446 322.493 250.646 321.965 251.046C321.437 251.446 321.173 251.942 321.173 252.534C321.173 253.046 321.325 253.47 321.629 253.806C321.949 254.126 322.341 254.382 322.805 254.574C323.269 254.75 323.893 254.95 324.677 255.174C325.621 255.43 326.373 255.678 326.933 255.918C327.493 256.158 327.973 256.51 328.373 256.974C328.773 257.438 328.981 258.054 328.997 258.822C328.997 259.526 328.805 260.158 328.421 260.718C328.037 261.262 327.501 261.694 326.813 262.014C326.125 262.334 325.333 262.494 324.437 262.494ZM330.912 255.726C330.912 254.382 331.176 253.206 331.704 252.198C332.248 251.174 332.992 250.39 333.936 249.846C334.896 249.286 335.976 249.006 337.176 249.006C338.424 249.006 339.496 249.294 340.392 249.87C341.304 250.446 341.96 251.182 342.36 252.078V249.198H344.04V262.302H342.36V259.398C341.944 260.294 341.28 261.038 340.368 261.63C339.472 262.206 338.4 262.494 337.152 262.494C335.968 262.494 334.896 262.214 333.936 261.654C332.992 261.094 332.248 260.302 331.704 259.278C331.176 258.254 330.912 257.07 330.912 255.726ZM342.36 255.75C342.36 254.694 342.144 253.766 341.712 252.966C341.28 252.166 340.688 251.55 339.936 251.118C339.2 250.686 338.384 250.47 337.488 250.47C336.56 250.47 335.728 250.678 334.992 251.094C334.256 251.51 333.672 252.118 333.24 252.918C332.824 253.702 332.616 254.638 332.616 255.726C332.616 256.798 332.824 257.742 333.24 258.558C333.672 259.358 334.256 259.974 334.992 260.406C335.728 260.822 336.56 261.03 337.488 261.03C338.384 261.03 339.2 260.814 339.936 260.382C340.688 259.95 341.28 259.334 341.712 258.534C342.144 257.734 342.36 256.806 342.36 255.75ZM349.579 250.614V258.75C349.579 259.55 349.731 260.102 350.035 260.406C350.339 260.71 350.875 260.862 351.643 260.862H353.179V262.302H351.379C350.195 262.302 349.315 262.03 348.739 261.486C348.163 260.926 347.875 260.014 347.875 258.75V250.614H346.051V249.198H347.875V245.91H349.579V249.198H353.179V250.614H349.579ZM356.31 246.726C355.974 246.726 355.686 246.606 355.446 246.366C355.206 246.126 355.086 245.83 355.086 245.478C355.086 245.126 355.206 244.838 355.446 244.614C355.686 244.374 355.974 244.254 356.31 244.254C356.646 244.254 356.934 244.374 357.174 244.614C357.414 244.838 357.534 245.126 357.534 245.478C357.534 245.83 357.414 246.126 357.174 246.366C356.934 246.606 356.646 246.726 356.31 246.726ZM357.15 249.198V262.302H355.47V249.198H357.15ZM362.154 244.542V262.302H360.474V244.542H362.154ZM377.334 255.078C377.334 255.654 377.318 256.094 377.286 256.398H366.414C366.462 257.39 366.702 258.238 367.134 258.942C367.566 259.646 368.134 260.182 368.838 260.55C369.542 260.902 370.31 261.078 371.142 261.078C372.23 261.078 373.142 260.814 373.878 260.286C374.63 259.758 375.126 259.046 375.366 258.15H377.142C376.822 259.43 376.134 260.478 375.078 261.294C374.038 262.094 372.726 262.494 371.142 262.494C369.91 262.494 368.806 262.222 367.83 261.678C366.854 261.118 366.086 260.334 365.526 259.326C364.982 258.302 364.71 257.11 364.71 255.75C364.71 254.39 364.982 253.198 365.526 252.174C366.07 251.15 366.83 250.366 367.806 249.822C368.782 249.278 369.894 249.006 371.142 249.006C372.39 249.006 373.478 249.278 374.406 249.822C375.35 250.366 376.07 251.102 376.566 252.03C377.078 252.942 377.334 253.958 377.334 255.078ZM375.63 255.03C375.646 254.054 375.446 253.222 375.03 252.534C374.63 251.846 374.078 251.326 373.374 250.974C372.67 250.622 371.902 250.446 371.07 250.446C369.822 250.446 368.758 250.846 367.878 251.646C366.998 252.446 366.51 253.574 366.414 255.03H375.63Z" fill="white"/>
<path d="M372.6 477.6V494.376H370.92V477.6H372.6ZM391.524 481.032C393.06 481.032 394.308 481.52 395.268 482.496C396.244 483.456 396.732 484.856 396.732 486.696V494.376H395.076V486.888C395.076 485.464 394.732 484.376 394.044 483.624C393.356 482.872 392.42 482.496 391.236 482.496C390.004 482.496 389.02 482.904 388.284 483.72C387.548 484.536 387.18 485.72 387.18 487.272V494.376H385.524V486.888C385.524 485.464 385.18 484.376 384.492 483.624C383.804 482.872 382.86 482.496 381.66 482.496C380.428 482.496 379.444 482.904 378.708 483.72C377.972 484.536 377.604 485.72 377.604 487.272V494.376H375.924V481.272H377.604V483.528C378.02 482.712 378.612 482.096 379.38 481.68C380.148 481.248 381.004 481.032 381.948 481.032C383.084 481.032 384.076 481.304 384.924 481.848C385.788 482.392 386.412 483.192 386.796 484.248C387.148 483.208 387.748 482.416 388.596 481.872C389.46 481.312 390.436 481.032 391.524 481.032ZM401.639 484.152C402.055 483.272 402.711 482.544 403.607 481.968C404.519 481.376 405.599 481.08 406.847 481.08C408.031 481.08 409.095 481.36 410.039 481.92C410.999 482.464 411.743 483.248 412.271 484.272C412.815 485.28 413.087 486.456 413.087 487.8C413.087 489.144 412.815 490.328 412.271 491.352C411.743 492.376 410.999 493.168 410.039 493.728C409.095 494.288 408.031 494.568 406.847 494.568C405.615 494.568 404.543 494.28 403.631 493.704C402.719 493.112 402.055 492.376 401.639 491.496V500.568H399.983V481.272H401.639V484.152ZM411.383 487.8C411.383 486.712 411.167 485.776 410.735 484.992C410.319 484.192 409.743 483.584 409.007 483.168C408.271 482.752 407.439 482.544 406.511 482.544C405.615 482.544 404.791 482.76 404.039 483.192C403.303 483.624 402.719 484.24 402.287 485.04C401.855 485.84 401.639 486.768 401.639 487.824C401.639 488.88 401.855 489.808 402.287 490.608C402.719 491.408 403.303 492.024 404.039 492.456C404.791 492.888 405.615 493.104 406.511 493.104C407.439 493.104 408.271 492.896 409.007 492.48C409.743 492.048 410.319 491.432 410.735 490.632C411.167 489.816 411.383 488.872 411.383 487.8ZM417.379 483.6C417.747 482.784 418.307 482.152 419.059 481.704C419.827 481.256 420.763 481.032 421.867 481.032V482.784H421.411C420.195 482.784 419.219 483.112 418.483 483.768C417.747 484.424 417.379 485.52 417.379 487.056V494.376H415.699V481.272H417.379V483.6ZM429.65 494.568C428.418 494.568 427.306 494.296 426.314 493.752C425.338 493.192 424.562 492.408 423.986 491.4C423.426 490.376 423.146 489.184 423.146 487.824C423.146 486.464 423.434 485.28 424.01 484.272C424.586 483.248 425.37 482.464 426.362 481.92C427.354 481.36 428.466 481.08 429.698 481.08C430.93 481.08 432.042 481.36 433.034 481.92C434.042 482.464 434.826 483.248 435.386 484.272C435.962 485.28 436.25 486.464 436.25 487.824C436.25 489.168 435.962 490.352 435.386 491.376C434.81 492.4 434.018 493.192 433.01 493.752C432.002 494.296 430.882 494.568 429.65 494.568ZM429.65 493.104C430.514 493.104 431.314 492.912 432.05 492.528C432.786 492.128 433.378 491.536 433.826 490.752C434.29 489.952 434.522 488.976 434.522 487.824C434.522 486.672 434.298 485.704 433.85 484.92C433.402 484.12 432.81 483.528 432.074 483.144C431.338 482.744 430.538 482.544 429.674 482.544C428.81 482.544 428.01 482.744 427.274 483.144C426.538 483.528 425.946 484.12 425.498 484.92C425.066 485.704 424.85 486.672 424.85 487.824C424.85 488.976 425.066 489.952 425.498 490.752C425.946 491.536 426.53 492.128 427.25 492.528C427.986 492.912 428.786 493.104 429.65 493.104ZM443.488 492.744L447.904 481.272H449.68L444.424 494.376H442.528L437.272 481.272H439.072L443.488 492.744ZM452.318 478.8C451.982 478.8 451.694 478.68 451.454 478.44C451.214 478.2 451.094 477.904 451.094 477.552C451.094 477.2 451.214 476.912 451.454 476.688C451.694 476.448 451.982 476.328 452.318 476.328C452.654 476.328 452.942 476.448 453.182 476.688C453.422 476.912 453.542 477.2 453.542 477.552C453.542 477.904 453.422 478.2 453.182 478.44C452.942 478.68 452.654 478.8 452.318 478.8ZM453.158 481.272V494.376H451.478V481.272H453.158ZM462.626 481.032C464.194 481.032 465.474 481.52 466.466 482.496C467.458 483.456 467.954 484.856 467.954 486.696V494.376H466.298V486.888C466.298 485.464 465.938 484.376 465.218 483.624C464.514 482.872 463.546 482.496 462.314 482.496C461.05 482.496 460.042 482.896 459.29 483.696C458.538 484.496 458.162 485.672 458.162 487.224V494.376H456.482V481.272H458.162V483.504C458.578 482.704 459.178 482.096 459.962 481.68C460.746 481.248 461.634 481.032 462.626 481.032ZM476.685 481.08C477.917 481.08 478.989 481.368 479.901 481.944C480.813 482.52 481.469 483.248 481.869 484.128V481.272H483.549V494.712C483.549 495.912 483.285 496.976 482.757 497.904C482.245 498.832 481.525 499.544 480.597 500.04C479.669 500.552 478.613 500.808 477.429 500.808C475.749 500.808 474.349 500.408 473.229 499.608C472.125 498.808 471.437 497.72 471.165 496.344H472.821C473.109 497.256 473.653 497.984 474.453 498.528C475.269 499.072 476.261 499.344 477.429 499.344C478.277 499.344 479.037 499.16 479.709 498.792C480.381 498.44 480.909 497.912 481.293 497.208C481.677 496.504 481.869 495.672 481.869 494.712V491.472C481.453 492.368 480.789 493.112 479.877 493.704C478.981 494.28 477.917 494.568 476.685 494.568C475.485 494.568 474.405 494.288 473.445 493.728C472.501 493.168 471.757 492.376 471.213 491.352C470.685 490.328 470.421 489.144 470.421 487.8C470.421 486.456 470.685 485.28 471.213 484.272C471.757 483.248 472.501 482.464 473.445 481.92C474.405 481.36 475.485 481.08 476.685 481.08ZM481.869 487.824C481.869 486.768 481.653 485.84 481.221 485.04C480.789 484.24 480.197 483.624 479.445 483.192C478.709 482.76 477.893 482.544 476.997 482.544C476.069 482.544 475.237 482.752 474.501 483.168C473.765 483.584 473.181 484.192 472.749 484.992C472.333 485.776 472.125 486.712 472.125 487.8C472.125 488.872 472.333 489.816 472.749 490.632C473.181 491.432 473.765 492.048 474.501 492.48C475.237 492.896 476.069 493.104 476.997 493.104C477.893 493.104 478.709 492.888 479.445 492.456C480.197 492.024 480.789 491.408 481.221 490.608C481.653 489.808 481.869 488.88 481.869 487.824ZM502.731 490.392H495.099L493.635 494.376H491.859L497.979 477.816H499.875L505.971 494.376H504.195L502.731 490.392ZM502.227 489L498.915 479.928L495.603 489H502.227ZM509.867 476.616V494.376H508.187V476.616H509.867ZM530.471 481.272L526.367 494.376H524.687L521.063 483.384L517.439 494.376H515.735L511.631 481.272H513.335L516.599 492.672L520.271 481.272H521.951L525.575 492.696L528.815 481.272H530.471ZM531.514 487.8C531.514 486.456 531.778 485.28 532.306 484.272C532.85 483.248 533.594 482.464 534.538 481.92C535.498 481.36 536.578 481.08 537.778 481.08C539.026 481.08 540.098 481.368 540.994 481.944C541.906 482.52 542.562 483.256 542.962 484.152V481.272H544.642V494.376H542.962V491.472C542.546 492.368 541.882 493.112 540.97 493.704C540.074 494.28 539.002 494.568 537.754 494.568C536.57 494.568 535.498 494.288 534.538 493.728C533.594 493.168 532.85 492.376 532.306 491.352C531.778 490.328 531.514 489.144 531.514 487.8ZM542.962 487.824C542.962 486.768 542.746 485.84 542.314 485.04C541.882 484.24 541.29 483.624 540.538 483.192C539.802 482.76 538.986 482.544 538.09 482.544C537.162 482.544 536.33 482.752 535.594 483.168C534.858 483.584 534.274 484.192 533.842 484.992C533.426 485.776 533.218 486.712 533.218 487.8C533.218 488.872 533.426 489.816 533.842 490.632C534.274 491.432 534.858 492.048 535.594 492.48C536.33 492.896 537.162 493.104 538.09 493.104C538.986 493.104 539.802 492.888 540.538 492.456C541.29 492.024 541.882 491.408 542.314 490.608C542.746 489.808 542.962 488.88 542.962 487.824ZM558.797 481.272L551.021 500.544H549.269L551.813 494.304L546.437 481.272H548.285L552.749 492.456L557.069 481.272H558.797ZM565.107 494.568C563.603 494.568 562.371 494.224 561.411 493.536C560.467 492.832 559.939 491.88 559.827 490.68H561.555C561.635 491.416 561.979 492.016 562.587 492.48C563.211 492.928 564.043 493.152 565.083 493.152C565.995 493.152 566.707 492.936 567.219 492.504C567.747 492.072 568.011 491.536 568.011 490.896C568.011 490.448 567.867 490.08 567.579 489.792C567.291 489.504 566.923 489.28 566.475 489.12C566.043 488.944 565.451 488.76 564.699 488.568C563.723 488.312 562.931 488.056 562.323 487.8C561.715 487.544 561.195 487.168 560.763 486.672C560.347 486.16 560.139 485.48 560.139 484.632C560.139 483.992 560.331 483.4 560.715 482.856C561.099 482.312 561.643 481.88 562.347 481.56C563.051 481.24 563.851 481.08 564.747 481.08C566.155 481.08 567.291 481.44 568.155 482.16C569.019 482.864 569.483 483.84 569.547 485.088H567.867C567.819 484.32 567.515 483.704 566.955 483.24C566.411 482.76 565.659 482.52 564.699 482.52C563.851 482.52 563.163 482.72 562.635 483.12C562.107 483.52 561.843 484.016 561.843 484.608C561.843 485.12 561.995 485.544 562.299 485.88C562.619 486.2 563.011 486.456 563.475 486.648C563.939 486.824 564.563 487.024 565.347 487.248C566.291 487.504 567.043 487.752 567.603 487.992C568.163 488.232 568.643 488.584 569.043 489.048C569.443 489.512 569.651 490.128 569.667 490.896C569.667 491.6 569.475 492.232 569.091 492.792C568.707 493.336 568.171 493.768 567.483 494.088C566.795 494.408 566.003 494.568 565.107 494.568Z" fill="white"/>
<path d="M683.648 482.424C683.648 483.864 683.176 485.024 682.232 485.904C681.288 486.784 679.872 487.224 677.984 487.224H674.6V494.376H672.92V477.6H677.984C679.856 477.6 681.264 478.04 682.208 478.92C683.168 479.8 683.648 480.968 683.648 482.424ZM677.984 485.784C680.608 485.784 681.92 484.664 681.92 482.424C681.92 481.304 681.608 480.456 680.984 479.88C680.36 479.304 679.36 479.016 677.984 479.016H674.6V485.784H677.984ZM691.723 494.568C690.491 494.568 689.379 494.296 688.387 493.752C687.411 493.192 686.635 492.408 686.059 491.4C685.499 490.376 685.219 489.184 685.219 487.824C685.219 486.464 685.507 485.28 686.083 484.272C686.659 483.248 687.443 482.464 688.435 481.92C689.427 481.36 690.539 481.08 691.771 481.08C693.003 481.08 694.115 481.36 695.107 481.92C696.115 482.464 696.899 483.248 697.459 484.272C698.035 485.28 698.323 486.464 698.323 487.824C698.323 489.168 698.035 490.352 697.459 491.376C696.883 492.4 696.091 493.192 695.083 493.752C694.075 494.296 692.955 494.568 691.723 494.568ZM691.723 493.104C692.587 493.104 693.387 492.912 694.123 492.528C694.859 492.128 695.451 491.536 695.899 490.752C696.363 489.952 696.595 488.976 696.595 487.824C696.595 486.672 696.371 485.704 695.923 484.92C695.475 484.12 694.883 483.528 694.147 483.144C693.411 482.744 692.611 482.544 691.747 482.544C690.883 482.544 690.083 482.744 689.347 483.144C688.611 483.528 688.019 484.12 687.571 484.92C687.139 485.704 686.923 486.672 686.923 487.824C686.923 488.976 687.139 489.952 687.571 490.752C688.019 491.536 688.603 492.128 689.323 492.528C690.059 492.912 690.859 493.104 691.723 493.104ZM702.585 476.616V494.376H700.905V476.616H702.585ZM706.75 478.8C706.414 478.8 706.126 478.68 705.886 478.44C705.646 478.2 705.526 477.904 705.526 477.552C705.526 477.2 705.646 476.912 705.886 476.688C706.126 476.448 706.414 476.328 706.75 476.328C707.086 476.328 707.374 476.448 707.614 476.688C707.854 476.912 707.974 477.2 707.974 477.552C707.974 477.904 707.854 478.2 707.614 478.44C707.374 478.68 707.086 478.8 706.75 478.8ZM707.59 481.272V494.376H705.91V481.272H707.59ZM713.098 482.688V490.824C713.098 491.624 713.25 492.176 713.554 492.48C713.858 492.784 714.394 492.936 715.162 492.936H716.698V494.376H714.898C713.714 494.376 712.834 494.104 712.258 493.56C711.682 493 711.394 492.088 711.394 490.824V482.688H709.57V481.272H711.394V477.984H713.098V481.272H716.698V482.688H713.098ZM730.845 487.152C730.845 487.728 730.829 488.168 730.797 488.472H719.925C719.973 489.464 720.213 490.312 720.645 491.016C721.077 491.72 721.645 492.256 722.349 492.624C723.053 492.976 723.821 493.152 724.653 493.152C725.741 493.152 726.653 492.888 727.389 492.36C728.141 491.832 728.637 491.12 728.877 490.224H730.653C730.333 491.504 729.645 492.552 728.589 493.368C727.549 494.168 726.237 494.568 724.653 494.568C723.421 494.568 722.317 494.296 721.341 493.752C720.365 493.192 719.597 492.408 719.037 491.4C718.493 490.376 718.221 489.184 718.221 487.824C718.221 486.464 718.493 485.272 719.037 484.248C719.581 483.224 720.341 482.44 721.317 481.896C722.293 481.352 723.405 481.08 724.653 481.08C725.901 481.08 726.989 481.352 727.917 481.896C728.861 482.44 729.581 483.176 730.077 484.104C730.589 485.016 730.845 486.032 730.845 487.152ZM729.141 487.104C729.157 486.128 728.957 485.296 728.541 484.608C728.141 483.92 727.589 483.4 726.885 483.048C726.181 482.696 725.413 482.52 724.581 482.52C723.333 482.52 722.269 482.92 721.389 483.72C720.509 484.52 720.021 485.648 719.925 487.104H729.141ZM752.312 494.376L750.032 492.048C749.216 492.944 748.344 493.608 747.416 494.04C746.488 494.456 745.44 494.664 744.272 494.664C743.152 494.664 742.16 494.456 741.296 494.04C740.432 493.608 739.76 493.008 739.28 492.24C738.8 491.472 738.56 490.584 738.56 489.576C738.56 488.392 738.896 487.36 739.568 486.48C740.24 485.6 741.224 484.912 742.52 484.416C741.96 483.792 741.552 483.216 741.296 482.688C741.04 482.144 740.912 481.56 740.912 480.936C740.912 479.864 741.296 479 742.064 478.344C742.832 477.672 743.856 477.336 745.136 477.336C746.336 477.336 747.312 477.68 748.064 478.368C748.816 479.056 749.168 479.952 749.12 481.056H747.44C747.456 480.336 747.232 479.768 746.768 479.352C746.32 478.936 745.752 478.728 745.064 478.728C744.328 478.728 743.728 478.936 743.264 479.352C742.816 479.752 742.592 480.272 742.592 480.912C742.592 481.424 742.728 481.92 743 482.4C743.288 482.88 743.736 483.448 744.344 484.104L749.864 489.696C750.088 489.392 750.392 488.912 750.776 488.256L752.312 485.688H754.112L752.288 488.832C751.856 489.584 751.424 490.256 750.992 490.848L754.496 494.376H752.312ZM744.272 493.2C745.216 493.2 746.056 493.016 746.792 492.648C747.544 492.28 748.256 491.704 748.928 490.92L743.576 485.496C741.352 486.312 740.24 487.656 740.24 489.528C740.24 490.232 740.408 490.864 740.744 491.424C741.096 491.968 741.576 492.4 742.184 492.72C742.792 493.04 743.488 493.2 744.272 493.2ZM773.148 482.424C773.148 483.864 772.676 485.024 771.732 485.904C770.788 486.784 769.372 487.224 767.484 487.224H764.1V494.376H762.42V477.6H767.484C769.356 477.6 770.764 478.04 771.708 478.92C772.668 479.8 773.148 480.968 773.148 482.424ZM767.484 485.784C770.108 485.784 771.42 484.664 771.42 482.424C771.42 481.304 771.108 480.456 770.484 479.88C769.86 479.304 768.86 479.016 767.484 479.016H764.1V485.784H767.484ZM777.167 483.6C777.535 482.784 778.095 482.152 778.847 481.704C779.615 481.256 780.551 481.032 781.655 481.032V482.784H781.199C779.983 482.784 779.007 483.112 778.271 483.768C777.535 484.424 777.167 485.52 777.167 487.056V494.376H775.487V481.272H777.167V483.6ZM789.439 494.568C788.207 494.568 787.095 494.296 786.103 493.752C785.127 493.192 784.351 492.408 783.775 491.4C783.215 490.376 782.935 489.184 782.935 487.824C782.935 486.464 783.223 485.28 783.799 484.272C784.375 483.248 785.159 482.464 786.151 481.92C787.143 481.36 788.255 481.08 789.487 481.08C790.719 481.08 791.831 481.36 792.823 481.92C793.831 482.464 794.615 483.248 795.175 484.272C795.751 485.28 796.039 486.464 796.039 487.824C796.039 489.168 795.751 490.352 795.175 491.376C794.599 492.4 793.807 493.192 792.799 493.752C791.791 494.296 790.671 494.568 789.439 494.568ZM789.439 493.104C790.303 493.104 791.103 492.912 791.839 492.528C792.575 492.128 793.167 491.536 793.615 490.752C794.079 489.952 794.311 488.976 794.311 487.824C794.311 486.672 794.087 485.704 793.639 484.92C793.191 484.12 792.599 483.528 791.863 483.144C791.127 482.744 790.327 482.544 789.463 482.544C788.599 482.544 787.799 482.744 787.063 483.144C786.327 483.528 785.735 484.12 785.287 484.92C784.855 485.704 784.639 486.672 784.639 487.824C784.639 488.976 784.855 489.952 785.287 490.752C785.735 491.536 786.319 492.128 787.039 492.528C787.775 492.912 788.575 493.104 789.439 493.104ZM803.781 482.688H800.733V494.376H799.053V482.688H797.229V481.272H799.053V480.36C799.053 478.936 799.413 477.888 800.133 477.216C800.869 476.544 802.053 476.208 803.685 476.208V477.648C802.597 477.648 801.829 477.856 801.381 478.272C800.949 478.688 800.733 479.384 800.733 480.36V481.272H803.781V482.688ZM817.802 487.152C817.802 487.728 817.786 488.168 817.754 488.472H806.882C806.93 489.464 807.17 490.312 807.602 491.016C808.034 491.72 808.602 492.256 809.306 492.624C810.01 492.976 810.778 493.152 811.61 493.152C812.698 493.152 813.61 492.888 814.346 492.36C815.098 491.832 815.594 491.12 815.834 490.224H817.61C817.29 491.504 816.602 492.552 815.546 493.368C814.506 494.168 813.194 494.568 811.61 494.568C810.378 494.568 809.274 494.296 808.298 493.752C807.322 493.192 806.554 492.408 805.994 491.4C805.45 490.376 805.178 489.184 805.178 487.824C805.178 486.464 805.45 485.272 805.994 484.248C806.538 483.224 807.298 482.44 808.274 481.896C809.25 481.352 810.362 481.08 811.61 481.08C812.858 481.08 813.946 481.352 814.874 481.896C815.818 482.44 816.538 483.176 817.034 484.104C817.546 485.016 817.802 486.032 817.802 487.152ZM816.098 487.104C816.114 486.128 815.914 485.296 815.498 484.608C815.098 483.92 814.546 483.4 813.842 483.048C813.138 482.696 812.37 482.52 811.538 482.52C810.29 482.52 809.226 482.92 808.346 483.72C807.466 484.52 806.978 485.648 806.882 487.104H816.098ZM824.907 494.568C823.403 494.568 822.171 494.224 821.211 493.536C820.267 492.832 819.739 491.88 819.627 490.68H821.355C821.435 491.416 821.779 492.016 822.387 492.48C823.011 492.928 823.843 493.152 824.883 493.152C825.795 493.152 826.507 492.936 827.019 492.504C827.547 492.072 827.811 491.536 827.811 490.896C827.811 490.448 827.667 490.08 827.379 489.792C827.091 489.504 826.723 489.28 826.275 489.12C825.843 488.944 825.251 488.76 824.499 488.568C823.523 488.312 822.731 488.056 822.123 487.8C821.515 487.544 820.995 487.168 820.563 486.672C820.147 486.16 819.939 485.48 819.939 484.632C819.939 483.992 820.131 483.4 820.515 482.856C820.899 482.312 821.443 481.88 822.147 481.56C822.851 481.24 823.651 481.08 824.547 481.08C825.955 481.08 827.091 481.44 827.955 482.16C828.819 482.864 829.283 483.84 829.347 485.088H827.667C827.619 484.32 827.315 483.704 826.755 483.24C826.211 482.76 825.459 482.52 824.499 482.52C823.651 482.52 822.963 482.72 822.435 483.12C821.907 483.52 821.643 484.016 821.643 484.608C821.643 485.12 821.795 485.544 822.099 485.88C822.419 486.2 822.811 486.456 823.275 486.648C823.739 486.824 824.363 487.024 825.147 487.248C826.091 487.504 826.843 487.752 827.403 487.992C827.963 488.232 828.443 488.584 828.843 489.048C829.243 489.512 829.451 490.128 829.467 490.896C829.467 491.6 829.275 492.232 828.891 492.792C828.507 493.336 827.971 493.768 827.283 494.088C826.595 494.408 825.803 494.568 824.907 494.568ZM836.662 494.568C835.158 494.568 833.926 494.224 832.966 493.536C832.022 492.832 831.494 491.88 831.382 490.68H833.11C833.19 491.416 833.534 492.016 834.142 492.48C834.766 492.928 835.598 493.152 836.638 493.152C837.55 493.152 838.262 492.936 838.774 492.504C839.302 492.072 839.566 491.536 839.566 490.896C839.566 490.448 839.422 490.08 839.134 489.792C838.846 489.504 838.478 489.28 838.03 489.12C837.598 488.944 837.006 488.76 836.254 488.568C835.278 488.312 834.486 488.056 833.878 487.8C833.27 487.544 832.75 487.168 832.318 486.672C831.902 486.16 831.694 485.48 831.694 484.632C831.694 483.992 831.886 483.4 832.27 482.856C832.654 482.312 833.198 481.88 833.902 481.56C834.606 481.24 835.406 481.08 836.302 481.08C837.71 481.08 838.846 481.44 839.71 482.16C840.574 482.864 841.038 483.84 841.102 485.088H839.422C839.374 484.32 839.07 483.704 838.51 483.24C837.966 482.76 837.214 482.52 836.254 482.52C835.406 482.52 834.718 482.72 834.19 483.12C833.662 483.52 833.398 484.016 833.398 484.608C833.398 485.12 833.55 485.544 833.854 485.88C834.174 486.2 834.566 486.456 835.03 486.648C835.494 486.824 836.118 487.024 836.902 487.248C837.846 487.504 838.598 487.752 839.158 487.992C839.718 488.232 840.198 488.584 840.598 489.048C840.998 489.512 841.206 490.128 841.222 490.896C841.222 491.6 841.03 492.232 840.646 492.792C840.262 493.336 839.726 493.768 839.038 494.088C838.35 494.408 837.558 494.568 836.662 494.568ZM844.744 478.8C844.408 478.8 844.12 478.68 843.88 478.44C843.64 478.2 843.52 477.904 843.52 477.552C843.52 477.2 843.64 476.912 843.88 476.688C844.12 476.448 844.408 476.328 844.744 476.328C845.08 476.328 845.368 476.448 845.608 476.688C845.848 476.912 845.968 477.2 845.968 477.552C845.968 477.904 845.848 478.2 845.608 478.44C845.368 478.68 845.08 478.8 844.744 478.8ZM845.584 481.272V494.376H843.904V481.272H845.584ZM854.644 494.568C853.412 494.568 852.3 494.296 851.308 493.752C850.332 493.192 849.556 492.408 848.98 491.4C848.42 490.376 848.14 489.184 848.14 487.824C848.14 486.464 848.428 485.28 849.004 484.272C849.58 483.248 850.364 482.464 851.356 481.92C852.348 481.36 853.46 481.08 854.692 481.08C855.924 481.08 857.036 481.36 858.028 481.92C859.036 482.464 859.82 483.248 860.38 484.272C860.956 485.28 861.244 486.464 861.244 487.824C861.244 489.168 860.956 490.352 860.38 491.376C859.804 492.4 859.012 493.192 858.004 493.752C856.996 494.296 855.876 494.568 854.644 494.568ZM854.644 493.104C855.508 493.104 856.308 492.912 857.044 492.528C857.78 492.128 858.372 491.536 858.82 490.752C859.284 489.952 859.516 488.976 859.516 487.824C859.516 486.672 859.292 485.704 858.844 484.92C858.396 484.12 857.804 483.528 857.068 483.144C856.332 482.744 855.532 482.544 854.668 482.544C853.804 482.544 853.004 482.744 852.268 483.144C851.532 483.528 850.94 484.12 850.492 484.92C850.06 485.704 849.844 486.672 849.844 487.824C849.844 488.976 850.06 489.952 850.492 490.752C850.94 491.536 851.524 492.128 852.244 492.528C852.98 492.912 853.78 493.104 854.644 493.104ZM869.971 481.032C871.539 481.032 872.819 481.52 873.811 482.496C874.803 483.456 875.299 484.856 875.299 486.696V494.376H873.643V486.888C873.643 485.464 873.283 484.376 872.563 483.624C871.859 482.872 870.891 482.496 869.659 482.496C868.395 482.496 867.387 482.896 866.635 483.696C865.883 484.496 865.507 485.672 865.507 487.224V494.376H863.827V481.272H865.507V483.504C865.923 482.704 866.523 482.096 867.307 481.68C868.091 481.248 868.979 481.032 869.971 481.032ZM877.766 487.8C877.766 486.456 878.03 485.28 878.558 484.272C879.102 483.248 879.846 482.464 880.79 481.92C881.75 481.36 882.83 481.08 884.03 481.08C885.278 481.08 886.35 481.368 887.246 481.944C888.158 482.52 888.814 483.256 889.214 484.152V481.272H890.894V494.376H889.214V491.472C888.798 492.368 888.134 493.112 887.222 493.704C886.326 494.28 885.254 494.568 884.006 494.568C882.822 494.568 881.75 494.288 880.79 493.728C879.846 493.168 879.102 492.376 878.558 491.352C878.03 490.328 877.766 489.144 877.766 487.8ZM889.214 487.824C889.214 486.768 888.998 485.84 888.566 485.04C888.134 484.24 887.542 483.624 886.79 483.192C886.054 482.76 885.238 482.544 884.342 482.544C883.414 482.544 882.582 482.752 881.846 483.168C881.11 483.584 880.526 484.192 880.094 484.992C879.678 485.776 879.47 486.712 879.47 487.8C879.47 488.872 879.678 489.816 880.094 490.632C880.526 491.432 881.11 492.048 881.846 492.48C882.582 492.896 883.414 493.104 884.342 493.104C885.238 493.104 886.054 492.888 886.79 492.456C887.542 492.024 888.134 491.408 888.566 490.608C888.998 489.808 889.214 488.88 889.214 487.824ZM895.93 476.616V494.376H894.25V476.616H895.93Z" fill="white"/>
<path d="M813.6 260.934H819.624V262.302H811.92V245.526H813.6V260.934ZM827.278 262.494C826.046 262.494 824.934 262.222 823.942 261.678C822.966 261.118 822.19 260.334 821.614 259.326C821.054 258.302 820.774 257.11 820.774 255.75C820.774 254.39 821.062 253.206 821.638 252.198C822.214 251.174 822.998 250.39 823.99 249.846C824.982 249.286 826.094 249.006 827.326 249.006C828.558 249.006 829.67 249.286 830.662 249.846C831.67 250.39 832.454 251.174 833.014 252.198C833.59 253.206 833.878 254.39 833.878 255.75C833.878 257.094 833.59 258.278 833.014 259.302C832.438 260.326 831.646 261.118 830.638 261.678C829.63 262.222 828.51 262.494 827.278 262.494ZM827.278 261.03C828.142 261.03 828.942 260.838 829.678 260.454C830.414 260.054 831.006 259.462 831.454 258.678C831.918 257.878 832.15 256.902 832.15 255.75C832.15 254.598 831.926 253.63 831.478 252.846C831.03 252.046 830.438 251.454 829.702 251.07C828.966 250.67 828.166 250.47 827.302 250.47C826.438 250.47 825.638 250.67 824.902 251.07C824.166 251.454 823.574 252.046 823.126 252.846C822.694 253.63 822.478 254.598 822.478 255.75C822.478 256.902 822.694 257.878 823.126 258.678C823.574 259.462 824.158 260.054 824.878 260.454C825.614 260.838 826.414 261.03 827.278 261.03ZM847.26 249.198L839.484 268.47H837.732L840.276 262.23L834.9 249.198H836.748L841.212 260.382L845.532 249.198H847.26ZM848.29 255.726C848.29 254.382 848.554 253.206 849.082 252.198C849.626 251.174 850.37 250.39 851.314 249.846C852.274 249.286 853.354 249.006 854.554 249.006C855.802 249.006 856.874 249.294 857.77 249.87C858.682 250.446 859.338 251.182 859.738 252.078V249.198H861.418V262.302H859.738V259.398C859.322 260.294 858.658 261.038 857.746 261.63C856.85 262.206 855.778 262.494 854.53 262.494C853.346 262.494 852.274 262.214 851.314 261.654C850.37 261.094 849.626 260.302 849.082 259.278C848.554 258.254 848.29 257.07 848.29 255.726ZM859.738 255.75C859.738 254.694 859.522 253.766 859.09 252.966C858.658 252.166 858.066 251.55 857.314 251.118C856.578 250.686 855.762 250.47 854.866 250.47C853.938 250.47 853.106 250.678 852.37 251.094C851.634 251.51 851.05 252.118 850.618 252.918C850.202 253.702 849.994 254.638 849.994 255.726C849.994 256.798 850.202 257.742 850.618 258.558C851.05 259.358 851.634 259.974 852.37 260.406C853.106 260.822 853.938 261.03 854.866 261.03C855.762 261.03 856.578 260.814 857.314 260.382C858.066 259.95 858.658 259.334 859.09 258.534C859.522 257.734 859.738 256.806 859.738 255.75ZM866.453 244.542V262.302H864.773V244.542H866.453ZM878.068 250.614V258.75C878.068 259.55 878.22 260.102 878.524 260.406C878.828 260.71 879.364 260.862 880.132 260.862H881.668V262.302H879.868C878.684 262.302 877.804 262.03 877.228 261.486C876.652 260.926 876.364 260.014 876.364 258.75V250.614H874.54V249.198H876.364V245.91H878.068V249.198H881.668V250.614H878.068ZM889.694 262.494C888.462 262.494 887.35 262.222 886.358 261.678C885.382 261.118 884.606 260.334 884.03 259.326C883.47 258.302 883.19 257.11 883.19 255.75C883.19 254.39 883.478 253.206 884.054 252.198C884.63 251.174 885.414 250.39 886.406 249.846C887.398 249.286 888.51 249.006 889.742 249.006C890.974 249.006 892.086 249.286 893.078 249.846C894.086 250.39 894.87 251.174 895.43 252.198C896.006 253.206 896.294 254.39 896.294 255.75C896.294 257.094 896.006 258.278 895.43 259.302C894.854 260.326 894.062 261.118 893.054 261.678C892.046 262.222 890.926 262.494 889.694 262.494ZM889.694 261.03C890.558 261.03 891.358 260.838 892.094 260.454C892.83 260.054 893.422 259.462 893.87 258.678C894.334 257.878 894.566 256.902 894.566 255.75C894.566 254.598 894.342 253.63 893.894 252.846C893.446 252.046 892.854 251.454 892.118 251.07C891.382 250.67 890.582 250.47 889.718 250.47C888.854 250.47 888.054 250.67 887.318 251.07C886.582 251.454 885.99 252.046 885.542 252.846C885.11 253.63 884.894 254.598 884.894 255.75C884.894 256.902 885.11 257.878 885.542 258.678C885.99 259.462 886.574 260.054 887.294 260.454C888.03 260.838 888.83 261.03 889.694 261.03ZM912.519 262.47C910.967 262.47 909.559 262.11 908.295 261.39C907.031 260.654 906.031 259.638 905.295 258.342C904.575 257.03 904.215 255.55 904.215 253.902C904.215 252.254 904.575 250.782 905.295 249.486C906.031 248.174 907.031 247.158 908.295 246.438C909.559 245.702 910.967 245.334 912.519 245.334C914.087 245.334 915.503 245.702 916.767 246.438C918.031 247.158 919.023 248.174 919.743 249.486C920.463 250.782 920.823 252.254 920.823 253.902C920.823 255.55 920.463 257.03 919.743 258.342C919.023 259.638 918.031 260.654 916.767 261.39C915.503 262.11 914.087 262.47 912.519 262.47ZM912.519 261.006C913.767 261.006 914.887 260.718 915.879 260.142C916.871 259.566 917.655 258.742 918.231 257.67C918.807 256.582 919.095 255.326 919.095 253.902C919.095 252.478 918.807 251.23 918.231 250.158C917.655 249.086 916.871 248.262 915.879 247.686C914.887 247.11 913.767 246.822 912.519 246.822C911.271 246.822 910.151 247.11 909.159 247.686C908.167 248.262 907.383 249.086 906.807 250.158C906.231 251.23 905.943 252.478 905.943 253.902C905.943 255.326 906.231 256.582 906.807 257.67C907.383 258.742 908.167 259.566 909.159 260.142C910.151 260.718 911.271 261.006 912.519 261.006ZM925.097 251.526C925.465 250.71 926.025 250.078 926.777 249.63C927.545 249.182 928.481 248.958 929.585 248.958V250.71H929.129C927.913 250.71 926.937 251.038 926.201 251.694C925.465 252.35 925.097 253.446 925.097 254.982V262.302H923.417V249.198H925.097V251.526ZM937.128 249.006C938.36 249.006 939.432 249.294 940.344 249.87C941.256 250.446 941.912 251.174 942.312 252.054V249.198H943.992V262.638C943.992 263.838 943.728 264.902 943.2 265.83C942.688 266.758 941.968 267.47 941.04 267.966C940.112 268.478 939.056 268.734 937.872 268.734C936.192 268.734 934.792 268.334 933.672 267.534C932.568 266.734 931.88 265.646 931.608 264.27H933.264C933.552 265.182 934.096 265.91 934.896 266.454C935.712 266.998 936.704 267.27 937.872 267.27C938.72 267.27 939.48 267.086 940.152 266.718C940.824 266.366 941.352 265.838 941.736 265.134C942.12 264.43 942.312 263.598 942.312 262.638V259.398C941.896 260.294 941.232 261.038 940.32 261.63C939.424 262.206 938.36 262.494 937.128 262.494C935.928 262.494 934.848 262.214 933.888 261.654C932.944 261.094 932.2 260.302 931.656 259.278C931.128 258.254 930.864 257.07 930.864 255.726C930.864 254.382 931.128 253.206 931.656 252.198C932.2 251.174 932.944 250.39 933.888 249.846C934.848 249.286 935.928 249.006 937.128 249.006ZM942.312 255.75C942.312 254.694 942.096 253.766 941.664 252.966C941.232 252.166 940.64 251.55 939.888 251.118C939.152 250.686 938.336 250.47 937.44 250.47C936.512 250.47 935.68 250.678 934.944 251.094C934.208 251.51 933.624 252.118 933.192 252.918C932.776 253.702 932.568 254.638 932.568 255.726C932.568 256.798 932.776 257.742 933.192 258.558C933.624 259.358 934.208 259.974 934.944 260.406C935.68 260.822 936.512 261.03 937.44 261.03C938.336 261.03 939.152 260.814 939.888 260.382C940.64 259.95 941.232 259.334 941.664 258.534C942.096 257.734 942.312 256.806 942.312 255.75ZM953.492 248.958C955.06 248.958 956.34 249.446 957.332 250.422C958.324 251.382 958.82 252.782 958.82 254.622V262.302H957.164V254.814C957.164 253.39 956.804 252.302 956.084 251.55C955.38 250.798 954.412 250.422 953.18 250.422C951.916 250.422 950.908 250.822 950.156 251.622C949.404 252.422 949.028 253.598 949.028 255.15V262.302H947.348V249.198H949.028V251.43C949.444 250.63 950.044 250.022 950.828 249.606C951.612 249.174 952.5 248.958 953.492 248.958ZM961.287 255.726C961.287 254.382 961.551 253.206 962.079 252.198C962.623 251.174 963.367 250.39 964.311 249.846C965.271 249.286 966.351 249.006 967.551 249.006C968.799 249.006 969.871 249.294 970.767 249.87C971.679 250.446 972.335 251.182 972.735 252.078V249.198H974.415V262.302H972.735V259.398C972.319 260.294 971.655 261.038 970.743 261.63C969.847 262.206 968.775 262.494 967.527 262.494C966.343 262.494 965.271 262.214 964.311 261.654C963.367 261.094 962.623 260.302 962.079 259.278C961.551 258.254 961.287 257.07 961.287 255.726ZM972.735 255.75C972.735 254.694 972.519 253.766 972.087 252.966C971.655 252.166 971.063 251.55 970.311 251.118C969.575 250.686 968.759 250.47 967.863 250.47C966.935 250.47 966.103 250.678 965.367 251.094C964.631 251.51 964.047 252.118 963.615 252.918C963.199 253.702 962.991 254.638 962.991 255.726C962.991 256.798 963.199 257.742 963.615 258.558C964.047 259.358 964.631 259.974 965.367 260.406C966.103 260.822 966.935 261.03 967.863 261.03C968.759 261.03 969.575 260.814 970.311 260.382C971.063 259.95 971.655 259.334 972.087 258.534C972.519 257.734 972.735 256.806 972.735 255.75ZM978.61 246.726C978.274 246.726 977.986 246.606 977.746 246.366C977.506 246.126 977.386 245.83 977.386 245.478C977.386 245.126 977.506 244.838 977.746 244.614C977.986 244.374 978.274 244.254 978.61 244.254C978.946 244.254 979.234 244.374 979.474 244.614C979.714 244.838 979.834 245.126 979.834 245.478C979.834 245.83 979.714 246.126 979.474 246.366C979.234 246.606 978.946 246.726 978.61 246.726ZM979.45 249.198V262.302H977.77V249.198H979.45ZM983.663 260.91H990.527V262.302H981.743V260.91L988.487 250.59H981.863V249.198H990.407V250.59L983.663 260.91ZM992.12 255.726C992.12 254.382 992.384 253.206 992.912 252.198C993.456 251.174 994.2 250.39 995.144 249.846C996.104 249.286 997.184 249.006 998.384 249.006C999.632 249.006 1000.7 249.294 1001.6 249.87C1002.51 250.446 1003.17 251.182 1003.57 252.078V249.198H1005.25V262.302H1003.57V259.398C1003.15 260.294 1002.49 261.038 1001.58 261.63C1000.68 262.206 999.608 262.494 998.36 262.494C997.176 262.494 996.104 262.214 995.144 261.654C994.2 261.094 993.456 260.302 992.912 259.278C992.384 258.254 992.12 257.07 992.12 255.726ZM1003.57 255.75C1003.57 254.694 1003.35 253.766 1002.92 252.966C1002.49 252.166 1001.9 251.55 1001.14 251.118C1000.41 250.686 999.592 250.47 998.696 250.47C997.768 250.47 996.936 250.678 996.2 251.094C995.464 251.51 994.88 252.118 994.448 252.918C994.032 253.702 993.824 254.638 993.824 255.726C993.824 256.798 994.032 257.742 994.448 258.558C994.88 259.358 995.464 259.974 996.2 260.406C996.936 260.822 997.768 261.03 998.696 261.03C999.592 261.03 1000.41 260.814 1001.14 260.382C1001.9 259.95 1002.49 259.334 1002.92 258.534C1003.35 257.734 1003.57 256.806 1003.57 255.75ZM1010.79 250.614V258.75C1010.79 259.55 1010.94 260.102 1011.24 260.406C1011.55 260.71 1012.08 260.862 1012.85 260.862H1014.39V262.302H1012.59C1011.4 262.302 1010.52 262.03 1009.95 261.486C1009.37 260.926 1009.08 260.014 1009.08 258.75V250.614H1007.26V249.198H1009.08V245.91H1010.79V249.198H1014.39V250.614H1010.79ZM1017.52 246.726C1017.18 246.726 1016.89 246.606 1016.65 246.366C1016.41 246.126 1016.29 245.83 1016.29 245.478C1016.29 245.126 1016.41 244.838 1016.65 244.614C1016.89 244.374 1017.18 244.254 1017.52 244.254C1017.85 244.254 1018.14 244.374 1018.38 244.614C1018.62 244.838 1018.74 245.126 1018.74 245.478C1018.74 245.83 1018.62 246.126 1018.38 246.366C1018.14 246.606 1017.85 246.726 1017.52 246.726ZM1018.36 249.198V262.302H1016.68V249.198H1018.36ZM1027.42 262.494C1026.19 262.494 1025.07 262.222 1024.08 261.678C1023.11 261.118 1022.33 260.334 1021.75 259.326C1021.19 258.302 1020.91 257.11 1020.91 255.75C1020.91 254.39 1021.2 253.206 1021.78 252.198C1022.35 251.174 1023.14 250.39 1024.13 249.846C1025.12 249.286 1026.23 249.006 1027.47 249.006C1028.7 249.006 1029.81 249.286 1030.8 249.846C1031.81 250.39 1032.59 251.174 1033.15 252.198C1033.73 253.206 1034.02 254.39 1034.02 255.75C1034.02 257.094 1033.73 258.278 1033.15 259.302C1032.58 260.326 1031.79 261.118 1030.78 261.678C1029.77 262.222 1028.65 262.494 1027.42 262.494ZM1027.42 261.03C1028.28 261.03 1029.08 260.838 1029.82 260.454C1030.55 260.054 1031.15 259.462 1031.59 258.678C1032.06 257.878 1032.29 256.902 1032.29 255.75C1032.29 254.598 1032.07 253.63 1031.62 252.846C1031.17 252.046 1030.58 251.454 1029.84 251.07C1029.11 250.67 1028.31 250.47 1027.44 250.47C1026.58 250.47 1025.78 250.67 1025.04 251.07C1024.31 251.454 1023.71 252.046 1023.27 252.846C1022.83 253.63 1022.62 254.598 1022.62 255.75C1022.62 256.902 1022.83 257.878 1023.27 258.678C1023.71 259.462 1024.3 260.054 1025.02 260.454C1025.75 260.838 1026.55 261.03 1027.42 261.03ZM1042.75 248.958C1044.31 248.958 1045.59 249.446 1046.59 250.422C1047.58 251.382 1048.07 252.782 1048.07 254.622V262.302H1046.42V254.814C1046.42 253.39 1046.06 252.302 1045.34 251.55C1044.63 250.798 1043.67 250.422 1042.43 250.422C1041.17 250.422 1040.16 250.822 1039.41 251.622C1038.66 252.422 1038.28 253.598 1038.28 255.15V262.302H1036.6V249.198H1038.28V251.43C1038.7 250.63 1039.3 250.022 1040.08 249.606C1040.87 249.174 1041.75 248.958 1042.75 248.958Z" fill="white"/>
<path d="M1133.6 246.894V253.158H1139.96V254.55H1133.6V260.91H1140.68V262.302H1131.92V245.502H1140.68V246.894H1133.6ZM1149.65 248.958C1151.22 248.958 1152.5 249.446 1153.49 250.422C1154.49 251.382 1154.98 252.782 1154.98 254.622V262.302H1153.33V254.814C1153.33 253.39 1152.97 252.302 1152.25 251.55C1151.54 250.798 1150.57 250.422 1149.34 250.422C1148.08 250.422 1147.07 250.822 1146.32 251.622C1145.57 252.422 1145.19 253.598 1145.19 255.15V262.302H1143.51V249.198H1145.19V251.43C1145.61 250.63 1146.21 250.022 1146.99 249.606C1147.77 249.174 1148.66 248.958 1149.65 248.958ZM1160.4 250.614V258.75C1160.4 259.55 1160.55 260.102 1160.86 260.406C1161.16 260.71 1161.7 260.862 1162.47 260.862H1164V262.302H1162.2C1161.02 262.302 1160.14 262.03 1159.56 261.486C1158.99 260.926 1158.7 260.014 1158.7 258.75V250.614H1156.87V249.198H1158.7V245.91H1160.4V249.198H1164V250.614H1160.4ZM1172.53 248.958C1173.52 248.958 1174.41 249.166 1175.2 249.582C1176 249.998 1176.62 250.638 1177.07 251.502C1177.53 252.35 1177.76 253.39 1177.76 254.622V262.302H1176.11V254.814C1176.11 253.39 1175.75 252.302 1175.03 251.55C1174.32 250.798 1173.36 250.422 1172.12 250.422C1170.86 250.422 1169.85 250.822 1169.1 251.622C1168.35 252.422 1167.97 253.598 1167.97 255.15V262.302H1166.29V244.542H1167.97V251.43C1168.39 250.646 1169 250.038 1169.8 249.606C1170.61 249.174 1171.52 248.958 1172.53 248.958ZM1192.35 249.198V262.302H1190.67V259.998C1190.29 260.814 1189.7 261.438 1188.9 261.87C1188.1 262.302 1187.2 262.518 1186.21 262.518C1184.64 262.518 1183.36 262.038 1182.37 261.078C1181.38 260.102 1180.88 258.694 1180.88 256.854V249.198H1182.54V256.662C1182.54 258.086 1182.89 259.174 1183.59 259.926C1184.31 260.678 1185.29 261.054 1186.52 261.054C1187.78 261.054 1188.79 260.654 1189.54 259.854C1190.3 259.054 1190.67 257.878 1190.67 256.326V249.198H1192.35ZM1200.22 262.494C1198.72 262.494 1197.48 262.15 1196.52 261.462C1195.58 260.758 1195.05 259.806 1194.94 258.606H1196.67C1196.75 259.342 1197.09 259.942 1197.7 260.406C1198.32 260.854 1199.16 261.078 1200.2 261.078C1201.11 261.078 1201.82 260.862 1202.33 260.43C1202.86 259.998 1203.12 259.462 1203.12 258.822C1203.12 258.374 1202.98 258.006 1202.69 257.718C1202.4 257.43 1202.04 257.206 1201.59 257.046C1201.16 256.87 1200.56 256.686 1199.81 256.494C1198.84 256.238 1198.04 255.982 1197.44 255.726C1196.83 255.47 1196.31 255.094 1195.88 254.598C1195.46 254.086 1195.25 253.406 1195.25 252.558C1195.25 251.918 1195.44 251.326 1195.83 250.782C1196.21 250.238 1196.76 249.806 1197.46 249.486C1198.16 249.166 1198.96 249.006 1199.86 249.006C1201.27 249.006 1202.4 249.366 1203.27 250.086C1204.13 250.79 1204.6 251.766 1204.66 253.014H1202.98C1202.93 252.246 1202.63 251.63 1202.07 251.166C1201.52 250.686 1200.77 250.446 1199.81 250.446C1198.96 250.446 1198.28 250.646 1197.75 251.046C1197.22 251.446 1196.96 251.942 1196.96 252.534C1196.96 253.046 1197.11 253.47 1197.41 253.806C1197.73 254.126 1198.12 254.382 1198.59 254.574C1199.05 254.75 1199.68 254.95 1200.46 255.174C1201.4 255.43 1202.16 255.678 1202.72 255.918C1203.28 256.158 1203.76 256.51 1204.16 256.974C1204.56 257.438 1204.76 258.054 1204.78 258.822C1204.78 259.526 1204.59 260.158 1204.2 260.718C1203.82 261.262 1203.28 261.694 1202.6 262.014C1201.91 262.334 1201.12 262.494 1200.22 262.494ZM1208.3 246.726C1207.97 246.726 1207.68 246.606 1207.44 246.366C1207.2 246.126 1207.08 245.83 1207.08 245.478C1207.08 245.126 1207.2 244.838 1207.44 244.614C1207.68 244.374 1207.97 244.254 1208.3 244.254C1208.64 244.254 1208.93 244.374 1209.17 244.614C1209.41 244.838 1209.53 245.126 1209.53 245.478C1209.53 245.83 1209.41 246.126 1209.17 246.366C1208.93 246.606 1208.64 246.726 1208.3 246.726ZM1209.14 249.198V262.302H1207.46V249.198H1209.14ZM1211.7 255.726C1211.7 254.382 1211.96 253.206 1212.49 252.198C1213.03 251.174 1213.78 250.39 1214.72 249.846C1215.68 249.286 1216.76 249.006 1217.96 249.006C1219.21 249.006 1220.28 249.294 1221.18 249.87C1222.09 250.446 1222.75 251.182 1223.15 252.078V249.198H1224.83V262.302H1223.15V259.398C1222.73 260.294 1222.07 261.038 1221.15 261.63C1220.26 262.206 1219.19 262.494 1217.94 262.494C1216.75 262.494 1215.68 262.214 1214.72 261.654C1213.78 261.094 1213.03 260.302 1212.49 259.278C1211.96 258.254 1211.7 257.07 1211.7 255.726ZM1223.15 255.75C1223.15 254.694 1222.93 253.766 1222.5 252.966C1222.07 252.166 1221.47 251.55 1220.72 251.118C1219.99 250.686 1219.17 250.47 1218.27 250.47C1217.35 250.47 1216.51 250.678 1215.78 251.094C1215.04 251.51 1214.46 252.118 1214.03 252.918C1213.61 253.702 1213.4 254.638 1213.4 255.726C1213.4 256.798 1213.61 257.742 1214.03 258.558C1214.46 259.358 1215.04 259.974 1215.78 260.406C1216.51 260.822 1217.35 261.03 1218.27 261.03C1219.17 261.03 1219.99 260.814 1220.72 260.382C1221.47 259.95 1222.07 259.334 1222.5 258.534C1222.93 257.734 1223.15 256.806 1223.15 255.75ZM1232.69 262.494C1231.19 262.494 1229.96 262.15 1229 261.462C1228.05 260.758 1227.53 259.806 1227.41 258.606H1229.14C1229.22 259.342 1229.57 259.942 1230.17 260.406C1230.8 260.854 1231.63 261.078 1232.67 261.078C1233.58 261.078 1234.29 260.862 1234.81 260.43C1235.33 259.998 1235.6 259.462 1235.6 258.822C1235.6 258.374 1235.45 258.006 1235.17 257.718C1234.88 257.43 1234.51 257.206 1234.06 257.046C1233.63 256.87 1233.04 256.686 1232.29 256.494C1231.31 256.238 1230.52 255.982 1229.91 255.726C1229.3 255.47 1228.78 255.094 1228.35 254.598C1227.93 254.086 1227.73 253.406 1227.73 252.558C1227.73 251.918 1227.92 251.326 1228.3 250.782C1228.69 250.238 1229.23 249.806 1229.93 249.486C1230.64 249.166 1231.44 249.006 1232.33 249.006C1233.74 249.006 1234.88 249.366 1235.74 250.086C1236.61 250.79 1237.07 251.766 1237.13 253.014H1235.45C1235.41 252.246 1235.1 251.63 1234.54 251.166C1234 250.686 1233.25 250.446 1232.29 250.446C1231.44 250.446 1230.75 250.646 1230.22 251.046C1229.69 251.446 1229.43 251.942 1229.43 252.534C1229.43 253.046 1229.58 253.47 1229.89 253.806C1230.21 254.126 1230.6 254.382 1231.06 254.574C1231.53 254.75 1232.15 254.95 1232.93 255.174C1233.88 255.43 1234.63 255.678 1235.19 255.918C1235.75 256.158 1236.23 256.51 1236.63 256.974C1237.03 257.438 1237.24 258.054 1237.25 258.822C1237.25 259.526 1237.06 260.158 1236.68 260.718C1236.29 261.262 1235.76 261.694 1235.07 262.014C1234.38 262.334 1233.59 262.494 1232.69 262.494ZM1242.12 250.614V258.75C1242.12 259.55 1242.27 260.102 1242.58 260.406C1242.88 260.71 1243.42 260.862 1244.18 260.862H1245.72V262.302H1243.92C1242.74 262.302 1241.86 262.03 1241.28 261.486C1240.7 260.926 1240.42 260.014 1240.42 258.75V250.614H1238.59V249.198H1240.42V245.91H1242.12V249.198H1245.72V250.614H1242.12ZM1248.85 246.726C1248.51 246.726 1248.23 246.606 1247.99 246.366C1247.75 246.126 1247.63 245.83 1247.63 245.478C1247.63 245.126 1247.75 244.838 1247.99 244.614C1248.23 244.374 1248.51 244.254 1248.85 244.254C1249.19 244.254 1249.47 244.374 1249.71 244.614C1249.95 244.838 1250.07 245.126 1250.07 245.478C1250.07 245.83 1249.95 246.126 1249.71 246.366C1249.47 246.606 1249.19 246.726 1248.85 246.726ZM1249.69 249.198V262.302H1248.01V249.198H1249.69ZM1252.25 255.75C1252.25 254.39 1252.52 253.206 1253.06 252.198C1253.61 251.174 1254.36 250.39 1255.32 249.846C1256.28 249.286 1257.38 249.006 1258.61 249.006C1260.22 249.006 1261.55 249.406 1262.59 250.206C1263.65 251.006 1264.33 252.094 1264.63 253.47H1262.83C1262.61 252.526 1262.12 251.79 1261.37 251.262C1260.63 250.718 1259.71 250.446 1258.61 250.446C1257.73 250.446 1256.94 250.646 1256.23 251.046C1255.53 251.446 1254.97 252.046 1254.55 252.846C1254.15 253.63 1253.95 254.598 1253.95 255.75C1253.95 256.902 1254.15 257.878 1254.55 258.678C1254.97 259.478 1255.53 260.078 1256.23 260.478C1256.94 260.878 1257.73 261.078 1258.61 261.078C1259.71 261.078 1260.63 260.814 1261.37 260.286C1262.12 259.742 1262.61 258.99 1262.83 258.03H1264.63C1264.33 259.374 1263.65 260.454 1262.59 261.27C1261.54 262.086 1260.21 262.494 1258.61 262.494C1257.38 262.494 1256.28 262.222 1255.32 261.678C1254.36 261.118 1253.61 260.334 1253.06 259.326C1252.52 258.302 1252.25 257.11 1252.25 255.75Z" fill="white"/>
<path d="M611.479 48.691C612.43 50.0372 613.38 51.3835 614.331 52.7201C614.54 53.0106 614.567 53.2915 614.41 53.6208C614.061 54.3569 613.721 55.093 613.389 55.8387C612.517 57.8048 611.688 59.7903 610.781 61.7371C610.066 63.2771 609.482 64.8751 609.307 66.5701C609.063 68.943 609.202 71.3255 610.005 73.5822C611.348 77.3498 613.537 80.3426 616.739 82.3571C617.401 82.7736 617.384 82.7639 617.811 82.0375C619.791 78.6864 621.771 75.3353 623.769 71.9938C624.423 70.8994 625.086 69.7953 625.731 68.6911L611.479 48.691Z" fill="#05369C"/>
<path d="M630.05 44.9677C629.082 42.6142 627.826 40.3962 626.631 38.1589C625.34 35.7473 623.962 33.3841 622.627 31.0015C621.327 28.677 620.028 26.3525 618.728 24.0281C617.411 21.6842 616.094 19.3404 614.777 16.9869C613.704 15.0595 612.657 13.1224 611.585 11.195C610.363 9.00616 609.134 6.82697 607.904 4.64778C607.128 3.27246 606.36 1.89715 605.566 0.483093C605.444 0.560576 605.392 0.579948 605.357 0.628374C604.171 2.30393 603.202 4.12477 602.426 6.07151C601.624 8.07637 600.97 10.149 600.682 12.3282C600.429 14.2362 600.158 16.1539 600.054 18.0813C599.932 20.183 600.01 22.3041 600.368 24.3864C600.656 26.0232 600.891 27.6794 601.231 29.3066C601.441 30.3235 601.728 31.3211 602.086 32.2896C602.775 34.1686 603.473 36.0475 604.293 37.8587C605.331 40.1444 606.77 42.1396 608.218 44.1348C609.317 45.6457 610.398 47.176 611.48 48.6965L625.645 68.8614C626.936 66.6531 628.253 64.2511 629.256 61.8492C630.137 59.7475 630.835 57.5876 631.227 55.2825C631.838 51.6699 631.393 48.222 630.05 44.9677Z" fill="#1085E2"/>
<path d="M665.063 16.4263C665.002 15.0607 664.836 13.8694 664.618 12.5037C664.583 12.3003 664.539 12.0969 664.505 11.8839C664.4 11.1962 664.199 10.3245 664.025 9.66593C663.371 7.25429 662.533 4.92014 661.338 2.76031C660.832 1.8499 660.257 0.978216 659.664 0C658.46 2.13077 657.335 4.0872 656.227 6.063C654.875 8.47464 653.549 10.9057 652.206 13.327C651.133 15.2544 650.052 17.1817 648.979 19.1091C647.688 21.4239 646.397 23.7387 645.097 26.0438C643.894 28.1842 642.638 30.2956 641.478 32.4651L650.636 53.1723C650.601 52.9592 650.636 52.7462 650.81 52.5137C651.526 51.5549 652.189 50.5573 652.878 49.5791C654.683 47.0318 656.497 44.4846 658.303 41.9374C659.751 39.8841 660.963 37.6565 661.897 35.2739C662.568 33.5596 663.231 31.8162 663.685 30.0148C664.182 28.0486 664.426 26.005 664.784 23.9905C665.229 21.4917 665.176 18.9541 665.063 16.4263Z" fill="#05369C"/>
<g opacity="0.55" filter="url(#filter0_d_407_2196)">
<path d="M650.528 53.0218L652.026 50.7308L641.483 32.4793L650.528 53.0218Z" fill="#121212" fill-opacity="0.8" shape-rendering="crispEdges"/>
</g>
<path d="M653.506 59.9737C653.165 59.1892 652.904 58.3659 652.564 57.5814C651.97 56.2061 651.351 54.8598 650.74 53.4942C650.697 53.3877 650.662 53.2908 650.645 53.194L641.486 32.4868C642.646 30.3173 643.902 28.2156 645.106 26.0654C643.789 28.4093 642.402 30.7047 641.155 33.097C639.698 35.896 638.32 38.7435 636.968 41.6007C635.555 44.5934 634.482 47.7315 633.88 51.0729C633.2 54.8792 633.732 58.4531 635.424 61.7461C636.898 64.6033 638.608 67.3055 640.23 70.0658C641.661 72.4968 643.117 74.8987 644.556 77.3104C645.612 79.0828 646.676 80.8649 647.749 82.6664C648.202 82.3661 648.63 82.1143 649.022 81.8141C649.467 81.4848 649.912 81.1361 650.322 80.7487C653.689 77.5622 655.756 73.659 655.878 68.6227C655.93 66.3079 655.346 64.1965 654.543 62.0851C654.212 61.3781 653.82 60.6904 653.506 59.9737Z" fill="#1085E2"/>
<path opacity="0.3" d="M625.579 68.7309L614.563 53.2054L613.534 55.5492L625.579 68.7309Z" fill="#121212" fill-opacity="0.8"/>
<path d="M570.051 122.88C570.051 117.753 571.438 113.672 574.214 110.637C576.989 107.602 580.749 106.084 585.493 106.084C589.909 106.084 593.464 107.568 596.157 110.535C598.851 113.501 600.197 117.364 600.197 122.122C600.197 127.276 598.816 131.364 596.055 134.385C595.398 135.096 594.694 135.725 593.942 136.272L602.863 142.67H596.116L590.087 138.2C588.528 138.678 586.826 138.917 584.98 138.917C580.469 138.917 576.853 137.434 574.132 134.467C571.411 131.5 570.051 127.638 570.051 122.88ZM574.357 122.552C574.357 126.394 575.335 129.477 577.29 131.801C579.259 134.112 581.822 135.267 584.98 135.267C588.371 135.267 591.03 134.16 592.958 131.945C594.899 129.716 595.87 126.606 595.87 122.614C595.87 118.512 594.92 115.347 593.02 113.119C591.133 110.89 588.542 109.776 585.247 109.776C582.007 109.776 579.382 110.952 577.372 113.303C575.362 115.655 574.357 118.738 574.357 122.552ZM624.109 115.703L615.127 138.384H611.066L602.535 115.703H606.924L612.461 131.904C612.912 133.203 613.179 134.29 613.261 135.165H613.363C613.5 134.016 613.739 132.957 614.081 131.986L619.885 115.703H624.109ZM627.411 107.705C627.411 106.994 627.65 106.399 628.129 105.92C628.621 105.428 629.223 105.182 629.934 105.182C630.658 105.182 631.267 105.421 631.759 105.9C632.265 106.378 632.518 106.98 632.518 107.705C632.518 108.416 632.265 109.01 631.759 109.489C631.267 109.954 630.658 110.186 629.934 110.186C629.209 110.186 628.607 109.954 628.129 109.489C627.65 109.01 627.411 108.416 627.411 107.705ZM627.883 138.384V115.703H631.902V138.384H627.883ZM643.12 135.185V148.823H639.101V115.703H643.12V119.62H643.202C644.979 116.653 647.577 115.169 650.995 115.169C653.894 115.169 656.163 116.188 657.804 118.225C659.458 120.249 660.285 122.969 660.285 126.387C660.285 130.161 659.349 133.196 657.476 135.493C655.616 137.776 653.107 138.917 649.949 138.917C647.037 138.917 644.788 137.673 643.202 135.185H643.12ZM643.1 129.033C643.1 130.878 643.694 132.437 644.884 133.708C646.073 134.966 647.563 135.595 649.354 135.595C651.487 135.595 653.155 134.775 654.358 133.134C655.562 131.494 656.163 129.224 656.163 126.326C656.163 123.878 655.603 121.964 654.481 120.583C653.36 119.189 651.829 118.492 649.888 118.492C647.905 118.492 646.278 119.196 645.007 120.604C643.735 122.012 643.1 123.817 643.1 126.018V129.033ZM665.904 138.384V104.813H669.924V138.384H665.904ZM695.6 128.069H679.727C679.795 130.489 680.458 132.362 681.716 133.688C682.974 135 684.73 135.657 686.986 135.657C689.529 135.657 691.86 134.843 693.979 133.216V136.805C691.983 138.213 689.338 138.917 686.043 138.917C682.762 138.917 680.198 137.878 678.353 135.8C676.521 133.722 675.604 130.837 675.604 127.146C675.604 123.673 676.609 120.809 678.619 118.553C680.643 116.297 683.151 115.169 686.146 115.169C689.112 115.169 691.43 116.126 693.098 118.041C694.766 119.941 695.6 122.607 695.6 126.039V128.069ZM691.58 124.849C691.566 122.798 691.081 121.212 690.124 120.091C689.167 118.97 687.82 118.41 686.084 118.41C684.484 118.41 683.097 119.004 681.921 120.194C680.759 121.383 680.027 122.935 679.727 124.849H691.58Z" fill="white"/>
<ellipse cx="329.5" cy="218.194" rx="4.5" ry="4.99682" fill="white" fill-opacity="0.6"/>
<line x1="329.5" y1="213.197" x2="329.5" y2="190.989" stroke="white" stroke-opacity="0.6"/>
<line x1="330" y1="191.6" x2="614" y2="191.6" stroke="white" stroke-opacity="0.6"/>
<line x1="613.5" y1="190.989" x2="613.5" y2="164.34" stroke="white" stroke-opacity="0.6"/>
<ellipse cx="930.5" cy="218.194" rx="4.5" ry="4.99682" fill="white" fill-opacity="0.6"/>
<line x1="930.5" y1="214.308" x2="930.5" y2="190.989" stroke="white" stroke-opacity="0.6"/>
<line x1="667" y1="191.6" x2="930" y2="191.6" stroke="white" stroke-opacity="0.6"/>
<line x1="667.5" y1="190.989" x2="667.5" y2="164.34" stroke="white" stroke-opacity="0.6"/>
<ellipse cx="470.5" cy="451.379" rx="4.5" ry="4.99682" fill="white" fill-opacity="0.6"/>
<line x1="470.5" y1="447.493" x2="470.5" y2="206.535" stroke="white" stroke-opacity="0.6"/>
<line x1="470" y1="207.145" x2="630" y2="207.145" stroke="white" stroke-opacity="0.6"/>
<line x1="629.5" y1="207.645" x2="629.5" y2="164.34" stroke="white" stroke-opacity="0.6"/>
<ellipse cx="784.5" cy="451.379" rx="4.5" ry="4.99682" fill="white" fill-opacity="0.6"/>
<line x1="784.5" y1="447.493" x2="784.5" y2="206.535" stroke="white" stroke-opacity="0.6"/>
<line x1="650" y1="207.145" x2="785" y2="207.145" stroke="white" stroke-opacity="0.6"/>
<line x1="650.5" y1="207.645" x2="650.5" y2="164.34" stroke="white" stroke-opacity="0.6"/>
<ellipse cx="100.5" cy="219.305" rx="4.5" ry="4.99682" fill="white" fill-opacity="0.6"/>
<line x1="100.5" y1="214.308" x2="100.5" y2="175.444" stroke="white" stroke-opacity="0.6"/>
<line x1="100" y1="176.054" x2="600" y2="176.054" stroke="white" stroke-opacity="0.6"/>
<line x1="599.5" y1="175.444" x2="599.5" y2="164.34" stroke="white" stroke-opacity="0.6"/>
<ellipse cx="1198.5" cy="218.194" rx="4.5" ry="4.99682" fill="white" fill-opacity="0.6"/>
<line x1="1198.5" y1="214.308" x2="1198.5" y2="175.444" stroke="white" stroke-opacity="0.6"/>
<line x1="685" y1="176.054" x2="1198" y2="176.054" stroke="white" stroke-opacity="0.6"/>
<line x1="685.5" y1="175.444" x2="685.5" y2="164.34" stroke="white" stroke-opacity="0.6"/>
<defs>
<filter id="filter0_d_407_2196" x="632.595" y="32.4793" width="28.3178" height="38.3184" filterUnits="userSpaceOnUse" color-interpolation-filters="sRGB">
<feFlood flood-opacity="0" result="BackgroundImageFix"/>
<feColorMatrix in="SourceAlpha" type="matrix" values="0 0 0 0 0 0 0 0 0 0 0 0 0 0 0 0 0 0 127 0" result="hardAlpha"/>
<feOffset dy="8.88792"/>
<feGaussianBlur stdDeviation="4.44396"/>
<feComposite in2="hardAlpha" operator="out"/>
<feColorMatrix type="matrix" values="0 0 0 0 0 0 0 0 0 0 0 0 0 0 0 0 0 0 0.25 0"/>
<feBlend mode="normal" in2="BackgroundImageFix" result="effect1_dropShadow_407_2196"/>
<feBlend mode="normal" in="SourceGraphic" in2="effect1_dropShadow_407_2196" result="shape"/>
</filter>
</defs>
</svg>
