<svg width="72" height="69" viewBox="0 0 72 69" fill="none" xmlns="http://www.w3.org/2000/svg">
<path d="M5.4 68.4C3.96 68.4 2.7 67.86 1.62 66.78C0.54 65.7 0 64.44 0 63V18.99C0 17.55 0.54 16.29 1.62 15.21C2.7 14.13 3.96 13.59 5.4 13.59H22.5V5.4C22.5 3.96 23.04 2.7 24.12 1.62C25.2 0.54 26.46 0 27.9 0H44.1C45.54 0 46.8 0.54 47.88 1.62C48.96 2.7 49.5 3.96 49.5 5.4V13.59H66.6C68.04 13.59 69.3 14.13 70.38 15.21C71.46 16.29 72 17.55 72 18.99V63C72 64.44 71.46 65.7 70.38 66.78C69.3 67.86 68.04 68.4 66.6 68.4H5.4ZM27.9 13.59H44.1V5.4H27.9V13.59ZM66.6 45.81H44.19V51.21H27.99V45.81H5.4V63H66.6V45.81ZM33.39 45.81H38.79V40.41H33.39V45.81ZM5.4 40.41H27.99V35.01H44.19V40.41H66.6V18.99H5.4V40.41Z" fill="#FDFBFF"/>
</svg>
