<svg width="64" height="64" viewBox="0 0 64 64" fill="none" xmlns="http://www.w3.org/2000/svg">
<path d="M11.2 38.5601V35.1996C11.2 34.3196 11.9121 33.5998 12.7999 33.5998H30.3999V38.5596C30.9122 38.4558 31.4479 38.3995 31.9997 38.3995C32.5438 38.3995 33.0795 38.4553 33.5996 38.5596L33.6002 33.5998H52.0002C52.8802 33.5998 53.6 34.3196 53.6 35.1996V38.5596C54.1123 38.4558 54.648 38.3995 55.1999 38.3995C55.744 38.3995 56.2797 38.4553 56.7997 38.5596L56.8003 35.1996C56.8003 32.5518 54.6401 30.3993 52 30.3993L33.6 30.3999V25.5996H30.4003V30.3999H12.8003C10.1524 30.3999 8 32.5516 8 35.2002V38.5602C8.51227 38.4564 9.04798 38.4 9.59986 38.4C10.1439 38.4 10.6802 38.4558 11.1997 38.5602L11.2 38.5601Z" fill="#FDFBFF"/>
<path d="M36.5684 52.9514C35.2721 53.8632 33.6962 54.3996 32.0002 54.3996C30.296 54.3996 28.7201 53.8633 27.4244 52.9514C24.5522 53.5837 22.4004 56.1434 22.4004 59.1991V62.3988C22.4004 63.2789 23.1124 63.9987 24.0002 63.9987H40.0002C40.8803 63.9987 41.6001 63.2788 41.6001 62.3988V59.1991C41.6001 56.1433 39.44 53.5836 36.5683 52.9514H36.5684Z" fill="#FDFBFF"/>
<path d="M59.5446 53.1043C58.2885 53.9207 56.8008 54.4006 55.2004 54.4006C53.4325 54.4006 51.8002 53.8164 50.4721 52.8403C47.2885 53.2003 44.8008 55.9123 44.8008 59.2003V62.4C44.8008 63.2801 45.5128 63.9999 46.4006 63.9999H62.4006C63.2807 63.9999 64.0005 63.28 64.0005 62.4V59.2003C64.0005 56.3526 62.1205 53.9286 59.5446 53.1043V53.1043Z" fill="#FDFBFF"/>
<path d="M14.168 52.9514C12.8722 53.8632 11.2959 54.3996 9.59986 54.3996C7.89557 54.3996 6.31971 53.8633 5.024 52.9514C2.15186 53.5837 0 56.1434 0 59.1991V62.3988C0 63.2789 0.712058 63.9987 1.59986 63.9987H17.5999C18.4799 63.9987 19.1997 63.2788 19.1997 62.3988V59.1991C19.1997 56.1433 17.0401 53.5836 14.1679 52.9514H14.168Z" fill="#FDFBFF"/>
<path d="M36.7998 46.4C36.7998 49.0507 34.6508 51.1997 31.9995 51.1997C29.3482 51.1997 27.1992 49.0507 27.1992 46.4C27.1992 43.7487 29.3482 41.5997 31.9995 41.5997C34.6508 41.5997 36.7998 43.7487 36.7998 46.4Z" fill="#FDFBFF"/>
<path d="M24.0004 22.4H40.0004C40.8804 22.4 41.6003 21.6802 41.6003 20.8002V17.6005C41.6003 14.5446 39.4401 11.9845 36.5684 11.3527C35.2721 12.264 33.6962 12.8003 32.0002 12.8003C30.296 12.8003 28.7201 12.264 27.4244 11.3522C24.5522 11.9839 22.4004 14.5442 22.4004 17.5999V20.7996C22.4004 21.6802 23.1126 22.4 24.0004 22.4Z" fill="#FDFBFF"/>
<path d="M36.7998 4.80029C36.7998 7.451 34.6508 9.6 31.9995 9.6C29.3482 9.6 27.1992 7.451 27.1992 4.80029C27.1992 2.149 29.3482 0 31.9995 0C34.6508 0 36.7998 2.149 36.7998 4.80029Z" fill="#FDFBFF"/>
<path d="M60.0004 46.4C60.0004 49.0507 57.8514 51.1997 55.2001 51.1997C52.5494 51.1997 50.4004 49.0507 50.4004 46.4C50.4004 43.7487 52.5494 41.5997 55.2001 41.5997C57.8514 41.5997 60.0004 43.7487 60.0004 46.4Z" fill="#FDFBFF"/>
<path d="M14.4008 46.4C14.4008 49.0507 12.2518 51.1997 9.60049 51.1997C6.94978 51.1997 4.80078 49.0507 4.80078 46.4C4.80078 43.7487 6.94978 41.5997 9.60049 41.5997C12.2518 41.5997 14.4008 43.7487 14.4008 46.4" fill="#FDFBFF"/>
</svg>
