<svg width="72" height="74" viewBox="0 0 72 74" fill="none" xmlns="http://www.w3.org/2000/svg">
<path d="M37 7C37 8.93333 36.3167 10.5833 34.95 11.95C33.5833 13.3167 31.9333 14 30 14C29.1333 14 28.3167 13.85 27.55 13.55C26.7833 13.25 26.0667 12.8333 25.4 12.3C23.6 13.3667 22.1 14.7333 20.9 16.4C19.7 18.0667 19.0667 19.9333 19 22H72L68 50H50.6V44H63.1C63.5 41.3333 63.8833 38.6667 64.25 36C64.6167 33.3333 65 30.6667 65.4 28H6.6C7 30.6667 7.38333 33.3333 7.75 36C8.11667 38.6667 8.5 41.3333 8.9 44H21.4V50H4L0 22H13C13.0667 18.7333 14.0167 15.7667 15.85 13.1C17.6833 10.4333 20.0667 8.33333 23 6.8C23.0667 4.86667 23.7667 3.25 25.1 1.95C26.4333 0.65 28.0667 0 30 0C31.9333 0 33.5833 0.683333 34.95 2.05C36.3167 3.41667 37 5.06667 37 7ZM25.4 68H46.6L49.4 40H22.6L25.4 68ZM20 74L16.7 40.6C16.5667 38.8667 17.1 37.3333 18.3 36C19.5 34.6667 20.9667 34 22.7 34H49.3C51.0333 34 52.5 34.6667 53.7 36C54.9 37.3333 55.4333 38.8667 55.3 40.6L52 74H20Z" fill="#FDFBFF"/>
</svg>
