<svg width="74" height="56" viewBox="0 0 74 56" fill="none" xmlns="http://www.w3.org/2000/svg">
<path d="M72.6395 51.52L64.1191 39.0405V3.15833C64.1191 1.83829 63.0393 0.758545 61.7193 0.758545H12.2793C10.9592 0.758545 9.87949 1.83835 9.87949 3.15833V39.0383L1.35906 51.5179C0.879424 52.2378 0.758891 53.1979 1.23936 54.0383C1.5993 54.8787 2.4397 55.3584 3.39893 55.3584H28.4789C29.799 55.3584 30.8787 54.2786 30.8787 52.9586V49.8388H43.2387V52.9586C43.2387 54.2786 44.3185 55.3584 45.6385 55.3584H70.5985C71.4389 55.3584 72.2785 54.8787 72.7581 54.0383C73.118 53.1988 73.118 52.2387 72.6384 51.5188L72.6395 51.52ZM59.3195 37.3596H14.6795V5.55962H59.1995V37.3596H59.3195ZM38.9197 26.3196L47.7999 22.2398V27.52C47.7999 31.3605 41.9197 32.6796 37.0003 32.6796C34.3603 32.6796 31.9603 32.3197 30.1599 31.7195C26.9197 30.6397 26.1999 28.8393 26.1999 27.5191V22.2389L35.0801 26.3187C35.6803 26.5589 36.2805 26.6786 37.0003 26.6786C37.7194 26.7991 38.3195 26.5597 38.9197 26.3195L38.9197 26.3196ZM23.6795 16.7194C23.6795 16.1192 24.0394 15.5191 24.6396 15.2797L36.5198 9.87987C36.8797 9.63964 37.3602 9.63964 37.8399 9.87987L49.7201 15.2797C50.3202 15.5199 50.6802 16.1201 50.6802 16.7194C50.6802 17.3196 50.3202 17.9197 49.7201 18.1591L37.8399 23.5589C37.5996 23.6786 37.3602 23.6786 37.2397 23.6786C36.9994 23.6786 36.76 23.6786 36.6395 23.5589L24.7593 18.1591C24.0394 17.9197 23.6795 17.3196 23.6795 16.7194V16.7194Z" fill="#FDFBFF"/>
</svg>
