<svg width="60" height="66" viewBox="0 0 60 66" fill="none" xmlns="http://www.w3.org/2000/svg">
<path d="M56.5 44.2501C55.25 43.2501 53.5 43.0001 52.25 44.0001L37.5 50.7501H27.5L25.25 49.0001L32 46.5001C33.75 45.7501 34.75 44.0001 34.25 42.2501C33.75 40.5001 32 39.5001 30.25 39.7501L19.25 41.7501C17.25 42.0001 15.5 43.0001 14.25 44.5001L12.5 46.5001V61.5001C12.5 62.5001 13.5 63.5001 14.5 63.5001H20.5L41.75 59.2501L56.5 49.0001C57.75 47.7501 57.75 45.5001 56.5 44.2501Z" fill="#FDFBFF"/>
<path d="M0.75 43H9.75V65.5H0.75V43Z" fill="#FDFBFF"/>
<path d="M54.75 21.5C54.5 20.75 54 20 53.5 19.25L54.5 14.5L50.5 12L47 15.5C46.5 15.5 46 15.25 45.5 15.25C45 15.25 44.5 15.25 44 15.5L40.25 12.5L36.25 15L37.25 19.75C36.75 20.5 36.25 21.25 36 22L31.5 23V27.5L36 29C36.25 29.75 36.75 30.5 37.25 31.25L36.25 36L40.25 38.5L44 35.5C44.5 35.5 45 35.75 45.5 35.75C46 35.75 46.5 35.75 47 35.5L50.75 38.5L54.75 36L53.75 31.25C54.25 30.5 54.75 29.75 55 29L59.5 27.5V23L54.75 21.5ZM45.5 31.5C42.25 31.5 39.5 28.75 39.5 25.5C39.5 22.25 42.25 19.5 45.5 19.5C48.75 19.5 51.5 22.25 51.5 25.5C51.5 28.75 48.75 31.5 45.5 31.5Z" fill="#FDFBFF"/>
<path d="M45.5 23.25C46 23.25 46.5 23.5 46.5 24H48.25C48.25 23 47.5 22.25 46.5 22V21H44.75V22C43.75 22.25 43 23.25 43 24C43 25.25 44.25 26.25 45.75 26.25C46.25 26.25 46.75 26.5 46.75 27C46.75 27.5 46.25 27.75 45.75 27.75C45.25 27.75 44.75 27.5 44.75 27H43C43 28 43.75 28.75 44.75 29V30H46.5V29C47.5 28.75 48.25 27.75 48.25 27C48.25 25.75 47 24.75 45.5 24.75C45 24.75 44.5 24.5 44.5 24C44.5 23.5 45 23.25 45.5 23.25Z" fill="#FDFBFF"/>
<path d="M21.5 13L20.75 16L23.25 17.5L25.75 15.5H26.75H27.75L30 17.5L32.5 16L32 13L32.75 11.5L35.75 10.5V7.5L32.75 6.5L32 5L32.75 2L30.25 0.5L28 2.5H27H26L23.5 0.5L21 2L21.75 5L21 6.5L18 7.5V10.5L21 11.5C21 12 21.25 12.5 21.5 13ZM26.75 5C29 5 30.75 6.75 30.75 9C30.75 11.25 29 13 26.75 13C24.5 13 22.75 11.25 22.75 9C22.75 6.75 24.5 5 26.75 5Z" fill="#FDFBFF"/>
<path d="M26.75 10.5C26.5 10.5 26.25 10.25 26.25 10H25C25 10.75 25.5 11.25 26.25 11.25V11.75H27.5V11.25C28.25 11 28.75 10.5 28.75 10C28.75 9.25 28 8.5 27 8.5C26.75 8.5 26.5 8.25 26.5 8C26.5 7.75 26.75 7.5 27 7.5C27.25 7.5 27.5 7.75 27.5 8H28.75C28.75 7.25 28.25 6.75 27.5 6.75V6H26.25V6.5C25.5 6.75 25 7.5 25 8C25 8.75 25.75 9.5 26.75 9.5C27 9.5 27.25 9.75 27.25 10C27.25 10.25 27 10.5 26.75 10.5Z" fill="#FDFBFF"/>
<path d="M14.5 32.25L17.75 34.25L20.5 32L19 28.5C19.25 28 19.5 27.25 19.75 26.5L23 24.75L22.5 21.25L19 20.5C18.75 20.25 18.5 19.75 18.25 19.5C18 19.25 17.75 19 17.25 18.75V15L14 13.75L11.5 16.75C10.75 16.75 10.25 17 9.5 17L6.5 15L3.5 17.5L5 21C4.75 21.5 4.5 22.25 4.25 23L1 24.75L1.5 28.25L5.25 29C5.5 29.25 5.75 29.75 6 30C6.25 30.25 6.5 30.5 7 30.75V34.5L10.5 35.75L12.5 32.75C13.25 32.5 13.75 32.5 14.5 32.25ZM8.5 27.75C6.75 25.75 7 22.75 9 21C11 19.25 14 19.5 15.75 21.5C17.5 23.5 17.25 26.5 15.25 28.25C13 30 10 29.75 8.5 27.75Z" fill="#FDFBFF"/>
<path d="M12 23C12.5 23 12.75 23.25 12.75 23.5H14.25C14.25 22.75 13.75 22 12.75 21.75V21H11.25V21.75C10.5 22 10 22.75 10 23.5C10 24.5 11 25.25 12.25 25.25C12.75 25.25 13 25.5 13 25.75C13 26 12.75 26.25 12.25 26.25C11.75 26.25 11.5 26 11.5 25.75H10C10 26.5 10.5 27.25 11.5 27.5V28.25H13V27.5C13.75 27.25 14.5 26.5 14.5 25.75C14.5 24.75 13.5 24 12.25 24C11.75 24 11.5 23.75 11.5 23.5C11.25 23.25 11.75 23 12 23Z" fill="#FDFBFF"/>
</svg>
