<svg width="60" height="70" viewBox="0 0 60 70" fill="none" xmlns="http://www.w3.org/2000/svg">
<path d="M1.91046 64.9815C10.9607 63.6305 20.2076 65.1678 28.3333 69.3749V35.0006C28.3333 34.0804 29.08 33.3337 30.0002 33.3337C30.9204 33.3337 31.667 34.0804 31.667 35.0006V69.412C39.8913 65.451 49.0742 63.9165 58.1399 64.9885C58.6125 65.0465 59.0874 64.8969 59.4412 64.5783C59.7967 64.2625 59.9998 63.8093 59.9998 63.3333V26.6676C59.9998 25.9606 59.5534 25.3306 58.8865 25.0956C55.492 23.8953 51.9134 23.2988 48.3128 23.3339C41.7213 23.4935 35.3363 25.6688 30.0185 29.5672C25.2044 25.9439 19.4504 23.7803 13.4414 23.3339C9.25283 23.0638 5.05354 23.6637 1.10826 25.0956C0.443643 25.3322 -0.000556619 25.9617 5.23501e-07 26.6676V63.3333C5.23501e-07 63.8177 0.210943 64.2781 0.577572 64.595C0.944758 64.9114 1.43082 65.0526 1.91016 64.9818L1.91046 64.9815Z" fill="#FDFBFF"/>
<path d="M40.8343 10.8329C40.8343 16.8162 35.9844 21.6666 30.0011 21.6666C24.0178 21.6666 19.168 16.8162 19.168 10.8329C19.168 4.85018 24.0178 -0.000244141 30.0011 -0.000244141C35.9844 -0.000244141 40.8343 4.85018 40.8343 10.8329Z" fill="#FDFBFF"/>
</svg>
