<svg width="66" height="83" viewBox="0 0 66 83" fill="none" xmlns="http://www.w3.org/2000/svg">
<path d="M11.4789 48.691C12.4297 50.0372 13.3804 51.3835 14.3312 52.7201C14.5405 53.0106 14.5667 53.2915 14.4097 53.6208C14.0608 54.3569 13.7206 55.093 13.3892 55.8387C12.5169 57.8048 11.6883 59.7903 10.7812 61.7371C10.066 63.2771 9.48153 64.8751 9.30708 66.5701C9.06285 68.943 9.20245 71.3255 10.0049 73.5822C11.3481 77.3498 13.5374 80.3426 16.7385 82.3571C17.4014 82.7736 17.384 82.7639 17.8113 82.0375C19.7913 78.6864 21.7714 75.3353 23.7688 71.9938C24.4229 70.8994 25.0858 69.7953 25.7313 68.6911L11.4789 48.691Z" fill="#05369C"/>
<path d="M30.0498 44.9677C29.0816 42.6142 27.8256 40.3962 26.6306 38.1589C25.3397 35.7473 23.9616 33.3841 22.6271 31.0015C21.3275 28.677 20.0279 26.3525 18.7283 24.0281C17.4112 21.6842 16.0941 19.3404 14.777 16.9869C13.7042 15.0595 12.6575 13.1224 11.5846 11.195C10.3635 9.00616 9.13366 6.82697 7.90381 4.64778C7.12752 3.27246 6.36002 1.89715 5.56629 0.483093C5.44417 0.560576 5.39185 0.579948 5.35696 0.628374C4.17072 2.30393 3.20245 4.12477 2.42616 6.07151C1.62371 8.07637 0.969533 10.149 0.681696 12.3282C0.428748 14.2362 0.158382 16.1539 0.0537136 18.0813C-0.068399 20.183 0.0100892 22.3041 0.367705 24.3864C0.655542 26.0232 0.891036 27.6794 1.23121 29.3066C1.44054 30.3235 1.72847 31.3211 2.08608 32.2896C2.77515 34.1686 3.47285 36.0475 4.29275 37.8587C5.33071 40.1444 6.7699 42.1396 8.2178 44.1348C9.31682 45.6457 10.3984 47.176 11.4799 48.6965L25.6451 68.8614C26.936 66.6531 28.253 64.2511 29.2561 61.8492C30.137 59.7475 30.8348 57.5876 31.2273 55.2825C31.8379 51.6699 31.3931 48.222 30.0498 44.9677Z" fill="#1085E2"/>
<path d="M65.0628 16.4263C65.0017 15.0607 64.836 13.8694 64.6179 12.5037C64.583 12.3003 64.5394 12.0969 64.5045 11.8839C64.3998 11.1962 64.1993 10.3245 64.0248 9.66593C63.3707 7.25429 62.5333 4.92014 61.3383 2.76031C60.8324 1.8499 60.2568 0.978216 59.6637 0C58.46 2.13077 57.3348 4.0872 56.227 6.063C54.8751 8.47464 53.5493 10.9057 52.206 13.327C51.1332 15.2544 50.0517 17.1817 48.9788 19.1091C47.6879 21.4239 46.397 23.7387 45.0973 26.0438C43.8936 28.1842 42.6376 30.2956 41.4775 32.4651L50.636 53.1723C50.6011 52.9592 50.6361 52.7462 50.8105 52.5137C51.5257 51.5549 52.1886 50.5573 52.8777 49.5791C54.6832 47.0318 56.4974 44.4846 58.303 41.9374C59.7509 39.8841 60.9633 37.6565 61.8965 35.2739C62.5682 33.5596 63.2311 31.8162 63.6847 30.0148C64.1818 28.0486 64.4261 26.005 64.7837 23.9905C65.2285 21.4917 65.1761 18.9541 65.0628 16.4263Z" fill="#05369C"/>
<g opacity="0.55" filter="url(#filter0_d_405_2152)">
<path d="M50.5285 53.0218L52.0256 50.7308L41.4834 32.4793L50.5285 53.0218Z" fill="#121212" fill-opacity="0.8" shape-rendering="crispEdges"/>
</g>
<path d="M53.5055 59.9737C53.1653 59.1892 52.9037 58.3659 52.5635 57.5814C51.9704 56.2061 51.3511 54.8598 50.7405 53.4942C50.6969 53.3877 50.662 53.2908 50.6446 53.194L41.4861 32.4868C42.6462 30.3173 43.9022 28.2156 45.1059 26.0654C43.7888 28.4093 42.402 30.7047 41.1547 33.097C39.698 35.896 38.32 38.7435 36.968 41.6007C35.555 44.5934 34.4821 47.7315 33.8803 51.0729C33.1999 54.8792 33.732 58.4531 35.4241 61.7461C36.8982 64.6033 38.6078 67.3055 40.2301 70.0658C41.6606 72.4968 43.1172 74.8987 44.5564 77.3104C45.6118 79.0828 46.6759 80.8649 47.7488 82.6664C48.2024 82.3661 48.6297 82.1143 49.0222 81.8141C49.4671 81.4848 49.9119 81.1361 50.3218 80.7487C53.6887 77.5622 55.7558 73.659 55.878 68.6227C55.9303 66.3079 55.3459 64.1965 54.5434 62.0851C54.212 61.3781 53.8195 60.6904 53.5055 59.9737Z" fill="#1085E2"/>
<path opacity="0.3" d="M25.5792 68.7309L14.5629 53.2054L13.5337 55.5492L25.5792 68.7309Z" fill="#121212" fill-opacity="0.8"/>
<defs>
<filter id="filter0_d_405_2152" x="32.5955" y="32.4793" width="28.3178" height="38.3184" filterUnits="userSpaceOnUse" color-interpolation-filters="sRGB">
<feFlood flood-opacity="0" result="BackgroundImageFix"/>
<feColorMatrix in="SourceAlpha" type="matrix" values="0 0 0 0 0 0 0 0 0 0 0 0 0 0 0 0 0 0 127 0" result="hardAlpha"/>
<feOffset dy="8.88792"/>
<feGaussianBlur stdDeviation="4.44396"/>
<feComposite in2="hardAlpha" operator="out"/>
<feColorMatrix type="matrix" values="0 0 0 0 0 0 0 0 0 0 0 0 0 0 0 0 0 0 0.25 0"/>
<feBlend mode="normal" in2="BackgroundImageFix" result="effect1_dropShadow_405_2152"/>
<feBlend mode="normal" in="SourceGraphic" in2="effect1_dropShadow_405_2152" result="shape"/>
</filter>
</defs>
</svg>
