<svg width="72" height="72" viewBox="0 0 72 72" fill="none" xmlns="http://www.w3.org/2000/svg">
<path fill-rule="evenodd" clip-rule="evenodd" d="M20.3279 0.239008C16.6114 1.23694 14.4091 5.06597 15.409 8.78901C16.4089 12.5131 20.2334 14.7228 23.9495 13.7259C27.666 12.728 29.8683 8.89894 28.8684 5.17487C27.8694 1.45079 24.044 -0.758963 20.3279 0.23888V0.239008Z" fill="#FDFBFF"/>
<path d="M24.9413 37.0658C19.8251 58.0101 20.3107 48.4258 21.7919 69.5468C22.5799 73.2825 28.6082 72.5111 28.5464 68.8769L27.6805 56.519C27.6072 55.4678 27.5926 54.7862 27.8407 53.7687L29.1425 48.441L29.2419 53.0937C29.3163 53.9354 29.4629 54.9093 30.5372 55.4959L45.5955 62.7607C49.542 63.8887 51.9713 58.892 48.5325 56.631L37.1068 51.1195C35.9612 50.5399 35.9662 49.5777 35.92 48.4878L35.6955 37.7254L31.3447 21.276C40.0056 22.187 36.6894 20.93 46.0648 27.9904C48.7618 30.0405 52.5656 26.434 49.8863 23.5626C38.4656 14.7645 41.9204 16.669 28.5602 14.6902C28.5506 14.7133 22.7629 15.7343 20.4923 16.8493C12.0975 27.9757 16.5377 25.0929 4.38746 30.4316C1.27963 31.7795 2.5629 36.8622 6.3798 35.931C19.6407 30.2754 15.7942 34.2519 22.0488 25.9622L24.9417 37.0655L24.9413 37.0658Z" fill="#FDFBFF"/>
<path fill-rule="evenodd" clip-rule="evenodd" d="M7.69449 54.8087C3.84686 54.8087 0.726562 57.9356 0.726562 61.7908C0.726562 65.6469 3.84699 68.7738 7.69449 68.7738C11.5431 68.7738 14.6634 65.6469 14.6634 61.7908C14.6634 57.9357 11.543 54.8087 7.69449 54.8087Z" fill="#FDFBFF"/>
<path d="M57.8077 30.951C56.0459 30.951 56.0459 27.5488 57.8077 27.5488H69.9537C71.7165 27.5488 71.7165 30.951 69.9537 30.951H57.8077Z" fill="#FDFBFF"/>
<path d="M55.6835 22.4575C53.9206 22.4575 53.9206 19.0554 55.6835 19.0554H67.8295C69.5913 19.0554 69.5913 22.4575 67.8295 22.4575H55.6835Z" fill="#FDFBFF"/>
<path d="M55.6835 39.231C53.9206 39.231 53.9206 35.8289 55.6835 35.8289H67.8295C69.5913 35.8289 69.5913 39.231 67.8295 39.231H55.6835Z" fill="#FDFBFF"/>
</svg>
