<svg width="72" height="90" viewBox="0 0 72 90" fill="none" xmlns="http://www.w3.org/2000/svg">
<path d="M18 43.875V37.125H54V43.875H18ZM18 25.875V19.125H54V25.875H18ZM6.75 55.125H42.75C44.7322 55.125 46.5778 55.575 48.2867 56.475C49.9956 57.375 51.45 58.575 52.65 60.075L65.25 76.5V6.75H6.75V55.125ZM6.75 83.25H61.875L47.3625 64.2375C46.7951 63.4963 46.1095 62.9173 45.3057 62.5004C44.5019 62.0835 43.65 61.875 42.75 61.875H6.75V83.25ZM65.25 90H6.75C4.95 90 3.375 89.325 2.025 87.975C0.675 86.625 0 85.05 0 83.25V6.75C0 4.95 0.675 3.375 2.025 2.025C3.375 0.675 4.95 0 6.75 0H65.25C67.05 0 68.625 0.675 69.975 2.025C71.325 3.375 72 4.95 72 6.75V83.25C72 85.05 71.325 86.625 69.975 87.975C68.625 89.325 67.05 90 65.25 90Z" fill="#FDFBFF"/>
</svg>
