<svg width="21" height="24" viewBox="0 0 21 24" fill="none" xmlns="http://www.w3.org/2000/svg">
<path d="M2.81053 24C2.53684 24 2.29474 23.9211 2.08421 23.7632C1.87368 23.6053 1.76842 23.4 1.76842 23.1474V20.4947C1.15789 20.1579 0.710526 19.6737 0.426316 19.0421C0.142105 18.4105 0 17.7368 0 17.0211V4.48421C0 2.92632 0.805263 1.78947 2.41579 1.07368C4.02632 0.357895 6.6 0 10.1368 0C13.6316 0 16.1842 0.357895 17.7947 1.07368C19.4053 1.78947 20.2105 2.92632 20.2105 4.48421V17.0211C20.2105 17.7368 20.0684 18.4105 19.7842 19.0421C19.5 19.6737 19.0526 20.1579 18.4421 20.4947V23.1474C18.4421 23.4 18.3368 23.6053 18.1263 23.7632C17.9158 23.9211 17.6737 24 17.4 24H16.8C16.5053 24 16.2526 23.9211 16.0421 23.7632C15.8316 23.6053 15.7263 23.4 15.7263 23.1474V21.4105H4.48421V23.1474C4.48421 23.4 4.37895 23.6053 4.16842 23.7632C3.95789 23.9211 3.70526 24 3.41053 24H2.81053ZM10.1368 3.66316H18.3158H1.89474H10.1368ZM15.7263 12.9158H1.89474H18.3158H15.7263ZM1.89474 11.0211H18.3158V5.55789H1.89474V11.0211ZM5.2421 17.9368C5.72632 17.9368 6.13684 17.7684 6.47368 17.4316C6.81053 17.0947 6.97895 16.6842 6.97895 16.2C6.97895 15.7158 6.81053 15.3053 6.47368 14.9684C6.13684 14.6316 5.72632 14.4632 5.2421 14.4632C4.75789 14.4632 4.34737 14.6316 4.01053 14.9684C3.67368 15.3053 3.50526 15.7158 3.50526 16.2C3.50526 16.6842 3.67368 17.0947 4.01053 17.4316C4.34737 17.7684 4.75789 17.9368 5.2421 17.9368ZM14.9684 17.9368C15.4526 17.9368 15.8632 17.7684 16.2 17.4316C16.5368 17.0947 16.7053 16.6842 16.7053 16.2C16.7053 15.7158 16.5368 15.3053 16.2 14.9684C15.8632 14.6316 15.4526 14.4632 14.9684 14.4632C14.4842 14.4632 14.0737 14.6316 13.7368 14.9684C13.4 15.3053 13.2316 15.7158 13.2316 16.2C13.2316 16.6842 13.4 17.0947 13.7368 17.4316C14.0737 17.7684 14.4842 17.9368 14.9684 17.9368ZM1.89474 3.66316H18.3158C17.8105 3.11579 16.8421 2.68421 15.4105 2.36842C13.9789 2.05263 12.2211 1.89474 10.1368 1.89474C7.65263 1.89474 5.74737 2.03684 4.42105 2.32105C3.09474 2.60526 2.25263 3.05263 1.89474 3.66316ZM4.48421 19.5158H15.7263C16.4632 19.5158 17.0789 19.2316 17.5737 18.6632C18.0684 18.0947 18.3158 17.4421 18.3158 16.7053V12.9158H1.89474V16.7053C1.89474 17.4421 2.14211 18.0947 2.63684 18.6632C3.13158 19.2316 3.74737 19.5158 4.48421 19.5158Z" fill="#FDFBFF"/>
</svg>
