<svg width="72" height="72" viewBox="0 0 72 72" fill="none" xmlns="http://www.w3.org/2000/svg">
<g filter="url(#filter0_d_79_368)">
<circle cx="35" cy="34" r="24" fill="#FDFCFF"/>
<circle cx="35" cy="34" r="23.9" stroke="black" stroke-opacity="0.15" stroke-width="0.2"/>
</g>
<path d="M43.9994 41.1864V38.4767C44.0104 38.0337 43.8579 37.6021 43.5708 37.264C42.7614 36.3106 39.9854 35.7008 38.885 35.935C38.0273 36.1176 37.4271 36.9788 36.8404 37.5644C34.5746 36.2785 32.6986 34.4062 31.4102 32.1448C31.9969 31.5593 32.8599 30.9604 33.0428 30.1043C33.2771 29.0078 32.6681 26.2495 31.7213 25.4368C31.3883 25.151 30.9625 24.9958 30.5232 25.0001H27.8081C26.7736 25.0011 25.9129 25.9289 26.0071 26.9692C26 35.935 33 43 42.0264 42.9929C43.0722 43.0873 44.0036 42.2223 43.9994 41.1864Z" stroke="#000D35" stroke-width="1.5" stroke-linecap="round" stroke-linejoin="round"/>
<path d="M37.5 28.5C38.2372 28.6438 38.9689 28.9689 39.5 29.5C40.0311 30.0311 40.3562 30.7628 40.5 31.5" stroke="#000D35" stroke-width="1.5" stroke-linecap="round" stroke-linejoin="round"/>
<path d="M38 25C39.5315 25.1701 40.9097 25.9111 42 27C43.0903 28.0889 43.8279 29.4687 44 31" stroke="#000D35" stroke-width="1.5" stroke-linecap="round" stroke-linejoin="round"/>
<defs>
<filter id="filter0_d_79_368" x="0" y="0" width="72" height="72" filterUnits="userSpaceOnUse" color-interpolation-filters="sRGB">
<feFlood flood-opacity="0" result="BackgroundImageFix"/>
<feColorMatrix in="SourceAlpha" type="matrix" values="0 0 0 0 0 0 0 0 0 0 0 0 0 0 0 0 0 0 127 0" result="hardAlpha"/>
<feOffset dx="1" dy="2"/>
<feGaussianBlur stdDeviation="6"/>
<feComposite in2="hardAlpha" operator="out"/>
<feColorMatrix type="matrix" values="0 0 0 0 0 0 0 0 0 0 0 0 0 0 0 0 0 0 0.01 0"/>
<feBlend mode="normal" in2="BackgroundImageFix" result="effect1_dropShadow_79_368"/>
<feBlend mode="normal" in="SourceGraphic" in2="effect1_dropShadow_79_368" result="shape"/>
</filter>
</defs>
</svg>
