<svg width="1744" height="1995" viewBox="0 0 1744 1995" fill="none" xmlns="http://www.w3.org/2000/svg">
<path d="M1505.46 145.951C1469.32 204.15 1433.75 262.704 1397.79 321.011C1369.09 367.53 1340.2 413.926 1311.37 460.349C1276.77 516.066 1242.24 571.818 1207.51 627.437C1175.29 679.006 1141.7 729.76 1110.66 782.008L1355.86 1280.82C1354.85 1275.63 1355.83 1270.57 1360.48 1264.96C1379.58 1241.93 1397.34 1217.8 1415.86 1194.28C1464.22 1132.85 1512.84 1071.6 1561.13 1010.11C1599.95 960.677 1632.25 907.075 1657.37 849.614C1675.43 808.3 1693.09 766.319 1705.17 723.028C1718.4 675.607 1725.03 626.344 1734.5 577.873C1746.3 517.456 1744.92 456.275 1741.83 395.427C1740.15 362.425 1735.68 333.829 1729.94 301.031C1729.07 296.045 1727.78 291.121 1726.95 286.125C1724.2 269.673 1718.86 248.616 1714.07 232.79C1696.48 174.68 1674.15 118.389 1642.16 66.4928C1628.59 44.4768 1613.32 23.5088 1597.43 0C1565.13 51.2141 1535 98.3998 1505.46 145.951Z" fill="url(#paint0_linear_248_6348)"/>
<g opacity="0.550003">
<path d="M1352.42 1278.99L1400.3 1215.7L1110.23 783.28L1352.42 1278.99Z" fill="black"/>
</g>
<path d="M1356.45 1271.38C1357.6 1269.89 1358.94 1268.39 1360.95 1266.83C1358.95 1268.39 1357.57 1269.89 1356.45 1271.38Z" fill="url(#paint1_linear_248_6348)"/>
<path d="M1101.4 798.258C1062.13 865.675 1025.14 934.465 988.777 1003.5C950.697 1075.79 921.857 1151.32 905.747 1232.06C887.423 1323.86 901.693 1410.06 947.408 1489.65C987.011 1558.57 1033.12 1623.83 1076.86 1690.38C1115.35 1748.91 1154.58 1806.96 1193.42 1865.26C1221.95 1908.08 1250.4 1950.96 1279.33 1994.49C1291.48 1987.27 1302.96 1981.08 1313.73 1973.85C1325.73 1965.81 1337.65 1957.46 1348.65 1948.14C1439.32 1871.34 1495.02 1776.97 1498.14 1655.56C1499.58 1599.68 1483.78 1548.66 1462.24 1497.81C1452.96 1480.65 1442.43 1464.14 1433.85 1446.66C1424.59 1427.8 1417.55 1407.88 1408.44 1388.95C1392.53 1355.87 1375.71 1323.22 1359.41 1290.33C1358.16 1287.81 1357.4 1285.38 1356.93 1282.99L1110.33 783.406C1140.65 732.578 1173.39 683.161 1204.94 633.036C1170.31 688.053 1134.1 742.132 1101.4 798.258Z" fill="url(#paint2_linear_248_6348)"/>
<path d="M386.848 1269.76C392.295 1276.74 393.051 1283.54 388.91 1291.49C379.656 1309.24 370.571 1327.1 361.814 1345.11C338.672 1392.71 316.576 1440.86 292.45 1487.95C273.379 1525.18 257.919 1564.03 253.347 1605.17C246.952 1662.62 250.605 1720.38 272.004 1775.06C307.73 1866.37 365.856 1938.84 450.995 1987.77C468.538 1997.86 468.21 1997.6 479.578 1980.05C532.19 1898.85 584.737 1817.6 637.848 1736.74C655.338 1710.11 672.891 1683.52 690.051 1656.7L311.016 1172.12C336.283 1204.68 361.49 1237.28 386.848 1269.76Z" fill="url(#paint3_linear_248_6348)"/>
<path d="M143.11 12.922C111.479 53.3167 85.6074 97.2317 64.9478 144.152C43.6072 192.632 26.0818 242.513 18.279 295.101C11.4336 341.2 4.4057 387.461 1.43954 433.906C-1.79313 484.668 0.166158 535.678 9.89872 586C17.5535 625.607 23.9152 665.506 32.8729 704.813C38.44 729.26 46.2527 753.471 55.7434 776.68C74.2363 821.932 92.8032 867.318 114.682 910.96C142.345 966.164 180.855 1014.31 219.484 1062.29C248.855 1098.77 277.826 1135.58 306.712 1172.45L685.102 1658.92C719.467 1605.69 754.692 1547.57 781.476 1489.81C805.008 1439.07 823.629 1386.97 834.097 1331.42C850.458 1244.52 838.409 1161.34 802.624 1082.71C776.758 1025.86 743.202 972.397 711.256 918.507C676.718 860.253 640.038 803.282 604.341 745.723C569.57 689.643 534.9 633.513 500.119 577.44C465 520.821 429.658 464.341 394.695 407.621C366.075 361.196 338.068 314.391 309.446 267.964C276.902 215.164 243.98 162.594 211.219 109.926C190.578 76.7448 169.933 43.5683 148.706 9.44629C145.552 11.3672 143.954 11.8427 143.11 12.922Z" fill="url(#paint4_linear_248_6348)"/>
<g opacity="0.300003">
<path d="M684.531 1658.04L389.638 1283.35L362.136 1339.93L684.531 1658.04Z" fill="black"/>
</g>
<defs>
<linearGradient id="paint0_linear_248_6348" x1="1198.83" y1="1121.87" x2="1838.06" y2="86.5813" gradientUnits="userSpaceOnUse">
<stop stop-color="#1085E2"/>
<stop offset="1" stop-color="#01C5F9"/>
</linearGradient>
<linearGradient id="paint1_linear_248_6348" x1="1068.93" y1="928.463" x2="1376.47" y2="1840.65" gradientUnits="userSpaceOnUse">
<stop stop-color="#05369C"/>
<stop offset="1" stop-color="#229AF1"/>
</linearGradient>
<linearGradient id="paint2_linear_248_6348" x1="1029.64" y1="970.256" x2="1487.14" y2="1828.48" gradientUnits="userSpaceOnUse">
<stop stop-color="#05369C"/>
<stop offset="1" stop-color="#229AF1"/>
</linearGradient>
<linearGradient id="paint3_linear_248_6348" x1="531.059" y1="1353.96" x2="246.461" y2="1904" gradientUnits="userSpaceOnUse">
<stop stop-color="#05369C"/>
<stop offset="1" stop-color="#229AF1"/>
</linearGradient>
<linearGradient id="paint4_linear_248_6348" x1="-143.411" y1="107.433" x2="957.163" y2="1541.09" gradientUnits="userSpaceOnUse">
<stop stop-color="#1085E2"/>
<stop offset="1" stop-color="#01C5F9"/>
</linearGradient>
</defs>
</svg>
