<svg width="154" height="32" viewBox="0 0 154 32" fill="none" xmlns="http://www.w3.org/2000/svg">
<path d="M9.83394 26.92C9.83394 27.944 9.94594 28.696 10.1699 29.176C10.3939 29.624 10.8099 29.944 11.4179 30.136C12.0579 30.328 13.0659 30.424 14.4419 30.424C14.5379 30.424 14.5859 30.52 14.5859 30.712C14.5859 30.904 14.5379 31 14.4419 31C13.1299 31 12.1059 30.984 11.3699 30.952L7.19394 30.904L3.68994 30.952C3.04993 30.984 2.18593 31 1.09793 31C1.00193 31 0.953935 30.904 0.953935 30.712C0.953935 30.52 1.00193 30.424 1.09793 30.424C2.12193 30.424 2.85793 30.344 3.30594 30.184C3.78594 30.024 4.10593 29.72 4.26593 29.272C4.42593 28.792 4.50593 28.072 4.50593 27.112V4.888C4.50593 3.928 4.42593 3.224 4.26593 2.776C4.10593 2.328 3.78594 2.024 3.30594 1.864C2.82594 1.672 2.08993 1.576 1.09793 1.576C1.00193 1.576 0.953935 1.48 0.953935 1.288C0.953935 1.096 1.00193 1 1.09793 1L3.64193 1.048C5.11393 1.112 6.28193 1.144 7.14594 1.144C7.91394 1.144 8.82594 1.096 9.88194 1C10.2979 0.967999 10.8259 0.935998 11.4659 0.903998C12.1059 0.871999 12.8419 0.855999 13.6739 0.855999C16.9379 0.855999 19.5139 1.544 21.4019 2.92C23.2899 4.264 24.2339 6.36 24.2339 9.208C24.2339 11.192 23.7219 12.872 22.6979 14.248C21.6739 15.624 20.3459 16.664 18.7139 17.368C17.1139 18.072 15.4659 18.424 13.7699 18.424C12.9059 18.424 12.1539 18.344 11.5139 18.184C11.4499 18.184 11.4179 18.104 11.4179 17.944C11.4179 17.848 11.4339 17.752 11.4659 17.656C11.5299 17.56 11.5939 17.528 11.6579 17.56C12.1379 17.688 12.6819 17.752 13.2899 17.752C14.7619 17.752 15.9779 17.064 16.9379 15.688C17.9299 14.312 18.4259 12.36 18.4259 9.832C18.4259 7.304 17.8819 5.352 16.7939 3.976C15.7379 2.6 14.1859 1.912 12.1379 1.912C11.2419 1.912 10.6339 2.12 10.3139 2.536C9.99394 2.952 9.83394 3.768 9.83394 4.984V26.92ZM52.2052 30.424C52.3012 30.424 52.3492 30.52 52.3492 30.712C52.3492 30.904 52.3012 31 52.2052 31H44.3332C43.8532 31 42.9892 30.04 41.7412 28.12C40.5252 26.2 39.0692 23.56 37.3732 20.2C36.7012 20.296 36.0292 20.344 35.3572 20.344H34.5412V27.112C34.5412 28.104 34.6052 28.824 34.7332 29.272C34.8932 29.72 35.1652 30.024 35.5492 30.184C35.9652 30.344 36.6212 30.424 37.5172 30.424C37.5812 30.424 37.6132 30.52 37.6132 30.712C37.6132 30.904 37.5812 31 37.5172 31C36.5572 31 35.8052 30.984 35.2612 30.952L31.9972 30.904L28.8772 30.952C28.3012 30.984 27.5012 31 26.4772 31C26.4132 31 26.3812 30.904 26.3812 30.712C26.3812 30.52 26.4132 30.424 26.4772 30.424C27.3732 30.424 28.0292 30.344 28.4452 30.184C28.8612 30.024 29.1492 29.72 29.3092 29.272C29.4692 28.792 29.5492 28.072 29.5492 27.112V12.424C29.5492 11.464 29.4692 10.76 29.3092 10.312C29.1812 9.864 28.9092 9.56 28.4932 9.4C28.0772 9.208 27.4372 9.112 26.5732 9.112C26.4772 9.112 26.4292 9.016 26.4292 8.824C26.4292 8.632 26.4772 8.536 26.5732 8.536L28.9252 8.584C30.2052 8.648 31.2292 8.68 31.9972 8.68C32.6052 8.68 33.1652 8.664 33.6772 8.632C34.1892 8.6 34.6372 8.568 35.0212 8.536C36.0772 8.44 37.0692 8.392 37.9972 8.392C40.4932 8.392 42.3972 8.792 43.7092 9.592C45.0212 10.392 45.6772 11.544 45.6772 13.048C45.6772 14.296 45.2772 15.448 44.4772 16.504C43.6772 17.56 42.5732 18.424 41.1652 19.096C42.8932 22.008 44.3812 24.28 45.6292 25.912C46.8772 27.544 48.0132 28.712 49.0372 29.416C50.0612 30.088 51.1172 30.424 52.2052 30.424ZM34.5412 19.384C34.7652 19.416 35.1492 19.432 35.6932 19.432C37.5172 19.432 38.7812 19.016 39.4852 18.184C40.1892 17.32 40.5412 16.04 40.5412 14.344C40.5412 11.016 39.3252 9.352 36.8932 9.352C36.2212 9.352 35.7252 9.432 35.4052 9.592C35.0852 9.752 34.8612 10.056 34.7332 10.504C34.6052 10.92 34.5412 11.592 34.5412 12.52V19.384ZM60.0232 27.112C60.0232 28.072 60.1032 28.792 60.2632 29.272C60.4232 29.72 60.7112 30.024 61.1272 30.184C61.5432 30.344 62.2152 30.424 63.1432 30.424C63.2072 30.424 63.2392 30.52 63.2392 30.712C63.2392 30.904 63.2072 31 63.1432 31C62.1512 31 61.3832 30.984 60.8392 30.952L57.5752 30.904L54.4552 30.952C53.8792 30.984 53.0792 31 52.0552 31C51.9912 31 51.9592 30.904 51.9592 30.712C51.9592 30.52 51.9912 30.424 52.0552 30.424C52.9832 30.424 53.6552 30.344 54.0712 30.184C54.5192 30.024 54.8232 29.72 54.9832 29.272C55.1432 28.792 55.2232 28.072 55.2232 27.112V12.424C55.2232 11.464 55.1432 10.76 54.9832 10.312C54.8232 9.864 54.5192 9.56 54.0712 9.4C53.6552 9.208 52.9832 9.112 52.0552 9.112C51.9912 9.112 51.9592 9.016 51.9592 8.824C51.9592 8.632 51.9912 8.536 52.0552 8.536L54.4552 8.584C55.7352 8.648 56.7752 8.68 57.5752 8.68C58.4392 8.68 59.5432 8.648 60.8872 8.584L63.1432 8.536C63.2072 8.536 63.2392 8.632 63.2392 8.824C63.2392 9.016 63.2072 9.112 63.1432 9.112C62.2472 9.112 61.5752 9.208 61.1272 9.4C60.7112 9.592 60.4232 9.928 60.2632 10.408C60.1032 10.856 60.0232 11.56 60.0232 12.52V27.112ZM78.6824 7.96C79.8664 7.96 81.1464 8.088 82.5224 8.344C83.9304 8.6 85.0824 8.936 85.9784 9.352C86.2024 9.448 86.3464 9.56 86.4104 9.688C86.4744 9.784 86.5064 9.944 86.5064 10.168L86.7464 15.112C86.7464 15.208 86.6664 15.272 86.5064 15.304C86.3464 15.336 86.2344 15.288 86.1704 15.16C84.9544 13.08 83.7064 11.544 82.4264 10.552C81.1784 9.528 79.7384 9.016 78.1064 9.016C75.8344 9.016 74.0904 9.928 72.8744 11.752C71.6584 13.544 71.0504 15.944 71.0504 18.952C71.0504 20.936 71.3224 22.808 71.8664 24.568C72.4424 26.328 73.3384 27.768 74.5544 28.888C75.7704 30.008 77.3064 30.568 79.1624 30.568C80.7944 30.568 82.1704 30.072 83.2904 29.08C84.4424 28.088 85.5624 26.488 86.6504 24.28C86.6824 24.152 86.7784 24.104 86.9384 24.136C87.0984 24.168 87.1784 24.232 87.1784 24.328L86.7944 29.416C86.7624 29.672 86.7144 29.848 86.6504 29.944C86.5864 30.04 86.4104 30.152 86.1224 30.28C83.6584 31.144 81.0984 31.576 78.4424 31.576C75.3704 31.576 72.8584 30.968 70.9064 29.752C68.9544 28.536 67.5304 27.016 66.6344 25.192C65.7704 23.368 65.3384 21.528 65.3384 19.672C65.3384 17.496 65.9144 15.512 67.0664 13.72C68.2504 11.928 69.8504 10.52 71.8664 9.496C73.9144 8.472 76.1864 7.96 78.6824 7.96ZM98.0876 27.112C98.0876 28.072 98.1676 28.792 98.3276 29.272C98.4876 29.72 98.7756 30.024 99.1916 30.184C99.6076 30.344 100.28 30.424 101.208 30.424C101.272 30.424 101.304 30.52 101.304 30.712C101.304 30.904 101.272 31 101.208 31C100.216 31 99.4476 30.984 98.9036 30.952L95.6396 30.904L92.5196 30.952C91.9436 30.984 91.1436 31 90.1196 31C90.0556 31 90.0236 30.904 90.0236 30.712C90.0236 30.52 90.0556 30.424 90.1196 30.424C91.0476 30.424 91.7196 30.344 92.1356 30.184C92.5836 30.024 92.8876 29.72 93.0476 29.272C93.2076 28.792 93.2876 28.072 93.2876 27.112V12.424C93.2876 11.464 93.2076 10.76 93.0476 10.312C92.8876 9.864 92.5836 9.56 92.1356 9.4C91.7196 9.208 91.0476 9.112 90.1196 9.112C90.0556 9.112 90.0236 9.016 90.0236 8.824C90.0236 8.632 90.0556 8.536 90.1196 8.536L92.5196 8.584C93.7996 8.648 94.8396 8.68 95.6396 8.68C96.5036 8.68 97.6076 8.648 98.9516 8.584L101.208 8.536C101.272 8.536 101.304 8.632 101.304 8.824C101.304 9.016 101.272 9.112 101.208 9.112C100.312 9.112 99.6396 9.208 99.1916 9.4C98.7756 9.592 98.4876 9.928 98.3276 10.408C98.1676 10.856 98.0876 11.56 98.0876 12.52V27.112ZM128.555 8.536C128.651 8.536 128.699 8.632 128.699 8.824C128.699 9.016 128.651 9.112 128.555 9.112C127.275 9.112 126.331 9.56 125.723 10.456C125.115 11.352 124.811 12.76 124.811 14.68V31.528C124.811 31.592 124.731 31.64 124.571 31.672C124.411 31.704 124.299 31.688 124.235 31.624L107.387 12.616V24.904C107.387 26.792 107.675 28.184 108.251 29.08C108.859 29.976 109.787 30.424 111.035 30.424C111.131 30.424 111.179 30.52 111.179 30.712C111.179 30.904 111.131 31 111.035 31C110.267 31 109.675 30.984 109.259 30.952L106.955 30.904L104.651 30.952C104.203 30.984 103.563 31 102.731 31C102.667 31 102.635 30.904 102.635 30.712C102.635 30.52 102.667 30.424 102.731 30.424C104.011 30.424 104.955 29.976 105.563 29.08C106.171 28.184 106.475 26.792 106.475 24.904V11.656C105.611 10.76 104.843 10.12 104.171 9.736C103.531 9.32 102.907 9.112 102.299 9.112C102.235 9.112 102.203 9.016 102.203 8.824C102.203 8.632 102.235 8.536 102.299 8.536L104.987 8.584C105.243 8.584 105.595 8.584 106.043 8.584C106.491 8.552 107.627 8.536 109.451 8.536C109.707 8.536 109.915 8.616 110.075 8.776C110.267 8.936 110.555 9.24 110.939 9.688C111.195 10.072 111.547 10.52 111.995 11.032L123.851 24.28V14.68C123.851 12.76 123.563 11.352 122.987 10.456C122.411 9.56 121.483 9.112 120.203 9.112C120.139 9.112 120.107 9.016 120.107 8.824C120.107 8.632 120.139 8.536 120.203 8.536L122.027 8.584C122.987 8.648 123.739 8.68 124.283 8.68C124.827 8.68 125.611 8.648 126.635 8.584L128.555 8.536ZM142.065 31.576C139.505 31.576 137.265 31.048 135.345 29.992C133.457 28.904 132.017 27.48 131.025 25.72C130.033 23.96 129.537 22.104 129.537 20.152C129.537 17.656 130.097 15.496 131.217 13.672C132.369 11.816 133.985 10.408 136.065 9.448C138.145 8.456 140.593 7.96 143.409 7.96C144.817 7.96 146.161 8.088 147.441 8.344C148.753 8.6 149.841 8.968 150.705 9.448C150.929 9.544 151.057 9.656 151.089 9.784C151.153 9.912 151.201 10.152 151.233 10.504L151.473 15.016C151.473 15.112 151.377 15.176 151.185 15.208C151.025 15.208 150.929 15.16 150.897 15.064C148.433 11.032 145.569 9.016 142.305 9.016C140.033 9.016 138.241 9.928 136.929 11.752C135.649 13.576 135.009 16.168 135.009 19.528C135.009 22.792 135.745 25.432 137.217 27.448C138.689 29.464 140.689 30.472 143.217 30.472C144.497 30.472 145.425 30.344 146.001 30.088C146.609 29.8 147.009 29.288 147.201 28.552C147.425 27.784 147.537 26.584 147.537 24.952C147.537 24.12 147.473 23.544 147.345 23.224C147.217 22.872 146.945 22.648 146.529 22.552C146.113 22.424 145.393 22.36 144.369 22.36C144.177 22.36 144.081 22.232 144.081 21.976C144.081 21.88 144.097 21.8 144.129 21.736C144.193 21.64 144.257 21.592 144.321 21.592C145.985 21.72 147.665 21.784 149.361 21.784C150.129 21.784 151.409 21.752 153.201 21.688C153.265 21.688 153.313 21.736 153.345 21.832C153.409 21.896 153.441 21.96 153.441 22.024C153.441 22.248 153.361 22.36 153.201 22.36C152.721 22.328 152.385 22.376 152.193 22.504C152.001 22.632 151.873 22.904 151.809 23.32C151.745 23.704 151.713 24.408 151.713 25.432C151.713 26.872 151.745 27.88 151.809 28.456C151.905 29.032 151.953 29.432 151.953 29.656C151.953 29.848 151.921 29.976 151.857 30.04C151.793 30.072 151.633 30.136 151.377 30.232C149.233 31.128 146.129 31.576 142.065 31.576Z" fill="#1C023B"/>
</svg>
