<svg width="261" height="41" viewBox="0 0 261 41" fill="none" xmlns="http://www.w3.org/2000/svg">
<rect width="261" height="41" rx="6" fill="#1C023B"/>
<path d="M84.976 27L82.416 22.552H81.024V27H79.2V15.88H83.04C83.8933 15.88 84.6133 16.0293 85.2 16.328C85.7973 16.6267 86.24 17.0267 86.528 17.528C86.8267 18.0293 86.976 18.5893 86.976 19.208C86.976 19.9333 86.7627 20.5947 86.336 21.192C85.92 21.7787 85.2747 22.1787 84.4 22.392L87.152 27H84.976ZM81.024 21.096H83.04C83.7227 21.096 84.2347 20.9253 84.576 20.584C84.928 20.2427 85.104 19.784 85.104 19.208C85.104 18.632 84.9333 18.184 84.592 17.864C84.2507 17.5333 83.7333 17.368 83.04 17.368H81.024V21.096ZM97.3894 22.376C97.3894 22.7067 97.368 23.0053 97.3254 23.272H90.5894C90.6427 23.976 90.904 24.5413 91.3734 24.968C91.8427 25.3947 92.4187 25.608 93.1014 25.608C94.0827 25.608 94.776 25.1973 95.1814 24.376H97.1494C96.8827 25.1867 96.3974 25.8533 95.6934 26.376C95 26.888 94.136 27.144 93.1014 27.144C92.2587 27.144 91.5014 26.9573 90.8294 26.584C90.168 26.2 89.6454 25.6667 89.2614 24.984C88.888 24.2907 88.7014 23.4907 88.7014 22.584C88.7014 21.6773 88.8827 20.8827 89.2454 20.2C89.6187 19.5067 90.136 18.9733 90.7974 18.6C91.4694 18.2267 92.2374 18.04 93.1014 18.04C93.9334 18.04 94.6747 18.2213 95.3254 18.584C95.976 18.9467 96.4827 19.4587 96.8454 20.12C97.208 20.7707 97.3894 21.5227 97.3894 22.376ZM95.4854 21.8C95.4747 21.128 95.2347 20.5893 94.7654 20.184C94.296 19.7787 93.7147 19.576 93.0214 19.576C92.392 19.576 91.8534 19.7787 91.4054 20.184C90.9574 20.5787 90.6907 21.1173 90.6054 21.8H95.4854ZM102.736 18.04C103.419 18.04 104.022 18.1787 104.544 18.456C105.078 18.7227 105.494 19.0587 105.792 19.464V18.184H107.632V27.144C107.632 27.9547 107.462 28.6747 107.12 29.304C106.779 29.944 106.283 30.4453 105.632 30.808C104.992 31.1707 104.224 31.352 103.328 31.352C102.134 31.352 101.142 31.0693 100.352 30.504C99.563 29.9493 99.115 29.192 99.0084 28.232H100.816C100.955 28.6907 101.248 29.0587 101.696 29.336C102.155 29.624 102.699 29.768 103.328 29.768C104.064 29.768 104.656 29.544 105.104 29.096C105.563 28.648 105.792 27.9973 105.792 27.144V25.672C105.483 26.088 105.062 26.44 104.528 26.728C104.006 27.0053 103.408 27.144 102.736 27.144C101.968 27.144 101.264 26.952 100.624 26.568C99.995 26.1733 99.4937 25.6293 99.1204 24.936C98.7577 24.232 98.5764 23.4373 98.5764 22.552C98.5764 21.6667 98.7577 20.8827 99.1204 20.2C99.4937 19.5173 99.995 18.9893 100.624 18.616C101.264 18.232 101.968 18.04 102.736 18.04ZM105.792 22.584C105.792 21.976 105.664 21.448 105.408 21C105.163 20.552 104.838 20.2107 104.432 19.976C104.027 19.7413 103.59 19.624 103.12 19.624C102.651 19.624 102.214 19.7413 101.808 19.976C101.403 20.2 101.072 20.536 100.816 20.984C100.571 21.4213 100.448 21.944 100.448 22.552C100.448 23.16 100.571 23.6933 100.816 24.152C101.072 24.6107 101.403 24.9627 101.808 25.208C102.224 25.4427 102.662 25.56 103.12 25.56C103.59 25.56 104.027 25.4427 104.432 25.208C104.838 24.9733 105.163 24.632 105.408 24.184C105.664 23.7253 105.792 23.192 105.792 22.584ZM110.956 17.016C110.625 17.016 110.348 16.904 110.124 16.68C109.9 16.456 109.788 16.1787 109.788 15.848C109.788 15.5173 109.9 15.24 110.124 15.016C110.348 14.792 110.625 14.68 110.956 14.68C111.276 14.68 111.548 14.792 111.772 15.016C111.996 15.24 112.108 15.5173 112.108 15.848C112.108 16.1787 111.996 16.456 111.772 16.68C111.548 16.904 111.276 17.016 110.956 17.016ZM111.852 18.184V27H110.028V18.184H111.852ZM117.447 27.144C116.754 27.144 116.13 27.0213 115.575 26.776C115.031 26.52 114.599 26.1787 114.279 25.752C113.959 25.3147 113.788 24.8293 113.767 24.296H115.655C115.687 24.6693 115.863 24.984 116.183 25.24C116.514 25.4853 116.924 25.608 117.415 25.608C117.927 25.608 118.322 25.512 118.599 25.32C118.887 25.1173 119.031 24.8613 119.031 24.552C119.031 24.2213 118.871 23.976 118.551 23.816C118.242 23.656 117.746 23.48 117.063 23.288C116.402 23.1067 115.863 22.9307 115.447 22.76C115.031 22.5893 114.668 22.328 114.359 21.976C114.06 21.624 113.911 21.16 113.911 20.584C113.911 20.1147 114.05 19.688 114.327 19.304C114.604 18.9093 114.999 18.6 115.511 18.376C116.034 18.152 116.631 18.04 117.303 18.04C118.306 18.04 119.111 18.296 119.719 18.808C120.338 19.3093 120.668 19.9973 120.711 20.872H118.887C118.855 20.4773 118.695 20.1627 118.407 19.928C118.119 19.6933 117.73 19.576 117.239 19.576C116.759 19.576 116.391 19.6667 116.135 19.848C115.879 20.0293 115.751 20.2693 115.751 20.568C115.751 20.8027 115.836 21 116.007 21.16C116.178 21.32 116.386 21.448 116.631 21.544C116.876 21.6293 117.239 21.7413 117.719 21.88C118.359 22.0507 118.882 22.2267 119.287 22.408C119.703 22.5787 120.06 22.8347 120.359 23.176C120.658 23.5173 120.812 23.9707 120.823 24.536C120.823 25.0373 120.684 25.4853 120.407 25.88C120.13 26.2747 119.735 26.584 119.223 26.808C118.722 27.032 118.13 27.144 117.447 27.144ZM124.922 19.672V24.552C124.922 24.8827 124.996 25.1227 125.146 25.272C125.306 25.4107 125.572 25.48 125.946 25.48H127.066V27H125.626C124.804 27 124.175 26.808 123.738 26.424C123.3 26.04 123.082 25.416 123.082 24.552V19.672H122.042V18.184H123.082V15.992H124.922V18.184H127.066V19.672H124.922ZM136.827 22.376C136.827 22.7067 136.806 23.0053 136.763 23.272H130.027C130.08 23.976 130.342 24.5413 130.811 24.968C131.28 25.3947 131.856 25.608 132.539 25.608C133.52 25.608 134.214 25.1973 134.619 24.376H136.587C136.32 25.1867 135.835 25.8533 135.131 26.376C134.438 26.888 133.574 27.144 132.539 27.144C131.696 27.144 130.939 26.9573 130.267 26.584C129.606 26.2 129.083 25.6667 128.699 24.984C128.326 24.2907 128.139 23.4907 128.139 22.584C128.139 21.6773 128.32 20.8827 128.683 20.2C129.056 19.5067 129.574 18.9733 130.235 18.6C130.907 18.2267 131.675 18.04 132.539 18.04C133.371 18.04 134.112 18.2213 134.763 18.584C135.414 18.9467 135.92 19.4587 136.283 20.12C136.646 20.7707 136.827 21.5227 136.827 22.376ZM134.923 21.8C134.912 21.128 134.672 20.5893 134.203 20.184C133.734 19.7787 133.152 19.576 132.459 19.576C131.83 19.576 131.291 19.7787 130.843 20.184C130.395 20.5787 130.128 21.1173 130.043 21.8H134.923ZM140.446 19.464C140.713 19.016 141.065 18.6693 141.502 18.424C141.95 18.168 142.478 18.04 143.086 18.04V19.928H142.622C141.907 19.928 141.363 20.1093 140.99 20.472C140.627 20.8347 140.446 21.464 140.446 22.36V27H138.622V18.184H140.446V19.464ZM158.055 27H156.231L150.743 18.696V27H148.919V15.864H150.743L156.231 24.152V15.864H158.055V27ZM164.274 27.144C163.442 27.144 162.69 26.9573 162.018 26.584C161.346 26.2 160.818 25.6667 160.434 24.984C160.05 24.2907 159.858 23.4907 159.858 22.584C159.858 21.688 160.055 20.8933 160.45 20.2C160.845 19.5067 161.383 18.9733 162.066 18.6C162.749 18.2267 163.511 18.04 164.354 18.04C165.197 18.04 165.959 18.2267 166.642 18.6C167.325 18.9733 167.863 19.5067 168.258 20.2C168.653 20.8933 168.85 21.688 168.85 22.584C168.85 23.48 168.647 24.2747 168.242 24.968C167.837 25.6613 167.282 26.2 166.578 26.584C165.885 26.9573 165.117 27.144 164.274 27.144ZM164.274 25.56C164.743 25.56 165.181 25.448 165.586 25.224C166.002 25 166.338 24.664 166.594 24.216C166.85 23.768 166.978 23.224 166.978 22.584C166.978 21.944 166.855 21.4053 166.61 20.968C166.365 20.52 166.039 20.184 165.634 19.96C165.229 19.736 164.791 19.624 164.322 19.624C163.853 19.624 163.415 19.736 163.01 19.96C162.615 20.184 162.301 20.52 162.066 20.968C161.831 21.4053 161.714 21.944 161.714 22.584C161.714 23.5333 161.954 24.2693 162.434 24.792C162.925 25.304 163.538 25.56 164.274 25.56ZM182.493 18.184L179.757 27H177.837L176.061 20.488L174.285 27H172.365L169.613 18.184H171.469L173.309 25.272L175.181 18.184H177.085L178.877 25.24L180.701 18.184H182.493Z" fill="white"/>
</svg>
