<svg width="302" height="52" viewBox="0 0 302 52" fill="none" xmlns="http://www.w3.org/2000/svg">
<path d="M8.21383 16L4.75383 10.16H2.17383V16H0.773828V2.02H4.97383C6.53383 2.02 7.71383 2.39333 8.51383 3.14C9.32716 3.88667 9.73383 4.86667 9.73383 6.08C9.73383 7.09333 9.44049 7.96 8.85383 8.68C8.2805 9.38667 7.42716 9.84667 6.29383 10.06L9.89383 16H8.21383ZM2.17383 9.02H4.99383C6.08716 9.02 6.90716 8.75333 7.45383 8.22C8.01383 7.68667 8.29383 6.97333 8.29383 6.08C8.29383 5.16 8.02716 4.45333 7.49383 3.96C6.9605 3.45333 6.1205 3.2 4.97383 3.2H2.17383V9.02ZM22.3921 9.98C22.3921 10.46 22.3788 10.8267 22.3521 11.08H13.2921C13.3321 11.9067 13.5321 12.6133 13.8921 13.2C14.2521 13.7867 14.7254 14.2333 15.3121 14.54C15.8988 14.8333 16.5388 14.98 17.2321 14.98C18.1388 14.98 18.8988 14.76 19.5121 14.32C20.1388 13.88 20.5521 13.2867 20.7521 12.54H22.2321C21.9654 13.6067 21.3921 14.48 20.5121 15.16C19.6454 15.8267 18.5521 16.16 17.2321 16.16C16.2054 16.16 15.2854 15.9333 14.4721 15.48C13.6588 15.0133 13.0188 14.36 12.5521 13.52C12.0988 12.6667 11.8721 11.6733 11.8721 10.54C11.8721 9.40667 12.0988 8.41333 12.5521 7.56C13.0054 6.70667 13.6388 6.05333 14.4521 5.6C15.2654 5.14667 16.1921 4.92 17.2321 4.92C18.2721 4.92 19.1788 5.14667 19.9521 5.6C20.7388 6.05333 21.3388 6.66667 21.7521 7.44C22.1788 8.2 22.3921 9.04667 22.3921 9.98ZM20.9721 9.94C20.9854 9.12667 20.8188 8.43333 20.4721 7.86C20.1388 7.28667 19.6788 6.85333 19.0921 6.56C18.5054 6.26667 17.8654 6.12 17.1721 6.12C16.1321 6.12 15.2454 6.45333 14.5121 7.12C13.7788 7.78667 13.3721 8.72667 13.2921 9.94H20.9721ZM29.5335 4.92C30.5602 4.92 31.4535 5.16 32.2135 5.64C32.9735 6.12 33.5202 6.72667 33.8535 7.46V5.08H35.2535V16.28C35.2535 17.28 35.0335 18.1667 34.5935 18.94C34.1668 19.7133 33.5668 20.3067 32.7935 20.72C32.0202 21.1467 31.1402 21.36 30.1535 21.36C28.7535 21.36 27.5868 21.0267 26.6535 20.36C25.7335 19.6933 25.1602 18.7867 24.9335 17.64H26.3135C26.5535 18.4 27.0068 19.0067 27.6735 19.46C28.3535 19.9133 29.1802 20.14 30.1535 20.14C30.8602 20.14 31.4935 19.9867 32.0535 19.68C32.6135 19.3867 33.0535 18.9467 33.3735 18.36C33.6935 17.7733 33.8535 17.08 33.8535 16.28V13.58C33.5068 14.3267 32.9535 14.9467 32.1935 15.44C31.4468 15.92 30.5602 16.16 29.5335 16.16C28.5335 16.16 27.6335 15.9267 26.8335 15.46C26.0468 14.9933 25.4268 14.3333 24.9735 13.48C24.5335 12.6267 24.3135 11.64 24.3135 10.52C24.3135 9.4 24.5335 8.42 24.9735 7.58C25.4268 6.72667 26.0468 6.07333 26.8335 5.62C27.6335 5.15333 28.5335 4.92 29.5335 4.92ZM33.8535 10.54C33.8535 9.66 33.6735 8.88667 33.3135 8.22C32.9535 7.55333 32.4602 7.04 31.8335 6.68C31.2202 6.32 30.5402 6.14 29.7935 6.14C29.0202 6.14 28.3268 6.31333 27.7135 6.66C27.1002 7.00667 26.6135 7.51333 26.2535 8.18C25.9068 8.83333 25.7335 9.61333 25.7335 10.52C25.7335 11.4133 25.9068 12.2 26.2535 12.88C26.6135 13.5467 27.1002 14.06 27.7135 14.42C28.3268 14.7667 29.0202 14.94 29.7935 14.94C30.5402 14.94 31.2202 14.76 31.8335 14.4C32.4602 14.04 32.9535 13.5267 33.3135 12.86C33.6735 12.1933 33.8535 11.42 33.8535 10.54ZM39.1496 3.02C38.8696 3.02 38.6296 2.92 38.4296 2.72C38.2296 2.52 38.1296 2.27333 38.1296 1.98C38.1296 1.68667 38.2296 1.44667 38.4296 1.26C38.6296 1.06 38.8696 0.959999 39.1496 0.959999C39.4296 0.959999 39.6696 1.06 39.8696 1.26C40.0696 1.44667 40.1696 1.68667 40.1696 1.98C40.1696 2.27333 40.0696 2.52 39.8696 2.72C39.6696 2.92 39.4296 3.02 39.1496 3.02ZM39.8496 5.08V16H38.4496V5.08H39.8496ZM46.7799 16.16C45.5266 16.16 44.4999 15.8733 43.6999 15.3C42.9133 14.7133 42.4733 13.92 42.3799 12.92H43.8199C43.8866 13.5333 44.1733 14.0333 44.6799 14.42C45.1999 14.7933 45.8933 14.98 46.7599 14.98C47.5199 14.98 48.1133 14.8 48.5399 14.44C48.9799 14.08 49.1999 13.6333 49.1999 13.1C49.1999 12.7267 49.0799 12.42 48.8399 12.18C48.5999 11.94 48.2933 11.7533 47.9199 11.62C47.5599 11.4733 47.0666 11.32 46.4399 11.16C45.6266 10.9467 44.9666 10.7333 44.4599 10.52C43.9533 10.3067 43.5199 9.99333 43.1599 9.58C42.8133 9.15333 42.6399 8.58667 42.6399 7.88C42.6399 7.34667 42.7999 6.85333 43.1199 6.4C43.4399 5.94667 43.8933 5.58667 44.4799 5.32C45.0666 5.05333 45.7333 4.92 46.4799 4.92C47.6533 4.92 48.5999 5.22 49.3199 5.82C50.0399 6.40667 50.4266 7.22 50.4799 8.26H49.0799C49.0399 7.62 48.7866 7.10667 48.3199 6.72C47.8666 6.32 47.2399 6.12 46.4399 6.12C45.7333 6.12 45.1599 6.28667 44.7199 6.62C44.2799 6.95333 44.0599 7.36667 44.0599 7.86C44.0599 8.28667 44.1866 8.64 44.4399 8.92C44.7066 9.18667 45.0333 9.4 45.4199 9.56C45.8066 9.70667 46.3266 9.87333 46.9799 10.06C47.7666 10.2733 48.3933 10.48 48.8599 10.68C49.3266 10.88 49.7266 11.1733 50.0599 11.56C50.3933 11.9467 50.5666 12.46 50.5799 13.1C50.5799 13.6867 50.4199 14.2133 50.0999 14.68C49.7799 15.1333 49.3333 15.4933 48.7599 15.76C48.1866 16.0267 47.5266 16.16 46.7799 16.16ZM55.0352 6.26V13.04C55.0352 13.7067 55.1619 14.1667 55.4152 14.42C55.6686 14.6733 56.1152 14.8 56.7552 14.8H58.0352V16H56.5352C55.5486 16 54.8152 15.7733 54.3352 15.32C53.8552 14.8533 53.6152 14.0933 53.6152 13.04V6.26H52.0952V5.08H53.6152V2.34H55.0352V5.08H58.0352V6.26H55.0352ZM70.2241 9.98C70.2241 10.46 70.2108 10.8267 70.1841 11.08H61.1241C61.1641 11.9067 61.3641 12.6133 61.7241 13.2C62.0841 13.7867 62.5575 14.2333 63.1441 14.54C63.7308 14.8333 64.3708 14.98 65.0641 14.98C65.9708 14.98 66.7308 14.76 67.3441 14.32C67.9708 13.88 68.3841 13.2867 68.5841 12.54H70.0641C69.7975 13.6067 69.2241 14.48 68.3441 15.16C67.4775 15.8267 66.3841 16.16 65.0641 16.16C64.0375 16.16 63.1175 15.9333 62.3041 15.48C61.4908 15.0133 60.8508 14.36 60.3841 13.52C59.9308 12.6667 59.7041 11.6733 59.7041 10.54C59.7041 9.40667 59.9308 8.41333 60.3841 7.56C60.8375 6.70667 61.4708 6.05333 62.2841 5.6C63.0975 5.14667 64.0241 4.92 65.0641 4.92C66.1041 4.92 67.0108 5.14667 67.7841 5.6C68.5708 6.05333 69.1708 6.66667 69.5841 7.44C70.0108 8.2 70.2241 9.04667 70.2241 9.98ZM68.8041 9.94C68.8175 9.12667 68.6508 8.43333 68.3041 7.86C67.9708 7.28667 67.5108 6.85333 66.9241 6.56C66.3375 6.26667 65.6975 6.12 65.0041 6.12C63.9641 6.12 63.0775 6.45333 62.3441 7.12C61.6108 7.78667 61.2041 8.72667 61.1241 9.94H68.8041ZM74.1855 7.02C74.4922 6.34 74.9589 5.81333 75.5855 5.44C76.2255 5.06667 77.0055 4.88 77.9255 4.88V6.34H77.5455C76.5322 6.34 75.7189 6.61333 75.1055 7.16C74.4922 7.70667 74.1855 8.62 74.1855 9.9V16H72.7855V5.08H74.1855V7.02ZM86.2199 3.02C85.9399 3.02 85.6999 2.92 85.4999 2.72C85.2999 2.52 85.1999 2.27333 85.1999 1.98C85.1999 1.68667 85.2999 1.44667 85.4999 1.26C85.6999 1.06 85.9399 0.959999 86.2199 0.959999C86.4999 0.959999 86.7399 1.06 86.9399 1.26C87.1399 1.44667 87.2399 1.68667 87.2399 1.98C87.2399 2.27333 87.1399 2.52 86.9399 2.72C86.7399 2.92 86.4999 3.02 86.2199 3.02ZM86.9199 5.08V16H85.5199V5.08H86.9199ZM95.2102 4.88C96.5169 4.88 97.5836 5.28667 98.4102 6.1C99.2369 6.9 99.6502 8.06667 99.6502 9.6V16H98.2702V9.76C98.2702 8.57333 97.9702 7.66667 97.3702 7.04C96.7836 6.41333 95.9769 6.1 94.9502 6.1C93.8969 6.1 93.0569 6.43333 92.4302 7.1C91.8036 7.76667 91.4902 8.74667 91.4902 10.04V16H90.0902V5.08H91.4902V6.94C91.8369 6.27333 92.3369 5.76667 92.9902 5.42C93.6436 5.06 94.3836 4.88 95.2102 4.88ZM109.635 1.2V16H108.235V1.2H109.635ZM122.685 9.98C122.685 10.46 122.672 10.8267 122.645 11.08H113.585C113.625 11.9067 113.825 12.6133 114.185 13.2C114.545 13.7867 115.018 14.2333 115.605 14.54C116.192 14.8333 116.832 14.98 117.525 14.98C118.432 14.98 119.192 14.76 119.805 14.32C120.432 13.88 120.845 13.2867 121.045 12.54H122.525C122.258 13.6067 121.685 14.48 120.805 15.16C119.938 15.8267 118.845 16.16 117.525 16.16C116.498 16.16 115.578 15.9333 114.765 15.48C113.952 15.0133 113.312 14.36 112.845 13.52C112.392 12.6667 112.165 11.6733 112.165 10.54C112.165 9.40667 112.392 8.41333 112.845 7.56C113.298 6.70667 113.932 6.05333 114.745 5.6C115.558 5.14667 116.485 4.92 117.525 4.92C118.565 4.92 119.472 5.14667 120.245 5.6C121.032 6.05333 121.632 6.66667 122.045 7.44C122.472 8.2 122.685 9.04667 122.685 9.98ZM121.265 9.94C121.278 9.12667 121.112 8.43333 120.765 7.86C120.432 7.28667 119.972 6.85333 119.385 6.56C118.798 6.26667 118.158 6.12 117.465 6.12C116.425 6.12 115.538 6.45333 114.805 7.12C114.072 7.78667 113.665 8.72667 113.585 9.94H121.265ZM129.006 16.16C127.753 16.16 126.726 15.8733 125.926 15.3C125.14 14.7133 124.7 13.92 124.606 12.92H126.046C126.113 13.5333 126.4 14.0333 126.906 14.42C127.426 14.7933 128.12 14.98 128.986 14.98C129.746 14.98 130.34 14.8 130.766 14.44C131.206 14.08 131.426 13.6333 131.426 13.1C131.426 12.7267 131.306 12.42 131.066 12.18C130.826 11.94 130.52 11.7533 130.146 11.62C129.786 11.4733 129.293 11.32 128.666 11.16C127.853 10.9467 127.193 10.7333 126.686 10.52C126.18 10.3067 125.746 9.99333 125.386 9.58C125.04 9.15333 124.866 8.58667 124.866 7.88C124.866 7.34667 125.026 6.85333 125.346 6.4C125.666 5.94667 126.12 5.58667 126.706 5.32C127.293 5.05333 127.96 4.92 128.706 4.92C129.88 4.92 130.826 5.22 131.546 5.82C132.266 6.40667 132.653 7.22 132.706 8.26H131.306C131.266 7.62 131.013 7.10667 130.546 6.72C130.093 6.32 129.466 6.12 128.666 6.12C127.96 6.12 127.386 6.28667 126.946 6.62C126.506 6.95333 126.286 7.36667 126.286 7.86C126.286 8.28667 126.413 8.64 126.666 8.92C126.933 9.18667 127.26 9.4 127.646 9.56C128.033 9.70667 128.553 9.87333 129.206 10.06C129.993 10.2733 130.62 10.48 131.086 10.68C131.553 10.88 131.953 11.1733 132.286 11.56C132.62 11.9467 132.793 12.46 132.806 13.1C132.806 13.6867 132.646 14.2133 132.326 14.68C132.006 15.1333 131.56 15.4933 130.986 15.76C130.413 16.0267 129.753 16.16 129.006 16.16ZM139.202 16.16C137.948 16.16 136.922 15.8733 136.122 15.3C135.335 14.7133 134.895 13.92 134.802 12.92H136.242C136.308 13.5333 136.595 14.0333 137.102 14.42C137.622 14.7933 138.315 14.98 139.182 14.98C139.942 14.98 140.535 14.8 140.962 14.44C141.402 14.08 141.622 13.6333 141.622 13.1C141.622 12.7267 141.502 12.42 141.262 12.18C141.022 11.94 140.715 11.7533 140.342 11.62C139.982 11.4733 139.488 11.32 138.862 11.16C138.048 10.9467 137.388 10.7333 136.882 10.52C136.375 10.3067 135.942 9.99333 135.582 9.58C135.235 9.15333 135.062 8.58667 135.062 7.88C135.062 7.34667 135.222 6.85333 135.542 6.4C135.862 5.94667 136.315 5.58667 136.902 5.32C137.488 5.05333 138.155 4.92 138.902 4.92C140.075 4.92 141.022 5.22 141.742 5.82C142.462 6.40667 142.848 7.22 142.902 8.26H141.502C141.462 7.62 141.208 7.10667 140.742 6.72C140.288 6.32 139.662 6.12 138.862 6.12C138.155 6.12 137.582 6.28667 137.142 6.62C136.702 6.95333 136.482 7.36667 136.482 7.86C136.482 8.28667 136.608 8.64 136.862 8.92C137.128 9.18667 137.455 9.4 137.842 9.56C138.228 9.70667 138.748 9.87333 139.402 10.06C140.188 10.2733 140.815 10.48 141.282 10.68C141.748 10.88 142.148 11.1733 142.482 11.56C142.815 11.9467 142.988 12.46 143.002 13.1C143.002 13.6867 142.842 14.2133 142.522 14.68C142.202 15.1333 141.755 15.4933 141.182 15.76C140.608 16.0267 139.948 16.16 139.202 16.16ZM152.945 6.26V13.04C152.945 13.7067 153.072 14.1667 153.325 14.42C153.579 14.6733 154.025 14.8 154.665 14.8H155.945V16H154.445C153.459 16 152.725 15.7733 152.245 15.32C151.765 14.8533 151.525 14.0933 151.525 13.04V6.26H150.005V5.08H151.525V2.34H152.945V5.08H155.945V6.26H152.945ZM163.454 4.88C164.281 4.88 165.021 5.05333 165.674 5.4C166.341 5.74667 166.861 6.28 167.234 7C167.621 7.70667 167.814 8.57333 167.814 9.6V16H166.434V9.76C166.434 8.57333 166.134 7.66667 165.534 7.04C164.948 6.41333 164.141 6.1 163.114 6.1C162.061 6.1 161.221 6.43333 160.594 7.1C159.968 7.76667 159.654 8.74667 159.654 10.04V16H158.254V1.2H159.654V6.94C160.001 6.28667 160.508 5.78 161.174 5.42C161.854 5.06 162.614 4.88 163.454 4.88ZM170.271 10.52C170.271 9.4 170.491 8.42 170.931 7.58C171.384 6.72667 172.004 6.07333 172.791 5.62C173.591 5.15333 174.491 4.92 175.491 4.92C176.531 4.92 177.424 5.16 178.171 5.64C178.931 6.12 179.477 6.73333 179.811 7.48V5.08H181.211V16H179.811V13.58C179.464 14.3267 178.911 14.9467 178.151 15.44C177.404 15.92 176.511 16.16 175.471 16.16C174.484 16.16 173.591 15.9267 172.791 15.46C172.004 14.9933 171.384 14.3333 170.931 13.48C170.491 12.6267 170.271 11.64 170.271 10.52ZM179.811 10.54C179.811 9.66 179.631 8.88667 179.271 8.22C178.911 7.55333 178.417 7.04 177.791 6.68C177.177 6.32 176.497 6.14 175.751 6.14C174.977 6.14 174.284 6.31333 173.671 6.66C173.057 7.00667 172.571 7.51333 172.211 8.18C171.864 8.83333 171.691 9.61333 171.691 10.52C171.691 11.4133 171.864 12.2 172.211 12.88C172.571 13.5467 173.057 14.06 173.671 14.42C174.284 14.7667 174.977 14.94 175.751 14.94C176.497 14.94 177.177 14.76 177.791 14.4C178.417 14.04 178.911 13.5267 179.271 12.86C179.631 12.1933 179.811 11.42 179.811 10.54ZM189.527 4.88C190.833 4.88 191.9 5.28667 192.727 6.1C193.553 6.9 193.967 8.06667 193.967 9.6V16H192.587V9.76C192.587 8.57333 192.287 7.66667 191.687 7.04C191.1 6.41333 190.293 6.1 189.267 6.1C188.213 6.1 187.373 6.43333 186.747 7.1C186.12 7.76667 185.807 8.74667 185.807 10.04V16H184.407V5.08H185.807V6.94C186.153 6.27333 186.653 5.76667 187.307 5.42C187.96 5.06 188.7 4.88 189.527 4.88ZM211.291 2.86H203.971V7.98C204.305 7.51333 204.791 7.13333 205.431 6.84C206.071 6.53333 206.765 6.38 207.511 6.38C208.605 6.38 209.498 6.60667 210.191 7.06C210.885 7.5 211.385 8.08 211.691 8.8C211.998 9.50667 212.151 10.2667 212.151 11.08C212.151 12.0133 211.971 12.86 211.611 13.62C211.265 14.3667 210.725 14.96 209.991 15.4C209.271 15.84 208.371 16.06 207.291 16.06C205.918 16.06 204.805 15.7067 203.951 15C203.098 14.28 202.578 13.3133 202.391 12.1H203.771C203.945 12.98 204.345 13.66 204.971 14.14C205.598 14.62 206.371 14.86 207.291 14.86C208.451 14.86 209.325 14.52 209.911 13.84C210.511 13.1467 210.811 12.2333 210.811 11.1C210.811 9.99333 210.511 9.13333 209.911 8.52C209.311 7.89333 208.451 7.58 207.331 7.58C206.558 7.58 205.878 7.76 205.291 8.12C204.705 8.48 204.271 8.96667 203.991 9.58H202.671V1.64H211.291V2.86ZM233.383 4.88C234.663 4.88 235.703 5.28667 236.503 6.1C237.317 6.9 237.723 8.06667 237.723 9.6V16H236.343V9.76C236.343 8.57333 236.057 7.66667 235.483 7.04C234.91 6.41333 234.13 6.1 233.143 6.1C232.117 6.1 231.297 6.44 230.683 7.12C230.07 7.8 229.763 8.78667 229.763 10.08V16H228.383V9.76C228.383 8.57333 228.097 7.66667 227.523 7.04C226.95 6.41333 226.163 6.1 225.163 6.1C224.137 6.1 223.317 6.44 222.703 7.12C222.09 7.8 221.783 8.78667 221.783 10.08V16H220.383V5.08H221.783V6.96C222.13 6.28 222.623 5.76667 223.263 5.42C223.903 5.06 224.617 4.88 225.403 4.88C226.35 4.88 227.177 5.10667 227.883 5.56C228.603 6.01333 229.123 6.68 229.443 7.56C229.737 6.69333 230.237 6.03333 230.943 5.58C231.663 5.11333 232.477 4.88 233.383 4.88ZM241.532 3.02C241.252 3.02 241.012 2.92 240.812 2.72C240.612 2.52 240.512 2.27333 240.512 1.98C240.512 1.68667 240.612 1.44667 240.812 1.26C241.012 1.06 241.252 0.959999 241.532 0.959999C241.812 0.959999 242.052 1.06 242.252 1.26C242.452 1.44667 242.552 1.68667 242.552 1.98C242.552 2.27333 242.452 2.52 242.252 2.72C242.052 2.92 241.812 3.02 241.532 3.02ZM242.232 5.08V16H240.832V5.08H242.232ZM250.523 4.88C251.829 4.88 252.896 5.28667 253.723 6.1C254.549 6.9 254.963 8.06667 254.963 9.6V16H253.583V9.76C253.583 8.57333 253.283 7.66667 252.683 7.04C252.096 6.41333 251.289 6.1 250.263 6.1C249.209 6.1 248.369 6.43333 247.743 7.1C247.116 7.76667 246.803 8.74667 246.803 10.04V16H245.403V5.08H246.803V6.94C247.149 6.27333 247.649 5.76667 248.303 5.42C248.956 5.06 249.696 4.88 250.523 4.88ZM267.519 5.08V16H266.119V14.08C265.799 14.76 265.306 15.28 264.639 15.64C263.972 16 263.226 16.18 262.399 16.18C261.092 16.18 260.026 15.78 259.199 14.98C258.372 14.1667 257.959 12.9933 257.959 11.46V5.08H259.339V11.3C259.339 12.4867 259.632 13.3933 260.219 14.02C260.819 14.6467 261.632 14.96 262.659 14.96C263.712 14.96 264.552 14.6267 265.179 13.96C265.806 13.2933 266.119 12.3133 266.119 11.02V5.08H267.519ZM272.535 6.26V13.04C272.535 13.7067 272.662 14.1667 272.915 14.42C273.169 14.6733 273.615 14.8 274.255 14.8H275.535V16H274.035C273.049 16 272.315 15.7733 271.835 15.32C271.355 14.8533 271.115 14.0933 271.115 13.04V6.26H269.595V5.08H271.115V2.34H272.535V5.08H275.535V6.26H272.535ZM287.724 9.98C287.724 10.46 287.711 10.8267 287.684 11.08H278.624C278.664 11.9067 278.864 12.6133 279.224 13.2C279.584 13.7867 280.057 14.2333 280.644 14.54C281.231 14.8333 281.871 14.98 282.564 14.98C283.471 14.98 284.231 14.76 284.844 14.32C285.471 13.88 285.884 13.2867 286.084 12.54H287.564C287.297 13.6067 286.724 14.48 285.844 15.16C284.977 15.8267 283.884 16.16 282.564 16.16C281.537 16.16 280.617 15.9333 279.804 15.48C278.991 15.0133 278.351 14.36 277.884 13.52C277.431 12.6667 277.204 11.6733 277.204 10.54C277.204 9.40667 277.431 8.41333 277.884 7.56C278.337 6.70667 278.971 6.05333 279.784 5.6C280.597 5.14667 281.524 4.92 282.564 4.92C283.604 4.92 284.511 5.14667 285.284 5.6C286.071 6.05333 286.671 6.66667 287.084 7.44C287.511 8.2 287.724 9.04667 287.724 9.98ZM286.304 9.94C286.317 9.12667 286.151 8.43333 285.804 7.86C285.471 7.28667 285.011 6.85333 284.424 6.56C283.837 6.26667 283.197 6.12 282.504 6.12C281.464 6.12 280.577 6.45333 279.844 7.12C279.111 7.78667 278.704 8.72667 278.624 9.94H286.304ZM294.046 16.16C292.792 16.16 291.766 15.8733 290.966 15.3C290.179 14.7133 289.739 13.92 289.646 12.92H291.086C291.152 13.5333 291.439 14.0333 291.946 14.42C292.466 14.7933 293.159 14.98 294.026 14.98C294.786 14.98 295.379 14.8 295.806 14.44C296.246 14.08 296.466 13.6333 296.466 13.1C296.466 12.7267 296.346 12.42 296.106 12.18C295.866 11.94 295.559 11.7533 295.186 11.62C294.826 11.4733 294.332 11.32 293.706 11.16C292.892 10.9467 292.232 10.7333 291.726 10.52C291.219 10.3067 290.786 9.99333 290.426 9.58C290.079 9.15333 289.906 8.58667 289.906 7.88C289.906 7.34667 290.066 6.85333 290.386 6.4C290.706 5.94667 291.159 5.58667 291.746 5.32C292.332 5.05333 292.999 4.92 293.746 4.92C294.919 4.92 295.866 5.22 296.586 5.82C297.306 6.40667 297.692 7.22 297.746 8.26H296.346C296.306 7.62 296.052 7.10667 295.586 6.72C295.132 6.32 294.506 6.12 293.706 6.12C292.999 6.12 292.426 6.28667 291.986 6.62C291.546 6.95333 291.326 7.36667 291.326 7.86C291.326 8.28667 291.452 8.64 291.706 8.92C291.972 9.18667 292.299 9.4 292.686 9.56C293.072 9.70667 293.592 9.87333 294.246 10.06C295.032 10.2733 295.659 10.48 296.126 10.68C296.592 10.88 296.992 11.1733 297.326 11.56C297.659 11.9467 297.832 12.46 297.846 13.1C297.846 13.6867 297.686 14.2133 297.366 14.68C297.046 15.1333 296.599 15.4933 296.026 15.76C295.452 16.0267 294.792 16.16 294.046 16.16ZM301.761 13.68L299.681 18.92H298.721L300.201 13.68H301.761ZM72.3648 32.02V46H70.9648V39.46H63.3848V46H61.9848V32.02H63.3848V38.3H70.9648V32.02H72.3648ZM74.919 40.52C74.919 39.4 75.139 38.42 75.579 37.58C76.0323 36.7267 76.6523 36.0733 77.439 35.62C78.239 35.1533 79.139 34.92 80.139 34.92C81.179 34.92 82.0723 35.16 82.819 35.64C83.579 36.12 84.1257 36.7333 84.459 37.48V35.08H85.859V46H84.459V43.58C84.1123 44.3267 83.559 44.9467 82.799 45.44C82.0523 45.92 81.159 46.16 80.119 46.16C79.1323 46.16 78.239 45.9267 77.439 45.46C76.6523 44.9933 76.0323 44.3333 75.579 43.48C75.139 42.6267 74.919 41.64 74.919 40.52ZM84.459 40.54C84.459 39.66 84.279 38.8867 83.919 38.22C83.559 37.5533 83.0657 37.04 82.439 36.68C81.8257 36.32 81.1457 36.14 80.399 36.14C79.6257 36.14 78.9323 36.3133 78.319 36.66C77.7057 37.0067 77.219 37.5133 76.859 38.18C76.5123 38.8333 76.339 39.6133 76.339 40.52C76.339 41.4133 76.5123 42.2 76.859 42.88C77.219 43.5467 77.7057 44.06 78.319 44.42C78.9323 44.7667 79.6257 44.94 80.399 44.94C81.1457 44.94 81.8257 44.76 82.439 44.4C83.0657 44.04 83.559 43.5267 83.919 42.86C84.279 42.1933 84.459 41.42 84.459 40.54ZM92.9351 44.64L96.6151 35.08H98.0951L93.7151 46H92.1351L87.7551 35.08H89.2551L92.9351 44.64ZM109.873 39.98C109.873 40.46 109.859 40.8267 109.833 41.08H100.773C100.813 41.9067 101.013 42.6133 101.373 43.2C101.733 43.7867 102.206 44.2333 102.793 44.54C103.379 44.8333 104.019 44.98 104.713 44.98C105.619 44.98 106.379 44.76 106.993 44.32C107.619 43.88 108.033 43.2867 108.233 42.54H109.713C109.446 43.6067 108.873 44.48 107.993 45.16C107.126 45.8267 106.033 46.16 104.713 46.16C103.686 46.16 102.766 45.9333 101.953 45.48C101.139 45.0133 100.499 44.36 100.033 43.52C99.5792 42.6667 99.3526 41.6733 99.3526 40.54C99.3526 39.4067 99.5792 38.4133 100.033 37.56C100.486 36.7067 101.119 36.0533 101.933 35.6C102.746 35.1467 103.673 34.92 104.713 34.92C105.753 34.92 106.659 35.1467 107.433 35.6C108.219 36.0533 108.819 36.6667 109.233 37.44C109.659 38.2 109.873 39.0467 109.873 39.98ZM108.453 39.94C108.466 39.1267 108.299 38.4333 107.953 37.86C107.619 37.2867 107.159 36.8533 106.573 36.56C105.986 36.2667 105.346 36.12 104.653 36.12C103.613 36.12 102.726 36.4533 101.993 37.12C101.259 37.7867 100.853 38.7267 100.773 39.94H108.453ZM123.122 34.88C123.949 34.88 124.689 35.0533 125.342 35.4C126.009 35.7467 126.529 36.28 126.902 37C127.289 37.7067 127.482 38.5733 127.482 39.6V46H126.102V39.76C126.102 38.5733 125.802 37.6667 125.202 37.04C124.616 36.4133 123.809 36.1 122.782 36.1C121.729 36.1 120.889 36.4333 120.262 37.1C119.636 37.7667 119.322 38.7467 119.322 40.04V46H117.922V31.2H119.322V36.94C119.669 36.2867 120.176 35.78 120.842 35.42C121.522 35.06 122.282 34.88 123.122 34.88ZM140.459 39.98C140.459 40.46 140.445 40.8267 140.419 41.08H131.359C131.399 41.9067 131.599 42.6133 131.959 43.2C132.319 43.7867 132.792 44.2333 133.379 44.54C133.965 44.8333 134.605 44.98 135.299 44.98C136.205 44.98 136.965 44.76 137.579 44.32C138.205 43.88 138.619 43.2867 138.819 42.54H140.299C140.032 43.6067 139.459 44.48 138.579 45.16C137.712 45.8267 136.619 46.16 135.299 46.16C134.272 46.16 133.352 45.9333 132.539 45.48C131.725 45.0133 131.085 44.36 130.619 43.52C130.165 42.6667 129.939 41.6733 129.939 40.54C129.939 39.4067 130.165 38.4133 130.619 37.56C131.072 36.7067 131.705 36.0533 132.519 35.6C133.332 35.1467 134.259 34.92 135.299 34.92C136.339 34.92 137.245 35.1467 138.019 35.6C138.805 36.0533 139.405 36.6667 139.819 37.44C140.245 38.2 140.459 39.0467 140.459 39.98ZM139.039 39.94C139.052 39.1267 138.885 38.4333 138.539 37.86C138.205 37.2867 137.745 36.8533 137.159 36.56C136.572 36.2667 135.932 36.12 135.239 36.12C134.199 36.12 133.312 36.4533 132.579 37.12C131.845 37.7867 131.439 38.7267 131.359 39.94H139.039ZM144.42 31.2V46H143.02V31.2H144.42ZM148.97 37.48C149.317 36.7467 149.864 36.14 150.61 35.66C151.37 35.1667 152.27 34.92 153.31 34.92C154.297 34.92 155.184 35.1533 155.97 35.62C156.77 36.0733 157.39 36.7267 157.83 37.58C158.284 38.42 158.51 39.4 158.51 40.52C158.51 41.64 158.284 42.6267 157.83 43.48C157.39 44.3333 156.77 44.9933 155.97 45.46C155.184 45.9267 154.297 46.16 153.31 46.16C152.284 46.16 151.39 45.92 150.63 45.44C149.87 44.9467 149.317 44.3333 148.97 43.6V51.16H147.59V35.08H148.97V37.48ZM157.09 40.52C157.09 39.6133 156.91 38.8333 156.55 38.18C156.204 37.5133 155.724 37.0067 155.11 36.66C154.497 36.3133 153.804 36.14 153.03 36.14C152.284 36.14 151.597 36.32 150.97 36.68C150.357 37.04 149.87 37.5533 149.51 38.22C149.15 38.8867 148.97 39.66 148.97 40.54C148.97 41.42 149.15 42.1933 149.51 42.86C149.87 43.5267 150.357 44.04 150.97 44.4C151.597 44.76 152.284 44.94 153.03 44.94C153.804 44.94 154.497 44.7667 155.11 44.42C155.724 44.06 156.204 43.5467 156.55 42.88C156.91 42.2 157.09 41.4133 157.09 40.52ZM165.935 40.52C165.935 39.4 166.155 38.42 166.595 37.58C167.048 36.7267 167.668 36.0733 168.455 35.62C169.255 35.1533 170.155 34.92 171.155 34.92C172.195 34.92 173.088 35.16 173.835 35.64C174.595 36.12 175.141 36.7333 175.475 37.48V35.08H176.875V46H175.475V43.58C175.128 44.3267 174.575 44.9467 173.815 45.44C173.068 45.92 172.175 46.16 171.135 46.16C170.148 46.16 169.255 45.9267 168.455 45.46C167.668 44.9933 167.048 44.3333 166.595 43.48C166.155 42.6267 165.935 41.64 165.935 40.52ZM175.475 40.54C175.475 39.66 175.295 38.8867 174.935 38.22C174.575 37.5533 174.081 37.04 173.455 36.68C172.841 36.32 172.161 36.14 171.415 36.14C170.641 36.14 169.948 36.3133 169.335 36.66C168.721 37.0067 168.235 37.5133 167.875 38.18C167.528 38.8333 167.355 39.6133 167.355 40.52C167.355 41.4133 167.528 42.2 167.875 42.88C168.235 43.5467 168.721 44.06 169.335 44.42C169.948 44.7667 170.641 44.94 171.415 44.94C172.161 44.94 172.841 44.76 173.455 44.4C174.081 44.04 174.575 43.5267 174.935 42.86C175.295 42.1933 175.475 41.42 175.475 40.54ZM185.191 34.88C186.497 34.88 187.564 35.2867 188.391 36.1C189.217 36.9 189.631 38.0667 189.631 39.6V46H188.251V39.76C188.251 38.5733 187.951 37.6667 187.351 37.04C186.764 36.4133 185.957 36.1 184.931 36.1C183.877 36.1 183.037 36.4333 182.411 37.1C181.784 37.7667 181.471 38.7467 181.471 40.04V46H180.071V35.08H181.471V36.94C181.817 36.2733 182.317 35.7667 182.971 35.42C183.624 35.06 184.364 34.88 185.191 34.88ZM201.727 35.08L195.247 51.14H193.787L195.907 45.94L191.427 35.08H192.967L196.687 44.4L200.287 35.08H201.727ZM205.445 36.26V43.04C205.445 43.7067 205.572 44.1667 205.825 44.42C206.079 44.6733 206.525 44.8 207.165 44.8H208.445V46H206.945C205.959 46 205.225 45.7733 204.745 45.32C204.265 44.8533 204.025 44.0933 204.025 43.04V36.26H202.505V35.08H204.025V32.34H205.445V35.08H208.445V36.26H205.445ZM211.454 33.02C211.174 33.02 210.934 32.92 210.734 32.72C210.534 32.52 210.434 32.2733 210.434 31.98C210.434 31.6867 210.534 31.4467 210.734 31.26C210.934 31.06 211.174 30.96 211.454 30.96C211.734 30.96 211.974 31.06 212.174 31.26C212.374 31.4467 212.474 31.6867 212.474 31.98C212.474 32.2733 212.374 32.52 212.174 32.72C211.974 32.92 211.734 33.02 211.454 33.02ZM212.154 35.08V46H210.754V35.08H212.154ZM228.325 34.88C229.605 34.88 230.645 35.2867 231.445 36.1C232.258 36.9 232.665 38.0667 232.665 39.6V46H231.285V39.76C231.285 38.5733 230.998 37.6667 230.425 37.04C229.851 36.4133 229.071 36.1 228.085 36.1C227.058 36.1 226.238 36.44 225.625 37.12C225.011 37.8 224.705 38.7867 224.705 40.08V46H223.325V39.76C223.325 38.5733 223.038 37.6667 222.465 37.04C221.891 36.4133 221.105 36.1 220.105 36.1C219.078 36.1 218.258 36.44 217.645 37.12C217.031 37.8 216.725 38.7867 216.725 40.08V46H215.325V35.08H216.725V36.96C217.071 36.28 217.565 35.7667 218.205 35.42C218.845 35.06 219.558 34.88 220.345 34.88C221.291 34.88 222.118 35.1067 222.825 35.56C223.545 36.0133 224.065 36.68 224.385 37.56C224.678 36.6933 225.178 36.0333 225.885 35.58C226.605 35.1133 227.418 34.88 228.325 34.88ZM245.654 39.98C245.654 40.46 245.64 40.8267 245.614 41.08H236.554C236.594 41.9067 236.794 42.6133 237.154 43.2C237.514 43.7867 237.987 44.2333 238.574 44.54C239.16 44.8333 239.8 44.98 240.494 44.98C241.4 44.98 242.16 44.76 242.774 44.32C243.4 43.88 243.814 43.2867 244.014 42.54H245.494C245.227 43.6067 244.654 44.48 243.774 45.16C242.907 45.8267 241.814 46.16 240.494 46.16C239.467 46.16 238.547 45.9333 237.734 45.48C236.92 45.0133 236.28 44.36 235.814 43.52C235.36 42.6667 235.134 41.6733 235.134 40.54C235.134 39.4067 235.36 38.4133 235.814 37.56C236.267 36.7067 236.9 36.0533 237.714 35.6C238.527 35.1467 239.454 34.92 240.494 34.92C241.534 34.92 242.44 35.1467 243.214 35.6C244 36.0533 244.6 36.6667 245.014 37.44C245.44 38.2 245.654 39.0467 245.654 39.98ZM244.234 39.94C244.247 39.1267 244.08 38.4333 243.734 37.86C243.4 37.2867 242.94 36.8533 242.354 36.56C241.767 36.2667 241.127 36.12 240.434 36.12C239.394 36.12 238.507 36.4533 237.774 37.12C237.04 37.7867 236.634 38.7267 236.554 39.94H244.234Z" fill="#1C023B"/>
</svg>
